<?xml version="1.0" standalone="no"?>
<!DOCTYPE svg PUBLIC "-//W3C//DTD SVG 1.1//EN" "http://www.w3.org/Graphics/SVG/1.1/DTD/svg11.dtd" >
<svg xmlns="http://www.w3.org/2000/svg">
<metadata></metadata>
<defs>
<font id="americansansregular" horiz-adv-x="576" >
<font-face units-per-em="1000" ascent="750" descent="-250" />
<missing-glyph horiz-adv-x="230" />
<glyph unicode="ff" horiz-adv-x="619" d="M589 736q50 0 80 -11l-4 -45q0 -13 -10 -13q-2 0 -21.5 3.5t-39.5 3.5q-58 0 -85 -35t-27 -90v-55h135v-63h-135v-431h-74v431h-237v-431h-74v431h-87v63h87v52q0 90 49 140t133 50q49 0 79 -11l-4 -45q0 -13 -10 -13q-2 0 -21 3.5t-40 3.5q-58 0 -85 -35t-27 -90v-55 h237v52q0 90 49 140t132 50z" />
<glyph unicode="fi" horiz-adv-x="533" d="M171 494h282v-494h-74v431h-208v-431h-74v431h-87v63h87v52q0 92 48 141t137 49q57 0 124 -21l-4 -45q0 -14 -10 -14q-5 0 -39 9t-70 9q-56 0 -84 -34t-28 -91v-55z" />
<glyph unicode="fl" horiz-adv-x="543" d="M290 736q87 0 163 -19v-717h-74v663q-29 11 -85 11q-123 0 -123 -125v-55h113v-63h-113v-431h-74v431h-87v63h87v52q0 92 49 141t144 49z" />
<glyph unicode="ffi" horiz-adv-x="848" d="M486 494h282v-494h-74v431h-208v-431h-74v431h-237v-431h-74v431h-86v63h86v52q0 90 49.5 140t132.5 50q49 0 79 -11l-3 -45q-1 -13 -11 -13q-2 0 -21 3.5t-40 3.5q-58 0 -85 -35t-27 -90v-55h237v52q0 92 48 141t137 49q57 0 124 -21l-4 -45q0 -14 -10 -14q-5 0 -39 9 t-70 9q-56 0 -84 -34t-28 -91v-55z" />
<glyph unicode="ffl" horiz-adv-x="854" d="M596 736q102 0 168 -19v-717h-74v663q-26 11 -89 11t-91 -34.5t-28 -90.5v-55h113v-63h-113v-431h-74v431h-238v-431h-74v431h-86v63h86v52q0 90 49.5 140t132.5 50q49 0 79 -11l-3 -45q-1 -13 -11 -13q-2 0 -21 3.5t-40 3.5q-58 0 -85 -35t-27 -90v-55h238v52 q0 92 48.5 141t139.5 49z" />
<glyph unicode="&#xd;" horiz-adv-x="360" />
<glyph unicode=" "  horiz-adv-x="230" />
<glyph unicode="&#x09;" horiz-adv-x="230" />
<glyph unicode="&#xa0;" horiz-adv-x="230" />
<glyph unicode="!" horiz-adv-x="302" d="M115 198l-11 476h80l-11 -476h-58zM104 0v78h78v-78h-78z" />
<glyph unicode="&#x22;" horiz-adv-x="325" d="M186 674h79l-21 -180h-37zM81 494l-21 180h79l-21 -180h-37z" />
<glyph unicode="#" horiz-adv-x="622" d="M584 439h-123l-22 -202h117v-62h-123l-19 -175h-68l18 175h-143l-19 -175h-68l18 175h-115v62h121l22 202h-115v61h122l19 175h68l-19 -175h144l19 175h68l-18 -175h116v-61zM371 237l22 202h-144l-22 -202h144z" />
<glyph unicode="$" horiz-adv-x="551" d="M313 372q158 -66 158 -189q0 -63 -37.5 -111.5t-106.5 -68.5v-108h-77v96q-3 0 -8.5 -0.5t-8.5 -0.5q-95 0 -145 16l4 74q69 -23 134 -23q79 0 122.5 33t43.5 89q0 46 -31.5 74.5t-83.5 49.5l-64 27q-133 56 -133 174q0 68 43 114.5t127 60.5v84h77v-79q54 0 115 -14 l-6 -71q-48 18 -120 18q-73 0 -115.5 -28t-42.5 -82q0 -71 88 -107z" />
<glyph unicode="%" horiz-adv-x="847" d="M585 674l-403 -674h77l403 674h-77zM60 524q0 76 39.5 122.5t122.5 46.5q79 0 120 -45.5t41 -123.5q0 -75 -40 -121.5t-121 -46.5q-78 0 -120 44t-42 124zM222 642q-46 0 -69.5 -32t-23.5 -86q0 -56 24 -86.5t69 -30.5q44 0 68 31.5t24 85.5t-23.5 86t-68.5 32zM464 159 q0 76 39.5 122.5t122.5 46.5q79 0 120 -45.5t41 -123.5q0 -75 -40 -122t-121 -47q-78 0 -120 44t-42 125zM626 276q-46 0 -69.5 -31.5t-23.5 -86.5t24 -86t69 -31q44 0 68 31.5t24 85.5t-23.5 86t-68.5 32z" />
<glyph unicode="&#x26;" horiz-adv-x="726" d="M284 684q80 0 124 -36t44 -97q0 -19 -5.5 -37t-16.5 -33.5t-21 -28t-27.5 -26t-26.5 -20t-26.5 -18t-20.5 -13.5q110 -129 202 -204q58 95 58 220h79q0 -78 -24.5 -149.5t-59.5 -114.5l111 -87l-60 -53q-75 63 -100 85l-8 -6q-7 -6 -13 -11t-19 -13.5t-25.5 -14.5 t-31.5 -13.5t-38 -12.5t-43.5 -8t-50.5 -3q-38 0 -74 11t-67 33t-49.5 60.5t-18.5 87.5q0 39 12.5 72.5t37 59t40.5 38.5t44 31q-25 30 -36 44t-26.5 47.5t-15.5 63.5q0 64 43.5 105t108.5 41zM374 547q0 27 -22 48.5t-62 21.5q-36 0 -59.5 -21.5t-23.5 -50.5 q0 -23 11.5 -48.5t21 -38t29.5 -38.5q61 40 81 63q24 30 24 64zM251 337q-1 -1 -15 -12t-25.5 -22.5t-25.5 -29t-22 -40t-8 -47.5q0 -58 42.5 -94t111.5 -36q89 0 155 59q-74 63 -213 222z" />
<glyph unicode="'" horiz-adv-x="198" d="M60 674h78l-20 -180h-38z" />
<glyph unicode="(" horiz-adv-x="365" d="M242 674h63q-44 -77 -79.5 -198.5t-35.5 -254.5q0 -132 35.5 -253t79.5 -199h-63q-52 80 -92 197t-40 255t40 255.5t92 197.5z" />
<glyph unicode=")" horiz-adv-x="365" d="M60 674h63q52 -80 92 -197.5t40 -255.5t-40 -255t-92 -197h-63q44 78 79.5 199t35.5 253q0 133 -35.5 254.5t-79.5 198.5z" />
<glyph unicode="*" horiz-adv-x="395" d="M335 554l-111 -25l77 -83l-47 -33l-57 99l-56 -99l-46 33l76 86l-111 22l18 54l105 -46l-14 112h57l-11 -113l103 47z" />
<glyph unicode="+" horiz-adv-x="672" d="M378 333h214v-62h-214v-216h-77v216h-221v62h221v216h77v-216z" />
<glyph unicode="," horiz-adv-x="206" d="M68 0v78h78v-78q0 -32 -23.5 -59.5t-49.5 -39.5l-13 18q46 31 46 81h-38z" />
<glyph unicode="-" horiz-adv-x="401" d="M321 211h-241v62h241v-62z" />
<glyph unicode="." horiz-adv-x="198" d="M60 0v78h78v-78h-78z" />
<glyph unicode="/" horiz-adv-x="402" d="M100 0h-72l257 674h72z" />
<glyph unicode="0" horiz-adv-x="622" d="M311 -10q-64 0 -113 27.5t-78.5 75.5t-44.5 109.5t-15 134.5q0 68 14 127.5t42 110t78.5 80t116.5 29.5q123 0 187 -98.5t64 -248.5q0 -154 -65 -250.5t-186 -96.5zM483 337q0 128 -42 204t-131 76q-38 0 -68 -14.5t-48 -40t-30 -54t-17.5 -62.5t-7.5 -58.5t-2 -50.5 q0 -134 44.5 -207t128.5 -73q88 0 130.5 76t42.5 204z" />
<glyph unicode="1" horiz-adv-x="351" d="M241 0h-76v592q-68 -36 -154 -46l-11 55q53 6 101 30t68 53h72v-684z" />
<glyph unicode="2" horiz-adv-x="440" d="M16 67q150 161 172 186q75 89 99.5 131t24.5 99q0 55 -38.5 94.5t-104.5 39.5q-71 0 -131 -40l-28 63l6 4q5 3 12 6.5t17.5 8t23.5 9t28 8.5t34 6t38 2q106 0 164.5 -59.5t58.5 -139.5q0 -62 -31.5 -118t-93.5 -130l-152 -173h285v-64h-384v67z" />
<glyph unicode="3" horiz-adv-x="420" d="M20 653q76 31 149 31q93 0 146.5 -50t53.5 -127q0 -107 -117 -157v-3q18 -3 38 -13t41 -28.5t35 -51.5t14 -74q0 -83 -70 -136.5t-182 -53.5q-62 0 -94 9l-6 66q42 -9 96 -9q84 0 130.5 37t46.5 94q0 52 -39.5 90t-116.5 38h-67v62h64q63 0 105.5 35t42.5 85q0 49 -34 84 t-104 35q-61 0 -113 -29z" />
<glyph unicode="4" horiz-adv-x="572" d="M343 248v353h-4l-234 -353h238zM343 186h-294l-19 70l280 418h109v-426h123v-62h-123v-186h-76v186z" />
<glyph unicode="5" horiz-adv-x="503" d="M177 612v-208q20 5 59 5q98 0 157.5 -58t59.5 -145q0 -99 -69.5 -157.5t-203.5 -58.5q-60 0 -96 9l-4 69q37 -11 95 -11q89 0 144 36.5t55 114.5q0 61 -48.5 102t-140.5 41q-42 0 -85 -10v333h328v-62h-251z" />
<glyph unicode="6" horiz-adv-x="596" d="M144 209q0 -68 44.5 -109.5t111.5 -41.5q68 0 112 43t44 108q0 68 -44.5 110t-111.5 42q-66 0 -111 -41.5t-45 -110.5zM309 429q104 0 165.5 -58t61.5 -157q0 -22 -5 -47t-20 -58t-39.5 -58t-68.5 -43t-100 -18q-61 0 -106.5 19.5t-71 49t-41 70t-20 75.5t-4.5 73 q0 204 92 305.5t235 101.5q39 0 97 -9l-9 -69q-40 11 -94 11q-62 0 -110 -28t-72.5 -69.5t-36.5 -80.5t-12 -70l3 -1q54 61 156 61z" />
<glyph unicode="7" horiz-adv-x="407" d="M96 0q23 130 94 306.5t144 305.5h-334v62h407v-66q-73 -123 -135 -283t-97 -325h-79z" />
<glyph unicode="8" horiz-adv-x="530" d="M266 384q1 1 13.5 9t15.5 10.5t15 11t16.5 12.5t14.5 13t14.5 15t11.5 15t10 16.5t5.5 17t2.5 18.5q0 45 -34 70.5t-88 25.5t-89 -27t-35 -66q0 -46 30.5 -76t96.5 -65zM400 160q0 43 -33.5 78.5t-112.5 73.5q-125 -66 -125 -150q0 -46 41 -75.5t101 -29.5q56 0 92.5 31 t36.5 72zM50 162q0 107 132 185q-23 13 -38.5 24.5t-37.5 32t-34 47.5t-12 59q0 78 55.5 126t149.5 48q105 0 152 -45t47 -109q0 -55 -29 -97t-99 -82q72 -39 108 -80.5t36 -95.5q0 -78 -61 -131.5t-166 -53.5q-88 0 -145.5 45.5t-57.5 126.5z" />
<glyph unicode="9" horiz-adv-x="587" d="M443 465q0 68 -44.5 110t-111.5 42q-68 0 -112 -43t-44 -109q0 -68 44.5 -110t111.5 -42q66 0 111 42t45 110zM277 246q-103 0 -165 58t-62 156q0 22 5 47.5t20.5 58t40 58t68 43t100.5 17.5q61 0 106.5 -19.5t71 -49t41 -70t20 -75t4.5 -72.5q0 -105 -26 -185t-72 -128 t-103.5 -71.5t-125.5 -23.5q-55 0 -98 10l10 68q37 -11 93 -11q51 0 92.5 19t66.5 47t42.5 63t24 65t6.5 54l-3 2q-61 -61 -157 -61z" />
<glyph unicode=":" horiz-adv-x="198" d="M60 0v78h78v-78h-78zM60 302v78h78v-78h-78z" />
<glyph unicode=";" horiz-adv-x="206" d="M68 302v78h78v-78h-78zM68 0v78h78v-78q0 -32 -23.5 -59.5t-49.5 -39.5l-13 18q46 31 46 81h-38z" />
<glyph unicode="&#x3c;" horiz-adv-x="471" d="M411 472l-239 -226l238 -231l-54 -50l-296 282l296 278z" />
<glyph unicode="=" horiz-adv-x="674" d="M594 375h-514v61h514v-61zM594 232v-62h-514v62h514z" />
<glyph unicode="&#x3e;" horiz-adv-x="471" d="M299 246l-239 226l55 53l296 -278l-296 -282l-54 50z" />
<glyph unicode="?" horiz-adv-x="458" d="M80 595l9 69q55 20 134 20q94 0 144.5 -48t50.5 -113q0 -39 -15.5 -73.5t-28 -49t-42.5 -46.5q-28 -29 -40 -42.5t-24 -39.5t-12 -55v-20h-77v20q0 98 79 174q3 3 22 21.5t24 24.5t16.5 21.5t15 29.5t3.5 31q0 43 -37 70.5t-108 27.5q-59 0 -114 -22zM183 0v78h78v-78 h-78z" />
<glyph unicode="@" horiz-adv-x="897" d="M482 684q153 0 235 -81t82 -191q0 -108 -61 -172t-145 -64q-48 0 -71 21t-28 50h-3q-12 -24 -42 -47t-72 -23q-49 0 -83 32.5t-34 96.5q0 91 64.5 156.5t155.5 65.5q45 0 108 -19q-33 -178 -38 -205q-6 -36 -6 -45q0 -20 12 -33.5t35 -13.5q53 0 97 55t44 146 q0 106 -69.5 172t-181.5 66q-139 0 -238 -92t-99 -237q0 -122 80 -209.5t205 -87.5q75 0 159 42l-10 -53q-72 -24 -164 -24q-91 0 -165.5 35t-123 112.5t-48.5 185.5q0 80 35 149t92 114.5t129.5 71.5t148.5 26zM471 480q-51 0 -95 -50t-44 -127q0 -36 15.5 -56.5 t41.5 -20.5q42 0 67 33.5t34 84.5l25 128q-20 8 -44 8z" />
<glyph unicode="A" horiz-adv-x="604" d="M10 0l254 674h78l252 -674h-86l-59 165h-300l-60 -165h-79zM299 583h-4l-127 -356h259z" />
<glyph unicode="B" horiz-adv-x="578" d="M110 674h187q58 0 102 -16t68 -42.5t35 -55t11 -58.5q0 -35 -15 -64.5t-36.5 -46.5t-37.5 -25.5t-26 -11.5v-4q42 -8 86 -47.5t44 -110.5q0 -85 -61.5 -138.5t-180.5 -53.5h-176v674zM186 379h88q158 0 158 119q0 116 -158 116q-18 0 -39 -0.5t-34.5 -1t-14.5 -0.5v-233z M186 63q21 -4 88 -4q85 0 129 34t44 96q0 59 -42 94.5t-131 35.5h-88v-256z" />
<glyph unicode="C" horiz-adv-x="585" d="M555 655l-16 -71q-76 33 -152 33q-99 0 -167 -71t-68 -209q0 -122 61 -201t176 -79q64 0 150 33l16 -71q-87 -29 -158 -29q-155 0 -241 97t-86 250q0 55 12 105t38 94.5t63.5 77t92.5 51.5t121 19t158 -29z" />
<glyph unicode="D" horiz-adv-x="721" d="M110 674h207q156 0 245 -88.5t89 -248.5q0 -149 -84.5 -243t-249.5 -94h-207v674zM186 66q24 -4 118 -4q131 0 199 71t68 204q0 138 -70 207t-197 69q-90 0 -118 -5v-542z" />
<glyph unicode="E" horiz-adv-x="511" d="M110 674h339v-62h-263v-233h250v-62h-250v-255h265v-62h-341v674z" />
<glyph unicode="F" horiz-adv-x="497" d="M110 674h337v-62h-261v-233h247v-62h-247v-317h-76v674z" />
<glyph unicode="G" horiz-adv-x="711" d="M616 649l-20 -69q-1 0 -12.5 4.5t-26.5 9.5t-35.5 10t-47 8.5t-53.5 3.5q-132 0 -201.5 -77.5t-69.5 -201.5q0 -126 71 -203t200 -77q68 0 123 22v238h-132v62h209v-350q-89 -39 -204 -39q-162 0 -254.5 97t-92.5 250q0 146 89 246.5t258 100.5q125 0 199 -35z" />
<glyph unicode="H" horiz-adv-x="739" d="M553 674h76v-674h-76v317h-367v-317h-76v674h76v-295h367v295z" />
<glyph unicode="I" horiz-adv-x="296" d="M110 0v674h76v-674h-76z" />
<glyph unicode="J" horiz-adv-x="347" d="M161 155v519h76v-509q0 -83 -45.5 -129t-122.5 -46q-41 0 -68 9v70q20 -12 61 -12q99 0 99 98z" />
<glyph unicode="K" horiz-adv-x="572" d="M572 0h-106l-279 339v-339h-77v674h77v-321l265 321h91l-273 -326z" />
<glyph unicode="L" horiz-adv-x="436" d="M186 674v-612h250v-62h-326v674h76z" />
<glyph unicode="M" horiz-adv-x="902" d="M60 0l94 674h100l193 -569l195 569h99l101 -674h-81l-80 574h-3l-191 -574h-87l-189 574h-3l-69 -574h-79z" />
<glyph unicode="N" horiz-adv-x="748" d="M110 0v674h100l348 -551h5v551h75v-674h-104l-346 562h-4v-562h-74z" />
<glyph unicode="O" horiz-adv-x="755" d="M377 684q145 0 226.5 -95t81.5 -252q0 -156 -81.5 -251.5t-226.5 -95.5q-140 0 -223.5 92.5t-83.5 254.5q0 161 83 254t224 93zM152 337q0 -131 60.5 -205.5t164.5 -74.5t165 74.5t61 205.5q0 133 -61.5 206.5t-164.5 73.5q-102 0 -163.5 -73t-61.5 -207z" />
<glyph unicode="P" horiz-adv-x="564" d="M186 306q14 -3 64 -3q91 0 138 42.5t47 116.5q0 73 -48 114.5t-137 41.5q-19 0 -33.5 -0.5t-22 -1t-8.5 -0.5v-310zM267 247q-45 0 -81 4v-251h-76v674h165q113 0 176 -59t63 -149q0 -103 -65.5 -161t-181.5 -58z" />
<glyph unicode="Q" horiz-adv-x="755" d="M685 337q0 -129 -56.5 -218.5t-160.5 -116.5l34 -116h-75l-32 105q-2 0 -8 -0.5t-9 -0.5q-140 0 -224 92.5t-84 254.5q0 161 83 254t225 93q144 0 225.5 -95t81.5 -252zM448 68q73 23 114 93t41 176q0 133 -61.5 207t-163.5 74q-103 0 -164.5 -73.5t-61.5 -207.5 q0 -131 60 -205t164 -75l-35 118h76z" />
<glyph unicode="R" horiz-adv-x="598" d="M186 340q27 -3 91 -3q90 0 134 37.5t44 104.5q0 65 -45 101t-133 36q-76 0 -91 -3v-273zM474 0l-154 280h-134v-280h-76v674h184q114 0 177 -53t63 -144q0 -40 -12.5 -73t-28.5 -51t-38.5 -32t-33.5 -18.5t-23 -7.5l160 -295h-84z" />
<glyph unicode="S" horiz-adv-x="512" d="M423 670l-6 -71q-48 18 -121 18q-72 0 -114.5 -27.5t-42.5 -82.5q0 -72 87 -107l68 -28q158 -66 158 -189q0 -83 -62.5 -138t-175.5 -55q-93 0 -146 16l4 74q69 -23 134 -23q79 0 123 33t44 89q0 46 -31.5 74.5t-84.5 50.5l-63 26q-134 56 -134 174q0 82 61 131.5 t179 49.5q53 0 123 -15z" />
<glyph unicode="T" horiz-adv-x="482" d="M482 674v-62h-204v-612h-76v612h-202v62h482z" />
<glyph unicode="U" horiz-adv-x="734" d="M624 265q0 -126 -62 -200.5t-194 -74.5q-135 0 -196.5 76t-61.5 199v409h77v-409q0 -208 181 -208q180 0 180 208v409h76v-409z" />
<glyph unicode="V" horiz-adv-x="604" d="M10 674h88l203 -571h2l211 571h80l-253 -674h-85z" />
<glyph unicode="W" horiz-adv-x="917" d="M20 674h85l148 -574h2l159 574h96l163 -574h3l145 574h76l-177 -674h-98l-164 581h-2l-160 -581h-95z" />
<glyph unicode="X" horiz-adv-x="547" d="M18 674h93l161 -264l169 264h87l-212 -321l231 -353h-100l-181 288l-179 -288h-87l223 349z" />
<glyph unicode="Y" horiz-adv-x="502" d="M210 0v248l-210 426h84l170 -342l168 342h80l-215 -426v-248h-77z" />
<glyph unicode="Z" horiz-adv-x="529" d="M40 0v66l359 547h-351v61h437v-65l-353 -545h357v-64h-449z" />
<glyph unicode="[" horiz-adv-x="358" d="M318 674v-62h-141v-781h141v-62h-218v905h218z" />
<glyph unicode="\" horiz-adv-x="392" d="M28 674h74l263 -674h-77z" />
<glyph unicode="]" horiz-adv-x="358" d="M40 674h218v-905h-218v62h142v781h-142v62z" />
<glyph unicode="^" horiz-adv-x="460" d="M25 390l167 284h70l165 -284h-73l-130 236l-131 -236h-68z" />
<glyph unicode="_" horiz-adv-x="508" d="M-2 -177h512v-54h-512v54z" />
<glyph unicode="`" horiz-adv-x="228" d="M163 527l-120 147h85l80 -147h-45z" />
<glyph unicode="a" horiz-adv-x="515" d="M83 415q-2 34 -2 57q70 33 155 33q98 0 149 -48.5t51 -132.5v-197q0 -66 9 -127h-60q-18 0 -18 22l-3 50h-4q-56 -81 -165 -81q-69 0 -112 45.5t-43 114.5q0 56 37.5 93.5t92.5 52.5t123 15h69v19q0 42 -33 74.5t-99 32.5q-55 0 -120 -28q-15 -6 -18 -6t-5 1.5t-2.5 3 t-0.5 3.5zM362 251h-75q-91 0 -131 -29.5t-40 -69.5q0 -42 28 -68t76 -26q68 0 105 44.5t37 111.5v37z" />
<glyph unicode="b" horiz-adv-x="558" d="M304 438q-62 0 -101 -56t-39 -160v-156q21 -9 77 -9q80 0 135 58.5t55 156.5q0 65 -32.5 115.5t-94.5 50.5zM164 422h5q49 82 146 82q95 0 144 -69t49 -166q0 -117 -76 -198t-211 -81q-61 0 -131 19v708h74v-295z" />
<glyph unicode="c" horiz-adv-x="453" d="M292 504q76 0 130 -29q0 -29 -2 -53q0 -14 -9 -14q-3 0 -15 6q-48 24 -96 24q-79 0 -126 -55.5t-47 -135.5q0 -81 47 -136t122 -55q58 0 95 22q16 8 20 8q9 0 9 -11q1 -8 2 -30t1 -26q-66 -29 -132 -29q-112 0 -176.5 69.5t-64.5 187.5q0 114 62.5 185.5t179.5 71.5z" />
<glyph unicode="d" horiz-adv-x="564" d="M394 491v226h74v-566q0 -75 6 -151h-65q-13 0 -13 13l-1 62h-3q-4 -9 -13.5 -21t-26.5 -27.5t-43.5 -26t-56.5 -10.5q-67 0 -114.5 35.5t-67.5 85.5t-20 106q0 122 70.5 204.5t195.5 82.5q43 0 78 -13zM314 438q-84 0 -136 -59t-52 -151q0 -71 34 -121.5t94 -50.5 q59 0 99.5 57t40.5 158v154q-43 13 -80 13z" />
<glyph unicode="e" horiz-adv-x="535" d="M275 504q56 0 99 -19.5t66 -51.5t34 -67.5t11 -73.5q0 -56 -4 -72h-355q3 -64 48.5 -113.5t136.5 -49.5q62 0 115 24q3 1 6.5 3t6.5 3.5t5 1.5q9 0 9 -11q1 -7 3 -62q-82 -26 -153 -26q-126 0 -189.5 67.5t-63.5 188.5q0 118 60.5 188t164.5 70zM126 280h283v15 q0 54 -31.5 98.5t-103.5 44.5q-40 0 -70.5 -16.5t-46.5 -42t-23.5 -51t-7.5 -48.5z" />
<glyph unicode="f" horiz-adv-x="307" d="M278 736q49 0 79 -11l-3 -45q-1 -13 -11 -13q-1 0 -20.5 3.5t-40.5 3.5q-58 0 -85 -35t-27 -90v-55h136v-63h-136v-431h-74v431h-86v63h86v52q0 90 49.5 140t132.5 50z" />
<glyph unicode="g" horiz-adv-x="507" d="M254 504q51 0 91 -16h142q0 -12 -2 -40q-2 -19 -18 -19h-50q29 -42 29 -97q0 -86 -52.5 -131t-139.5 -45q-24 0 -69 10q-13 -3 -27 -15t-14 -30q0 -45 69 -45h89q90 0 136 -36.5t46 -101.5q0 -82 -67.5 -133.5t-180.5 -51.5q-97 0 -146.5 45.5t-49.5 110.5q0 34 17 61.5 t31.5 38.5t29.5 18q-18 8 -33.5 27t-15.5 48q0 58 67 85q-74 44 -74 145q0 77 49 124.5t143 47.5zM116 -83q0 -44 32 -69.5t96 -25.5q80 0 122 30.5t42 72.5q0 35 -28.5 59.5t-91.5 24.5h-66q-12 0 -22.5 0.5t-17 0.5h-7.5q-23 -10 -41 -34.5t-18 -58.5zM136 327 q0 -49 30 -80.5t88 -31.5q55 0 86 30t31 82q0 51 -31 82.5t-86 31.5q-57 0 -87.5 -31.5t-30.5 -82.5z" />
<glyph unicode="h" horiz-adv-x="581" d="M164 0h-74v717h74v-301h4q51 88 160 88q78 0 125.5 -47t47.5 -130v-327h-74v307q0 66 -30 98.5t-79 32.5q-65 0 -109.5 -53.5t-44.5 -141.5v-243z" />
<glyph unicode="i" horiz-adv-x="238" d="M82 0h75v494h-75v-494zM80 623v78h78v-78h-78z" />
<glyph unicode="j" horiz-adv-x="237" d="M76 -99q0 -85 -91 -85q-16 0 -32.5 4t-18.5 4q-9 0 -10 -14q-2 -28 -4 -46q24 -11 69 -11q82 0 121.5 41.5t39.5 132.5v567h-74v-593zM72 623v78h78v-78h-78z" />
<glyph unicode="k" horiz-adv-x="464" d="M164 0h-74v717h74v-442l208 219h84l-215 -226l233 -268h-91l-219 260v-260z" />
<glyph unicode="l" horiz-adv-x="254" d="M164 0h-74v717h74v-717z" />
<glyph unicode="m" horiz-adv-x="877" d="M80 494h61q14 0 14 -14l2 -67h2q45 91 158 91q61 0 97.5 -31.5t45.5 -66.5q18 36 59 67t110 31q73 0 120.5 -46t47.5 -125v-333h-74v297q0 62 -26 101.5t-79 39.5q-65 0 -102.5 -60t-37.5 -136v-242h-74v299q0 68 -28 103.5t-75 35.5q-62 0 -102 -56t-40 -146v-236h-74 v345q0 64 -5 149z" />
<glyph unicode="n" d="M85 0v343q0 86 -5 151h63q13 0 13 -13l1 -69h3q57 92 163 92q76 0 124.5 -46t48.5 -128v-330h-74v310q0 61 -29.5 94.5t-79.5 33.5q-62 0 -108 -53t-46 -141v-244h-74z" />
<glyph unicode="o" horiz-adv-x="580" d="M290 438q-76 0 -120 -50t-44 -141q0 -49 13.5 -89.5t52 -71t98.5 -30.5q77 0 120.5 50.5t43.5 140.5q0 86 -42 138.5t-122 52.5zM50 247q0 50 13 94.5t40 82t75 59t112 21.5q117 0 178.5 -71t61.5 -186q0 -111 -60 -184t-180 -73q-112 0 -176 67.5t-64 189.5z" />
<glyph unicode="p" horiz-adv-x="554" d="M159 3v-234h-74v574q0 56 -5 151h64q13 0 13 -13l1 -62h3q11 25 47.5 55t92.5 30q67 0 115 -35.5t68 -85.5t20 -106q0 -122 -71 -204.5t-196 -82.5q-39 0 -78 13zM240 56q83 0 135 59t52 151q0 71 -33.5 121.5t-94.5 50.5q-59 0 -99.5 -57t-40.5 -158v-154q43 -13 81 -13 z" />
<glyph unicode="q" horiz-adv-x="558" d="M254 46q62 0 101 56t39 160v157q-32 9 -77 9q-80 0 -135 -59t-55 -157q0 -65 32.5 -115.5t94.5 -50.5zM394 62h-5q-49 -82 -146 -82q-95 0 -144 68.5t-49 166.5q0 117 76 198t211 81q61 0 131 -19v-716h-74v303z" />
<glyph unicode="r" horiz-adv-x="371" d="M80 494h57q9 0 11 -3t3 -10q0 -5 0.5 -31t0.5 -32h3q43 86 152 86q31 0 64 -11q0 -26 -2 -54q0 -10 -8 -10q-5 0 -26.5 4.5t-42.5 4.5q-63 0 -97.5 -50t-34.5 -143v-245h-74v355q0 77 -6 139z" />
<glyph unicode="s" horiz-adv-x="393" d="M219 504q61 0 110 -11q0 -5 -2 -53q-1 -21 -12 -21q-4 0 -15.5 4.5t-34 9.5t-52.5 5q-43 0 -70.5 -19.5t-27.5 -49.5q0 -28 18 -45t59 -32l48 -17q48 -17 80.5 -51.5t32.5 -83.5q0 -80 -55 -115t-144 -35q-71 0 -108 11q0 8 3 56q0 14 12 14q4 0 17 -3.5t36.5 -7 t51.5 -3.5q51 0 81.5 19t30.5 56q0 27 -20.5 46t-63.5 34l-34 13q-120 40 -120 137q0 68 51 105t128 37z" />
<glyph unicode="t" horiz-adv-x="341" d="M253 -10q-152 0 -152 161v280h-91v63h91v109h74v-109h150v-63h-150v-280q0 -51 19.5 -73t60.5 -22q19 0 40 4.5t22 4.5q10 0 10 -14q2 -32 4 -50q-30 -11 -78 -11z" />
<glyph unicode="u" d="M491 494v-343q0 -86 5 -151h-64q-12 0 -13 14v68h-3q-57 -92 -163 -92q-76 0 -124.5 46t-48.5 128v330h74v-310q0 -61 29.5 -94.5t79.5 -33.5q62 0 107.5 53t45.5 141v244h75z" />
<glyph unicode="v" horiz-adv-x="482" d="M10 494h85l150 -393h4l145 393h78l-186 -494h-78z" />
<glyph unicode="w" horiz-adv-x="748" d="M20 494h77l106 -389h4l123 389h78l128 -389h4l111 389h77l-147 -494h-89l-122 372h-4l-120 -372h-91z" />
<glyph unicode="x" horiz-adv-x="453" d="M26 494h90l120 -178l117 178h80l-158 -235l178 -259h-89l-137 201l-144 -201h-83l189 256z" />
<glyph unicode="y" horiz-adv-x="457" d="M2 494h89l145 -387h3l140 387h78q-148 -403 -192 -524q-12 -33 -18.5 -49t-19.5 -44t-23 -42t-27.5 -32.5t-35.5 -27.5t-43.5 -15.5t-55.5 -6.5q-39 0 -72 11q2 19 5 54q1 12 10 12q2 0 22.5 -3.5t36.5 -3.5q45 0 74 21.5t50 77.5l28 76z" />
<glyph unicode="z" horiz-adv-x="421" d="M44 432v62h343v-66l-268 -364h272v-64h-361v68l268 364h-254z" />
<glyph unicode="{" horiz-adv-x="389" d="M50 190v62q102 12 102 117v124q0 93 44.5 137t117.5 44h25v-62q-110 0 -110 -109v-128q0 -28 -7 -54.5t-32 -56t-64 -41.5v-4q39 -12 64 -41t32 -55.5t7 -54.5v-128q0 -53 28 -81t82 -28v-62h-25q-73 0 -117.5 44.5t-44.5 137.5v123q0 104 -102 116z" />
<glyph unicode="|" horiz-adv-x="258" d="M90 -231v905h74v-905h-74z" />
<glyph unicode="}" horiz-adv-x="389" d="M339 252v-62q-102 -12 -102 -116v-123q0 -93 -44.5 -137.5t-117.5 -44.5h-25v62q54 0 82 28t28 81v128q0 28 7 54.5t32 55.5t64 41v4q-39 12 -64 41.5t-32 56t-7 54.5v128q0 109 -110 109v62h25q73 0 117.5 -44t44.5 -137v-124q0 -105 102 -117z" />
<glyph unicode="~" horiz-adv-x="606" d="M61 307q79 53 140 53q50 0 113.5 -30t102.5 -30q49 0 98 36l26 -46q-67 -53 -138 -53q-49 0 -114 30t-100 30q-53 0 -101 -36z" />
<glyph unicode="&#xa1;" horiz-adv-x="190" d="M99 263h-58l-11 -477h80zM31 380v78h78v-78h-78z" />
<glyph unicode="&#xa2;" horiz-adv-x="513" d="M453 17q-43 -21 -101 -27v-103h-74v104q-93 13 -145.5 81t-52.5 174q0 102 51.5 171t146.5 83v105h74v-103q51 -5 101 -28q0 -29 -2 -53q0 -14 -9 -14q-3 0 -15 6q-48 24 -96 24q-79 0 -126 -55.5t-47 -135.5q0 -81 47 -136t121 -55q54 0 96 21q16 8 20 8q9 0 9 -11 q0 -6 1 -26t1 -30z" />
<glyph unicode="&#xa3;" horiz-adv-x="504" d="M439 676l-7 -66q-48 8 -77 8q-65 0 -103.5 -33.5t-38.5 -89.5q0 -36 27 -124h163v-62h-152q1 -6 1 -28q0 -145 -94 -219h306v-62h-384v64q97 58 97 184q0 36 -5 61h-90v62h78q-25 75 -25 134q0 82 59 131t157 49q43 0 88 -9z" />
<glyph unicode="&#xa4;" horiz-adv-x="622" d="M486 145l60 -63l-50 -49l-61 63q-50 -33 -112 -33q-67 0 -121 40l-62 -59l-50 49l64 61q-33 50 -33 112q0 67 40 121l-60 62l50 50l60 -64q53 34 112 34q68 0 122 -41l62 60l50 -50l-64 -60q33 -50 33 -112q0 -68 -40 -121zM323 404q-57 0 -97.5 -40.5t-40.5 -97.5 q0 -58 40.5 -98.5t97.5 -40.5q58 0 98.5 40.5t40.5 98.5q0 57 -40.5 97.5t-98.5 40.5z" />
<glyph unicode="&#xa5;" horiz-adv-x="583" d="M543 674l-185 -365h120v-62h-150v-63h150v-62h-150v-122h-77v122h-137v62h137v63h-137v62h106l-180 365h85l169 -342l169 342h80z" />
<glyph unicode="&#xa6;" horiz-adv-x="259" d="M90 271v403h74v-403h-74zM90 -231v395h74v-395h-74z" />
<glyph unicode="&#xa7;" horiz-adv-x="477" d="M329 34q60 -62 60 -123q0 -75 -52.5 -115t-136.5 -40q-71 0 -130 22l11 70q63 -25 117 -25q52 0 83 23t31 61q0 15 -5.5 29t-17.5 27t-21 21t-26 21t-22 17t-26 20.5t-30 23.5q-37 30 -56 48.5t-38 54t-19 76.5q0 55 26.5 92t69.5 69q-60 60 -60 123q0 75 52.5 115 t136.5 40q68 0 130 -22l-11 -70q-69 25 -117 25q-53 0 -83.5 -21t-30.5 -60q0 -13 5 -26t10.5 -22t17.5 -21t18.5 -17.5t21.5 -17t19 -14.5q6 -4 16 -12t22 -18t17 -14q36 -28 56 -47.5t38.5 -55t18.5 -76.5q0 -38 -16.5 -71.5t-34 -50.5t-44.5 -39zM277 75q28 24 48.5 55.5 t20.5 57.5q0 31 -14.5 57t-63.5 65l-69 55q-28 -23 -48.5 -53.5t-20.5 -56.5q0 -32 15 -59.5t63 -65.5z" />
<glyph unicode="&#xa8;" horiz-adv-x="356" d="M51 545v78h78v-78h-78zM236 545v78h78v-78h-78z" />
<glyph unicode="&#xa9;" horiz-adv-x="875" d="M524 496l-6 -54q-35 16 -77 16q-46 0 -77 -32t-31 -93q0 -47 26 -85t82 -38q54 0 77 13l6 -52q-6 -4 -30.5 -10t-48.5 -6q-91 0 -136 49t-45 129q0 77 44 127.5t137 50.5q49 0 79 -15zM430 684q143 0 245.5 -102t102.5 -245q0 -144 -102 -245.5t-246 -101.5 q-145 0 -247.5 101.5t-102.5 245.5q0 143 102.5 245t247.5 102zM430 619q-119 0 -202.5 -82t-83.5 -200t83.5 -200.5t202.5 -82.5q118 0 200.5 82t82.5 201q0 118 -82 200t-201 82z" />
<glyph unicode="&#xaa;" horiz-adv-x="622" d="M367 299v-49h-264v49h264zM127 663q46 21 100 21q64 0 97.5 -31.5t33.5 -86.5v-128q0 -49 6 -82h-40q-10 0 -12 14l-1 32h-2q-35 -53 -108 -53q-45 0 -73 29.5t-28 74.5q0 54 47 79.5t117 25.5h46v12q0 28 -21.5 49.5t-64.5 21.5q-32 0 -79 -19l-5 -2q-4 -2 -6 -2 q-6 0 -6 7q0 6 -0.5 19.5t-0.5 18.5zM261 519q-60 0 -86 -19.5t-26 -45.5q0 -27 18 -44t50 -17q44 0 68.5 29t24.5 72v25h-49z" />
<glyph unicode="&#xab;" horiz-adv-x="511" d="M234 439l45 -35l-137 -167l137 -168l-46 -35l-168 203zM401 439l45 -35l-137 -167l137 -168l-46 -35l-168 203z" />
<glyph unicode="&#xac;" horiz-adv-x="672" d="M80 333h512v-280h-77v218h-435v62z" />
<glyph unicode="&#xad;" horiz-adv-x="401" d="M321 273v-62h-241v62h241z" />
<glyph unicode="&#xae;" horiz-adv-x="426" d="M195 541l4 -1h7q34 0 34 26q0 25 -34 25q-3 0 -5.5 -0.5t-4.5 -0.5h-1v-49zM243 458l-34 63h-14v-63h-27v152h45q26 0 40 -12t14 -33q0 -14 -7 -23.5t-12.5 -12.5t-10.5 -4l37 -67h-31zM213 684q64 0 108.5 -45t44.5 -108q0 -64 -44.5 -108.5t-108.5 -44.5t-108.5 44.5 t-44.5 108.5q0 63 44.5 108t108.5 45zM213 654q-51 0 -87 -36t-36 -87t36 -87t87 -36t87 36t36 87t-36 87t-87 36z" />
<glyph unicode="&#xaf;" horiz-adv-x="261" d="M241 674v-52h-221v52h221z" />
<glyph unicode="&#xb0;" horiz-adv-x="582" d="M329 549q0 -56 -39.5 -95.5t-94.5 -39.5q-56 0 -95.5 39.5t-39.5 95.5t39.5 95.5t95.5 39.5q55 0 94.5 -39.5t39.5 -95.5zM195 639q-37 0 -63.5 -26.5t-26.5 -63.5t26.5 -63.5t63.5 -26.5t63.5 26.5t26.5 63.5t-26.5 63.5t-63.5 26.5z" />
<glyph unicode="&#xb1;" horiz-adv-x="673" d="M80 0v61h513v-61h-513zM374 368h219v-62h-219v-180h-77v180h-217v62h217v178h77v-178z" />
<glyph unicode="&#xb2;" horiz-adv-x="259" d="M38 370q76 81 86 93q27 32 37 45.5t18 31.5t8 38q0 28 -19.5 47.5t-52.5 19.5q-34 0 -66 -20l-13 32l4 3q5 2 11.5 5t16 6.5t22 5.5t25.5 2q53 0 82.5 -30t29.5 -69q0 -31 -16 -59t-47 -66l-76 -86h143v-32h-193v33z" />
<glyph unicode="&#xb3;" horiz-adv-x="252" d="M35 664q35 15 75 15q46 0 73 -25t27 -63q0 -54 -59 -79v-1q22 -3 43 -24t21 -59q0 -42 -35 -69t-91 -27q-27 0 -47 5l-3 33q35 -5 48 -5q42 0 65.5 19t23.5 47q0 26 -20 45t-58 19h-34v31h32q31 0 52.5 17t21.5 43q0 25 -17 42.5t-52 17.5q-26 0 -56 -15z" />
<glyph unicode="&#xb4;" horiz-adv-x="228" d="M20 527l80 147h86l-120 -147h-46z" />
<glyph unicode="&#xb5;" horiz-adv-x="636" d="M521 151q0 -53 5 -151h-63q-13 0 -13 14l-1 68h-3q-57 -92 -163 -92q-56 0 -99 26v-264h-74v743h74v-311q0 -61 29.5 -94.5t79.5 -33.5q63 0 108.5 53t45.5 141v245h74v-344z" />
<glyph unicode="&#xb6;" horiz-adv-x="575" d="M451 -173h-71v790h-96v-790h-71v483q-51 6 -96.5 47.5t-45.5 121.5q0 89 62 142t169 53h213v-57h-64v-790z" />
<glyph unicode="&#xb7;" horiz-adv-x="302" d="M112 262v78h78v-78h-78z" />
<glyph unicode="&#xb8;" horiz-adv-x="203" d="M61 0h50l-23 -51q12 3 25 3q34 0 52.5 -20.5t18.5 -51.5q0 -48 -41 -84.5t-95 -43.5l-24 29q36 6 69.5 29.5t33.5 56.5q0 57 -90 48z" />
<glyph unicode="&#xb9;" horiz-adv-x="188" d="M131 337h-39v296q-29 -18 -76 -23l-6 27q27 3 51 15t34 27h36v-342z" />
<glyph unicode="&#xba;" horiz-adv-x="622" d="M397 299v-49h-273v49h273zM256 641q-49 0 -78 -32.5t-29 -91.5q0 -51 25 -87.5t82 -36.5q50 0 78.5 33t28.5 91q0 56 -27.5 90t-79.5 34zM100 517q0 70 38 118.5t118 48.5q76 0 116 -46.5t40 -120.5q0 -73 -38.5 -120.5t-117.5 -47.5q-73 0 -114.5 44.5t-41.5 123.5z" />
<glyph unicode="&#xbb;" horiz-adv-x="511" d="M446 237l-168 -203l-46 35l137 168l-137 167l44 35zM279 237l-168 -203l-46 35l137 168l-137 167l44 35z" />
<glyph unicode="&#xbc;" horiz-adv-x="653" d="M482 674l-403 -674h49l403 674h-49zM147 337h-39v296q-29 -18 -76 -23l-6 27q27 3 51 15t34 27h36v-342zM613 124h-61v213h-58l-122 -207l11 -37h130v-93h39v93h61v31zM513 300v-176h-106l104 176h2z" />
<glyph unicode="&#xbd;" horiz-adv-x="699" d="M515 674l-402 -674h48l403 674h-49zM181 337h-39v296q-29 -18 -76 -23l-6 27q27 3 51 15t34 27h36v-342zM466 33q76 81 86 93q27 32 37 45.5t18 31.5t8 38q0 28 -19.5 47.5t-52.5 19.5q-34 0 -66 -20l-13 32l4 2q5 3 11.5 6t16 6.5t22 5.5t25.5 2q53 0 82.5 -30t29.5 -70 q0 -30 -16 -58t-47 -66l-76 -86h143v-32h-193v33z" />
<glyph unicode="&#xbe;" horiz-adv-x="703" d="M536 674l-403 -674h49l403 674h-49zM69 631l-9 33q33 15 74 15q47 0 73.5 -25t26.5 -63q0 -52 -58 -79v-1q21 -3 42.5 -24t21.5 -59q0 -42 -35.5 -69t-91.5 -27q-27 0 -47 5l-3 33q40 -5 49 -5q42 0 65 19t23 47q0 26 -20 45t-58 19h-33v31h32q31 0 52.5 17t21.5 43 q0 25 -17 42.5t-52 17.5q-20 0 -57 -15zM663 124h-61v213h-57l-123 -207l12 -37h129v-93h39v93h61v31zM563 300v-176h-106l105 176h1z" />
<glyph unicode="&#xbf;" horiz-adv-x="349" d="M339 -134l-9 -70q-66 -20 -135 -20q-93 0 -144 47t-51 111q0 39 14.5 73.5t29.5 52.5t43 47q29 29 40 42t23.5 39.5t12.5 55.5v19h77v-20q0 -94 -79 -173q-2 -2 -19 -18t-20.5 -20t-15 -18t-15 -22.5t-7.5 -22t-4 -27.5q0 -44 36.5 -71t107.5 -27q28 0 64 7.5t51 14.5z M161 381v78h78v-78h-78z" />
<glyph unicode="&#xc0;" horiz-adv-x="605" d="M264 674h79l252 -674h-87l-58 164h-301l-59 -164h-80zM297 583l-126 -356h256l-127 356h-3zM278 736l-120 147h86l80 -147h-46z" />
<glyph unicode="&#xc1;" horiz-adv-x="605" d="M264 674h79l252 -674h-87l-59 164h-300l-60 -164h-79zM297 583l-126 -356h256l-127 356h-3zM271 736l80 147h86l-120 -147h-46z" />
<glyph unicode="&#xc2;" horiz-adv-x="604" d="M264 674l-254 -674h79l60 164h300l59 -164h86l-251 674h-79zM297 584h2l128 -357h-256zM431 736h-46l-82 94l-83 -94h-45l89 147h78z" />
<glyph unicode="&#xc3;" horiz-adv-x="604" d="M264 674h79l251 -674h-86l-59 164h-300l-60 -164h-79zM297 584l-126 -357h256l-128 357h-2zM132 805q7 8 18 18t35.5 22t49.5 12q32 0 71.5 -18t66.5 -18t60 29l27 -30q-44 -52 -104 -52q-32 0 -71 18t-67 18q-26 0 -59 -30z" />
<glyph unicode="&#xc4;" horiz-adv-x="604" d="M264 674l-254 -674h79l60 164h300l58 -164h87l-252 674h-78zM297 584h2l128 -357h-257zM159 780v78h78v-78h-78zM344 780v78h78v-78h-78z" />
<glyph unicode="&#xc5;" horiz-adv-x="604" d="M264 674h79l251 -674h-86l-59 164h-300l-60 -164h-79zM297 584l-126 -357h256l-127 357h-3zM397 789q0 -40 -29 -68.5t-70 -28.5t-70.5 28.5t-29.5 68.5t29.5 68.5t70.5 28.5t70 -28.5t29 -68.5zM298 840q-21 0 -36 -15t-15 -36t15 -36t36 -15t36 15t15 36t-15 36t-36 15 z" />
<glyph unicode="&#xc6;" horiz-adv-x="845" d="M441 584l-240 -357h243v357h-3zM783 674v-62h-262v-234h249v-62h-249v-252h264v-64h-341v164h-285l-111 -164h-88l463 674h360z" />
<glyph unicode="&#xc7;" horiz-adv-x="585" d="M421 -47q34 0 53 -21t19 -52q0 -47 -41.5 -84t-95.5 -43l-23 29q36 6 69 29.5t33 55.5q0 49 -55 49h-34l21 75q-141 10 -219 105.5t-78 240.5q0 69 19.5 130t58 110.5t102.5 78t146 28.5q80 0 159 -29l-17 -70q-82 32 -151 32q-100 0 -167.5 -71t-67.5 -209 q0 -122 61 -201t176 -79q70 0 149 33l17 -71q-70 -25 -140 -28l-19 -41q15 3 25 3z" />
<glyph unicode="&#xc8;" horiz-adv-x="511" d="M110 674v-674h341v62h-265v254h250v62h-250v234h263v62h-339zM345 736h-46l-120 147h85z" />
<glyph unicode="&#xc9;" horiz-adv-x="511" d="M319 736h-45l80 147h85zM110 674v-674h341v62h-265v254h250v62h-250v234h263v62h-339z" />
<glyph unicode="&#xca;" horiz-adv-x="511" d="M404 736h-46l-82 94l-83 -94h-45l89 147h77zM110 674v-674h341v62h-265v254h250v62h-250v234h263v62h-339z" />
<glyph unicode="&#xcb;" horiz-adv-x="511" d="M159 780v78h78v-78h-78zM344 780v78h78v-78h-78zM110 674v-674h341v62h-265v254h250v62h-250v234h263v62h-339z" />
<glyph unicode="&#xcc;" horiz-adv-x="296" d="M122 674v-674h76v674h-76zM196 736h-46l-120 147h85z" />
<glyph unicode="&#xcd;" horiz-adv-x="296" d="M113 674v-674h77v674h-77zM156 736h-46l80 147h86z" />
<glyph unicode="&#xce;" horiz-adv-x="296" d="M114 674v-674h77v674h-77zM275 736h-45l-83 95l-82 -95h-45l89 147h77z" />
<glyph unicode="&#xcf;" horiz-adv-x="296" d="M108 674v-674h77v674h-77zM16 780v78h78v-78h-78zM201 780v78h78v-78h-78z" />
<glyph unicode="&#xd0;" horiz-adv-x="721" d="M317 674q156 0 245 -88.5t89 -248.5q0 -72 -20 -132t-60 -106.5t-105 -72.5t-149 -26h-207v316h-55v62h55v296h207zM304 61q131 0 199 71t68 205q0 137 -70 206.5t-197 69.5q-90 0 -118 -5v-230h201v-62h-201v-251q24 -4 118 -4z" />
<glyph unicode="&#xd1;" horiz-adv-x="748" d="M110 0h74v563h4l346 -563h104v674h-75v-551h-5l-348 551h-100v-674zM232 774l-27 31q47 52 104 52q31 0 71 -18.5t67 -18.5q25 0 59 30l28 -30q-44 -52 -104 -52q-32 0 -71.5 18t-67.5 18q-23 0 -59 -30z" />
<glyph unicode="&#xd2;" horiz-adv-x="755" d="M378 684q144 0 225.5 -95t81.5 -252t-81.5 -252t-225.5 -95q-140 0 -224 92.5t-84 254.5q0 161 83 254t225 93zM152 337q0 -132 60.5 -206t164.5 -74t165 74.5t61 205.5q0 133 -61.5 206.5t-164.5 73.5q-102 0 -163.5 -73t-61.5 -207zM353 736l-120 147h85l81 -147h-46z " />
<glyph unicode="&#xd3;" horiz-adv-x="755" d="M378 684q144 0 225.5 -95t81.5 -252t-81.5 -252t-225.5 -95q-140 0 -224 92.5t-84 254.5q0 161 83 254t225 93zM152 337q0 -132 60.5 -206t165.5 -74q103 0 164 74.5t61 205.5q0 132 -61.5 206t-163.5 74q-103 0 -164.5 -73t-61.5 -207zM394 736h-45l80 147h85z" />
<glyph unicode="&#xd4;" horiz-adv-x="755" d="M378 684q-142 0 -225 -93t-83 -254q0 -162 84 -254.5t224 -92.5q144 0 225.5 95t81.5 252t-81.5 252t-225.5 95zM152 337q0 134 61.5 207t163.5 73q103 0 164.5 -73.5t61.5 -206.5q0 -131 -61 -205.5t-165 -74.5t-164.5 74t-60.5 206zM504 736h-45l-83 94l-82 -94h-46 l90 147h77z" />
<glyph unicode="&#xd5;" horiz-adv-x="755" d="M378 684q144 0 225.5 -95t81.5 -252t-81.5 -252t-225.5 -95q-140 0 -224 92.5t-84 254.5q0 161 83 254t225 93zM152 337q0 -132 60.5 -206t164.5 -74t165 74.5t61 205.5q0 133 -61.5 206.5t-164.5 73.5q-102 0 -163.5 -73t-61.5 -207zM201 805q47 52 103 52 q32 0 71.5 -18t66.5 -18t60 29l27 -30q-44 -52 -103 -52q-33 0 -72 18t-67 18q-26 0 -59 -30z" />
<glyph unicode="&#xd6;" horiz-adv-x="755" d="M378 684q-142 0 -225 -93t-83 -254q0 -162 84 -254.5t224 -92.5q144 0 225.5 95t81.5 252t-81.5 252t-225.5 95zM152 337q0 134 61.5 207t163.5 73q103 0 164.5 -73.5t61.5 -206.5q0 -131 -61 -205.5t-165 -74.5t-164.5 74t-60.5 206zM249 780v78h78v-78h-78zM434 780v78 h78v-78h-78z" />
<glyph unicode="&#xd7;" horiz-adv-x="608" d="M311 349l151 152l44 -44l-151 -152l153 -152l-55 -55l-153 153l-156 -156l-44 43l157 157l-153 152l54 55z" />
<glyph unicode="&#xd8;" horiz-adv-x="754" d="M684 337q0 -156 -81 -251.5t-226 -95.5q-41 0 -84 10l-36 -101l-65 22l37 104q-75 39 -117 119.5t-42 192.5q0 161 83 254.5t224 93.5q40 0 83 -10l35 100l66 -22l-36 -102q77 -40 118 -122t41 -192zM254 93l184 517q-30 8 -61 8q-102 0 -163.5 -73.5t-61.5 -207.5 q0 -175 102 -244zM499 583l-185 -518q32 -8 63 -8q104 0 165 74.5t61 205.5q0 175 -104 246z" />
<glyph unicode="&#xd9;" horiz-adv-x="734" d="M368 -10q-135 0 -196.5 75.5t-61.5 198.5v410h77v-410q0 -207 181 -207q179 0 179 207v410h77v-410q0 -126 -62 -200t-194 -74zM348 736l-120 147h85l80 -147h-45z" />
<glyph unicode="&#xda;" horiz-adv-x="734" d="M368 -10q-135 0 -196.5 75.5t-61.5 198.5v410h77v-410q0 -207 181 -207q179 0 179 207v410h77v-410q0 -125 -62.5 -199.5t-193.5 -74.5zM341 736l80 146h85l-120 -146h-45z" />
<glyph unicode="&#xdb;" horiz-adv-x="734" d="M368 -10q-135 0 -196.5 75.5t-61.5 198.5v410h77v-410q0 -207 181 -207q179 0 179 207v410h77v-410q0 -126 -62.5 -200t-193.5 -74zM455 736l-83 94l-82 -94h-46l90 147h77l89 -147h-45z" />
<glyph unicode="&#xdc;" horiz-adv-x="734" d="M368 -10q132 0 194 74t62 200v410h-77v-410q0 -207 -179 -207q-181 0 -181 207v410h-77v-410q0 -123 61.5 -198.5t196.5 -75.5zM229 780v78h78v-78h-78zM414 780v78h78v-78h-78z" />
<glyph unicode="&#xdd;" horiz-adv-x="502" d="M210 247v-247h77v247l215 427h-80l-168 -343l-170 343h-84zM255 736h-46l80 147h86z" />
<glyph unicode="&#xde;" horiz-adv-x="586" d="M187 180q18 -2 63 -2q91 0 138.5 42.5t47.5 116.5q0 73 -49 115t-137 42q-48 0 -63 -3v-311zM267 122q-44 0 -80 4v-126h-77v674h77v-125h88q113 0 176.5 -59t63.5 -149q0 -103 -66 -161t-182 -58z" />
<glyph unicode="&#xdf;" horiz-adv-x="589" d="M90 499q0 116 59 176.5t153 60.5q86 0 135.5 -43t49.5 -97q0 -29 -12 -54.5t-22.5 -36t-35.5 -33.5q-4 -4 -14 -12q-17 -14 -24.5 -21.5t-15 -22t-7.5 -30.5q0 -39 49 -70l54 -34q90 -56 90 -133t-52.5 -118t-137.5 -41q-68 0 -101 12q0 41 1 60q0 12 7 12q3 0 14.5 -4 t31 -8.5t43.5 -4.5q58 0 88.5 23.5t30.5 59.5q0 45 -59 82l-48 30q-24 15 -38.5 26t-31.5 39.5t-17 61.5q0 32 12.5 59.5t23.5 39t35 33.5q4 3 8.5 7t6.5 6q17 16 25 24.5t14.5 22.5t6.5 30q0 31 -29.5 52.5t-82.5 21.5q-59 0 -97.5 -44t-38.5 -120v-511h-74v499z" />
<glyph unicode="&#xe0;" horiz-adv-x="515" d="M214 594l-120 147h85l80 -147h-45zM83 415q0 9 -1 29.5t-1 27.5q70 33 155 33q98 0 149 -48.5t51 -132.5v-197q0 -66 9 -127h-60q-18 0 -18 22l-3 50h-2q-56 -81 -167 -81q-69 0 -112 45.5t-43 114.5q0 56 37.5 93.5t92.5 52.5t123 15h69v19q0 42 -33 74.5t-99 32.5 q-55 0 -120 -28q-15 -6 -18 -6t-5 1.5t-2.5 3t-0.5 3.5zM362 251h-75q-91 0 -131 -29.5t-40 -69.5q0 -42 28 -68t76 -26q68 0 105 44.5t37 111.5v37z" />
<glyph unicode="&#xe1;" horiz-adv-x="515" d="M210 594l80 147h85l-119 -147h-46zM83 415q-2 34 -2 57q70 33 155 33q98 0 149 -48.5t51 -132.5v-197q0 -66 9 -127h-61q-16 0 -18 22l-3 50h-2q-53 -81 -166 -81q-69 0 -112 45.5t-43 114.5q0 56 37.5 93.5t92 52.5t123.5 15h69v19q0 42 -33 74.5t-99 32.5 q-55 0 -120 -28q-15 -6 -18 -6q-9 0 -9 11zM362 251h-75q-91 0 -131 -29.5t-40 -69.5q0 -42 27.5 -68t76.5 -26q67 0 104.5 44.5t37.5 111.5v37z" />
<glyph unicode="&#xe2;" horiz-adv-x="515" d="M363 594h-45l-83 95l-82 -95h-46l89 147h78zM83 415q-2 34 -2 57q70 33 155 33q98 0 149 -48.5t51 -132.5v-197q0 -66 9 -127h-60q-18 0 -18 22l-3 50h-4q-56 -81 -165 -81q-69 0 -112 45.5t-43 114.5q0 56 37.5 93.5t92.5 52.5t123 15h69v19q0 42 -33 74.5t-99 32.5 q-55 0 -120 -28q-15 -6 -18 -6t-5 1.5t-2.5 3t-0.5 3.5zM362 251h-75q-91 0 -131 -29.5t-40 -69.5q0 -42 28 -68t76 -26q68 0 105 44.5t37 111.5v37z" />
<glyph unicode="&#xe3;" horiz-adv-x="515" d="M95 625l-28 30q7 9 18.5 19t36 22t49.5 12q32 0 71.5 -18.5t66.5 -18.5q29 0 59 30l28 -31q-46 -52 -104 -52q-32 0 -71 18.5t-68 18.5q-8 0 -15 -2t-14.5 -6.5t-11 -7t-10.5 -8.5zM83 415q-2 34 -2 57q70 33 155 33q98 0 149 -48.5t51 -132.5v-197q0 -66 9 -127h-60 q-18 0 -18 22l-3 50h-4q-56 -81 -165 -81q-69 0 -112 45.5t-43 114.5q0 56 37.5 93.5t92.5 52.5t123 15h69v19q0 42 -33 74.5t-99 32.5q-55 0 -120 -28q-15 -6 -18 -6t-5 1.5t-2.5 3t-0.5 3.5zM362 251h-75q-91 0 -131 -29.5t-40 -69.5q0 -42 28 -68t76 -26q68 0 105 44.5 t37 111.5v37z" />
<glyph unicode="&#xe4;" horiz-adv-x="515" d="M83 415q-2 34 -2 57q70 33 155 33q98 0 149 -48.5t51 -132.5v-197q0 -66 9 -127h-60q-18 0 -18 22l-3 50h-4q-56 -81 -165 -81q-69 0 -112 45.5t-43 114.5q0 56 37.5 93.5t92.5 52.5t123 15h69v19q0 42 -33 74.5t-99 32.5q-55 0 -120 -28q-15 -6 -18 -6t-5 1.5t-2.5 3 t-0.5 3.5zM362 251h-75q-91 0 -131 -29.5t-40 -69.5q0 -42 28 -68t76 -26q68 0 105 44.5t37 111.5v37zM102 623v78h78v-78h-78zM287 623v78h78v-78h-78z" />
<glyph unicode="&#xe5;" horiz-adv-x="516" d="M334 670q0 -40 -29 -68.5t-70 -28.5t-70 28.5t-29 68.5t29 68.5t70 28.5t70 -28.5t29 -68.5zM235 721q-21 0 -36 -15t-15 -36t15 -36t36 -15t36 15t15 36t-15 36t-36 15zM83 415q-2 34 -2 57q70 33 155 33q98 0 149 -48.5t51 -132.5v-197q0 -66 9 -127h-60q-18 0 -18 22 l-3 50h-4q-56 -81 -165 -81q-69 0 -112 45.5t-43 114.5q0 56 37.5 93.5t92.5 52.5t123 15h69v19q0 42 -33 74.5t-99 32.5q-55 0 -120 -28q-15 -6 -18 -6t-5 1.5t-2.5 3t-0.5 3.5zM362 251h-75q-91 0 -131 -29.5t-40 -69.5q0 -42 28 -68t76 -26q68 0 105 44.5t37 111.5v37z " />
<glyph unicode="&#xe6;" horiz-adv-x="845" d="M235 227q-62 0 -90.5 -25t-28.5 -58q0 -40 29.5 -63.5t79.5 -23.5q66 0 101.5 44.5t35.5 111.5v14h-127zM412 416q52 88 174 88q56 0 98.5 -18.5t65.5 -49t34 -64.5t11 -72q0 -57 -4 -73h-354q3 -65 48.5 -117.5t135.5 -52.5q62 0 115 24q14 8 19 8q8 0 9 -11 q2 -28 2 -62q-82 -26 -153 -26q-155 0 -217 106h-2q-11 -19 -20 -31.5t-30.5 -32.5t-56 -31t-80.5 -11q-75 0 -121 43.5t-46 107.5q0 63 49.5 105t143.5 42v0v0v0v0h1v0h1h1h1h1h1h1h1h1h1h1h1h1h1h1h1h1h1h1h1h1h1h1h1h1h2h1h1h1h1h1h1h2h1h1h1h2h1h1h2h1h1h2h1h1h2h1h1h2 h1h2h1h2h1h2h1h2h1h2h1h2h1h2h2h1h2h1h2h2h1h2h2h1h2h2h1h2h2h2h1h2h2h2h1h2h2h2h2h9v42q0 43 -33 75.5t-99 32.5q-55 0 -120 -28l-18 -7q-8 0 -8 11q-3 54 -3 58q78 32 155 32q128 0 176 -88zM437 288h282q0 1 0.5 6.5t0.5 8.5q0 32 -10.5 60.5t-43 51.5t-82.5 23 q-40 0 -70.5 -15.5t-46 -39.5t-23 -48t-7.5 -47z" />
<glyph unicode="&#xe7;" horiz-adv-x="453" d="M316 -48q34 0 52.5 -21t18.5 -52q0 -47 -41 -84t-95 -43l-24 28q37 7 70 30.5t33 55.5q0 48 -55 48h-35l22 77q-99 9 -155.5 77t-56.5 179q0 113 63 185t179 72q68 0 130 -29q0 -28 -2 -54q0 -13 -9 -13q-5 0 -15 5q-36 24 -96 24q-79 0 -126 -55t-47 -135q0 -81 47 -136 t122 -55q53 0 95 21q16 8 20 8q9 0 9 -11q1 -8 2 -30t1 -26q-59 -25 -113 -28l-19 -42q10 4 25 4z" />
<glyph unicode="&#xe8;" horiz-adv-x="535" d="M275 504q-104 0 -164.5 -70t-60.5 -188q0 -121 63.5 -188.5t188.5 -67.5q84 0 153 27q0 33 -2 61q0 11 -9 11l-19 -7q-55 -25 -115 -25q-90 0 -135.5 49.5t-48.5 114.5h355l1 10q1 10 2 26.5t1 34.5q0 38 -11 73.5t-34 67.5t-66 51.5t-99 19.5zM126 280q0 23 7.5 48.5 t23.5 51t46.5 42t70.5 16.5q72 0 103.5 -44.5t31.5 -98.5q0 -12 -1 -15h-282zM301 594h-46l-120 147h86z" />
<glyph unicode="&#xe9;" horiz-adv-x="535" d="M275 504q-104 0 -164.5 -70t-60.5 -188q0 -121 63.5 -188.5t188.5 -67.5q84 0 153 27q0 33 -2 61q0 11 -9 11q-2 0 -18 -7q-55 -25 -115 -25q-91 0 -136.5 49.5t-48.5 114.5h355l1 10q1 10 2 26.5t1 34.5q0 38 -11 73.5t-34 67.5t-66 51.5t-99 19.5zM126 280 q0 23 7.5 48.5t23.5 51t46.5 42t70.5 16.5q72 0 103.5 -44.5t31.5 -98.5v-15h-283zM295 594h-45l80 147h85z" />
<glyph unicode="&#xea;" horiz-adv-x="535" d="M275 504q-104 0 -164.5 -70t-60.5 -188q0 -121 64 -188.5t189 -67.5q80 0 153 27q-3 57 -3 61q0 11 -9 11q-2 0 -18 -7q-55 -25 -115 -25q-91 0 -136.5 49.5t-48.5 114.5h355l1 10q1 10 2 26.5t1 34.5q0 38 -11 73.5t-34 67.5t-66 51.5t-99 19.5zM126 280q0 23 7.5 48.5 t23.5 51t46.5 42t70.5 16.5q72 0 103.5 -44.5t31.5 -98.5v-15h-283zM402 594h-46l-82 94l-83 -94h-45l89 147h77z" />
<glyph unicode="&#xeb;" horiz-adv-x="535" d="M275 504q-104 0 -164.5 -70t-60.5 -188q0 -121 63.5 -188.5t188.5 -67.5q84 0 153 27q0 33 -2 61q-1 11 -9 11l-19 -7q-55 -25 -115 -25q-90 0 -135.5 49.5t-48.5 114.5h355l1 10q1 10 2 26.5t1 34.5q0 83 -51.5 147.5t-158.5 64.5zM126 280q0 23 7.5 48.5t23.5 51 t46.5 42t70.5 16.5q72 0 103.5 -44.5t31.5 -98.5q0 -12 -1 -15h-282zM141 623v78h78v-78h-78zM326 623v78h78v-78h-78z" />
<glyph unicode="&#xec;" horiz-adv-x="238" d="M77 0h74v494h-74v-494zM146 594h-46l-120 146h85z" />
<glyph unicode="&#xed;" horiz-adv-x="238" d="M80 0h74v494h-74v-494zM126 594h-46l80 146h86z" />
<glyph unicode="&#xee;" horiz-adv-x="238" d="M83 0h74v494h-74v-494zM247 594h-46l-82 94l-83 -94h-45l89 146h77z" />
<glyph unicode="&#xef;" horiz-adv-x="238" d="M81 0h75v494h-75v-494zM-12 623v78h78v-78h-78zM173 623v78h78v-78h-78z" />
<glyph unicode="&#xf0;" horiz-adv-x="581" d="M290 412q-74 0 -119 -48t-45 -130q0 -31 8 -60t26 -56.5t51.5 -44t78.5 -16.5q75 0 119.5 50t44.5 127q0 78 -42 128t-122 50zM411 622q49 -58 84.5 -159t35.5 -207q0 -52 -13 -97.5t-40 -84.5t-75.5 -61.5t-112.5 -22.5q-111 0 -175.5 66.5t-64.5 177.5q0 46 13 87.5 t40 77.5t75 57.5t112 21.5q82 0 129 -36l2 2q-24 83 -71 139l-101 -63l-30 48l89 57q-25 22 -49 35q-13 8 3 30q5 8 11.5 18t10.5 16q55 -32 86 -60l85 55l33 -49z" />
<glyph unicode="&#xf1;" d="M85 0h74v245q0 88 45.5 140.5t108.5 52.5q50 0 79 -33t29 -94v-311h75v331q0 82 -48.5 127.5t-125.5 45.5q-107 0 -163 -91h-2q-1 56 -1 68q0 13 -13 13h-63q5 -95 5 -151v-343zM126 624l-27 31q47 52 103 52q32 0 72 -18t67 -18q29 0 59 30l27 -31q-46 -52 -103 -52 q-32 0 -71.5 18t-67.5 18q-26 0 -59 -30z" />
<glyph unicode="&#xf2;" horiz-adv-x="580" d="M290 438q-75 0 -119.5 -50t-44.5 -141q0 -36 8 -67.5t26 -60t51.5 -45.5t78.5 -17q77 0 120.5 50.5t43.5 139.5q0 86 -42 138.5t-122 52.5zM50 247q0 108 58.5 182.5t181.5 74.5q117 0 178.5 -71t61.5 -186q0 -112 -59.5 -184.5t-180.5 -72.5q-112 0 -176 68t-64 189z M314 594h-46l-120 147h86z" />
<glyph unicode="&#xf3;" horiz-adv-x="580" d="M291 438q-76 0 -120 -50t-44 -141q0 -36 8 -67.5t26 -60t51.5 -45.5t78.5 -17q77 0 120.5 50.5t43.5 139.5q0 86 -42 138.5t-122 52.5zM51 247q0 108 58.5 182.5t181.5 74.5q117 0 178.5 -71t61.5 -186q0 -111 -60 -184t-180 -73q-112 0 -176 68t-64 189zM311 594h-45 l80 147h85z" />
<glyph unicode="&#xf4;" horiz-adv-x="581" d="M290 438q-75 0 -119.5 -50t-44.5 -141q0 -36 8 -67.5t26 -60t51.5 -45.5t78.5 -17q77 0 120.5 50.5t43.5 139.5q0 86 -42 138.5t-122 52.5zM50 247q0 108 58.5 182.5t181.5 74.5q117 0 179 -71t62 -186q0 -112 -60 -184.5t-181 -72.5q-112 0 -176 68t-64 189zM417 594 h-45l-83 94l-82 -94h-46l90 147h77z" />
<glyph unicode="&#xf5;" horiz-adv-x="581" d="M290 438q-75 0 -119.5 -50t-44.5 -141q0 -36 8 -67.5t26 -60t51.5 -45.5t78.5 -17q77 0 120.5 50.5t43.5 139.5q0 86 -42 138.5t-122 52.5zM50 247q0 108 58.5 182.5t181.5 74.5q118 0 179.5 -71t61.5 -186q0 -112 -60 -184.5t-181 -72.5q-112 0 -176 68t-64 189z M149 624l-27 31q47 52 103 52q32 0 71.5 -18t66.5 -18q30 0 60 30l27 -31q-46 -52 -103 -52q-33 0 -72 18t-67 18q-26 0 -59 -30z" />
<glyph unicode="&#xf6;" horiz-adv-x="581" d="M290 438q-75 0 -119.5 -50t-44.5 -141q0 -36 8 -67.5t26 -60t51.5 -45.5t78.5 -17q77 0 120.5 50.5t43.5 139.5q0 86 -42 138.5t-122 52.5zM50 247q0 108 58.5 182.5t181.5 74.5q117 0 179 -71t62 -186q0 -112 -60 -184.5t-181 -72.5q-112 0 -176 68t-64 189zM155 623v78 h78v-78h-78zM340 623v78h78v-78h-78z" />
<glyph unicode="&#xf7;" horiz-adv-x="672" d="M80 333h512v-62h-512v62zM295 105v78h78v-78h-78zM296 414v78h78v-78h-78z" />
<glyph unicode="&#xf8;" horiz-adv-x="580" d="M530 247q0 -112 -59.5 -184.5t-180.5 -72.5q-32 0 -62 6l-38 -99l-62 19l39 102q-117 62 -117 229q0 108 58.5 182.5t181.5 74.5q34 0 62 -6l39 99l62 -19l-40 -102q58 -31 87.5 -90.5t29.5 -138.5zM196 83l135 351q-26 4 -41 4q-75 0 -119.5 -50t-44.5 -141 q0 -116 70 -164zM385 411l-136 -350q17 -4 41 -4q77 0 120.5 50t43.5 140q0 114 -69 164z" />
<glyph unicode="&#xf9;" d="M490 495h-74v-245q0 -88 -45.5 -140.5t-107.5 -52.5q-50 0 -79.5 33t-29.5 94v311h-74v-331q0 -82 48.5 -128t124.5 -46q106 0 163 92h2q1 -57 1 -68q0 -14 13 -14h64q-6 78 -6 151v344zM313 594h-45l-120 147h85z" />
<glyph unicode="&#xfa;" d="M490 495h-74v-245q0 -88 -45.5 -140.5t-107.5 -52.5q-50 0 -79.5 33t-29.5 94v311h-74v-331q0 -82 48.5 -128t124.5 -46q106 0 163 92h2q1 -57 1 -68q0 -14 13 -14h64q-6 78 -6 151v344zM304 594h-45l80 147h85z" />
<glyph unicode="&#xfb;" d="M491 495h-75v-245q0 -88 -45.5 -140.5t-107.5 -52.5q-50 0 -79.5 33t-29.5 94v311h-74v-331q0 -82 48.5 -128t124.5 -46q106 0 163 92h3q0 -57 1 -68q0 -14 13 -14h63q-5 65 -5 151v344zM408 594h-46l-82 95l-83 -95h-45l89 147h77z" />
<glyph unicode="&#xfc;" d="M491 495h-74v-245q0 -88 -45.5 -140.5t-108.5 -52.5q-50 0 -79 33t-29 94v311h-75v-331q0 -82 48.5 -128t125.5 -46q105 0 162 92h3q1 -57 1 -68q0 -14 13 -14h63q-5 98 -5 151v344zM152 623v78h78v-78h-78zM337 623v78h78v-78h-78z" />
<glyph unicode="&#xfd;" horiz-adv-x="457" d="M2 494l194 -496q-15 -42 -28 -76q-21 -56 -50 -77.5t-74 -21.5q-16 0 -36.5 3.5t-22.5 3.5q-9 0 -10 -12l-5 -54q33 -11 72 -11q30 0 55.5 6.5t44 15.5t35.5 28t27 32.5t23 41.5t19 43.5t19 49.5l192 524h-78l-138 -388h-4l-146 388h-89zM255 594h-45l80 147h85z" />
<glyph unicode="&#xfe;" horiz-adv-x="559" d="M164 2v-233h-74v947h74v-295h3q7 13 20 29.5t46.5 35t72.5 18.5q99 0 151 -69t52 -159q0 -122 -71 -204t-196 -82q-24 0 -78 12zM245 56q83 0 135 59t52 151q0 71 -33.5 121t-94.5 50q-59 0 -99.5 -56.5t-40.5 -158.5v-153q43 -13 81 -13z" />
<glyph unicode="&#xff;" horiz-adv-x="457" d="M2 494l194 -496q-15 -42 -28 -76q-21 -56 -50 -77.5t-74 -21.5q-16 0 -36.5 3.5t-22.5 3.5q-9 0 -10 -12l-5 -54q33 -11 72 -11q30 0 55.5 6.5t44 15.5t35.5 28t27 32.5t23 41.5t19 43.5t19 49.5l192 524h-78l-140 -388h-2l-146 388h-89zM101 623v78h78v-78h-78zM286 623 v78h78v-78h-78z" />
<glyph unicode="&#x100;" horiz-adv-x="604" d="M409 839v-52h-222v52h222zM264 674l-254 -674h79l60 164h300l59 -164h86l-251 674h-79zM297 584h2l128 -357h-256z" />
<glyph unicode="&#x101;" horiz-adv-x="516" d="M346 697v-52h-221v52h221zM83 415q-2 34 -2 57q70 33 155 33q98 0 149 -48.5t51 -132.5v-197q0 -66 9 -127h-60q-18 0 -18 22l-3 50h-4q-56 -81 -165 -81q-69 0 -112 45.5t-43 114.5q0 56 37.5 93.5t92.5 52.5t123 15h69v19q0 42 -33 74.5t-99 32.5q-55 0 -120 -28 q-15 -6 -18 -6t-5 1.5t-2.5 3t-0.5 3.5zM362 251h-75q-91 0 -131 -29.5t-40 -69.5q0 -42 28 -68t76 -26q68 0 105 44.5t37 111.5v37z" />
<glyph unicode="&#x102;" horiz-adv-x="604" d="M264 674l-254 -674h79l60 164h300l59 -164h86l-251 674h-79zM297 584h2l128 -357h-256zM371 858h54q0 -40 -31 -73t-96 -33q-64 0 -96 33t-32 73h54q0 -20 17.5 -40.5t56.5 -20.5q37 0 55 20t18 41z" />
<glyph unicode="&#x103;" horiz-adv-x="515" d="M362 716q0 -40 -31 -73t-96 -33q-64 0 -96 33t-32 73h54q0 -20 17.5 -40t56.5 -20q37 0 55 20t18 40h54zM83 415q-2 34 -2 57q70 33 155 33q98 0 149 -48.5t51 -132.5v-197q0 -66 9 -127h-60q-17 0 -19 22l-3 50h-2q-53 -81 -166 -81q-69 0 -112 45.5t-43 114.5 q0 56 37.5 93.5t92 52.5t123.5 15h69v19q0 42 -33 74.5t-99 32.5q-55 0 -120 -28q-15 -6 -18 -6q-9 0 -9 11zM362 251h-75q-91 0 -131 -29.5t-40 -69.5q0 -42 28 -68t76 -26q67 0 104.5 44.5t37.5 111.5v37z" />
<glyph unicode="&#x104;" horiz-adv-x="604" d="M507 0l-58 164h-300l-60 -164h-79l254 674h78l252 -674q-57 -83 -57 -143q0 -24 15 -38.5t41 -14.5q20 0 44 8v-48q-26 -11 -58 -11q-15 0 -29.5 3t-33 12t-29.5 29.5t-11 49.5q0 80 66 153h-35zM297 583l-127 -356h257l-128 356h-2z" />
<glyph unicode="&#x105;" horiz-adv-x="558" d="M384 0q-16 0 -18 22l-3 50h-2q-53 -81 -167 -81q-68 0 -111 45.5t-43 114.5q0 56 37.5 93.5t92 52.5t122.5 15h70v19q0 42 -33 74.5t-99 32.5q-51 0 -121 -28q-12 -6 -18 -6q-8 0 -8 11q-2 34 -2 57q70 33 154 33q98 0 149.5 -48.5t51.5 -132.5v-197q0 -66 9 -127 q-57 -83 -57 -143q0 -24 15 -38t41 -14q23 0 44 8v-48q-28 -12 -58 -12q-11 0 -22.5 1.5t-27 7.5t-26.5 16t-19 27.5t-8 41.5q0 46 22 88t44 65h-9zM287 251q-91 0 -131 -29.5t-40 -69.5q0 -42 27.5 -68t76.5 -26q67 0 104.5 44.5t37.5 111.5v37h-75z" />
<glyph unicode="&#x106;" horiz-adv-x="585" d="M406 736h-46l80 147h86zM555 655l-16 -71q-76 33 -152 33q-99 0 -167 -71t-68 -209q0 -122 61 -201t176 -79q64 0 150 33l16 -71q-87 -29 -158 -29q-155 0 -241 97t-86 250q0 55 12 105t38 94.5t63.5 77t92.5 51.5t121 19t158 -29z" />
<glyph unicode="&#x107;" horiz-adv-x="461" d="M292 504q-116 0 -179 -71.5t-63 -185.5q0 -118 64.5 -187.5t176.5 -69.5q66 0 132 29q0 4 -1 26t-2 30q0 11 -9 11q-4 0 -20 -8q-42 -21 -95 -21q-74 0 -121.5 55t-47.5 135q0 81 47 136t126 55q60 0 96 -24q10 -5 15 -5q9 0 9 13q2 24 2 54q-60 28 -130 28zM311 594h-46 l80 147h86z" />
<glyph unicode="&#x108;" horiz-adv-x="585" d="M555 655l-16 -71q-76 33 -152 33q-99 0 -167 -71t-68 -209q0 -122 61 -201t176 -79q64 0 150 33l16 -71q-87 -29 -158 -29q-155 0 -241 97t-86 250q0 55 12 105t38 94.5t63.5 77t92.5 51.5t121 19t158 -29zM305 736h-46l89 147h78l89 -147h-45l-83 94z" />
<glyph unicode="&#x109;" horiz-adv-x="453" d="M292 504q70 0 130 -28q0 -30 -2 -54q0 -13 -9 -13q-5 0 -15 5q-36 24 -96 24q-79 0 -126 -55t-47 -136q0 -80 47.5 -135t121.5 -55q53 0 95 21q16 8 20 8q9 0 9 -11q1 -8 2 -30t1 -26q-66 -29 -132 -29q-112 0 -176.5 69.5t-64.5 187.5q0 114 63 185.5t179 71.5zM210 596 h-46l89 147h78l89 -147h-45l-83 94z" />
<glyph unicode="&#x10a;" horiz-adv-x="585" d="M555 655l-16 -71q-76 33 -152 33q-99 0 -167 -71t-68 -209q0 -122 61 -201t176 -79q64 0 150 33l16 -71q-87 -29 -158 -29q-155 0 -241 97t-86 250q0 55 12 105t38 94.5t63.5 77t92.5 51.5t121 19t158 -29zM352 780v78h78v-78h-78z" />
<glyph unicode="&#x10b;" horiz-adv-x="452" d="M292 504q-117 0 -179.5 -71.5t-62.5 -185.5q0 -118 64.5 -187.5t176.5 -69.5q69 0 131 29q0 10 -1 30t-1 26q0 11 -9 11q-4 0 -20 -8q-42 -21 -95 -21q-75 0 -122 54.5t-47 135.5t47 136t126 55q48 0 96 -24q12 -6 15 -6q9 0 9 14q2 24 2 54q-60 28 -130 28zM249 623v78 h78v-78h-78z" />
<glyph unicode="&#x10c;" horiz-adv-x="585" d="M481 883h45l-89 -147h-77l-89 147h45l83 -95zM555 655l-16 -71q-76 33 -152 33q-99 0 -167 -71t-68 -209q0 -122 61 -201t176 -79q64 0 150 33l16 -71q-87 -29 -158 -29q-155 0 -241 97t-86 250q0 55 12 105t38 94.5t63.5 77t92.5 51.5t121 19t158 -29z" />
<glyph unicode="&#x10d;" horiz-adv-x="453" d="M292 504q-117 0 -179.5 -71.5t-62.5 -185.5q0 -118 64.5 -187.5t176.5 -69.5q66 0 132 29q0 4 -1 26t-2 30q0 11 -9 11q-4 0 -20 -8q-37 -22 -95 -22q-75 0 -122 55t-47 136q0 80 47 135.5t126 55.5q48 0 96 -24q12 -6 15 -6q9 0 9 14q2 24 2 53q-54 29 -130 29zM165 741 h46l82 -94l83 94h45l-89 -147h-78z" />
<glyph unicode="&#x10e;" horiz-adv-x="721" d="M192 883h46l82 -94l83 94h45l-89 -147h-78zM110 674v-674h207q165 0 249.5 94t84.5 243q0 160 -89 248.5t-245 88.5h-207zM186 66v542q27 5 118 5q127 0 197 -69t70 -207q0 -133 -68 -204t-199 -71q-94 0 -118 4z" />
<glyph unicode="&#x10f;" horiz-adv-x="599" d="M394 491v226h74v-566q0 -75 6 -151h-65q-13 0 -13 13l-1 62h-3q-4 -9 -13.5 -21t-26.5 -27.5t-43.5 -26t-56.5 -10.5q-67 0 -114.5 35.5t-67.5 85.5t-20 106q0 122 70.5 204.5t195.5 82.5q43 0 78 -13zM314 438q-84 0 -136 -59t-52 -151q0 -71 34 -121.5t94 -50.5 q59 0 99.5 57t40.5 158v154q-43 13 -80 13zM551 596v78h78v-78q0 -32 -23.5 -59.5t-49.5 -39.5l-13 18q46 31 46 81h-38z" />
<glyph unicode="&#x110;" horiz-adv-x="721" d="M317 674q156 0 245 -88.5t89 -248.5q0 -72 -20 -132t-60 -106.5t-105 -72.5t-149 -26h-207v316h-55v62h55v296h207zM304 61q131 0 199 71t68 205q0 137 -70 206.5t-197 69.5q-90 0 -118 -5v-230h201v-62h-201v-251q24 -4 118 -4z" />
<glyph unicode="&#x111;" horiz-adv-x="557" d="M522 573h-53v-422q0 -53 5 -151h-64q-13 0 -13 13l-1 62h-3q-11 -25 -47.5 -55t-92.5 -30q-99 0 -151 69t-52 159q0 122 71 204t196 82q24 0 78 -12v81h-189v63h189v81h74v-81h53v-63zM395 272v153q-43 13 -81 13q-83 0 -135 -59t-52 -151q0 -71 33.5 -121t94.5 -50 q59 0 99.5 56.5t40.5 158.5z" />
<glyph unicode="&#x112;" horiz-adv-x="511" d="M389 838v-51h-221v51h221zM110 674v-674h341v62h-265v254h250v62h-250v234h263v62h-339z" />
<glyph unicode="&#x113;" horiz-adv-x="535" d="M275 504q-104 0 -164.5 -70t-60.5 -188q0 -121 63.5 -188.5t188.5 -67.5q84 0 153 27q0 33 -2 61q0 11 -9 11q-2 0 -18 -7q-55 -25 -115 -25q-91 0 -136.5 49.5t-48.5 114.5h355l1 10q1 10 2 26.5t1 34.5q0 38 -11 73.5t-34 67.5t-66 51.5t-99 19.5zM126 280 q0 23 7.5 48.5t23.5 51t46.5 42t70.5 16.5q72 0 103.5 -44.5t31.5 -98.5v-15h-283zM386 697v-52h-221v52h221z" />
<glyph unicode="&#x114;" horiz-adv-x="511" d="M352 858h54q0 -40 -31.5 -73.5t-96.5 -33.5q-64 0 -95.5 33t-31.5 74h54q0 -20 17.5 -40.5t55.5 -20.5t56 20t18 41zM110 674v-674h341v62h-265v254h250v62h-250v234h263v62h-339z" />
<glyph unicode="&#x115;" horiz-adv-x="534" d="M275 504q-104 0 -164.5 -70t-60.5 -188q0 -121 63.5 -188.5t188.5 -67.5q84 0 153 27q0 33 -2 61q-1 11 -9 11l-19 -7q-55 -25 -115 -25q-90 0 -135.5 49.5t-48.5 114.5h354q4 12 4 71q0 38 -11 73.5t-34 67.5t-65.5 51.5t-98.5 19.5zM126 280q0 23 7.5 48.5t23.5 51 t46.5 42t70.5 16.5q72 0 103.5 -44.5t31.5 -98.5q0 -12 -1 -15h-282zM349 716h54q0 -40 -31.5 -73t-96.5 -33q-64 0 -96 33t-32 73h54q0 -20 17.5 -40.5t56.5 -20.5q37 0 55.5 20t18.5 41z" />
<glyph unicode="&#x116;" horiz-adv-x="511" d="M110 674v-674h341v64h-264v252h249v62h-249v234h262v62h-339zM248 780v78h78v-78h-78z" />
<glyph unicode="&#x117;" horiz-adv-x="535" d="M275 504q-104 0 -164.5 -70t-60.5 -188q0 -121 63.5 -188.5t188.5 -67.5q84 0 153 27q0 33 -2 61q0 11 -9 11q-2 0 -18 -7q-55 -25 -115 -25q-91 0 -136.5 49.5t-48.5 114.5h355l1 10q1 10 2 26.5t1 34.5q0 38 -11 73.5t-34 67.5t-66 51.5t-99 19.5zM126 280 q0 23 7.5 48.5t23.5 51t46.5 42t70.5 16.5q72 0 103.5 -44.5t31.5 -98.5v-15h-283zM233 623v78h78v-78h-78z" />
<glyph unicode="&#x118;" horiz-adv-x="554" d="M399 0h-289v674h339v-62h-263v-234h250v-62h-250v-254h265v-62q-56 -81 -56 -143q0 -24 14.5 -38.5t41.5 -14.5q22 0 43 8v-48q-26 -11 -58 -11q-15 0 -29.5 3t-33 12t-29.5 29.5t-11 49.5q0 80 66 153z" />
<glyph unicode="&#x119;" horiz-adv-x="534" d="M484 292q0 -59 -4 -71h-354q3 -65 48.5 -114.5t135.5 -49.5q60 0 115 25l19 7q8 0 9 -11q2 -28 2 -61q-57 -21 -128 -26q-50 -78 -50 -134q0 -24 15 -38t41 -14q13 0 44 7v-47q-32 -12 -59 -12q-11 0 -22.5 1.5t-27 7.5t-26.5 16t-19 27.5t-8 41.5q0 74 59 144 q-111 8 -167.5 75t-56.5 180q0 118 60.5 188t164.5 70q56 0 98.5 -19.5t65.5 -51.5t34 -67.5t11 -73.5zM408 280q0 1 0.5 6.5t0.5 8.5q0 54 -31.5 98.5t-103.5 44.5q-41 0 -71.5 -16.5t-46 -42.5t-23 -51t-7.5 -48h282z" />
<glyph unicode="&#x11a;" horiz-adv-x="511" d="M377 883h45l-89 -147h-77l-89 147h45l83 -95zM110 674v-674h341v62h-265v254h250v62h-250v234h263v62h-339z" />
<glyph unicode="&#x11b;" horiz-adv-x="535" d="M275 504q-104 0 -164.5 -70t-60.5 -188q0 -121 64 -188.5t189 -67.5q80 0 153 27q-3 57 -3 61q0 11 -9 11q-2 0 -18 -7q-55 -25 -115 -25q-91 0 -136.5 49.5t-48.5 114.5h355l1 10q1 10 2 26.5t1 34.5q0 38 -11 73.5t-34 67.5t-66 51.5t-99 19.5zM126 280q0 23 7.5 48.5 t23.5 51t46.5 42t70.5 16.5q72 0 103.5 -44.5t31.5 -98.5v-15h-283zM356 741h46l-90 -147h-77l-89 147h45l83 -95z" />
<glyph unicode="&#x11c;" horiz-adv-x="711" d="M339 736h-46l89 147h78l89 -147h-45l-83 94zM616 649l-20 -69q-1 0 -12.5 4.5t-26.5 9.5t-35.5 10t-47 8.5t-53.5 3.5q-132 0 -201.5 -77.5t-69.5 -201.5q0 -126 71 -203t200 -77q68 0 123 22v238h-132v62h209v-350q-89 -39 -204 -39q-162 0 -254.5 97t-92.5 250 q0 146 89 246.5t258 100.5q125 0 199 -35z" />
<glyph unicode="&#x11d;" horiz-adv-x="507" d="M171 594h-46l89 147h78l89 -147h-45l-83 94zM254 504q51 0 91 -16h142q0 -12 -2 -40q-2 -19 -18 -19h-50q29 -42 29 -97q0 -86 -52.5 -131t-139.5 -45q-24 0 -69 10q-13 -3 -27 -15t-14 -30q0 -45 69 -45h89q90 0 136 -36.5t46 -101.5q0 -82 -67.5 -133.5t-180.5 -51.5 q-97 0 -146.5 45.5t-49.5 110.5q0 34 17 61.5t31.5 38.5t29.5 18q-18 8 -33.5 27t-15.5 48q0 58 67 85q-74 44 -74 145q0 77 49 124.5t143 47.5zM116 -83q0 -44 32 -69.5t96 -25.5q80 0 122 30.5t42 72.5q0 35 -28.5 59.5t-91.5 24.5h-66q-12 0 -22.5 0.5t-17 0.5h-7.5 q-23 -10 -41 -34.5t-18 -58.5zM136 327q0 -49 30 -80.5t88 -31.5q55 0 86 30t31 82q0 51 -31 82.5t-86 31.5q-57 0 -87.5 -31.5t-30.5 -82.5z" />
<glyph unicode="&#x11e;" horiz-adv-x="711" d="M491 871h54q0 -40 -31 -73t-96 -33q-64 0 -96 33t-32 73h54q0 -20 17.5 -40t56.5 -20q37 0 55 20t18 40zM616 649l-20 -69q-1 0 -12.5 4.5t-26.5 9.5t-35.5 10t-47 8.5t-53.5 3.5q-132 0 -201.5 -77.5t-69.5 -201.5q0 -126 71 -203t200 -77q68 0 123 22v238h-132v62h209 v-350q-89 -39 -204 -39q-162 0 -254.5 97t-92.5 250q0 146 89 246.5t258 100.5q125 0 199 -35z" />
<glyph unicode="&#x11f;" horiz-adv-x="507" d="M254 504q-94 0 -143 -47.5t-49 -124.5q0 -101 74 -145q-67 -27 -67 -85q0 -29 15.5 -48t33.5 -27q-15 -7 -29.5 -18t-31.5 -38.5t-17 -61.5q0 -65 49.5 -110.5t146.5 -45.5q113 0 180.5 51.5t67.5 133.5q0 65 -46 101.5t-136 36.5h-89q-69 0 -69 45q0 18 14 30t27 15 q45 -10 69 -10q87 0 139.5 45t52.5 131q0 55 -29 97h50q16 0 18 19q2 28 2 40h-142q-40 16 -91 16zM116 -83q0 34 18 58.5t41 34.5h7.5t17 -0.5t22.5 -0.5h66q63 0 91.5 -24.5t28.5 -59.5q0 -42 -42 -72.5t-122 -30.5q-64 0 -96 25.5t-32 69.5zM136 327q0 51 30.5 82.5 t87.5 31.5q55 0 86 -31.5t31 -82.5q0 -52 -31 -82t-86 -30q-58 0 -88 31.5t-30 80.5zM329 736h54q0 -40 -31 -73t-96 -33q-64 0 -96 33t-32 73h54q0 -20 17.5 -40t56.5 -20q37 0 55 20t18 40z" />
<glyph unicode="&#x120;" horiz-adv-x="711" d="M371 780v78h78v-78h-78zM616 649l-20 -69q-1 0 -12.5 4.5t-26.5 9.5t-35.5 10t-47 8.5t-53.5 3.5q-132 0 -201.5 -77.5t-69.5 -201.5q0 -126 71 -203t200 -77q68 0 123 22v238h-132v62h209v-350q-89 -39 -204 -39q-162 0 -254.5 97t-92.5 250q0 146 89 246.5t258 100.5 q125 0 199 -35z" />
<glyph unicode="&#x121;" horiz-adv-x="507" d="M208 623v78h78v-78h-78zM254 504q-94 0 -143 -47.5t-49 -124.5q0 -101 74 -145q-67 -27 -67 -85q0 -29 15.5 -48t33.5 -27q-15 -7 -29.5 -18t-31.5 -38.5t-17 -61.5q0 -65 49.5 -110.5t146.5 -45.5q113 0 180.5 51.5t67.5 133.5q0 65 -46 101.5t-136 36.5h-89 q-69 0 -69 45q0 18 14 30t27 15q45 -10 69 -10q87 0 139.5 45t52.5 131q0 55 -29 97h50q16 0 18 19q2 28 2 40h-142q-40 16 -91 16zM116 -83q0 34 18 58.5t41 34.5h7.5t17 -0.5t22.5 -0.5h66q63 0 91.5 -24.5t28.5 -59.5q0 -42 -42 -72.5t-122 -30.5q-64 0 -96 25.5 t-32 69.5zM136 327q0 51 30.5 82.5t87.5 31.5q55 0 86 -31.5t31 -82.5q0 -52 -31 -82t-86 -30q-58 0 -88 31.5t-30 80.5z" />
<glyph unicode="&#x122;" horiz-adv-x="711" d="M374 -147v78h78v-78q0 -32 -23.5 -59.5t-49.5 -39.5l-13 18q46 31 46 81h-38zM616 649l-20 -69q-1 0 -12.5 4.5t-26.5 9.5t-35.5 10t-47 8.5t-53.5 3.5q-132 0 -201.5 -77.5t-69.5 -201.5q0 -126 71 -203t200 -77q68 0 123 22v238h-132v62h209v-350q-89 -39 -204 -39 q-162 0 -254.5 97t-92.5 250q0 146 89 246.5t258 100.5q125 0 199 -35z" />
<glyph unicode="&#x123;" horiz-adv-x="507" d="M287 594h-46l80 147h85zM254 504q51 0 91 -16h142q0 -12 -2 -40q-2 -19 -18 -19h-50q29 -42 29 -97q0 -86 -52.5 -131t-139.5 -45q-24 0 -69 10q-13 -3 -27 -15t-14 -30q0 -45 69 -45h89q90 0 136 -36.5t46 -101.5q0 -82 -67.5 -133.5t-180.5 -51.5q-97 0 -146.5 45.5 t-49.5 110.5q0 34 17 61.5t31.5 38.5t29.5 18q-18 8 -33.5 27t-15.5 48q0 58 67 85q-74 44 -74 145q0 77 49 124.5t143 47.5zM116 -83q0 -44 32 -69.5t96 -25.5q80 0 122 30.5t42 72.5q0 35 -28.5 59.5t-91.5 24.5h-66q-12 0 -22.5 0.5t-17 0.5h-7.5q-23 -10 -41 -34.5 t-18 -58.5zM136 327q0 -49 30 -80.5t88 -31.5q55 0 86 30t31 82q0 51 -31 82.5t-86 31.5q-57 0 -87.5 -31.5t-30.5 -82.5z" />
<glyph unicode="&#x124;" horiz-adv-x="739" d="M297 736h-46l89 147h78l89 -147h-45l-83 94zM553 674h76v-674h-76v317h-367v-317h-76v674h76v-295h367v295z" />
<glyph unicode="&#x125;" horiz-adv-x="581" d="M164 0h-74v717h74v-301h3q51 88 161 88q78 0 125.5 -47t47.5 -130v-327h-74v307q0 66 -30 98.5t-79 32.5q-65 0 -109.5 -53.5t-44.5 -141.5v-243zM236 736h-46l89 147h78l89 -147h-45l-83 94z" />
<glyph unicode="&#x126;" horiz-adv-x="706" d="M20 508v62h78v104h77v-104h365v104h77v-104h69v-62h-69v-508h-77v317h-365v-317h-77v508h-78zM175 379h365v129h-365v-129z" />
<glyph unicode="&#x127;" horiz-adv-x="588" d="M335 504q78 0 125.5 -47t47.5 -130v-327h-74v307q0 66 -30 98.5t-79 32.5q-65 0 -109 -53.5t-44 -140.5v-244h-75v573h-57v63h57v81h75v-81h184v-63h-184v-157h2q54 88 161 88z" />
<glyph unicode="&#x128;" horiz-adv-x="296" d="M12 774l-28 31q47 52 104 52q32 0 71.5 -18.5t66.5 -18.5q29 0 59 30l28 -30q-44 -52 -104 -52q-32 0 -71 18t-68 18q-25 0 -58 -30zM109 674v-674h77v674h-77z" />
<glyph unicode="&#x129;" horiz-adv-x="238" d="M83 0h74v494h-74v-494zM-18 624l-27 31q47 52 103 52q32 0 72 -18.5t67 -18.5q25 0 59 30l27 -30q-45 -53 -103 -53q-32 0 -71.5 18.5t-67.5 18.5q-26 0 -59 -30z" />
<glyph unicode="&#x12a;" horiz-adv-x="296" d="M109 674v-674h77v674h-77zM258 838v-51h-221v51h221z" />
<glyph unicode="&#x12b;" horiz-adv-x="238" d="M81 0h74v494h-74v-494zM229 696v-51h-221v51h221z" />
<glyph unicode="&#x12c;" horiz-adv-x="296" d="M108 674v-674h77v674h-77zM221 858h54q0 -40 -31 -73.5t-96 -33.5q-64 0 -96 33t-32 74h54q0 -20 17.5 -40.5t56.5 -20.5q37 0 55 20t18 41z" />
<glyph unicode="&#x12d;" horiz-adv-x="238" d="M82 0h74v494h-74v-494zM193 715h54q0 -40 -31.5 -73t-96.5 -33q-64 0 -95.5 33t-31.5 73h54q0 -19 17.5 -39.5t55.5 -20.5t56 20t18 40z" />
<glyph unicode="&#x12e;" horiz-adv-x="296" d="M188 0q-57 -83 -57 -143q0 -24 15 -38.5t41 -14.5q23 0 44 8v-48q-26 -11 -58 -11q-15 0 -29.5 3t-33 12t-29.5 29.5t-11 49.5q0 80 66 153h-25v674h77v-674z" />
<glyph unicode="&#x12f;" horiz-adv-x="238" d="M79 0h23q-67 -74 -67 -153q0 -29 11 -49.5t29.5 -29.5t33 -12t29.5 -3q30 0 59 11v48q-24 -8 -44 -8q-26 0 -41 14.5t-15 38.5q0 62 56 143v494h-74v-494zM77 623v78h78v-78h-78z" />
<glyph unicode="&#x130;" horiz-adv-x="296" d="M110 674v-674h77v674h-77zM109 780v78h78v-78h-78z" />
<glyph unicode="&#x131;" horiz-adv-x="234" d="M80 0v495h74v-495h-74z" />
<glyph unicode="&#x132;" horiz-adv-x="588" d="M110 0v674h76v-674h-76zM402 155v519h76v-509q0 -83 -45.5 -129t-122.5 -46q-41 0 -68 9v70q20 -12 61 -12q99 0 99 98z" />
<glyph unicode="&#x133;" horiz-adv-x="421" d="M81 0h75v494h-75v-494zM264 -99q0 -85 -91 -85q-16 0 -32.5 4t-18.5 4q-9 0 -10 -14q-2 -28 -4 -46q24 -11 69 -11q82 0 121.5 41.5t39.5 132.5v567h-74v-593zM80 623v78h78v-78h-78zM263 623v78h78v-78h-78z" />
<glyph unicode="&#x134;" horiz-adv-x="347" d="M161 155v519h76v-509q0 -83 -45.5 -129t-122.5 -46q-41 0 -68 9v70q20 -12 61 -12q99 0 99 98zM121 736h-46l89 147h78l89 -147h-45l-83 94z" />
<glyph unicode="&#x135;" horiz-adv-x="237" d="M76 -100v593h74v-567q0 -91 -39.5 -132.5t-121.5 -41.5q-45 0 -69 11l4 46q1 14 10 14q2 0 18.5 -4t32.5 -4q91 0 91 85zM29 594h-46l89 147h78l89 -147h-45l-83 94z" />
<glyph unicode="&#x136;" horiz-adv-x="572" d="M572 0h-106l-279 339v-339h-77v674h77v-321l265 321h91l-273 -326zM269 -147v78h78v-78q0 -32 -23.5 -59.5t-49.5 -39.5l-13 18q46 31 46 81h-38z" />
<glyph unicode="&#x137;" horiz-adv-x="464" d="M164 0h-74v717h74v-442l208 219h84l-215 -226l233 -268h-91l-219 260v-260zM250 -147v78h78v-78q0 -32 -23.5 -59.5t-49.5 -39.5l-13 18q46 31 46 81h-38z" />
<glyph unicode="&#x138;" horiz-adv-x="464" d="M164 0h-74v494h74v-219l208 219h84l-215 -226l233 -268h-91l-219 260v-260z" />
<glyph unicode="&#x139;" horiz-adv-x="436" d="M219 736h-46l80 147h86zM186 674v-612h250v-62h-326v674h76z" />
<glyph unicode="&#x13a;" horiz-adv-x="254" d="M137 766h-46l80 147h86zM164 0h-74v717h74v-717z" />
<glyph unicode="&#x13b;" horiz-adv-x="436" d="M186 674v-612h250v-62h-326v674h76zM240 -147v78h78v-78q0 -32 -23.5 -59.5t-49.5 -39.5l-13 18q46 31 46 81h-38z" />
<glyph unicode="&#x13c;" horiz-adv-x="254" d="M168 0h-74v717h74v-717zM93 -147v78h78v-78q0 -32 -23.5 -59.5t-49.5 -39.5l-13 18q46 31 46 81h-38z" />
<glyph unicode="&#x13d;" horiz-adv-x="437" d="M186 674v-612h250v-62h-326v674h76zM348 596v78h78v-78q0 -32 -23.5 -59.5t-49.5 -39.5l-13 18q46 31 46 81h-38z" />
<glyph unicode="&#x13e;" horiz-adv-x="291" d="M164 0h-74v717h74v-717zM243 596v78h78v-78q0 -32 -23.5 -59.5t-49.5 -39.5l-13 18q46 31 46 81h-38z" />
<glyph unicode="&#x13f;" horiz-adv-x="436" d="M186 674v-612h250v-62h-326v674h76zM308 341v78h78v-78h-78z" />
<glyph unicode="&#x140;" horiz-adv-x="325" d="M164 0h-74v717h74v-717zM237 307v78h78v-78h-78z" />
<glyph unicode="&#x141;" horiz-adv-x="434" d="M186 62h13h237v-62h-326v238l-56 -23l-22 57l78 31v371h76v-338l164 66l20 -56l-184 -75v-209z" />
<glyph unicode="&#x142;" horiz-adv-x="254" d="M216 467l34 -52l-103 -72q1 -114 1 -343h-75v292l-42 -29l-32 54l74 52v348h75v-297z" />
<glyph unicode="&#x143;" horiz-adv-x="748" d="M376 736h-46l80 147h86zM184 0h-74v674h100l348 -551h5v551h75v-674h-104l-346 562h-4v-562z" />
<glyph unicode="&#x144;" d="M324 594h-46l80 147h85zM159 0h-74v343q0 86 -5 151h63q13 0 13 -13l1 -69h3q57 92 163 92q76 0 124.5 -46t48.5 -128v-330h-74v310q0 61 -29.5 94.5t-79.5 33.5q-62 0 -108 -53t-46 -141v-244z" />
<glyph unicode="&#x145;" horiz-adv-x="748" d="M184 0h-74v674h100l348 -551h5v551h75v-674h-104l-346 562h-4v-562zM322 -147v78h78v-78q0 -32 -23.5 -59.5t-49.5 -39.5l-13 18q46 31 46 81h-38z" />
<glyph unicode="&#x146;" d="M159 0h-74v343q0 86 -5 151h63q13 0 13 -13l1 -69h3q57 92 163 92q76 0 124.5 -46t48.5 -128v-330h-74v310q0 61 -29.5 94.5t-79.5 33.5q-62 0 -108 -53t-46 -141v-244zM249 -147v78h78v-78q0 -32 -23.5 -59.5t-49.5 -39.5l-13 18q46 31 46 81h-38z" />
<glyph unicode="&#x147;" horiz-adv-x="748" d="M496 883h45l-89 -147h-77l-89 147h45l83 -95zM110 0h74v562h4l346 -562h104v674h-75v-551h-5l-348 551h-100v-674z" />
<glyph unicode="&#x148;" d="M85 0h74v244q0 88 46 141t108 53q50 0 79.5 -33.5t29.5 -94.5v-310h74v330q0 82 -48.5 128t-124.5 46q-106 0 -163 -92h-3q0 57 -1 69q0 13 -13 13h-63q5 -65 5 -151v-343zM199 741h46l82 -94l83 94h45l-89 -147h-78z" />
<glyph unicode="&#x149;" horiz-adv-x="597" d="M106 0h74v244q0 88 46 141t108 53q50 0 79.5 -33.5t29.5 -94.5v-310h74v330q0 82 -48.5 128t-124.5 46q-106 0 -163 -92h-3q0 57 -1 69q0 13 -13 13h-63q5 -65 5 -151v-343zM8 595v78h78v-78q0 -32 -23.5 -59.5t-49.5 -39.5l-13 18q46 31 46 81h-38z" />
<glyph unicode="&#x14a;" horiz-adv-x="748" d="M638 675v-675v-72q0 -84 -45.5 -129.5t-122.5 -45.5q-39 0 -69 9v69q33 -11 62 -11q46 0 72.5 24.5t26.5 73.5v66l-373 579h-4v-563h-75v675h101l348 -539h4v539h75z" />
<glyph unicode="&#x14b;" horiz-adv-x="586" d="M422 -99v409q0 61 -29.5 94.5t-79.5 33.5q-62 0 -108 -53t-46 -141v-244h-74v343q0 86 -5 151h63q13 0 13 -13l1 -69h3q57 92 163 92q76 0 124.5 -46t48.5 -128v-403q0 -91 -39.5 -132.5t-121.5 -41.5q-45 0 -69 11l4 46q1 14 10 14q2 0 18.5 -4t32.5 -4q91 0 91 85z" />
<glyph unicode="&#x14c;" horiz-adv-x="755" d="M377 684q-141 0 -224 -93t-83 -254q0 -162 83.5 -254.5t223.5 -92.5q145 0 226.5 95t81.5 252t-81.5 252t-226.5 95zM152 337q0 134 61.5 207t163.5 73q103 0 164.5 -73.5t61.5 -206.5q0 -131 -61 -205.5t-165 -74.5t-164.5 74t-60.5 206zM491 838v-51h-221v51h221z" />
<glyph unicode="&#x14d;" horiz-adv-x="580" d="M290 438q-75 0 -119.5 -50t-44.5 -141q0 -36 8 -67.5t26 -60t51.5 -45.5t78.5 -17q77 0 120.5 50.5t43.5 139.5q0 86 -42 138.5t-122 52.5zM50 247q0 108 58.5 182.5t181.5 74.5q117 0 178.5 -71t61.5 -186q0 -112 -59.5 -184.5t-180.5 -72.5q-112 0 -176 68t-64 189z M401 697v-52h-221v52h221z" />
<glyph unicode="&#x14e;" horiz-adv-x="755" d="M377 684q-141 0 -224 -93t-83 -254q0 -162 83.5 -254.5t223.5 -92.5q145 0 226.5 95t81.5 252t-81.5 252t-226.5 95zM152 337q0 134 61.5 207t163.5 73q103 0 164.5 -73.5t61.5 -206.5q0 -131 -61 -205.5t-165 -74.5t-164.5 74t-60.5 206zM457 858h54q0 -40 -31.5 -73.5 t-96.5 -33.5q-64 0 -96 33t-32 74h54q0 -20 17.5 -40.5t56.5 -20.5q37 0 55.5 20t18.5 41z" />
<glyph unicode="&#x14f;" horiz-adv-x="581" d="M290 438q-75 0 -119.5 -50t-44.5 -141q0 -36 8 -67.5t26 -60t51.5 -45.5t78.5 -17q77 0 120.5 50.5t43.5 139.5q0 86 -42 138.5t-122 52.5zM50 247q0 108 58.5 182.5t181.5 74.5q117 0 179 -71t62 -186q0 -112 -60 -184.5t-181 -72.5q-112 0 -176 68t-64 189zM364 716h54 q0 -40 -31.5 -73t-96.5 -33q-64 0 -95.5 33t-31.5 73h54q0 -20 17.5 -40.5t55.5 -20.5t56 20t18 41z" />
<glyph unicode="&#x150;" horiz-adv-x="755" d="M291 736h-46l80 147h86zM453 736h-46l80 147h86zM377 684q145 0 226.5 -95t81.5 -252q0 -156 -81.5 -251.5t-226.5 -95.5q-140 0 -223.5 92.5t-83.5 254.5q0 161 83 254t224 93zM152 337q0 -131 60.5 -205.5t164.5 -74.5t165 74.5t61 205.5q0 133 -61.5 206.5 t-164.5 73.5q-102 0 -163.5 -73t-61.5 -207z" />
<glyph unicode="&#x151;" horiz-adv-x="580" d="M357 594h-46l80 147h85zM197 594h-46l80 147h85zM290 438q-76 0 -120 -50t-44 -141q0 -49 13.5 -89.5t52 -71t98.5 -30.5q77 0 120.5 50.5t43.5 140.5q0 86 -42 138.5t-122 52.5zM50 247q0 50 13 94.5t40 82t75 59t112 21.5q117 0 178.5 -71t61.5 -186q0 -111 -60 -184 t-180 -73q-112 0 -176 67.5t-64 189.5z" />
<glyph unicode="&#x152;" horiz-adv-x="1004" d="M680 64h264v-64h-341v84q-81 -94 -225 -94q-140 0 -224 92.5t-84 254.5q0 161 83 254t225 93q143 0 225 -95v85h339v-62h-262v-234h249v-62h-249v-252zM378 57q104 0 164.5 74.5t60.5 205.5q0 132 -61.5 206t-163.5 74q-103 0 -164.5 -73t-61.5 -207q0 -132 61 -206 t165 -74z" />
<glyph unicode="&#x153;" horiz-adv-x="939" d="M530 280h283v15q0 54 -31.5 98.5t-103.5 44.5q-40 0 -70.5 -16.5t-46.5 -42t-23.5 -51t-7.5 -48.5zM126 247q0 -36 8 -67.5t26 -60t51.5 -45.5t78.5 -17q77 0 120.5 50t43.5 140q0 86 -42 138.5t-122 52.5q-75 0 -119.5 -50t-44.5 -141zM885 220h-355q3 -64 48.5 -113.5 t136.5 -49.5q62 0 115 24q14 8 19 8q8 0 9 -11q2 -28 2 -62q-82 -26 -153 -26q-154 0 -215 102q-62 -102 -202 -102q-112 0 -176 68t-64 189q0 108 58.5 182.5t181.5 74.5q140 0 202 -102q61 102 188 102q56 0 98.5 -19.5t65.5 -51.5t34 -67.5t11 -73.5q0 -56 -4 -72z" />
<glyph unicode="&#x154;" horiz-adv-x="598" d="M313 736h-46l80 147h86zM186 340q27 -3 91 -3q90 0 134 37.5t44 104.5q0 65 -45 101t-133 36q-76 0 -91 -3v-273zM474 0l-154 280h-134v-280h-76v674h184q114 0 177 -53t63 -144q0 -40 -12.5 -73t-28.5 -51t-38.5 -32t-33.5 -18.5t-23 -7.5l160 -295h-84z" />
<glyph unicode="&#x155;" horiz-adv-x="371" d="M195 594h-46l80 147h85zM80 494h57q9 0 11 -3t3 -10q0 -5 0.5 -31t0.5 -32h3q43 86 152 86q31 0 64 -11q0 -26 -2 -54q0 -10 -8 -10q-5 0 -26.5 4.5t-42.5 4.5q-63 0 -97.5 -50t-34.5 -143v-245h-74v355q0 77 -6 139z" />
<glyph unicode="&#x156;" horiz-adv-x="598" d="M291 -147v78h78v-78q0 -32 -23.5 -59.5t-49.5 -39.5l-13 18q46 31 46 81h-38zM186 340q27 -3 91 -3q90 0 134 37.5t44 104.5q0 65 -45 101t-133 36q-76 0 -91 -3v-273zM474 0l-154 280h-134v-280h-76v674h184q114 0 177 -53t63 -144q0 -40 -12.5 -73t-28.5 -51t-38.5 -32 t-33.5 -18.5t-23 -7.5l160 -295h-84z" />
<glyph unicode="&#x157;" horiz-adv-x="371" d="M73 494h57q9 0 11 -3t3 -10q0 -5 0.5 -31t0.5 -32h3q43 86 152 86q31 0 64 -11q0 -26 -2 -54q0 -10 -8 -10q-5 0 -26.5 4.5t-42.5 4.5q-63 0 -97.5 -50t-34.5 -143v-245h-74v355q0 77 -6 139zM78 -147v78h78v-78q0 -32 -23.5 -59.5t-49.5 -39.5l-13 18q46 31 46 81h-38z " />
<glyph unicode="&#x158;" horiz-adv-x="598" d="M396 883h45l-89 -147h-77l-89 147h45l83 -95zM186 340q27 -3 91 -3q90 0 134 37.5t44 104.5q0 65 -45 101t-133 36q-76 0 -91 -3v-273zM474 0l-154 280h-134v-280h-76v674h184q114 0 177 -53t63 -144q0 -40 -12.5 -73t-28.5 -51t-38.5 -32t-33.5 -18.5t-23 -7.5l160 -295 h-84z" />
<glyph unicode="&#x159;" horiz-adv-x="371" d="M80 494q6 -62 6 -139v-355h74v245q0 93 34.5 143t97.5 50q21 0 42.5 -4.5t26.5 -4.5q8 0 8 10q2 28 2 54q-33 11 -64 11q-109 0 -152 -86h-3q0 6 -0.5 32t-0.5 31q-5 12 -14 13h-57zM87 741h46l82 -94l83 94h45l-89 -147h-78z" />
<glyph unicode="&#x15a;" horiz-adv-x="512" d="M304 736h-46l80 147h86zM423 670l-6 -71q-48 18 -121 18q-72 0 -114.5 -27.5t-42.5 -82.5q0 -72 87 -107l68 -28q158 -66 158 -189q0 -83 -62.5 -138t-175.5 -55q-93 0 -146 16l4 74q69 -23 134 -23q79 0 123 33t44 89q0 46 -31.5 74.5t-84.5 50.5l-63 26 q-134 56 -134 174q0 82 61 131.5t179 49.5q53 0 123 -15z" />
<glyph unicode="&#x15b;" horiz-adv-x="393" d="M219 504q61 0 110 -11q0 -5 -2 -53q-1 -21 -12 -21q-4 0 -15.5 4.5t-34 9.5t-52.5 5q-43 0 -70.5 -19.5t-27.5 -49.5q0 -28 18 -45t59 -32l48 -17q48 -17 80.5 -51.5t32.5 -83.5q0 -80 -55 -115t-144 -35q-71 0 -108 11q0 8 3 56q0 14 12 14q4 0 17 -3.5t36.5 -7 t51.5 -3.5q51 0 81.5 19t30.5 56q0 27 -20.5 46t-63.5 34l-34 13q-120 40 -120 137q0 68 51 105t128 37zM226 594h-46l80 147h85z" />
<glyph unicode="&#x15c;" horiz-adv-x="512" d="M423 670l-6 -71q-48 18 -121 18q-72 0 -114.5 -27.5t-42.5 -82.5q0 -72 87 -107l68 -28q158 -66 158 -189q0 -83 -62.5 -138t-175.5 -55q-93 0 -146 16l4 74q69 -23 134 -23q79 0 123 33t44 89q0 46 -31.5 74.5t-84.5 50.5l-63 26q-134 56 -134 174q0 82 61 131.5 t179 49.5q53 0 123 -15zM215 736h-46l89 147h78l89 -147h-45l-83 94z" />
<glyph unicode="&#x15d;" horiz-adv-x="393" d="M219 504q61 0 110 -11q0 -5 -2 -53q-1 -21 -12 -21q-4 0 -15.5 4.5t-34 9.5t-52.5 5q-43 0 -70.5 -19.5t-27.5 -49.5q0 -28 18 -45t59 -32l48 -17q48 -17 80.5 -51.5t32.5 -83.5q0 -80 -55 -115t-144 -35q-71 0 -108 11q0 8 3 56q0 14 12 14q4 0 17 -3.5t36.5 -7 t51.5 -3.5q51 0 81.5 19t30.5 56q0 27 -20.5 46t-63.5 34l-34 13q-120 40 -120 137q0 68 51 105t128 37zM132 594h-46l89 147h78l89 -147h-45l-83 94z" />
<glyph unicode="&#x15e;" horiz-adv-x="511" d="M451 183q0 -77 -54.5 -130.5t-153.5 -61.5l-19 -41q15 3 25 3q34 0 52.5 -21t18.5 -52q0 -47 -41 -84t-95 -43l-23 29q36 6 69 29.5t33 55.5q0 21 -13 35t-42 14h-35l21 75q-81 2 -126 15l4 74q69 -23 134 -23q79 0 123 33t44 89q0 46 -31 73.5t-85 50.5l-64 27 q-133 55 -133 174q0 82 60.5 131t179.5 49q58 0 123 -14l-6 -71q-58 18 -121 18q-72 0 -114.5 -27.5t-42.5 -82.5q0 -72 87 -107l67 -28q158 -65 158 -189z" />
<glyph unicode="&#x15f;" horiz-adv-x="393" d="M353 140q0 -139 -174 -150l-19 -42q10 4 25 4q34 0 52.5 -21t18.5 -52q0 -47 -41 -84t-95 -43l-24 28q37 7 70 30.5t33 55.5q0 48 -55 48h-35l22 76q-44 1 -85 10q0 9 3 57q0 13 12 13q4 0 17 -3.5t36.5 -7t51.5 -3.5q51 0 81.5 19.5t30.5 55.5q0 28 -20.5 47t-63.5 34 l-35 12q-52 19 -85.5 49.5t-33.5 87.5q0 68 51 105.5t128 37.5q56 0 110 -12q0 -5 -2 -53q-1 -20 -12 -20q-4 0 -15.5 4.5t-34 9t-52.5 4.5q-43 0 -70.5 -19.5t-27.5 -49.5q0 -27 18 -45t59 -32l48 -17q48 -17 80.5 -51t32.5 -83z" />
<glyph unicode="&#x160;" horiz-adv-x="512" d="M417 599l6 70q-52 15 -123 15q-119 0 -179.5 -49t-60.5 -131q0 -119 134 -175l63 -26q53 -22 84.5 -50.5t31.5 -74.5q0 -56 -44 -88.5t-123 -32.5q-75 0 -134 23l-4 -74q46 -16 145 -16q113 0 176 55t63 138q0 122 -158 188l-68 28q-87 37 -87 108q0 55 42.5 82.5 t114.5 27.5q63 0 121 -18zM362 883h46l-89 -147h-78l-89 147h45l83 -95z" />
<glyph unicode="&#x161;" horiz-adv-x="393" d="M219 504q-77 0 -128 -37t-51 -105q0 -57 33.5 -87.5t85.5 -49.5l35 -12q84 -30 84 -81q0 -36 -30.5 -55.5t-81.5 -19.5q-28 0 -51.5 3.5t-36.5 7t-17 3.5q-12 0 -12 -13q-3 -48 -3 -57q37 -11 108 -11q89 0 144 35.5t55 115.5q0 48 -32.5 82.5t-80.5 51.5l-48 17 q-41 14 -59 32t-18 45q0 30 27.5 49.5t70.5 19.5q30 0 52.5 -4.5t34 -9t15.5 -4.5q11 0 12 20q2 48 2 53q-50 11 -110 11zM294 740h46l-89 -146h-78l-89 146h46l82 -94z" />
<glyph unicode="&#x162;" horiz-adv-x="482" d="M202 -147v78h78v-78q0 -32 -23.5 -59.5t-49.5 -39.5l-13 18q46 31 46 81h-38zM482 674v-62h-204v-612h-76v612h-202v62h482z" />
<glyph unicode="&#x163;" horiz-adv-x="341" d="M253 -10q-152 0 -152 161v280h-91v63h91v109h74v-109h150v-63h-150v-280q0 -51 19.5 -73t60.5 -22q19 0 40 4.5t22 4.5q10 0 10 -14q2 -32 4 -50q-30 -11 -78 -11zM197 -147v78h78v-78q0 -32 -23.5 -59.5t-49.5 -39.5l-13 18q46 31 46 81h-38z" />
<glyph unicode="&#x164;" horiz-adv-x="482" d="M327 883h45l-89 -147h-77l-89 147h45l83 -95zM482 674v-62h-204v-612h-76v612h-202v62h482z" />
<glyph unicode="&#x165;" horiz-adv-x="416" d="M253 -10q48 0 78 11l-4 50q0 14 -10 14q-1 0 -22 -4.5t-40 -4.5q-41 0 -60.5 22t-19.5 73v280h150v63h-150v109h-74v-109h-91v-63h91v-280q0 -161 152 -161zM368 596v78h78v-78q0 -32 -23.5 -59.5t-49.5 -39.5l-13 18q46 31 46 81h-38z" />
<glyph unicode="&#x166;" horiz-adv-x="480" d="M279 316v-316h-77v316h-202v62h202v234h-202v62h480v-62h-201v-234h201v-62h-201z" />
<glyph unicode="&#x167;" horiz-adv-x="342" d="M328 51q2 -32 4 -50q-30 -11 -78 -11q-152 0 -152 161v128h-91v63h91v90h-92v62h92v109h74v-109h150v-62h-150v-90h151v-63h-151v-127q0 -52 19.5 -73.5t60.5 -21.5q18 0 40 4l22 4q9 0 10 -14z" />
<glyph unicode="&#x168;" horiz-adv-x="735" d="M369 -10q-135 0 -197 75.5t-62 198.5v410h77v-410q0 -207 182 -207q179 0 179 207v410h77v-410q0 -126 -62.5 -200t-193.5 -74zM202 805q47 52 103 52q32 0 71.5 -18.5t66.5 -18.5q26 0 60 30l27 -30q-45 -53 -103 -53q-32 0 -71.5 18.5t-67.5 18.5q-26 0 -59 -30z" />
<glyph unicode="&#x169;" d="M491 495h-74v-245q0 -88 -45.5 -140.5t-108.5 -52.5q-50 0 -79.5 33t-29.5 94v311h-74v-331q0 -82 48.5 -128t124.5 -46q106 0 163 92h3q0 -57 1 -68q0 -14 13 -14h63q-5 98 -5 151v344zM138 625l-27 30q7 9 18.5 19t36 22t48.5 12q32 0 71.5 -18.5t66.5 -18.5 q26 0 60 30l27 -31q-46 -52 -103 -52q-33 0 -72 18.5t-67 18.5q-26 0 -59 -30z" />
<glyph unicode="&#x16a;" horiz-adv-x="734" d="M368 -10q132 0 194 74t62 200v410h-77v-410q0 -207 -179 -207q-181 0 -181 207v410h-77v-410q0 -123 61.5 -198.5t196.5 -75.5zM481 838v-51h-222v51h222z" />
<glyph unicode="&#x16b;" d="M491 495h-75v-245q0 -88 -45.5 -140.5t-107.5 -52.5q-50 0 -79.5 33t-29.5 94v311h-74v-331q0 -82 48.5 -128t124.5 -46q106 0 163 92h3v-68q1 -14 13 -14h64q-5 65 -5 151v344zM393 697v-52h-221v52h221z" />
<glyph unicode="&#x16c;" horiz-adv-x="734" d="M368 -10q132 0 194 74t62 200v410h-77v-410q0 -207 -179 -207q-181 0 -181 207v410h-77v-410q0 -123 61.5 -198.5t196.5 -75.5zM427 858h54q0 -40 -31 -73.5t-96 -33.5q-64 0 -96 33t-32 74h54q0 -20 17.5 -40.5t56.5 -20.5q37 0 55 20t18 41z" />
<glyph unicode="&#x16d;" d="M490 495h-74v-245q0 -88 -45.5 -140.5t-107.5 -52.5q-50 0 -79.5 33t-29.5 94v311h-74v-331q0 -82 48.5 -128t124.5 -46q106 0 163 92h2q1 -57 1 -68q0 -14 13 -14h64q-6 78 -6 151v344zM357 716h54q0 -40 -31 -73t-96 -33q-64 0 -96 33t-32 73h54q0 -20 17.5 -40 t56.5 -20q37 0 55 20t18 40z" />
<glyph unicode="&#x16e;" horiz-adv-x="734" d="M624 265q0 -126 -62 -200.5t-194 -74.5q-135 0 -196.5 76t-61.5 199v409h77v-409q0 -208 181 -208q180 0 180 208v409h76v-409zM467 786q0 -40 -29 -68.5t-70 -28.5t-70.5 28.5t-29.5 68.5t29.5 68.5t70.5 28.5t70 -28.5t29 -68.5zM368 837q-21 0 -36 -15t-15 -36t15 -36 t36 -15t36 15t15 36t-15 36t-36 15z" />
<glyph unicode="&#x16f;" d="M416 494h75v-343q0 -86 5 -151h-64q-12 0 -13 14v68h-3q-57 -92 -163 -92q-76 0 -124.5 46t-48.5 128v330h74v-310q0 -61 29.5 -94.5t79.5 -33.5q62 0 107.5 53t45.5 141v244zM390 644q0 -40 -29 -68.5t-70 -28.5t-70.5 28.5t-29.5 68.5t29.5 68.5t70.5 28.5t70 -28.5 t29 -68.5zM291 695q-21 0 -36 -15t-15 -36t15 -36t36 -15t36 15t15 36t-15 36t-36 15z" />
<glyph unicode="&#x170;" horiz-adv-x="734" d="M464 736h-46l80 147h86zM309 736h-46l80 147h86zM624 265q0 -126 -62 -200.5t-194 -74.5q-135 0 -196.5 76t-61.5 199v409h77v-409q0 -208 181 -208q180 0 180 208v409h76v-409z" />
<glyph unicode="&#x171;" d="M376 594h-46l80 147h85zM220 594h-46l80 147h85zM416 494h75v-343q0 -86 5 -151h-64q-12 0 -13 14v68h-3q-57 -92 -163 -92q-76 0 -124.5 46t-48.5 128v330h74v-310q0 -61 29.5 -94.5t79.5 -33.5q62 0 107.5 53t45.5 141v244z" />
<glyph unicode="&#x172;" horiz-adv-x="734" d="M547 674h77v-410q0 -119 -55.5 -192t-172.5 -81q-51 -78 -51 -134q0 -24 15 -38.5t41 -14.5q20 0 44 8v-48q-26 -11 -58 -11q-15 0 -29.5 3t-33 12t-29.5 29.5t-11 49.5q0 74 58 143q-121 8 -176.5 82.5t-55.5 191.5v410h77v-410q0 -208 181 -208q179 0 179 208v410z" />
<glyph unicode="&#x173;" d="M433 0q-13 0 -13 14l-1 68h-3q-57 -92 -163 -92q-76 0 -124.5 46t-48.5 128v331h74v-311q0 -61 29.5 -94t79.5 -33q62 0 108 52.5t46 140.5v245h74v-344q0 -86 5 -151q-56 -81 -56 -143q0 -24 14.5 -38t40.5 -14q23 0 44 8v-48q-28 -12 -58 -12q-11 0 -22.5 1.5t-27 7.5 t-26.5 16t-19 27.5t-8 41.5q0 46 22 88t44 65h-11z" />
<glyph unicode="&#x174;" horiz-adv-x="917" d="M201 0l-181 674h85l148 -574h2l159 574h96l163 -574h3l145 574h76l-177 -674h-98l-164 581h-2l-160 -581h-95zM372 736h-46l89 147h78l89 -147h-45l-83 94z" />
<glyph unicode="&#x175;" horiz-adv-x="748" d="M155 0l-135 494h77l106 -389h4l123 389h78l128 -389h4l111 389h77l-147 -494h-89l-122 372h-4l-120 -372h-91zM299 594h-46l89 147h78l89 -147h-45l-83 94z" />
<glyph unicode="&#x176;" horiz-adv-x="502" d="M210 0v248l-210 426h84l170 -342l168 342h80l-215 -426v-248h-77zM172 736h-46l89 147h78l89 -147h-45l-83 94z" />
<glyph unicode="&#x177;" horiz-adv-x="457" d="M196 -2l-194 496h89l145 -387h3l140 387h78q-148 -403 -192 -524q-12 -33 -18.5 -49t-19.5 -44t-23 -42t-27.5 -32.5t-35.5 -27.5t-43.5 -15.5t-55.5 -6.5q-39 0 -72 11q2 19 5 54q1 12 10 12q2 0 22.5 -3.5t36.5 -3.5q45 0 74 21.5t50 77.5zM168 594h-46l89 147h78 l89 -147h-45l-83 94z" />
<glyph unicode="&#x178;" horiz-adv-x="502" d="M210 247v-247h77v247l215 427h-80l-168 -343l-170 343h-84zM121 780v78h78v-78h-78zM306 780v78h78v-78h-78z" />
<glyph unicode="&#x179;" horiz-adv-x="529" d="M299 736h-46l80 147h86zM40 0v66l359 547h-351v61h437v-65l-353 -545h357v-64h-449z" />
<glyph unicode="&#x17a;" horiz-adv-x="421" d="M44 432v62h343v-66l-268 -364h272v-64h-361v68l268 364h-254zM233 594h-46l80 147h85z" />
<glyph unicode="&#x17b;" horiz-adv-x="529" d="M40 0v66l359 547h-351v61h437v-65l-353 -545h357v-64h-449zM237 780v78h78v-78h-78z" />
<glyph unicode="&#x17c;" horiz-adv-x="421" d="M44 494v-62h254l-268 -364v-68h361v64h-272l268 364v66h-343zM176 623v78h78v-78h-78z" />
<glyph unicode="&#x17d;" horiz-adv-x="529" d="M40 65v-65h449v64h-358l354 545v65h-437v-62h351zM357 883h45l-89 -147h-77l-89 147h45l83 -95z" />
<glyph unicode="&#x17e;" horiz-adv-x="386" d="M22 494v-62h254l-268 -364v-68h361v64h-272l268 364v66h-343zM274 740h45l-89 -146h-77l-90 146h46l82 -94z" />
<glyph unicode="&#x192;" horiz-adv-x="497" d="M384 617q-44 0 -76 -30.5t-37 -93.5l-9 -102h152l-5 -62h-152q-6 -60 -18 -203t-15 -173q-18 -201 -189 -201q-47 0 -75 7l7 66q27 -6 66 -6q45 0 76 31t37 93q1 6 6.5 73t13 158.5t13.5 154.5h-89l4 62h91q7 84 8 93q3 39 13 71.5t30.5 63t57.5 48t88 17.5q47 0 75 -7 l-7 -66q-1 0 -9.5 1.5t-23.5 3t-33 1.5z" />
<glyph unicode="&#x1fc;" horiz-adv-x="845" d="M487 736h-45l80 147h85zM444 584h-4l-239 -357h243v357zM418 674h365v-62h-262v-234h249v-62h-249v-252h264v-64h-341v164h-285l-111 -164h-88z" />
<glyph unicode="&#x1fd;" horiz-adv-x="845" d="M235 227q-62 0 -90.5 -25t-28.5 -58q0 -40 29.5 -63.5t79.5 -23.5q66 0 101.5 44.5t35.5 111.5v14h-127zM412 416q52 88 174 88q56 0 98.5 -18.5t65.5 -49t34 -64.5t11 -72q0 -57 -4 -73h-354q3 -65 48.5 -117.5t135.5 -52.5q62 0 115 24q14 8 19 8q8 0 9 -11 q2 -28 2 -62q-82 -26 -153 -26q-155 0 -217 106h-2q-11 -19 -20 -31.5t-30.5 -32.5t-56 -31t-80.5 -11q-75 0 -121 43.5t-46 107.5q0 63 49.5 105t143.5 42v0v0v0v0h1v0h1h1h1h1h1h1h1h1h1h1h1h1h1h1h1h1h1h1h1h1h1h1h1h1h2h1h1h1h1h1h1h2h1h1h1h2h1h1h2h1h1h2h1h1h2h1h1h2 h1h2h1h2h1h2h1h2h1h2h1h2h1h2h2h1h2h1h2h2h1h2h2h1h2h2h1h2h2h2h1h2h2h2h1h2h2h2h2h9v42q0 43 -33 75.5t-99 32.5q-55 0 -120 -28l-18 -7q-9 0 -9 11q-2 36 -2 58q78 32 155 32q128 0 176 -88zM437 288h282q0 1 0.5 6.5t0.5 8.5q0 32 -10.5 60.5t-43 51.5t-82.5 23 q-40 0 -70.5 -15.5t-46 -39.5t-23 -48t-7.5 -47zM422 595h-45l80 146h85z" />
<glyph unicode="&#x1fe;" horiz-adv-x="754" d="M684 337q0 -156 -81 -251.5t-226 -95.5q-41 0 -84 10l-36 -101l-65 22l37 104q-75 39 -117 119.5t-42 192.5q0 161 83 254.5t224 93.5q40 0 83 -10l35 100l66 -22l-36 -102q77 -40 118 -122t41 -192zM254 93l184 517q-30 8 -61 8q-102 0 -163.5 -73.5t-61.5 -207.5 q0 -175 102 -244zM499 583l-185 -518q32 -8 63 -8q104 0 165 74.5t61 205.5q0 175 -104 246zM364 736h-45l80 147h85z" />
<glyph unicode="&#x1ff;" horiz-adv-x="580" d="M279 595h-45l80 146h85zM530 247q0 -112 -59.5 -184.5t-180.5 -72.5q-32 0 -62 6l-38 -99l-62 19l39 102q-117 62 -117 229q0 108 58.5 182.5t181.5 74.5q34 0 62 -6l39 99l62 -19l-40 -102q58 -31 87.5 -90.5t29.5 -138.5zM196 83l135 351q-26 4 -41 4q-75 0 -119.5 -50 t-44.5 -141q0 -116 70 -164zM385 411l-136 -350q17 -4 41 -4q77 0 120.5 50t43.5 140q0 114 -69 164z" />
<glyph unicode="&#x218;" horiz-adv-x="512" d="M423 670l-6 -71q-48 18 -121 18q-72 0 -114.5 -27.5t-42.5 -82.5q0 -72 87 -107l68 -28q158 -66 158 -189q0 -83 -62.5 -138t-175.5 -55q-93 0 -146 16l4 74q69 -23 134 -23q79 0 123 33t44 89q0 46 -31.5 74.5t-84.5 50.5l-63 26q-134 56 -134 174q0 82 61 131.5 t179 49.5q53 0 123 -15zM177 -147v78h78v-78q0 -32 -23.5 -59.5t-49.5 -39.5l-13 18q46 31 46 81h-38z" />
<glyph unicode="&#x219;" horiz-adv-x="423" d="M378 521l-16 -68q-57 19 -121 19q-51 0 -77 -21.5t-26 -54.5q0 -17 6.5 -30t21.5 -23t26 -15.5t34 -15.5l38 -16q55 -22 87 -60.5t32 -87.5q0 -73 -53.5 -115.5t-152.5 -42.5q-80 0 -137 20l16 68q57 -19 116 -19q65 0 97.5 23.5t32.5 61.5q0 53 -63 79l-58 24 q-58 25 -90.5 58t-32.5 91q0 65 49.5 105t136.5 40q82 0 134 -20zM141 -147v78h78v-78q0 -32 -23.5 -59.5t-49.5 -39.5l-13 18q46 31 46 81h-38z" />
<glyph unicode="&#x21a;" horiz-adv-x="482" d="M202 -147v78h78v-78q0 -32 -23.5 -59.5t-49.5 -39.5l-13 18q46 31 46 81h-38zM482 674v-62h-204v-612h-76v612h-202v62h482z" />
<glyph unicode="&#x21b;" horiz-adv-x="341" d="M253 -10q-152 0 -152 161v280h-91v63h91v109h74v-109h150v-63h-150v-280q0 -51 19.5 -73t60.5 -22q19 0 40 4.5t22 4.5q10 0 10 -14q2 -32 4 -50q-30 -11 -78 -11zM208 -147v78h78v-78q0 -32 -23.5 -59.5t-49.5 -39.5l-13 18q46 31 46 81h-38z" />
<glyph unicode="&#x237;" horiz-adv-x="230" d="M76 -99v593h74v-567q0 -91 -39.5 -132.5t-121.5 -41.5q-45 0 -69 11l4 46q1 14 10 14q2 0 18.5 -4t32.5 -4q91 0 91 85z" />
<glyph unicode="&#x2c6;" horiz-adv-x="320" d="M290 554h-46l-82 95l-82 -95h-46l89 147h78z" />
<glyph unicode="&#x2c7;" horiz-adv-x="321" d="M20 701h74l68 -88l70 88h69l-90 -147h-100z" />
<glyph unicode="&#x2d8;" horiz-adv-x="300" d="M223 701h54q0 -39 -31.5 -72.5t-95.5 -33.5t-96 33t-32 73h54q0 -20 17.5 -40t56.5 -20q37 0 55 20t18 40z" />
<glyph unicode="&#x2d9;" horiz-adv-x="160" d="M40 623v78h78v-78h-78z" />
<glyph unicode="&#x2da;" horiz-adv-x="238" d="M222 604q0 -41 -29 -69.5t-70 -28.5t-70 28.5t-29 69.5q0 40 29 68.5t70 28.5t70 -28.5t29 -68.5zM123 654q-21 0 -36 -14.5t-15 -35.5t15 -36t36 -15t36 15t15 36t-15 35.5t-36 14.5z" />
<glyph unicode="&#x2db;" horiz-adv-x="220" d="M148 0q-56 -81 -56 -143q0 -24 14.5 -38t41.5 -14q22 0 43 8v-48q-28 -12 -58 -12q-11 0 -22.5 1.5t-27 7.5t-26.5 16t-19 27.5t-8 41.5q0 46 22 88t44 65h52z" />
<glyph unicode="&#x2dc;" horiz-adv-x="400" d="M35 648q7 9 18.5 19t36 22t49.5 12q31 0 71 -18.5t67 -18.5q25 0 59 30l28 -30q-45 -53 -104 -53q-32 0 -71.5 18.5t-67.5 18.5q-23 0 -59 -30z" />
<glyph unicode="&#x2dd;" horiz-adv-x="390" d="M81 554h-61l81 147h107zM242 554h-60l80 147h108z" />
<glyph unicode="&#x401;" horiz-adv-x="511" d="M110 674v-674h341v64h-264v253h249v62h-249v233h262v62h-339zM159 780v78h78v-78h-78zM344 780v78h78v-78h-78z" />
<glyph unicode="&#x402;" horiz-adv-x="725" d="M576 167q0 90 -47 147.5t-141 57.5q-34 0 -65.5 -8.5t-41.5 -14.5v-349h-77v612h-204v62h480v-62h-199v-199q61 26 127 26q122 0 184.5 -74t62.5 -185q0 -66 -19.5 -121.5t-52.5 -94t-67.5 -64t-72.5 -42.5l-33 54q26 13 49.5 30t52.5 47t46.5 76.5t17.5 101.5z" />
<glyph unicode="&#x403;" horiz-adv-x="465" d="M187 0v612h268v62h-345v-674h77zM299 736h-45l80 147h85z" />
<glyph unicode="&#x404;" horiz-adv-x="585" d="M396 684q70 0 159 -28l-17 -71q-76 33 -151 33q-92 0 -157.5 -61t-76.5 -178h329v-62h-330q6 -115 66.5 -187.5t170.5 -72.5q63 0 149 33l17 -71q-87 -29 -159 -29q-154 0 -240 97.5t-86 249.5q0 69 19.5 130.5t58 110.5t102.5 77.5t146 28.5z" />
<glyph unicode="&#x405;" horiz-adv-x="511" d="M423 670l-6 -71q-58 18 -121 18q-72 0 -114.5 -27.5t-42.5 -82.5q0 -71 87 -108l67 -28q158 -65 158 -188q0 -83 -62.5 -138t-175.5 -55q-99 0 -145 16l4 74q59 -23 134 -23q79 0 123 32.5t44 88.5q0 46 -31.5 74.5t-84.5 50.5l-63 26q-134 56 -134 175q0 82 60.5 131 t179.5 49q58 0 123 -14z" />
<glyph unicode="&#x406;" horiz-adv-x="296" d="M110 0v674h77v-674h-77z" />
<glyph unicode="&#x407;" horiz-adv-x="296" d="M114 674v-674h77v674h-77zM16 780v78h78v-78h-78zM201 780v78h78v-78h-78z" />
<glyph unicode="&#x408;" horiz-adv-x="347" d="M161 155v519h76v-509q0 -83 -45.5 -129t-122.5 -46q-41 0 -68 9v70q20 -12 61 -12q99 0 99 98z" />
<glyph unicode="&#x409;" horiz-adv-x="963" d="M673 433q103 0 171.5 -60t68.5 -162t-70.5 -161.5t-200.5 -59.5q-85 0 -158 23v599h-261v-289q0 -73 -14 -130.5t-31.5 -89t-49 -58t-48 -35t-47.5 -21.5l-32 56q69 29 107 84t38 153v392h415v-256q45 15 112 15zM650 57q79 0 132 38t53 115q0 73 -47.5 114t-137.5 41 q-45 0 -89 -11v-286q31 -11 89 -11z" />
<glyph unicode="&#x40a;" horiz-adv-x="926" d="M187 0h-77v674h77v-296h260v296h77v-256q48 15 112 15q103 0 171.5 -60t68.5 -162t-70 -161.5t-200 -59.5q-82 0 -159 23v303h-260v-316zM610 57q79 0 132 38t53 115q0 73 -48 114t-137 41q-46 0 -90 -11v-286q33 -11 90 -11z" />
<glyph unicode="&#x40b;" horiz-adv-x="724" d="M410 439q113 0 168.5 -59t55.5 -156v-224h-76v215q0 74 -40 116t-120 42q-53 0 -116 -28v-345h-77v612h-205v62h479v-62h-197v-204q58 31 128 31z" />
<glyph unicode="&#x40c;" horiz-adv-x="572" d="M466 0l-279 339v-339h-77v675h77v-322l265 322h91l-273 -327l302 -348h-106zM280 736l80 147h85l-119 -147h-46z" />
<glyph unicode="&#x40e;" horiz-adv-x="530" d="M230 165l4 10l-234 499h86l190 -407h2l164 407h88q-146 -344 -199 -467q-45 -104 -68 -137q-57 -81 -161 -81q-38 0 -74 12q2 16 7 50q2 13 10 13l20 -4q20 -4 39 -4q44 0 72.5 25t53.5 84zM394 857q0 -39 -32 -72.5t-96 -33.5t-96 33t-32 73h54q0 -19 17.5 -39.5 t56.5 -20.5q37 0 55.5 20t18.5 40h54z" />
<glyph unicode="&#x40f;" horiz-adv-x="738" d="M628 674v-674h-220v-163h-77v163h-221v674h77v-610h364v610h77z" />
<glyph unicode="&#x410;" horiz-adv-x="604" d="M264 674h78l252 -674h-87l-58 164h-300l-60 -164h-79zM297 584l-127 -357h257l-128 357h-2z" />
<glyph unicode="&#x411;" horiz-adv-x="589" d="M445 674v-62h-258v-194q45 15 112 15q103 0 171.5 -60t68.5 -162t-70 -161.5t-201 -59.5q-81 0 -158 23v661h335zM277 57q78 0 131.5 38t53.5 115q0 73 -48 114t-137 41q-46 0 -90 -11v-286q31 -11 90 -11z" />
<glyph unicode="&#x412;" horiz-adv-x="577" d="M110 674h187q58 0 102 -16.5t68 -43t35 -55t11 -58.5q0 -35 -14.5 -64t-37 -46t-37.5 -25.5t-26 -12.5v-4q17 -3 37 -12.5t41.5 -27.5t36 -49t14.5 -69q0 -84 -61 -137.5t-180 -53.5h-176v674zM187 378h87q158 0 158 120q0 117 -158 117q-18 0 -38.5 -0.5t-34 -1 t-14.5 -0.5v-235zM187 63q21 -4 87 -4q85 0 129 34t44 95q0 60 -42 95t-131 35h-87v-255z" />
<glyph unicode="&#x413;" horiz-adv-x="465" d="M187 612v-612h-77v674h345v-62h-268z" />
<glyph unicode="&#x414;" horiz-adv-x="678" d="M569 64h69v-228h-77v164h-474v-164h-77v228h67q71 82 71 257v353h421v-610zM492 64v548h-267v-284q0 -157 -75 -264h342z" />
<glyph unicode="&#x415;" horiz-adv-x="511" d="M110 674h339v-62h-262v-234h249v-61h-249v-253h264v-64h-341v674z" />
<glyph unicode="&#x416;" horiz-adv-x="847" d="M847 0h-106l-279 339v-339h-77v339l-278 -339h-106l301 348l-273 326h92l264 -321v321h77v-321l265 321h91l-273 -326z" />
<glyph unicode="&#x417;" horiz-adv-x="457" d="M5 643q85 41 182 41t151.5 -48.5t54.5 -127.5q0 -38 -13 -68.5t-33 -48t-34.5 -26t-26.5 -12.5v-3q17 -4 35 -13.5t39 -27.5t34 -50.5t13 -74.5q0 -91 -66.5 -142.5t-189.5 -51.5q-76 0 -132 20l-6 70q57 -23 134 -23q83 0 132 37t49 101q0 50 -44.5 85.5t-122.5 35.5 h-60v62h57q69 0 113 33.5t44 85.5q0 53 -37 86.5t-110 33.5q-32 0 -66 -8.5t-50.5 -16t-25.5 -12.5z" />
<glyph unicode="&#x418;" horiz-adv-x="748" d="M638 0h-75v563h-4l-345 -563h-104v674h75v-551h4l348 551h101v-674z" />
<glyph unicode="&#x419;" horiz-adv-x="748" d="M563 0v562h-4l-345 -562h-104v674h75v-551h5l348 551h100v-674h-75zM497 858q0 -39 -32 -72.5t-96 -33.5t-95.5 33t-31.5 73h54q-1 -19 16.5 -39.5t56.5 -20.5q38 0 56 20t18 40h54z" />
<glyph unicode="&#x41a;" horiz-adv-x="571" d="M571 0h-106l-278 338v-338h-77v674h77v-322l264 322h92l-273 -327z" />
<glyph unicode="&#x41b;" horiz-adv-x="671" d="M147 674h414v-674h-77v612h-260v-288q0 -42 -5 -79t-11 -64t-20 -52.5t-22 -40.5t-28 -32.5t-26.5 -24t-29.5 -18.5t-25 -13t-24 -11l-32 57q146 61 146 236v392z" />
<glyph unicode="&#x41c;" horiz-adv-x="902" d="M60 0l93 674h100l194 -570l194 570h100l101 -674h-82l-80 574h-3l-191 -574h-86l-190 574h-3l-68 -574h-79z" />
<glyph unicode="&#x41d;" horiz-adv-x="740" d="M553 674h77v-674h-77v317h-366v-317h-77v674h77v-296h366v296z" />
<glyph unicode="&#x41e;" horiz-adv-x="754" d="M377 684q144 0 225.5 -95t81.5 -252t-81.5 -252t-225.5 -95q-140 0 -223.5 92.5t-83.5 254.5q0 161 83 254t224 93zM151 337q0 -132 61 -206t165 -74t164.5 74.5t60.5 205.5q0 133 -61 206.5t-164 73.5t-164.5 -73t-61.5 -207z" />
<glyph unicode="&#x41f;" horiz-adv-x="738" d="M110 674h518v-674h-77v612h-364v-612h-77v674z" />
<glyph unicode="&#x420;" horiz-adv-x="565" d="M187 305q18 -2 63 -2q91 0 138.5 42.5t47.5 115.5q0 74 -49 116t-137 42q-45 0 -63 -3v-311zM267 247q-62 0 -80 4v-251h-77v674h165q113 0 176.5 -59t63.5 -149q0 -103 -66 -161t-182 -58z" />
<glyph unicode="&#x421;" horiz-adv-x="585" d="M555 655l-17 -70q-82 32 -151 32q-100 0 -167.5 -71.5t-67.5 -208.5q0 -122 61 -201t176 -79q72 0 149 32l17 -70q-73 -29 -159 -29q-154 0 -240 97.5t-86 249.5q0 69 19.5 130t58 110.5t102.5 78t146 28.5q80 0 159 -29z" />
<glyph unicode="&#x422;" horiz-adv-x="482" d="M482 674v-62h-203v-612h-76v612h-203v62h482z" />
<glyph unicode="&#x423;" horiz-adv-x="531" d="M231 166l4 10l-235 498h89l189 -406h2l166 406h85q-147 -343 -200 -467q-44 -104 -68 -137q-57 -80 -161 -80q-49 0 -73 12q2 16 7 50q2 13 10 13l20 -4q20 -4 38 -4q45 0 73.5 25t53.5 84z" />
<glyph unicode="&#x424;" horiz-adv-x="810" d="M444 101q93 12 155.5 76.5t62.5 159.5q0 96 -63 160.5t-155 74.5v-471zM444 -37h-77v80q-133 7 -215 90t-82 204q0 119 83 203t214 90v80h77v-80q131 -6 213.5 -89.5t82.5 -203.5q0 -121 -81.5 -204t-214.5 -90v-80zM148 337q0 -95 62.5 -159.5t156.5 -76.5v471 q-92 -10 -155.5 -74.5t-63.5 -160.5z" />
<glyph unicode="&#x425;" horiz-adv-x="547" d="M18 674h92l161 -265l169 265h87l-212 -322l232 -352h-100l-182 287l-179 -287h-86l223 348z" />
<glyph unicode="&#x426;" horiz-adv-x="737" d="M628 64h69v-227h-77v163h-510v674h77v-610h364v610h77v-610z" />
<glyph unicode="&#x427;" horiz-adv-x="602" d="M492 674v-674h-77v266q-14 -9 -51 -20t-78 -11q-102 0 -154 54.5t-52 142.5v242h77v-232q0 -59 36.5 -100t114.5 -41q30 0 63 10t44 18v345h77z" />
<glyph unicode="&#x428;" horiz-adv-x="950" d="M763 675h77v-675h-730v675h77v-611h249v611h77v-611h250v611z" />
<glyph unicode="&#x429;" horiz-adv-x="950" d="M840 64h70v-227h-77v163h-723v674h77v-610h249v610h77v-610h251v610h76v-610z" />
<glyph unicode="&#x42a;" horiz-adv-x="612" d="M-10 612v62h220v-256q45 15 112 15q103 0 171.5 -60t68.5 -162t-70 -161.5t-201 -59.5q-81 0 -158 23v599h-143zM300 57q78 0 131.5 38t53.5 115q0 73 -48 114t-137 41q-46 0 -90 -11v-286q33 -11 90 -11z" />
<glyph unicode="&#x42b;" horiz-adv-x="820" d="M635 674h75v-674h-75v674zM187 674v-256q45 15 112 15q103 0 171.5 -60t68.5 -162t-70 -161.5t-201 -59.5q-81 0 -158 23v661h77zM462 210q0 73 -48 114t-137 41q-46 0 -90 -11v-286q33 -11 90 -11q78 0 131.5 38t53.5 115z" />
<glyph unicode="&#x42c;" horiz-adv-x="589" d="M110 674h77v-256q45 15 112 15q103 0 171.5 -60t68.5 -162t-70.5 -161.5t-200.5 -59.5q-85 0 -158 23v661zM276 57q79 0 132 38t53 115q0 73 -47.5 114t-137.5 41q-45 0 -89 -11v-286q31 -11 89 -11z" />
<glyph unicode="&#x42d;" horiz-adv-x="615" d="M219 684q82 0 146 -28.5t102.5 -77.5t58 -110.5t19.5 -130.5q0 -152 -86 -249.5t-240 -97.5q-72 0 -159 29l17 71q79 -33 149 -33q110 0 170.5 72.5t66.5 187.5h-330v62h328q-10 117 -75.5 178t-157.5 61q-75 0 -151 -33l-17 71q89 28 159 28z" />
<glyph unicode="&#x42e;" horiz-adv-x="1033" d="M656 684q144 0 225.5 -95t81.5 -252q0 -156 -81.5 -251.5t-225.5 -95.5q-136 0 -219 87t-88 240h-162v-317h-77v675h77v-296h163q11 143 92.5 224t213.5 81zM656 57q104 0 164.5 74.5t60.5 205.5q0 133 -61 207t-164 74t-164.5 -73.5t-61.5 -207.5q0 -131 61 -205.5 t165 -74.5z" />
<glyph unicode="&#x42f;" horiz-adv-x="559" d="M301 336q41 0 71 3v275q-18 3 -71 3q-87 0 -132.5 -36.5t-45.5 -101.5q0 -67 44 -105t134 -38zM259 279l-155 -279h-84l160 294q-135 45 -135 183q0 91 62.5 144t176.5 53h165v-674h-77v279h-113z" />
<glyph unicode="&#x430;" horiz-adv-x="516" d="M83 415q-2 34 -2 57q70 33 155 33q98 0 149 -48.5t51 -132.5v-197q0 -66 9 -127h-60q-18 0 -18 22l-3 50h-4q-56 -81 -165 -81q-69 0 -112 45.5t-43 114.5q0 56 37.5 93.5t92.5 52.5t123 15h69v19q0 42 -33 74.5t-99 32.5q-55 0 -120 -28q-15 -6 -18 -6t-5 1.5t-2.5 3 t-0.5 3.5zM362 251h-75q-91 0 -131 -29.5t-40 -69.5q0 -42 28 -68t76 -26q68 0 105 44.5t37 111.5v37z" />
<glyph unicode="&#x431;" horiz-adv-x="584" d="M294 438q-76 0 -120 -50t-44 -141q0 -36 8 -67.5t25.5 -60t51 -45.5t79.5 -17q77 0 120.5 50.5t43.5 139.5q0 86 -42 138.5t-122 52.5zM144 442q56 62 150 62q117 0 178.5 -71t61.5 -186q0 -111 -60 -184t-180 -73q-130 0 -187 78.5t-57 231.5q0 191 63.5 287.5 t200.5 96.5h52q42 0 42 30v5h58v-22q0 -76 -97 -76h-60q-145 0 -169 -179h4z" />
<glyph unicode="&#x432;" horiz-adv-x="501" d="M154 216v-152q70 -7 103 -7q126 0 126 78q0 81 -122 81h-107zM154 420v-141h96q116 0 116 75q0 32 -27 52.5t-89 20.5q-64 0 -96 -7zM356 252q40 -7 72.5 -35t32.5 -84q0 -70 -55 -106.5t-180 -36.5q-96 0 -146 9v495h187q81 0 129.5 -35.5t48.5 -96.5q0 -45 -26 -72 t-63 -37v-1z" />
<glyph unicode="&#x433;" horiz-adv-x="407" d="M80 0v495h317v-63h-243v-432h-74z" />
<glyph unicode="&#x434;" horiz-adv-x="550" d="M540 64v-218h-74v154h-392v-154h-74v218h39q74 99 74 219v212h359v-431h68zM107 64h291v368h-215v-151q0 -45 -6.5 -80.5t-22 -64t-22.5 -39t-25 -33.5z" />
<glyph unicode="&#x435;" horiz-adv-x="535" d="M275 504q56 0 99 -19.5t66 -51.5t34 -67.5t11 -73.5q0 -18 -1 -35t-2 -26.5t-1 -10.5h-355q3 -65 48.5 -114.5t136.5 -49.5q60 0 115 25q16 7 18 7q9 0 9 -11q2 -28 2 -61q-78 -26 -153 -26q-125 0 -188.5 67t-63.5 188q0 119 60.5 189t164.5 70zM126 279h283v16 q0 23 -6.5 46t-20.5 46t-42 37t-66 14q-40 0 -70.5 -16.5t-46.5 -42.5t-23.5 -51.5t-7.5 -48.5z" />
<glyph unicode="&#x436;" horiz-adv-x="674" d="M684 0h-92l-218 260v-260h-74v260l-219 -260h-91l233 269l-215 226h84l208 -219v219h74v-219l208 219h84l-216 -226z" />
<glyph unicode="&#x437;" horiz-adv-x="453" d="M194 504q100 0 146 -39.5t46 -100.5q0 -27 -9.5 -48.5t-25 -33.5t-28 -18.5t-24.5 -9.5v-2q44 -5 74 -35.5t30 -77.5q0 -70 -57 -109.5t-160 -39.5q-59 0 -104.5 14.5t-61.5 26.5q11 27 15 39q6 15 14 15q5 0 11 -3q2 -1 12 -5t14.5 -5.5t16.5 -5t22.5 -5t27 -3 t35.5 -1.5q71 0 105 24t34 60q0 32 -24.5 53.5t-80.5 21.5h-114v63h78q55 0 89.5 21t34.5 60q0 32 -28 55t-84 23q-62 0 -123 -26q-6 -3 -11 -3t-10 10l-19 43q76 42 159 42z" />
<glyph unicode="&#x438;" horiz-adv-x="604" d="M163 0h-83v495h70v-395h6l281 395h87v-495h-69v401h-8z" />
<glyph unicode="&#x439;" horiz-adv-x="604" d="M163 0l284 401h8v-401h69v495h-87l-281 -395h-6v395h-70v-495h83zM375 742h54q0 -40 -31 -73.5t-96 -33.5q-64 0 -96 33.5t-32 73.5h54q0 -20 17.5 -40.5t56.5 -20.5q37 0 55 20t18 41z" />
<glyph unicode="&#x43a;" horiz-adv-x="464" d="M164 0h-74v495h74v-219l208 219h84l-215 -226l233 -269h-92l-218 260v-260z" />
<glyph unicode="&#x43b;" horiz-adv-x="566" d="M94 494h392v-494h-74v432h-244v-221q0 -101 -33.5 -155t-112.5 -71q-15 36 -18 46q-4 8 -4 13q0 6 9 9q48 15 66.5 50.5t18.5 107.5v283z" />
<glyph unicode="&#x43c;" horiz-adv-x="669" d="M60 0l61 495h114l105 -367h3l105 367h116l45 -495h-75l-32 422h-5l-130 -422h-63l-123 422h-4l-44 -422h-73z" />
<glyph unicode="&#x43d;" horiz-adv-x="570" d="M421 495h69v-495h-69v225h-271v-225h-70v495h70v-206h271v206z" />
<glyph unicode="&#x43e;" horiz-adv-x="580" d="M290 437q-75 0 -119.5 -49.5t-44.5 -140.5q0 -49 13.5 -89.5t52 -71t98.5 -30.5q77 0 120.5 50.5t43.5 140.5q0 86 -42 138t-122 52zM50 247q0 50 13 94t40 81.5t75 59.5t112 22q117 0 178.5 -71.5t61.5 -185.5q0 -112 -59.5 -184.5t-180.5 -72.5q-112 0 -176 68t-64 189 z" />
<glyph unicode="&#x43f;" horiz-adv-x="586" d="M80 495h426v-495h-70v432h-287v-432h-69v495z" />
<glyph unicode="&#x440;" horiz-adv-x="554" d="M160 2v-234h-74v575q0 73 -6 151h65q13 0 13 -13l1 -62h2q5 9 14.5 21t26.5 27.5t43.5 26t56.5 10.5q67 0 114.5 -35.5t67.5 -85.5t20 -107q0 -122 -71 -204t-196 -82q-29 0 -77 12zM240 56q84 0 135.5 59t51.5 151q0 71 -33.5 121t-93.5 50t-100 -56.5t-40 -158.5v-153 q39 -13 80 -13z" />
<glyph unicode="&#x441;" horiz-adv-x="452" d="M292 504q68 0 130 -29q0 -28 -2 -54q0 -13 -9 -13q-3 0 -15 6q-46 23 -96 23q-79 0 -126 -55t-47 -135q0 -81 47 -136t122 -55q53 0 95 21q13 8 20 8q9 0 9 -11q2 -26 2 -56q-60 -28 -131 -28q-112 0 -176.5 69.5t-64.5 187.5q0 114 63 185.5t179 71.5z" />
<glyph unicode="&#x442;" horiz-adv-x="409" d="M168 0v432h-158v62h389v-62h-157v-432h-74z" />
<glyph unicode="&#x443;" horiz-adv-x="457" d="M2 495h89l145 -388h2l141 388h78q-148 -404 -192 -525q-12 -33 -18.5 -49t-19.5 -44t-23 -42t-27.5 -32.5t-35.5 -27.5t-43.5 -15.5t-55.5 -6.5q-47 0 -72 11q2 19 5 53q1 13 10 13q1 0 22 -4t37 -4q44 0 73.5 22t50.5 78l28 76z" />
<glyph unicode="&#x444;" horiz-adv-x="698" d="M386 437v-379q91 0 138.5 56.5t47.5 132.5q0 92 -53 141t-133 49zM312 58v379q-80 0 -133 -49t-53 -141q0 -76 47.5 -132.5t138.5 -56.5zM386 -233h-74v223q-110 0 -186 67.5t-76 189.5q0 107 71.5 182t190.5 75v170h74v-170q119 0 190.5 -75t71.5 -182 q0 -122 -76 -189.5t-186 -67.5v-223z" />
<glyph unicode="&#x445;" horiz-adv-x="454" d="M27 495h89l120 -178l118 178h80l-158 -236l178 -259h-89l-137 201l-144 -201h-84l190 256z" />
<glyph unicode="&#x446;" horiz-adv-x="570" d="M418 495h74v-431h68v-218h-74v154h-406v495h74v-431h264v431z" />
<glyph unicode="&#x447;" horiz-adv-x="522" d="M442 494v-494h-74v168q-72 -36 -128 -36q-82 0 -131 53.5t-49 130.5v178h74v-162q0 -59 36 -96t94 -37q62 0 104 30v265h74z" />
<glyph unicode="&#x448;" horiz-adv-x="799" d="M645 495h74v-495h-639v495h74v-431h210v431h74v-431h207v431z" />
<glyph unicode="&#x449;" horiz-adv-x="797" d="M719 64h68v-218h-75v154h-632v495h74v-431h208v431h74v-431h209v431h74v-431z" />
<glyph unicode="&#x44a;" horiz-adv-x="564" d="M296 325q113 0 165.5 -45.5t52.5 -121.5q0 -168 -239 -168q-89 0 -152 14v428h-113v62h187v-176q42 7 99 7zM289 57q149 0 149 101q0 100 -150 100q-63 0 -91 -7v-188q48 -6 92 -6z" />
<glyph unicode="&#x44b;" horiz-adv-x="698" d="M252 325q113 0 166 -45.5t53 -121.5q0 -168 -240 -168q-88 0 -151 14v490h74v-176q42 7 98 7zM246 57q149 0 149 101q0 100 -151 100q-66 0 -90 -7v-188q48 -6 92 -6zM544 494v-494h74v494h-74z" />
<glyph unicode="&#x44c;" horiz-adv-x="522" d="M253 325q113 0 166 -45.5t53 -121.5q0 -168 -240 -168q-82 0 -152 14v490h75v-176q39 7 98 7zM247 57q149 0 149 101q0 100 -151 100q-65 0 -90 -7v-188q45 -6 92 -6z" />
<glyph unicode="&#x44d;" horiz-adv-x="452" d="M160 504q116 0 179 -71.5t63 -185.5q0 -118 -64 -187.5t-177 -69.5q-71 0 -131 28q0 10 1 30.5t1 25.5q2 12 9 12q5 0 20 -9q46 -21 96 -21q66 0 111.5 44.5t54.5 114.5h-230v64h230q-9 69 -54.5 114t-115.5 45q-49 0 -97 -24q-12 -6 -15 -6q-6 0 -9 13q-2 26 -2 54 q62 29 130 29z" />
<glyph unicode="&#x44e;" horiz-adv-x="836" d="M545 505q118 0 179.5 -71t61.5 -186q0 -112 -60 -185t-181 -73q-104 0 -167 59t-72 167h-152v-216h-74v495h74v-215h152q8 97 67 161t172 64zM545 57q77 0 120.5 50.5t43.5 140.5q0 86 -42 138.5t-122 52.5q-76 0 -120 -50t-44 -141q0 -49 13.5 -89.5t52 -71t98.5 -30.5z " />
<glyph unicode="&#x44f;" horiz-adv-x="508" d="M354 256v174q-49 9 -97 9q-134 0 -134 -91q0 -92 134 -92h97zM108 0h-88l147 202q-1 0 -12 3.5t-17 5.5t-19 8.5t-21 13t-19 18t-17 24.5t-10.5 31.5t-4.5 40.5q0 79 57 118t186 39q76 0 138 -11v-493h-74v190h-111z" />
<glyph unicode="&#x451;" horiz-adv-x="535" d="M275 504q-104 0 -164.5 -70t-60.5 -189q0 -121 63.5 -188t188.5 -67q75 0 153 26q0 34 -2 62q0 11 -9 11q-2 0 -5 -1.5t-6.5 -3.5t-6.5 -3q-55 -25 -116 -25q-90 0 -135.5 49.5t-48.5 114.5h355q0 1 1 10.5t2 26.5t1 35q0 38 -11 73.5t-34 67.5t-66 51.5t-99 19.5z M126 280q0 23 7.5 48.5t23.5 51t46.5 42t70.5 16.5q38 0 66 -14t42 -37t20.5 -46t6.5 -46v-15h-283zM141 623v78h78v-78h-78zM326 623v78h78v-78h-78z" />
<glyph unicode="&#x452;" horiz-adv-x="578" d="M286 440q116 0 179 -74.5t63 -185.5q0 -214 -214 -318q-28 45 -31 49q-3 5 -3 9q0 6 10 11q36 21 58.5 38t49 47t39.5 72t13 96q0 76 -49 132.5t-136 56.5q-56 0 -93 -23v-350h-75v516h-57v62h57v96h75v-96h191v-62h-191v-103q6 4 19.5 9t41 11.5t53.5 6.5z" />
<glyph unicode="&#x453;" horiz-adv-x="407" d="M80 0h74v432h243v63h-317v-495zM232 594h-45l80 147h85z" />
<glyph unicode="&#x454;" horiz-adv-x="453" d="M292 504q69 0 131 -29q-2 -32 -2 -54q-3 -13 -9 -13q-3 0 -15 6q-1 0 -6 2.5l-10 5t-14 5.5t-18 5.5t-22 4t-27 1.5q-70 0 -115.5 -45t-54.5 -114h230v-64h-230q9 -70 54.5 -114.5t111.5 -44.5q53 0 95 21q17 9 21 9q8 0 8 -12q3 -36 3 -56q-60 -28 -131 -28 q-113 0 -177.5 69.5t-64.5 187.5q0 113 63 185t179 72z" />
<glyph unicode="&#x455;" horiz-adv-x="393" d="M219 504q50 0 110 -12q0 -4 -1 -21.5t-2 -31.5q-1 -20 -11 -20q-4 0 -15.5 4.5t-34 9t-52.5 4.5q-43 0 -70.5 -19.5t-27.5 -49.5q0 -27 17.5 -44.5t59.5 -32.5l48 -16q48 -18 80.5 -52t32.5 -83q0 -150 -199 -150q-58 0 -108 10q0 25 2 57q1 13 13 13q4 0 17 -3.5 t36.5 -7t51.5 -3.5q51 0 81.5 19.5t30.5 55.5q0 28 -20.5 47t-63.5 34l-35 12q-24 9 -41.5 18t-37 25t-30 40t-10.5 55q0 68 51 105t128 37z" />
<glyph unicode="&#x456;" horiz-adv-x="238" d="M80 0h75v494h-75v-494zM80 623v78h78v-78h-78z" />
<glyph unicode="&#x457;" horiz-adv-x="238" d="M83 0h75v494h-75v-494zM-8 623v78h78v-78h-78zM168 623v78h78v-78h-78z" />
<glyph unicode="&#x458;" horiz-adv-x="237" d="M76 -89q0 -85 -91 -85q-16 0 -33 4t-18 4q-8 0 -10 -14q-2 -28 -4 -46q22 -11 69 -11q82 0 121.5 41.5t39.5 132.5v567h-74v-593zM76 623v78h78v-78h-78z" />
<glyph unicode="&#x459;" horiz-adv-x="853" d="M585 325q113 0 165.5 -45.5t52.5 -121.5q0 -168 -239 -168q-89 0 -152 14v428h-244v-221q0 -101 -33.5 -155t-112.5 -71q-15 36 -18 46q-4 8 -4 13q0 6 9 9q48 15 66.5 50.5t18.5 107.5v283h392v-176q42 7 99 7zM578 57q149 0 149 101q0 100 -151 100q-66 0 -90 -7v-188 q48 -6 92 -6z" />
<glyph unicode="&#x45a;" horiz-adv-x="834" d="M566 325q113 0 165.5 -45.5t52.5 -121.5q0 -168 -239 -168q-89 0 -152 14v242h-239v-246h-74v494h74v-185h239v185h74v-176q42 7 99 7zM559 57q149 0 149 101q0 100 -150 100q-63 0 -91 -7v-188q48 -6 92 -6z" />
<glyph unicode="&#x45b;" horiz-adv-x="588" d="M335 504q78 0 125.5 -47t47.5 -130v-327h-74v307q0 66 -30 98.5t-79 32.5q-65 0 -109 -53.5t-44 -140.5v-244h-75v573h-57v63h57v81h75v-81h184v-63h-184v-157h2q54 88 161 88z" />
<glyph unicode="&#x45c;" horiz-adv-x="464" d="M90 0v495h74v-219l208 219h84l-215 -226l233 -269h-92l-218 260v-260h-74zM226 594l80 147h85l-120 -147h-45z" />
<glyph unicode="&#x45e;" horiz-adv-x="457" d="M2 504l194 -496q-15 -42 -28 -76q-21 -57 -50 -78.5t-74 -21.5q-16 0 -37 4t-22 4q-8 0 -10 -13l-5 -54q30 -10 72 -10q30 0 55.5 6.5t43.5 15.5t35.5 27.5t27.5 32.5t23 42t19.5 44t18.5 49l192 524h-78l-141 -388h-2l-145 388h-89zM315 725h54q0 -40 -31.5 -73 t-96.5 -33q-64 0 -95.5 33t-31.5 73h54q0 -20 17.5 -40.5t55.5 -20.5t56 20t18 41z" />
<glyph unicode="&#x45f;" horiz-adv-x="573" d="M418 495h75v-495h-170v-154h-74v154h-169v495h74v-431h264v431z" />
<glyph unicode="&#x490;" horiz-adv-x="465" d="M455 796v-184h-268v-612h-77v674h278v122h67z" />
<glyph unicode="&#x491;" horiz-adv-x="407" d="M80 0v495h247v99h70v-162h-243v-432h-74z" />
<glyph unicode="&#x4d9;" horiz-adv-x="534" d="M259 -10q-56 0 -98.5 19.5t-65.5 51.5t-34 67.5t-11 73.5q0 56 4 72h354q-3 65 -48.5 114.5t-135.5 49.5q-60 0 -115 -25q-3 -1 -7 -3l-7 -3.5t-5 -1.5q-8 0 -9 11q-2 28 -2 62q78 26 153 26q125 0 188.5 -67.5t63.5 -188.5q0 -118 -60.5 -188t-164.5 -70zM408 214h-282 q0 -1 -0.5 -6.5t-0.5 -8.5q0 -54 31.5 -98.5t103.5 -44.5q40 0 70.5 16.5t46.5 42t23.5 51t7.5 48.5z" />
<glyph unicode="&#x1e02;" horiz-adv-x="578" d="M110 674v-674h176q119 0 180.5 53.5t61.5 138.5q0 71 -44 110.5t-86 47.5v4q10 3 26 11.5t37.5 25.5t36.5 46.5t15 64.5q0 30 -11 58.5t-35 55t-68 42.5t-102 16h-187zM186 379v233q1 0 14.5 0.5t34.5 1t39 0.5q158 0 158 -116q0 -119 -158 -119h-88zM186 63v256h88 q89 0 131 -35.5t42 -94.5q0 -62 -44 -96t-129 -34q-67 0 -88 4zM245 780v78h78v-78h-78z" />
<glyph unicode="&#x1e03;" horiz-adv-x="558" d="M304 438q-62 0 -101 -56t-39 -160v-156q21 -9 77 -9q80 0 135 58.5t55 156.5q0 65 -32.5 115.5t-94.5 50.5zM164 422h5q49 82 146 82q95 0 144 -69t49 -166q0 -117 -76 -198t-211 -81q-61 0 -131 19v708h74v-295zM251 780v78h78v-78h-78z" />
<glyph unicode="&#x1e0a;" horiz-adv-x="721" d="M281 780v78h78v-78h-78zM110 674v-674h207q165 0 249.5 94t84.5 243q0 160 -89 248.5t-245 88.5h-207zM186 66v542q27 5 118 5q127 0 197 -69t70 -207q0 -133 -68 -204t-199 -71q-94 0 -118 4z" />
<glyph unicode="&#x1e0b;" horiz-adv-x="564" d="M394 491q-35 13 -78 13q-125 0 -195.5 -82.5t-70.5 -204.5q0 -56 20 -106t67.5 -85.5t114.5 -35.5q56 0 92.5 30t47.5 55h3q1 -50 1 -62q0 -13 13 -13h65q-6 76 -6 151v566h-74v-226zM314 438q37 0 80 -13v-154q0 -101 -40.5 -158t-99.5 -57q-60 0 -94 50.5t-34 121.5 q0 92 52 151t136 59zM255 780v78h78v-78h-78z" />
<glyph unicode="&#x1e1e;" horiz-adv-x="497" d="M110 674v-674h77v317h246v62h-246v233h260v62h-337zM253 780v78h78v-78h-78z" />
<glyph unicode="&#x1e1f;" horiz-adv-x="307" d="M278 736q49 0 79 -11l-3 -45q-1 -13 -11 -13q-1 0 -20.5 3.5t-40.5 3.5q-58 0 -85 -35t-27 -90v-55h136v-63h-136v-431h-74v431h-86v63h86v52q0 90 49.5 140t132.5 50zM231 780v78h78v-78h-78z" />
<glyph unicode="&#x1e40;" horiz-adv-x="902" d="M60 0h79l69 574h3l189 -574h87l191 574h3l80 -574h81l-101 674h-99l-195 -569l-193 569h-100zM408 780v78h78v-78h-78z" />
<glyph unicode="&#x1e41;" horiz-adv-x="877" d="M80 494q5 -85 5 -149v-345h74v236q0 90 40 146t102 56q47 0 75 -35.5t28 -103.5v-299h74v242q0 76 37.5 136t102.5 60q53 0 79 -39.5t26 -101.5v-297h74v333q0 79 -47.5 125t-120.5 46q-69 0 -110 -31t-59 -67q-9 35 -45.5 66.5t-97.5 31.5q-113 0 -158 -91h-2 q-2 61 -2 67q0 14 -14 14h-61zM426 623v78h78v-78h-78z" />
<glyph unicode="&#x1e56;" horiz-adv-x="564" d="M235 780v78h78v-78h-78zM186 306q14 -3 64 -3q91 0 138 42.5t47 116.5q0 73 -48 114.5t-137 41.5q-19 0 -33.5 -0.5t-22 -1t-8.5 -0.5v-310zM267 247q-45 0 -81 4v-251h-76v674h165q113 0 176 -59t63 -149q0 -103 -65.5 -161t-181.5 -58z" />
<glyph unicode="&#x1e57;" horiz-adv-x="554" d="M159 3q39 -13 78 -13q125 0 196 82.5t71 204.5q0 56 -20 106t-68 85.5t-115 35.5q-56 0 -92.5 -30t-47.5 -55h-3q0 50 -1 62q0 13 -13 13h-64q5 -95 5 -151v-574h74v234zM240 56q-38 0 -81 13v154q0 101 40.5 158t99.5 57q61 0 94.5 -50.5t33.5 -121.5q0 -92 -52 -151 t-135 -59zM261 623v78h78v-78h-78z" />
<glyph unicode="&#x1e60;" horiz-adv-x="512" d="M423 670l-6 -71q-48 18 -121 18q-72 0 -114.5 -27.5t-42.5 -82.5q0 -72 87 -107l68 -28q158 -66 158 -189q0 -83 -62.5 -138t-175.5 -55q-93 0 -146 16l4 74q69 -23 134 -23q79 0 123 33t44 89q0 46 -31.5 74.5t-84.5 50.5l-63 26q-134 56 -134 174q0 82 61 131.5 t179 49.5q53 0 123 -15zM255 780v78h78v-78h-78z" />
<glyph unicode="&#x1e61;" horiz-adv-x="393" d="M219 504q-77 0 -128 -37t-51 -105q0 -58 33.5 -89t85.5 -48l34 -12q44 -16 64.5 -35t20.5 -46q0 -37 -31 -56t-82 -19q-38 0 -71 7l-34 7q-10 0 -12 -14q-3 -45 -3 -56q40 -11 109 -11q88 0 143.5 35t55.5 115q0 49 -33 83.5t-81 51.5l-48 17q-41 14 -58.5 32t-17.5 45 q0 30 27 49.5t70 19.5q31 0 53.5 -4.5t33.5 -9t15 -4.5q11 0 12 20q2 48 2 53q-49 11 -109 11zM179 623v78h78v-78h-78z" />
<glyph unicode="&#x1e6a;" horiz-adv-x="482" d="M201 780v78h78v-78h-78zM482 674v-62h-204v-612h-76v612h-202v62h482z" />
<glyph unicode="&#x1e6b;" horiz-adv-x="341" d="M253 -10q48 0 78 11l-4 50q0 14 -10 14q-1 0 -22 -4.5t-40 -4.5q-41 0 -60.5 22t-19.5 73v280h150v63h-150v109h-74v-109h-91v-63h91v-280q0 -161 152 -161zM99 658v78h78v-78h-78z" />
<glyph unicode="&#x1e80;" horiz-adv-x="917" d="M494 736h-46l-120 147h86zM201 0l-181 674h85l148 -574h2l159 574h96l163 -574h3l145 574h76l-177 -674h-98l-164 581h-2l-160 -581h-95z" />
<glyph unicode="&#x1e81;" horiz-adv-x="748" d="M420 594h-46l-120 147h86zM155 0l-135 494h77l106 -389h4l123 389h78l128 -389h4l111 389h77l-147 -494h-89l-122 372h-4l-120 -372h-91z" />
<glyph unicode="&#x1e82;" horiz-adv-x="917" d="M457 736h-46l80 147h86zM201 0l-181 674h85l148 -574h2l159 574h96l163 -574h3l145 574h76l-177 -674h-98l-164 581h-2l-160 -581h-95z" />
<glyph unicode="&#x1e83;" horiz-adv-x="748" d="M380 594h-46l80 147h85zM155 0l-135 494h77l106 -389h4l123 389h78l128 -389h4l111 389h77l-147 -494h-89l-122 372h-4l-120 -372h-91z" />
<glyph unicode="&#x1e84;" horiz-adv-x="917" d="M20 674l181 -674h95l160 581h2l164 -581h98l177 674h-76l-145 -574h-3l-163 574h-96l-159 -574h-2l-148 574h-85zM325 780v78h78v-78h-78zM510 780v78h78v-78h-78z" />
<glyph unicode="&#x1e85;" horiz-adv-x="748" d="M20 494l135 -494h91l120 372h4l122 -372h89l147 494h-77l-111 -389h-4l-128 389h-78l-123 -389h-4l-106 389h-77zM236 623v78h78v-78h-78zM421 623v78h78v-78h-78z" />
<glyph unicode="&#x1ef2;" horiz-adv-x="502" d="M210 0v248l-210 426h84l170 -342l168 342h80l-215 -426v-248h-77zM310 736h-45l-120 146h85z" />
<glyph unicode="&#x1ef3;" horiz-adv-x="457" d="M301 594h-46l-120 147h86zM196 -2l-194 496h89l145 -387h3l140 387h78q-148 -403 -192 -524q-12 -33 -18.5 -49t-19.5 -44t-23 -42t-27.5 -32.5t-35.5 -27.5t-43.5 -15.5t-55.5 -6.5q-39 0 -72 11q2 19 5 54q1 12 10 12q2 0 22.5 -3.5t36.5 -3.5q45 0 74 21.5t50 77.5z " />
<glyph unicode="&#x2013;" horiz-adv-x="597" d="M517 216h-437v62h437v-62z" />
<glyph unicode="&#x2014;" horiz-adv-x="775" d="M695 216h-615v62h615v-62z" />
<glyph unicode="&#x2018;" horiz-adv-x="186" d="M128 575v-78h-78v78q0 32 23.5 59.5t49.5 39.5l13 -18q-46 -31 -46 -81h38z" />
<glyph unicode="&#x2019;" horiz-adv-x="186" d="M58 596v78h78v-78q0 -32 -23.5 -59.5t-49.5 -39.5l-13 18q46 31 46 81h-38z" />
<glyph unicode="&#x201a;" horiz-adv-x="206" d="M68 0v78h78v-78q0 -32 -23.5 -59.5t-49.5 -39.5l-13 18q46 31 46 81h-38z" />
<glyph unicode="&#x201c;" horiz-adv-x="339" d="M128 582v-78h-78v78q0 32 23.5 59.5t49.5 39.5l13 -18q-46 -31 -46 -81h38zM281 582v-78h-78v78q0 32 23.5 59.5t49.5 39.5l13 -18q-46 -31 -46 -81h38z" />
<glyph unicode="&#x201d;" horiz-adv-x="339" d="M211 596v78h78v-78q0 -32 -23.5 -59.5t-49.5 -39.5l-13 18q46 31 46 81h-38zM58 596v78h78v-78q0 -32 -23.5 -59.5t-49.5 -39.5l-13 18q46 31 46 81h-38z" />
<glyph unicode="&#x201e;" horiz-adv-x="359" d="M221 0v78h78v-78q0 -32 -23.5 -59.5t-49.5 -39.5l-13 18q46 31 46 81h-38zM68 0v78h78v-78q0 -32 -23.5 -59.5t-49.5 -39.5l-13 18q46 31 46 81h-38z" />
<glyph unicode="&#x2020;" horiz-adv-x="477" d="M248 -249h-13l-42 514l23 155h-171v62h173l-28 192h101l-27 -192h172v-62h-172l25 -155z" />
<glyph unicode="&#x2021;" horiz-adv-x="478" d="M435 327v-62h-148l-41 -514h-13l-42 514h-148v62h157l14 93h-172v62h174l-28 192h101l-27 -192h172v-62h-172l15 -93h158z" />
<glyph unicode="&#x2022;" horiz-adv-x="308" d="M93 239v122h122v-122h-122z" />
<glyph unicode="&#x2026;" horiz-adv-x="734" d="M327 0v78h78v-78h-78zM583 0v78h78v-78h-78zM71 0v78h78v-78h-78z" />
<glyph unicode="&#x2030;" horiz-adv-x="1219" d="M585 674l-403 -674h77l403 674h-77zM60 524q0 76 39.5 122.5t122.5 46.5q79 0 120 -45.5t41 -123.5q0 -75 -40 -121.5t-121 -46.5q-78 0 -120 44t-42 124zM222 642q-46 0 -69.5 -32t-23.5 -86q0 -56 24 -86.5t69 -30.5q44 0 68 31.5t24 85.5t-23.5 86t-68.5 32zM464 159 q0 76 39.5 122.5t122.5 46.5q79 0 120 -45.5t41 -123.5q0 -75 -40 -122t-121 -47q-78 0 -120 44t-42 125zM626 276q-46 0 -69.5 -31.5t-23.5 -86.5t24 -86t69 -31q44 0 68 31.5t24 85.5t-23.5 86t-68.5 32zM836 159q0 76 39.5 122.5t121.5 46.5q79 0 120.5 -46t41.5 -123 q0 -75 -40.5 -122t-121.5 -47q-78 0 -119.5 44t-41.5 125zM998 276q-46 0 -69.5 -31.5t-23.5 -86.5t24 -86t69 -31q44 0 68 31.5t24 85.5t-23.5 86t-68.5 32z" />
<glyph unicode="&#x2039;" horiz-adv-x="344" d="M234 439l45 -35l-138 -167l138 -168l-46 -35l-168 203z" />
<glyph unicode="&#x203a;" horiz-adv-x="414" d="M314 237l-168 -203l-46 35l137 168l-137 167l44 35z" />
<glyph unicode="&#x2044;" horiz-adv-x="212" d="M283 674h49l-403 -674h-49z" />
<glyph unicode="&#x2070;" horiz-adv-x="311" d="M154 332q-62 0 -93.5 49t-31.5 125q0 72 31 122.5t94 50.5q62 0 94 -49t32 -124q0 -77 -32.5 -125.5t-93.5 -48.5zM241 506q0 64 -21.5 102t-65.5 38q-28 0 -46.5 -15t-26.5 -40.5t-10.5 -44.5t-2.5 -40q0 -140 86 -140q44 0 65.5 38t21.5 102z" />
<glyph unicode="&#x2074;" horiz-adv-x="303" d="M219 461h62v-31h-62v-93h-38v93h-130l-11 37l122 207h57v-213zM181 461v176h-2l-104 -176h106z" />
<glyph unicode="&#x2075;" horiz-adv-x="267" d="M85 643v-104q1 0 5.5 0.5t11 1t13.5 0.5q49 0 79 -29t30 -72q0 -50 -35 -79t-102 -29q-32 0 -48 4l-2 35q15 -6 48 -6q44 0 71.5 18.5t27.5 57.5q0 30 -24.5 51t-69.5 21q-25 0 -43 -6v167h164v-31h-126z" />
<glyph unicode="&#x2076;" horiz-adv-x="298" d="M72 442q0 -35 22 -55.5t56 -20.5t56 21.5t22 54.5q0 34 -22.5 55t-55.5 21t-55.5 -21t-22.5 -55zM155 551q52 0 82.5 -29t30.5 -78q0 -15 -4.5 -31.5t-16 -36t-36.5 -32t-60 -12.5q-37 0 -63 14t-37.5 37.5t-16 45.5t-4.5 46q0 103 46 153.5t118 50.5q33 0 48 -5l-4 -34 q-36 6 -47 6q-41 0 -69 -24.5t-37.5 -51t-9.5 -49.5h2q30 30 78 30z" />
<glyph unicode="&#x2077;" horiz-adv-x="233" d="M97 337h-39q11 65 46.5 153t72.5 153h-167v31h203v-33q-81 -137 -116 -304z" />
<glyph unicode="&#x2078;" horiz-adv-x="287" d="M140 529q45 30 55 51q4 9 4 18q0 22 -17 35t-44 13t-44.5 -13.5t-17.5 -33.5q0 -22 15.5 -37.5t48.5 -32.5zM207 417q0 40 -73 76q-63 -33 -63 -75q0 -24 20.5 -38.5t50.5 -14.5q28 0 46.5 16t18.5 36zM32 418q0 52 66 93q-61 33 -61 81q0 39 27.5 63t74.5 24 q53 0 76.5 -22.5t23.5 -54.5q0 -52 -64 -89q72 -39 72 -89q0 -39 -30.5 -65.5t-83.5 -26.5q-44 0 -72.5 22.5t-28.5 63.5z" />
<glyph unicode="&#x2079;" horiz-adv-x="298" d="M231 568q0 34 -22.5 55t-56.5 21t-56 -21.5t-22 -54.5q0 -34 22.5 -55t55.5 -21t56 21t23 55zM148 459q-52 0 -83 29t-31 78q0 14 5 31t16 36.5t36 32t60 12.5q121 0 121 -143q0 -103 -46 -153.5t-117 -50.5q-31 0 -49 5l5 34q15 -6 47 -6q40 0 68 24.5t37.5 51t9.5 49.5 h-1q-30 -30 -78 -30z" />
<glyph unicode="&#x2080;" horiz-adv-x="311" d="M155 -5q-62 0 -93.5 49t-31.5 125q0 72 30.5 122.5t94.5 50.5q62 0 94 -49.5t32 -124.5q0 -77 -32.5 -125t-93.5 -48zM241 169q0 139 -86 139q-28 0 -47 -15t-27 -40t-10.5 -44.5t-2.5 -40.5q0 -67 22.5 -103.5t64.5 -36.5q44 0 65 38.5t21 102.5z" />
<glyph unicode="&#x2081;" horiz-adv-x="188" d="M143 0h-38v296q-32 -18 -77 -23l-5 27q26 3 50 15t34 27h36v-342z" />
<glyph unicode="&#x2082;" horiz-adv-x="259" d="M39 33q75 81 86 93q37 44 49.5 65t12.5 50q0 28 -19 47.5t-52 19.5q-38 0 -66 -20l-14 32l4 2q5 3 12 6t16 6.5t22 5.5t26 2q53 0 82 -30t29 -70q0 -50 -63 -124l-75 -86h142v-32h-192v33z" />
<glyph unicode="&#x2083;" horiz-adv-x="252" d="M43 327q33 15 74 15q47 0 73.5 -25t26.5 -63q0 -54 -58 -79v-1q21 -3 42.5 -24.5t21.5 -59.5q0 -42 -35 -68.5t-91 -26.5q-27 0 -47 5l-3 33q18 -5 48 -5q42 0 65 19t23 47q0 26 -19.5 45t-57.5 19h-34v31h32q31 0 52.5 17t21.5 43q0 24 -17 41.5t-52 17.5q-22 0 -57 -14 z" />
<glyph unicode="&#x2084;" horiz-adv-x="302" d="M212 124h61v-31h-61v-93h-38v93h-130l-11 37l122 207h57v-213zM174 124v176h-2l-104 -176h106z" />
<glyph unicode="&#x2085;" horiz-adv-x="267" d="M98 306v-104h4q5 1 12 1.5t14 0.5q48 0 78 -29t30 -72q0 -50 -34.5 -79t-101.5 -29q-32 0 -48 4l-2 35q15 -6 48 -6q44 0 71.5 18.5t27.5 57.5q0 30 -24.5 50.5t-70.5 20.5q-27 0 -42 -5v167h164v-31h-126z" />
<glyph unicode="&#x2086;" horiz-adv-x="298" d="M73 104q0 -34 22 -54.5t56 -20.5t56 21.5t22 53.5q0 34 -22.5 55.5t-55.5 21.5t-55.5 -21.5t-22.5 -55.5zM155 214q52 0 83 -29t31 -78q0 -15 -4.5 -31.5t-16 -36t-36.5 -32t-60 -12.5q-121 0 -121 143q0 102 46 153t117 51q32 0 49 -5l-5 -34q-25 5 -47 5 q-58 0 -86.5 -42.5t-28.5 -81.5h1q30 30 78 30z" />
<glyph unicode="&#x2087;" horiz-adv-x="233" d="M99 0h-40q12 65 47.5 153t71.5 153h-167v31h204v-33q-81 -137 -116 -304z" />
<glyph unicode="&#x2088;" horiz-adv-x="286" d="M146 192q60 38 60 69q0 22 -17 35t-44 13t-44.5 -13.5t-17.5 -33.5q0 -23 15 -38t48 -32zM213 80q0 41 -73 76q-62 -34 -62 -75q0 -24 20.5 -38.5t50.5 -14.5q28 0 46 15.5t18 36.5zM38 81q0 52 66 93q-61 35 -61 81q0 39 28 63t75 24q52 0 75.5 -22.5t23.5 -54.5 q0 -53 -64 -90q72 -38 72 -88q0 -39 -30 -65.5t-83 -26.5q-44 0 -73 23t-29 63z" />
<glyph unicode="&#x2089;" horiz-adv-x="298" d="M224 231q0 34 -22 55t-56 21t-56 -21.5t-22 -54.5q0 -34 22.5 -55t55.5 -21t55.5 21t22.5 55zM142 122q-52 0 -83 29t-31 78q0 15 4.5 31.5t16 36t36.5 32t60 12.5q121 0 121 -143q0 -103 -46 -153.5t-117 -50.5q-31 0 -49 5l5 34q15 -6 47 -6q40 0 68 24.5t37.5 51 t9.5 48.5l-1 1q-30 -30 -78 -30z" />
<glyph unicode="&#x20ac;" horiz-adv-x="660" d="M603 89l17 -70q-87 -29 -159 -29q-128 0 -209.5 67.5t-107.5 181.5h-84l33 62h42q-1 12 -1 36q0 30 2 45h-76l33 62h53q27 108 106.5 174t208.5 66q79 0 158 -29l-16 -71q-76 33 -152 33q-77 0 -137.5 -43.5t-84.5 -129.5h339l-15 -62h-335q-2 -28 -2 -45q0 -24 1 -36 h317l-15 -62h-292q21 -83 78.5 -132.5t147.5 -49.5q21 0 42 3t39 7.5t31 8.5t25 8.5t13 4.5z" />
<glyph unicode="&#x2122;" horiz-adv-x="468" d="M196 674v-26h-54v-174h-28v174h-54v26h136zM196 474l31 200h29l47 -145l46 145h29l30 -200h-30l-19 147h-1l-48 -147h-19l-46 147h-1l-18 -147h-30z" />
<glyph unicode="&#x2153;" horiz-adv-x="684" d="M515 674l-402 -674h48l403 674h-49zM181 337h-39v296q-29 -18 -76 -23l-6 27q27 3 51 15t34 27h36v-342zM474 294l-10 33q35 15 75 15q46 0 73 -25t27 -63q0 -54 -59 -79v-1q22 -3 43 -24.5t21 -59.5q0 -42 -35 -68.5t-91 -26.5q-27 0 -47 5l-3 33q18 -5 48 -5 q42 0 65.5 19t23.5 47q0 26 -20 45t-58 19h-34v31h32q31 0 52.5 17t21.5 43q0 24 -17 41.5t-52 17.5q-28 0 -56 -14z" />
<glyph unicode="&#x2154;" horiz-adv-x="706" d="M542 674l-403 -674h49l403 674h-49zM42 370q76 81 86 93q27 32 37 45.5t18 31.5t8 38q0 28 -19.5 47.5t-52.5 19.5q-34 0 -66 -20l-13 32l4 3q5 2 11.5 5t16 6.5t22 5.5t25.5 2q53 0 82.5 -30t29.5 -69q0 -31 -16 -59t-47 -66l-76 -86h143v-32h-193v33zM495 294l-9 33 q32 15 74 15q47 0 73.5 -25t26.5 -63q0 -54 -58 -79v-1q21 -3 42.5 -24.5t21.5 -59.5q0 -42 -35 -68.5t-91 -26.5q-27 0 -47 5l-3 33q17 -5 48 -5q42 0 65 19t23 47q0 26 -19.5 45t-57.5 19h-34v31h32q31 0 52.5 17t21.5 43q0 24 -17 41.5t-52 17.5q-22 0 -57 -14z" />
<glyph unicode="&#x215b;" horiz-adv-x="706" d="M559 192q45 30 55 51q4 9 4 18q0 22 -17 35t-44 13t-44.5 -13.5t-17.5 -33.5q0 -23 15.5 -38t48.5 -32zM626 80q0 40 -73 76q-63 -33 -63 -75q0 -24 20.5 -38.5t50.5 -14.5q28 0 46.5 15.5t18.5 36.5zM451 81q0 52 66 93q-61 33 -61 81q0 39 27.5 63t74.5 24 q53 0 76.5 -22.5t23.5 -54.5q0 -52 -64 -90q72 -38 72 -88q0 -39 -30.5 -65.5t-83.5 -26.5q-44 0 -72.5 22.5t-28.5 63.5zM515 674l-403 -674h49l402 674h-48zM180 337h-38v296q-32 -18 -77 -23l-5 27q26 3 50 15t34 27h36v-342z" />
<glyph unicode="&#x215c;" horiz-adv-x="726" d="M579 192q60 38 60 69q0 22 -17 35t-44 13t-44.5 -13.5t-17.5 -33.5q0 -23 15 -38t48 -32zM646 80q0 41 -72 76q-63 -33 -63 -75q0 -24 20.5 -38.5t50.5 -14.5q28 0 46 15.5t18 36.5zM471 81q0 51 67 93q-62 34 -62 81q0 39 28 63t75 24q52 0 76 -22.5t24 -54.5 q0 -52 -64 -90q71 -37 71 -88q0 -39 -30 -65.5t-83 -26.5q-44 0 -73 23t-29 63zM537 674l-403 -674h49l402 674h-48zM70 631l-10 33q35 15 75 15q46 0 72.5 -25t26.5 -63q0 -54 -58 -79v-1q22 -3 43 -24t21 -59q0 -42 -35 -69t-91 -27q-27 0 -47 5l-3 33q35 -5 48 -5 q42 0 65 19t23 47q0 26 -19.5 45t-57.5 19h-34v31h32q31 0 52.5 17t21.5 43q0 25 -17 42.5t-52 17.5q-26 0 -56 -15z" />
<glyph unicode="&#x215d;" horiz-adv-x="734" d="M108 643v-104l4 1q5 0 12 0.5t14 0.5q48 0 78 -29t30 -72q0 -50 -34.5 -79t-101.5 -29q-29 0 -49 4l-1 35q15 -6 47 -6q45 0 72.5 18.5t27.5 57.5q0 30 -24.5 51t-70.5 21q-24 0 -42 -6v167h164v-31h-126zM587 192q45 30 55 51q4 9 4 18q0 22 -17 35t-44 13t-44.5 -13.5 t-17.5 -33.5q0 -23 15.5 -38t48.5 -32zM654 80q0 40 -73 76q-63 -33 -63 -75q0 -24 20.5 -38.5t50.5 -14.5q28 0 46.5 15.5t18.5 36.5zM479 81q0 52 66 93q-61 33 -61 81q0 39 27.5 63t74.5 24q53 0 76.5 -22.5t23.5 -54.5q0 -52 -64 -90q72 -38 72 -88q0 -39 -30.5 -65.5 t-83.5 -26.5q-44 0 -72.5 22.5t-28.5 63.5zM544 674l-403 -674h49l403 674h-49z" />
<glyph unicode="&#x215e;" horiz-adv-x="698" d="M88 337q11 65 46.5 153t72.5 153h-167v31h203v-33q-81 -137 -116 -304h-39zM551 192q60 38 60 69q0 22 -17.5 35t-44.5 13q-26 0 -43.5 -13.5t-17.5 -33.5q0 -23 15 -38t48 -32zM618 80q0 40 -73 76q-63 -33 -63 -75q0 -23 21 -38t51 -15q28 0 46 15.5t18 36.5zM443 81 q0 52 66 93q-61 35 -61 81q0 39 28 63t75 24q52 0 75.5 -22.5t23.5 -54.5q0 -53 -64 -90q72 -38 72 -88q0 -39 -30.5 -65.5t-83.5 -26.5q-43 0 -72 23t-29 63zM508 674h49l-403 -674h-49z" />
<glyph unicode="&#x2212;" horiz-adv-x="584" d="M80 333h424v-62h-424v62z" />
<glyph unicode="&#x2260;" horiz-adv-x="674" d="M594 382h-197l-56 -143h253v-62h-278l-45 -114h-66l45 114h-170v62h194l57 143h-251v61h275l52 131h66l-51 -131h172v-61z" />
<glyph unicode="&#x2264;" horiz-adv-x="563" d="M60 62v-62h443v62h-443zM429 545l-215 -204l214 -208l-48 -45l-267 254l267 250z" />
<glyph unicode="&#x2265;" horiz-adv-x="563" d="M503 0h-443v62h443v-62zM348 341l-215 204l49 47l267 -250l-267 -254l-48 45z" />
<glyph unicode="&#x25fc;" horiz-adv-x="495" d="M0 495h495v-495h-495v495z" />
<glyph unicode="&#xf6e1;" horiz-adv-x="206" d="M68 0v78h78v-78q0 -32 -23.5 -59.5t-49.5 -39.5l-13 18q46 31 46 81h-38z" />
<glyph unicode="&#xf6e3;" horiz-adv-x="622" />
<glyph unicode="&#xf6e7;" horiz-adv-x="198" d="M60 0v78h78v-78h-78z" />
<glyph unicode="&#xf6f9;" horiz-adv-x="393" d="M383 69v-69h-289v219l-68 -27l-26 64l94 36v240h76v-211l98 36l22 -63l-120 -41q2 -61 0 -184h213z" />
<glyph unicode="&#xf6fa;" horiz-adv-x="835" d="M304 60q85 0 134 55.5t49 150.5q0 86 -44.5 146t-138.5 60q-87 0 -135 -55.5t-48 -150.5t48 -150.5t135 -55.5zM800 69v-69h-312v60q-72 -69 -184 -69q-120 0 -192 76.5t-72 198.5q0 118 70.5 196.5t193.5 78.5q112 0 184 -69v60h306v-69h-229v-154h210v-70h-210v-170 h235z" />
<glyph unicode="&#xf6fd;" horiz-adv-x="423" d="M362 453q-71 19 -121 19q-51 0 -77 -21.5t-26 -54.5q0 -17 6.5 -30t21.5 -23t26 -15.5t34 -15.5l38 -16q119 -49 119 -147q0 -73 -53.5 -116t-152.5 -43q-78 0 -137 21l16 68q48 -20 116 -20q65 0 97.5 23.5t32.5 61.5q0 54 -63 80l-58 24q-58 24 -90.5 57t-32.5 91 q0 66 49.5 105.5t136.5 39.5q74 0 134 -20zM315 736h45l-89 -147h-77l-89 147h45l82 -95z" />
<glyph unicode="&#xf6ff;" horiz-adv-x="454" d="M40 72l280 390h-274v70h361v-74l-281 -388h288v-70h-374v72zM361 733l-89 -147h-78l-89 147h45l83 -95l82 95h46z" />
<glyph unicode="&#xf721;" horiz-adv-x="242" d="M89 155l-8 377h78l-8 -377h-62zM81 0v78h78v-78h-78z" />
<glyph unicode="&#xf726;" horiz-adv-x="592" d="M532 294q-6 -105 -59 -186q14 -13 89 -66l-48 -53q-37 19 -90 63q-70 -62 -170 -62q-92 0 -148 43.5t-56 113.5q0 97 107 148q-1 1 -7.5 10t-9.5 13.5t-9 14t-9.5 17.5t-7 18.5t-5.5 21.5t-2 22q0 53 40 91.5t114 38.5q66 0 104.5 -37.5t38.5 -84.5q0 -51 -40 -86 t-93 -55q64 -62 147 -127q32 55 36 142h78zM184 411q0 -36 39 -84q105 39 105 88q0 23 -18.5 41.5t-54.5 18.5q-32 0 -51.5 -20t-19.5 -44zM127 152q0 -39 31 -67.5t82 -28.5q77 0 131 40q-88 69 -170 151q-33 -15 -53.5 -40t-20.5 -55z" />
<glyph unicode="&#xf73f;" horiz-adv-x="365" d="M40 456l9 70q43 15 97 15q82 0 130.5 -39.5t48.5 -97.5q0 -15 -1.5 -27.5t-7 -24t-8.5 -18.5t-13 -18t-12.5 -13.5t-16 -14.5t-14.5 -13q-2 -2 -8 -7.5t-9 -8.5l-8.5 -8.5t-8 -9.5t-7 -10t-6.5 -11.5t-4.5 -12t-3.5 -14t-1 -15.5v-23h-77v28q0 72 63 127q4 4 18 15 t19 15.5t13 14.5t11 19t3 21q0 34 -28.5 56t-79.5 22q-57 0 -98 -17zM120 0v78h78v-78h-78z" />
<glyph unicode="&#xf760;" horiz-adv-x="376" d="M249 588h-45l-120 146h85z" />
<glyph unicode="&#xf761;" horiz-adv-x="509" d="M93 0h-83l203 532h88l198 -532h-83l-45 123h-235zM348 190l-93 258h-2l-93 -258h188z" />
<glyph unicode="&#xf762;" horiz-adv-x="495" d="M80 532h188q100 0 142 -41.5t42 -100.5q0 -85 -84 -116v-1q9 -2 23 -8.5t32 -20t30 -39t12 -57.5q0 -66 -49 -107t-156 -41h-180v532zM157 301h88q126 0 126 81q0 82 -126 82q-68 0 -88 -2v-161zM157 66q21 -3 94 -3q133 0 133 89q0 41 -33 64.5t-100 23.5h-94v-174z" />
<glyph unicode="&#xf763;" horiz-adv-x="481" d="M451 517l-23 -70q-50 25 -118 25q-83 0 -136 -56t-53 -150t53 -150t136 -56q64 0 118 25l23 -70q-62 -24 -127 -24q-131 0 -207.5 73t-76.5 202q0 134 79 204.5t205 70.5q73 0 127 -24z" />
<glyph unicode="&#xf764;" horiz-adv-x="596" d="M156 457v-383q40 -5 87 -5q114 0 173.5 54t59.5 143q0 86 -57 141.5t-176 55.5q-41 0 -87 -6zM80 0v532h187q143 0 216 -71.5t73 -194.5q0 -125 -75 -195.5t-214 -70.5h-187z" />
<glyph unicode="&#xf765;" horiz-adv-x="428" d="M393 70v-70h-313v532h306v-70h-229v-153h211v-69h-211v-170h236z" />
<glyph unicode="&#xf766;" horiz-adv-x="421" d="M157 0h-77v532h306v-69h-229v-154h211v-70h-211v-239z" />
<glyph unicode="&#xf767;" horiz-adv-x="560" d="M494 17q-72 -27 -170 -27q-136 0 -210 72.5t-74 202.5q0 120 84 198t208 78q103 0 168 -26l-19 -75q-77 32 -142 32q-102 0 -160.5 -58t-58.5 -149q0 -93 53 -149.5t152 -56.5q37 0 93 12v169h-94v69h170v-292z" />
<glyph unicode="&#xf768;" horiz-adv-x="579" d="M157 532v-223h265v223h77v-532h-77v239h-265v-239h-77v532h77z" />
<glyph unicode="&#xf769;" horiz-adv-x="237" d="M157 0h-77v532h77v-532z" />
<glyph unicode="&#xf76a;" horiz-adv-x="316" d="M159 152v380h77v-369q0 -74 -44.5 -123t-125.5 -49q-34 0 -66 8v70q22 -9 59 -9q47 0 73.5 24.5t26.5 67.5z" />
<glyph unicode="&#xf76b;" horiz-adv-x="458" d="M458 0h-94l-207 257v-257h-77v532h77v-246l210 246h87l-219 -256z" />
<glyph unicode="&#xf76c;" horiz-adv-x="379" d="M369 69v-69h-289v532h76v-463h213z" />
<glyph unicode="&#xf76d;" horiz-adv-x="720" d="M137 532h105l118 -425h2l121 425h100l77 -532h-79l-56 434h-2l-124 -434h-86l-120 432h-2l-55 -432h-76z" />
<glyph unicode="&#xf76e;" horiz-adv-x="602" d="M80 0v532h101l260 -428h4v428h77v-532h-98l-264 433h-3v-433h-77z" />
<glyph unicode="&#xf76f;" horiz-adv-x="608" d="M304 541q123 0 193.5 -79.5t70.5 -196.5q0 -114 -69.5 -194t-194.5 -80q-120 0 -192 76.5t-72 197.5q0 118 70.5 197t193.5 79zM304 60q85 0 134 55t49 150q0 55 -16.5 99.5t-59.5 76t-107 31.5q-87 0 -135 -56t-48 -151t48 -150t135 -55z" />
<glyph unicode="&#xf770;" horiz-adv-x="494" d="M231 468q-44 0 -74 -6v-217q30 -5 74 -5q64 0 105 29t41 85q0 53 -39.5 83.5t-106.5 30.5zM245 173q-44 0 -88 8v-181h-77v532h173q99 0 150 -50.5t51 -128.5q0 -81 -55 -130.5t-154 -49.5z" />
<glyph unicode="&#xf771;" horiz-adv-x="607" d="M567 266q0 -96 -50 -170.5t-142 -96.5l26 -90h-73l-24 81q-120 0 -192 77t-72 199q0 117 70.5 196t193.5 79q122 0 192.5 -79t70.5 -196zM355 66q62 15 97 68t35 132q0 86 -45 146t-138 60q-87 0 -135 -55.5t-48 -150.5q0 -89 42 -144t120 -62l-24 83h73z" />
<glyph unicode="&#xf772;" horiz-adv-x="516" d="M240 466q-58 0 -83 -5v-182q22 -6 83 -6q68 0 101.5 26.5t33.5 70.5q0 43 -33 69.5t-102 26.5zM277 210h-120v-210h-77v532h167q102 0 155 -43t53 -117q0 -104 -102 -145l123 -227h-88z" />
<glyph unicode="&#xf773;" horiz-adv-x="423" d="M378 521l-16 -68q-57 19 -121 19q-51 0 -77 -21.5t-26 -54.5q0 -17 6.5 -30t21.5 -23t26 -15.5t34 -15.5l38 -16q55 -22 87 -60.5t32 -87.5q0 -73 -53.5 -115.5t-152.5 -42.5q-80 0 -137 20l16 68q57 -19 116 -19q65 0 97.5 23.5t32.5 61.5q0 53 -63 79l-58 24 q-58 25 -90.5 58t-32.5 91q0 65 49.5 105t136.5 40q82 0 134 -20z" />
<glyph unicode="&#xf774;" horiz-adv-x="410" d="M10 532h390v-69h-157v-463h-77v463h-156v69z" />
<glyph unicode="&#xf775;" horiz-adv-x="591" d="M296 -10q-107 0 -161.5 55.5t-54.5 161.5v325h77v-341q0 -64 40.5 -98t98.5 -34q57 0 97.5 34t40.5 98v341h77v-325q0 -106 -54.5 -161.5t-160.5 -55.5z" />
<glyph unicode="&#xf776;" horiz-adv-x="522" d="M10 532h88l164 -446h2l167 446h81l-208 -532h-92z" />
<glyph unicode="&#xf777;" horiz-adv-x="728" d="M20 532h86l97 -434h2l108 434h103l110 -434h2l97 434h83l-133 -532h-103l-110 422h-2l-109 -422h-100z" />
<glyph unicode="&#xf778;" horiz-adv-x="466" d="M26 532h94l118 -199l116 199h87l-160 -258l175 -274h-93l-130 216l-141 -216h-82l179 274z" />
<glyph unicode="&#xf779;" horiz-adv-x="431" d="M256 0h-77v164l-169 368h82l127 -287h1l126 287h75l-165 -368v-164z" />
<glyph unicode="&#xf77a;" horiz-adv-x="455" d="M40 0v72l281 391h-274v69h361v-74l-281 -389h288v-69h-375z" />
<glyph unicode="&#xf7a1;" horiz-adv-x="162" d="M83 222h-62l-8 -377h78zM11 295v78h78v-78h-78z" />
<glyph unicode="&#xf7bf;" horiz-adv-x="284" d="M284 -78l-8 -71q-42 -15 -97 -15q-82 0 -130.5 38.5t-48.5 96.5q0 12 1 22t4.5 19.5t5.5 16.5t8 15.5t8.5 12.5t11 12.5l11 11t12.5 11.5t11 10q2 2 8 7.5t9 8.5l8.5 8.5t8 9.5t7 10t6.5 11.5t4.5 12t3.5 14t1 15.5v23h77v-28q0 -71 -64 -127q-5 -4 -18 -14.5t-18 -16 t-13 -14.5t-11 -18.5t-3 -21.5q0 -33 28.5 -55t79.5 -22q56 0 97 17zM126 295v78h78v-78h-78z" />
<glyph unicode="&#xf7e0;" horiz-adv-x="509" d="M10 0l203 532h89l197 -532h-83l-45 123h-234l-44 -123h-83zM255 448h-1l-94 -258h188zM236 588l-120 146h85l80 -146h-45z" />
<glyph unicode="&#xf7e1;" horiz-adv-x="509" d="M10 0l203 532h88l198 -532h-83l-45 123h-235l-43 -123h-83zM255 448h-2l-93 -258h188zM230 588l80 146h85l-120 -146h-45z" />
<glyph unicode="&#xf7e2;" horiz-adv-x="509" d="M10 0h83l43 123h235l45 -123h83l-198 532h-88zM255 448l93 -258h-188l93 258h2zM381 588h-45l-83 94l-82 -94h-45l89 146h77z" />
<glyph unicode="&#xf7e3;" horiz-adv-x="509" d="M10 0l203 532h88l198 -532h-83l-45 123h-235l-43 -123h-83zM255 448h-2l-93 -258h188zM100 649q47 52 103 52q32 0 72 -18.5t67 -18.5q25 0 59 30l27 -30q-45 -53 -103 -53q-32 0 -71.5 18.5t-67.5 18.5q-26 0 -59 -30z" />
<glyph unicode="&#xf7e4;" horiz-adv-x="509" d="M10 0h82l44 123h235l45 -123h83l-198 532h-88zM255 448l92 -258h-188l94 258h2zM125 623v78h78v-78h-78zM310 623v78h78v-78h-78z" />
<glyph unicode="&#xf7e5;" horiz-adv-x="509" d="M10 0l203 532h88l198 -532h-83l-45 123h-235l-43 -123h-83zM255 448h-2l-94 -258h189zM352 664q0 -40 -29 -68.5t-70 -28.5t-70 28.5t-29 68.5t29 68.5t70 28.5t70 -28.5t29 -68.5zM253 715q-21 0 -35.5 -15t-14.5 -36t14.5 -36t35.5 -15q22 0 36.5 15t14.5 36t-14.5 36 t-36.5 15z" />
<glyph unicode="&#xf7e6;" horiz-adv-x="754" d="M407 448h-4l-176 -259h180v259zM407 0v123h-227l-87 -123h-93l374 532h339v-69h-230v-154h211v-70h-211v-170h236v-69h-312z" />
<glyph unicode="&#xf7e7;" horiz-adv-x="481" d="M451 15q-53 -22 -115 -24l-19 -42q15 3 25 3q34 0 52.5 -20.5t18.5 -51.5q0 -48 -41 -84.5t-95 -43.5l-24 29q37 6 70 29.5t33 56.5q0 48 -55 48h-35l22 77q-115 10 -181.5 82t-66.5 192q0 133 78.5 204t205.5 71q67 0 127 -24l-23 -70q-50 25 -119 25q-82 0 -135.5 -56 t-53.5 -150t53.5 -150t136.5 -56q68 0 118 25z" />
<glyph unicode="&#xf7e8;" horiz-adv-x="427" d="M392 0v70h-235v170h210v69h-210v153h229v70h-306v-532h312zM275 588h-45l-120 146h85z" />
<glyph unicode="&#xf7e9;" horiz-adv-x="427" d="M392 0v70h-235v170h210v69h-210v153h229v70h-306v-532h312zM258 588h-45l80 146h85z" />
<glyph unicode="&#xf7ea;" horiz-adv-x="428" d="M393 0h-313v532h307v-70h-230v-153h211v-69h-211v-170h236v-70zM314 588l-83 94l-82 -94h-45l89 146h77l89 -146h-45z" />
<glyph unicode="&#xf7eb;" horiz-adv-x="428" d="M393 0v70h-236v170h211v69h-211v153h230v70h-307v-532h313zM106 623v78h78v-78h-78zM291 623v78h78v-78h-78z" />
<glyph unicode="&#xf7ec;" horiz-adv-x="237" d="M157 0v532h-77v-532h77zM150 588h-45l-120 146h85z" />
<glyph unicode="&#xf7ed;" horiz-adv-x="237" d="M157 0v532h-77v-532h77zM140 588h-46l81 146h85z" />
<glyph unicode="&#xf7ee;" horiz-adv-x="237" d="M157 0h-77v532h77v-532zM201 588l-83 94l-82 -94h-46l90 146h77l89 -146h-45z" />
<glyph unicode="&#xf7ef;" horiz-adv-x="237" d="M156 0v532h-77v-532h77zM-8 623v78h78v-78h-78zM165 623v78h78v-78h-78z" />
<glyph unicode="&#xf7f0;" horiz-adv-x="585" d="M256 532q143 0 216 -71.5t73 -194.5q0 -125 -75 -195.5t-214 -70.5h-188v239h-48v70h48v223h188zM232 69q114 0 173.5 54t59.5 143q0 86 -57 141.5t-176 55.5q-41 0 -87 -6v-148h150v-70h-150v-165q40 -5 87 -5z" />
<glyph unicode="&#xf7f1;" horiz-adv-x="602" d="M80 0h77v433h3l264 -433h98v532h-77v-428h-4l-260 428h-101v-532zM164 618l-28 31q47 52 104 52q32 0 71.5 -18.5t66.5 -18.5q29 0 59 30l28 -30q-45 -53 -104 -53q-32 0 -71.5 18.5t-67.5 18.5q-25 0 -58 -30z" />
<glyph unicode="&#xf7f2;" horiz-adv-x="608" d="M304 541q123 0 193.5 -79t70.5 -196q0 -114 -69.5 -195t-194.5 -81q-120 0 -192 77t-72 199q0 118 70.5 196.5t193.5 78.5zM304 60q85 0 134 55.5t49 150.5q0 86 -44.5 146t-138.5 60q-87 0 -135 -55.5t-48 -150.5t48 -150.5t135 -55.5zM331 587h-46l-119 147h85z" />
<glyph unicode="&#xf7f3;" horiz-adv-x="608" d="M304 541q123 0 193.5 -79t70.5 -196q0 -114 -69.5 -195t-194.5 -81q-120 0 -192 77t-72 199q0 118 70.5 196.5t193.5 78.5zM304 60q85 0 134 55.5t49 150.5q0 86 -44.5 146t-138.5 60q-87 0 -135 -55.5t-48 -150.5t48 -150.5t135 -55.5zM279 587l81 147h85l-120 -147h-46 z" />
<glyph unicode="&#xf7f4;" horiz-adv-x="608" d="M304 541q-123 0 -193.5 -78.5t-70.5 -196.5q0 -122 72 -199t192 -77q125 0 194.5 81t69.5 195q0 117 -70.5 196t-193.5 79zM304 60q-87 0 -135 55.5t-48 150.5t48 150.5t135 55.5q94 0 138.5 -60t44.5 -146q0 -95 -49 -150.5t-134 -55.5zM431 587h-45l-83 94l-82 -94h-46 l89 147h78z" />
<glyph unicode="&#xf7f5;" horiz-adv-x="609" d="M302 541q123 0 193.5 -79t70.5 -196q0 -114 -69.5 -195t-194.5 -81q-120 0 -192 77t-72 199q0 118 70.5 196.5t193.5 78.5zM302 60q85 0 134 55.5t49 150.5q0 86 -44.5 146t-138.5 60q-87 0 -135 -55.5t-48 -150.5t48 -150.5t135 -55.5zM148 648q47 52 103 52 q32 0 71.5 -18t66.5 -18q30 0 60 30l27 -31q-46 -52 -103 -52q-33 0 -72 18t-67 18q-26 0 -59 -30z" />
<glyph unicode="&#xf7f6;" horiz-adv-x="607" d="M303 541q-123 0 -193 -78.5t-70 -196.5q0 -122 72 -199t191 -77q125 0 194.5 81t69.5 195q0 117 -70.5 196t-193.5 79zM304 60q-88 0 -135.5 55.5t-47.5 150.5t48 150.5t135 55.5q93 0 138 -60t45 -146q0 -95 -49 -150.5t-134 -55.5zM173 623v78h78v-78h-78zM358 623v78 h78v-78h-78z" />
<glyph unicode="&#xf7f8;" horiz-adv-x="607" d="M567 265q0 -114 -69.5 -194.5t-194.5 -80.5q-39 0 -68 7l-36 -93l-61 22l36 93q-64 33 -99 97.5t-35 148.5q0 118 70.5 197t192.5 79q42 0 70 -8l37 94l61 -22l-37 -94q64 -35 98.5 -100.5t34.5 -145.5zM202 86l148 382q-20 4 -47 4q-86 0 -134 -56t-48 -151 q0 -127 81 -179zM407 444l-148 -381q19 -4 44 -4q85 0 134 55.5t49 150.5q0 126 -79 179z" />
<glyph unicode="&#xf7f9;" horiz-adv-x="591" d="M80 207q0 -106 54.5 -161.5t160.5 -55.5q107 0 161.5 55.5t54.5 161.5v325h-77v-340q0 -64 -40.5 -98.5t-98.5 -34.5q-57 0 -97.5 34.5t-40.5 98.5v340h-77v-325zM322 587h-46l-119 147h85z" />
<glyph unicode="&#xf7fa;" horiz-adv-x="591" d="M80 207q0 -106 54.5 -161.5t161.5 -55.5q106 0 160.5 55.5t54.5 161.5v325h-77v-340q0 -64 -40.5 -98.5t-97.5 -34.5q-58 0 -98.5 34.5t-40.5 98.5v340h-77v-325zM317 587h-46l80 147h86z" />
<glyph unicode="&#xf7fb;" horiz-adv-x="591" d="M80 207v325h77v-340q0 -64 40.5 -98.5t97.5 -34.5q58 0 98.5 34.5t40.5 98.5v340h77v-325q0 -106 -54.5 -161.5t-161.5 -55.5q-106 0 -160.5 55.5t-54.5 161.5zM376 587l-82 94l-82 -94h-46l89 147h78l89 -147h-46z" />
<glyph unicode="&#xf7fc;" horiz-adv-x="590" d="M80 207q0 -106 54.5 -161.5t160.5 -55.5t160.5 55.5t54.5 161.5v325h-77v-340q0 -64 -40 -98.5t-98 -34.5t-98.5 34.5t-40.5 98.5v340h-76v-325zM163 623v78h78v-78h-78zM348 623v78h78v-78h-78z" />
<glyph unicode="&#xf7fd;" horiz-adv-x="431" d="M257 0v165l164 367h-74l-126 -287h-1l-128 287h-82l170 -367v-165h77zM233 587h-45l80 147h85z" />
<glyph unicode="&#xf7fe;" horiz-adv-x="494" d="M231 381q-49 0 -74 -5v-217q24 -6 74 -6q64 0 105 29.5t41 85.5q0 53 -39.5 83t-106.5 30zM245 86q-55 0 -88 9v-95h-77v532h77v-86h96q99 0 150 -50.5t51 -129.5q0 -80 -55 -130t-154 -50z" />
<glyph unicode="&#xf7ff;" horiz-adv-x="431" d="M256 0v165l165 367h-75l-125 -287h-1l-128 287h-82l169 -367v-165h77zM89 623v78h78v-78h-78zM274 623v78h78v-78h-78z" />
<glyph unicode="&#xfe6b;" horiz-adv-x="654" d="M363 540q122 0 186.5 -64t64.5 -151q0 -86 -48 -136.5t-115 -50.5q-70 0 -79 55h-2q-6 -11 -16 -22t-31 -22t-44 -11q-39 0 -65.5 25.5t-26.5 76.5q0 72 51 124t123 52q30 0 86 -14q-26 -141 -30 -163q-5 -22 -5 -36q0 -15 9.5 -26t27.5 -11q42 0 77 44t35 116 q0 84 -55 136t-144 52q-110 0 -188.5 -73t-78.5 -188q0 -97 63.5 -166t162.5 -69q65 0 126 33l-8 -42q-54 -19 -130 -19q-113 0 -190.5 68.5t-77.5 195.5q0 126 97.5 206t224.5 80zM354 378q-41 0 -75.5 -39.5t-34.5 -100.5t45 -61q63 0 80 93l20 102q-12 6 -35 6z" />
<glyph horiz-adv-x="520" d="M363 152v380h77v-369q0 -74 -44.5 -123t-125.5 -49q-34 0 -66 8v70q23 -9 59 -9q47 0 73.5 24.5t26.5 67.5zM157 0v532h-77v-532h77z" />
<glyph horiz-adv-x="237" d="M160 0v532h-76v-532h76zM83 623v78h78v-78h-78z" />
<glyph horiz-adv-x="237" d="M156 0h-76v532h76v-532zM246 709q0 -39 -32 -72.5t-96 -33.5t-95.5 33t-31.5 73h54q-1 -19 16.5 -39.5t56.5 -20.5q37 0 55.5 20t18.5 40h54z" />
<glyph horiz-adv-x="237" d="M157 0h-77v532h77v-532zM229 639h-221v51h221v-51z" />
<glyph horiz-adv-x="237" d="M105 0h-25v532h76v-532q-56 -81 -56 -143q0 -24 15 -38t41 -14q20 0 44 8v-48q-32 -12 -59 -12q-11 0 -22.5 1.5t-27 7.5t-26.5 16t-19 27.5t-8 41.5q0 46 22.5 88.5t44.5 64.5z" />
<glyph horiz-adv-x="235" d="M-34 641q7 9 18.5 19t36 22t48.5 12q32 0 71.5 -18.5t66.5 -18.5q26 0 60 30l27 -31q-46 -52 -103 -52q-33 0 -72 18.5t-67 18.5q-22 0 -59 -30zM159 0h-77v532h77v-532z" />
<glyph horiz-adv-x="492" d="M136 0h-74v717h74v-442l208 219h84l-215 -226l233 -268h-91l-219 260v-260zM216 -147v78h78v-78q0 -32 -23.5 -59.5t-49.5 -39.5l-13 18q46 31 46 81h-38z" />
<glyph horiz-adv-x="754" d="M407 189v259h-4l-176 -259h180zM719 0h-312v123h-227l-87 -123h-93l374 532h339v-69h-230v-154h211v-70h-211v-170h236v-69zM456 590h-45l80 146h85z" />
<glyph horiz-adv-x="481" d="M451 517l-23 -70q-50 25 -118 25q-83 0 -136 -56t-53 -150t53 -150t136 -56q64 0 118 25l23 -70q-62 -24 -127 -24q-131 0 -207.5 73t-76.5 202q0 134 79 204.5t205 70.5q73 0 127 -24zM312 587h-46l80 147h85z" />
<glyph horiz-adv-x="481" d="M451 517l-23 -70q-50 25 -118 25q-83 0 -136 -56t-53 -150t53 -150t136 -56q64 0 118 25l23 -70q-62 -24 -127 -24q-131 0 -207.5 73t-76.5 202q0 134 79 204.5t205 70.5q73 0 127 -24zM182 736h46l82 -94l83 94h45l-89 -147h-78z" />
<glyph horiz-adv-x="481" d="M451 517l-23 -70q-50 25 -118 25q-83 0 -136 -56t-53 -150t53 -150t136 -56q64 0 118 25l23 -70q-62 -24 -127 -24q-131 0 -207.5 73t-76.5 202q0 134 79 204.5t205 70.5q73 0 127 -24zM229 589h-46l89 147h78l89 -147h-45l-83 94z" />
<glyph horiz-adv-x="481" d="M428 446l23 70q-62 25 -127 25q-127 0 -205.5 -71t-78.5 -205q0 -129 76.5 -202t207.5 -73q71 0 127 25l-23 69q-58 -25 -118 -25q-83 0 -136.5 56t-53.5 150t53.5 150.5t135.5 56.5q67 0 119 -26zM275 623v78h78v-78h-78z" />
<glyph horiz-adv-x="596" d="M156 457v-383q40 -5 87 -5q114 0 173.5 54t59.5 143q0 86 -57 141.5t-176 55.5q-41 0 -87 -6zM80 0v532h187q143 0 216 -71.5t73 -194.5q0 -125 -75 -195.5t-214 -70.5h-187zM130 736h46l82 -94l83 94h45l-89 -147h-78z" />
<glyph horiz-adv-x="585" d="M145 239v-165q40 -5 87 -5q114 0 173.5 54t59.5 143q0 86 -57 141.5t-176 55.5q-41 0 -87 -6v-148h150v-70h-150zM68 0v239h-48v70h48v223h188q143 0 216 -71.5t73 -194.5q0 -125 -75 -195.5t-214 -70.5h-188z" />
<glyph horiz-adv-x="428" d="M393 0h-313v532h306v-70h-229v-153h211v-69h-211v-170h236v-70zM360 709q0 -39 -31.5 -72.5t-95.5 -33.5t-96 33t-32 73h54q0 -19 17.5 -39.5t56.5 -20.5q37 0 55 20t18 40h54z" />
<glyph horiz-adv-x="403" d="M369 0h-313v532h307v-70h-230v-153h211v-69h-211v-170h236v-70zM335 736l-89 -147h-77l-89 147h45l82 -95l83 95h45z" />
<glyph horiz-adv-x="403" d="M368 0v70h-236v170h211v69h-211v153h229v70h-306v-532h313zM175 623v78h78v-78h-78z" />
<glyph horiz-adv-x="428" d="M393 0h-313v532h306v-70h-229v-153h211v-69h-211v-170h236v-70zM338 639h-221v51h221v-51z" />
<glyph horiz-adv-x="428" d="M341 0h-261v532h306v-69h-229v-154h211v-70h-211v-169h235v-70q-56 -81 -56 -143q0 -24 15 -38t41 -14q13 0 44 7v-47q-32 -12 -59 -12q-11 0 -22.5 1.5t-27 7.5t-26.5 16t-19 27.5t-8 41.5q0 46 22.5 87.5t44.5 65.5z" />
<glyph horiz-adv-x="560" d="M405 727h54q0 -40 -31 -73t-96 -33q-64 0 -96 33t-32 73h54q0 -20 17.5 -40t56.5 -20q37 0 55 20t18 40zM494 17q-72 -27 -170 -27q-136 0 -210 72.5t-74 202.5q0 120 84 198t208 78q103 0 168 -26l-19 -75q-77 32 -142 32q-102 0 -160.5 -58t-58.5 -149q0 -93 53 -149.5 t152 -56.5q37 0 93 12v169h-94v69h170v-292z" />
<glyph horiz-adv-x="560" d="M245 589h-46l89 147h78l89 -147h-45l-83 94zM494 17q-72 -27 -170 -27q-136 0 -210 72.5t-74 202.5q0 120 84 198t208 78q103 0 168 -26l-19 -75q-77 32 -142 32q-102 0 -160.5 -58t-58.5 -149q0 -93 53 -149.5t152 -56.5q37 0 93 12v169h-94v69h170v-292z" />
<glyph horiz-adv-x="560" d="M286 -147v78h78v-78q0 -32 -23.5 -59.5t-49.5 -39.5l-13 18q46 31 46 81h-38zM494 17q-72 -27 -170 -27q-136 0 -210 72.5t-74 202.5q0 120 84 198t208 78q103 0 168 -26l-19 -75q-77 32 -142 32q-102 0 -160.5 -58t-58.5 -149q0 -93 53 -149.5t152 -56.5q37 0 93 12v169 h-94v69h170v-292z" />
<glyph horiz-adv-x="560" d="M286 623v78h78v-78h-78zM494 17q-72 -27 -170 -27q-136 0 -210 72.5t-74 202.5q0 120 84 198t208 78q103 0 168 -26l-19 -75q-77 32 -142 32q-102 0 -160.5 -58t-58.5 -149q0 -93 53 -149.5t152 -56.5q37 0 93 12v169h-94v69h170v-292z" />
<glyph horiz-adv-x="577" d="M420 395h-265v-86h265v86zM155 465h265v67h77v-67h55v-70h-55v-395h-77v239h-265v-239h-77v395h-53v70h53v67h77v-67z" />
<glyph horiz-adv-x="579" d="M80 532h77v-223h265v223h77v-532h-77v239h-265v-239h-77v532zM213 587h-46l89 147h78l89 -147h-45l-83 94z" />
<glyph horiz-adv-x="315" d="M159 152v380h77v-369q0 -74 -44.5 -123t-125.5 -49q-34 0 -66 8v70q22 -9 59 -9q47 0 73.5 24.5t26.5 67.5zM115 589h-46l89 147h78l89 -147h-45l-83 94z" />
<glyph horiz-adv-x="458" d="M458 0h-94l-207 257v-257h-77v532h77v-246l210 246h87l-219 -256zM199 -147v78h78v-78q0 -32 -23.5 -59.5t-49.5 -39.5l-13 18q46 31 46 81h-38z" />
<glyph horiz-adv-x="484" d="M464 0h-94l-207 257v-257h-77v532h77v-246l210 246h87l-219 -256z" />
<glyph horiz-adv-x="379" d="M369 69v-69h-289v532h76v-463h213zM174 587h-46l80 147h85z" />
<glyph horiz-adv-x="409" d="M369 69v-69h-289v532h76v-463h213zM309 454v78h78v-78q0 -32 -23.5 -59.5t-49.5 -39.5l-13 18q46 31 46 81h-38z" />
<glyph horiz-adv-x="379" d="M369 69v-69h-289v532h76v-463h213zM188 -147v78h78v-78q0 -32 -23.5 -59.5t-49.5 -39.5l-13 18q46 31 46 81h-38z" />
<glyph horiz-adv-x="379" d="M369 69v-69h-289v532h76v-463h213zM279 271v78h78v-78h-78z" />
<glyph horiz-adv-x="598" d="M559 0h-106l-279 339v-339h-77v674h77v-321l265 321h91l-273 -326zM260 -147v78h78v-78q0 -32 -23.5 -59.5t-49.5 -39.5l-13 18q46 31 46 81h-38z" />
<glyph horiz-adv-x="602" d="M157 0h-77v532h101l260 -428h4v428h77v-532h-98l-264 433h-3v-433zM329 587h-46l80 147h85z" />
<glyph horiz-adv-x="602" d="M80 0h77v433h3l264 -433h98v532h-77v-428h-4l-260 428h-101v-532zM182 736h46l82 -94l83 94h45l-89 -147h-78z" />
<glyph horiz-adv-x="602" d="M157 0h-77v532h101l260 -428h4v428h77v-532h-98l-264 433h-3v-433zM247 -147v78h78v-78q0 -32 -23.5 -59.5t-49.5 -39.5l-13 18q46 31 46 81h-38z" />
<glyph horiz-adv-x="608" d="M304 541q-123 0 -193.5 -78.5t-70.5 -196.5q0 -122 72 -199t192 -77q125 0 194.5 81t69.5 195q0 117 -70.5 196t-193.5 79zM304 60q-87 0 -135 55.5t-48 150.5t48 150.5t135 55.5q94 0 138.5 -60t44.5 -146q0 -95 -49 -150.5t-134 -55.5zM378 709h54q0 -40 -31.5 -73 t-96.5 -33q-64 0 -95.5 33t-31.5 73h54q0 -20 17 -40.5t56 -20.5q38 0 56 20t18 41z" />
<glyph horiz-adv-x="608" d="M257 587h-45l80 147h85zM398 587h-46l80 147h86zM304 541q-123 0 -193.5 -78.5t-70.5 -196.5q0 -122 72 -199t192 -77q125 0 194.5 81t69.5 195q0 117 -70.5 196t-193.5 79zM304 60q-87 0 -135 55.5t-48 150.5t48 150.5t135 55.5q94 0 138.5 -60t44.5 -146 q0 -95 -49 -150.5t-134 -55.5z" />
<glyph horiz-adv-x="607" d="M304 541q-123 0 -193.5 -78.5t-70.5 -196.5q0 -122 72 -199t192 -77q125 0 194 81t69 195q0 117 -70.5 196t-192.5 79zM304 60q-88 0 -135.5 55.5t-47.5 150.5t48 150.5t135 55.5q93 0 138 -60t45 -146q0 -95 -49 -150.5t-134 -55.5zM414 690v-52h-221v52h221z" />
<glyph horiz-adv-x="607" d="M567 265q0 -114 -69.5 -194.5t-194.5 -80.5q-39 0 -68 7l-36 -93l-61 22l36 93q-64 33 -99 97.5t-35 148.5q0 118 70.5 197t192.5 79q42 0 70 -8l37 94l61 -22l-37 -94q64 -35 98.5 -100.5t34.5 -145.5zM202 86l148 382q-20 4 -47 4q-86 0 -134 -56t-48 -151 q0 -127 81 -179zM407 444l-148 -381q19 -4 44 -4q85 0 134 55.5t49 150.5q0 126 -79 179zM310 590h-45l80 146h85z" />
<glyph horiz-adv-x="516" d="M218 587h-46l80 147h85zM240 466q-58 0 -83 -5v-182q22 -6 83 -6q68 0 101.5 26.5t33.5 70.5q0 43 -33 69.5t-102 26.5zM277 210h-120v-210h-77v532h167q102 0 155 -43t53 -117q0 -104 -102 -145l123 -227h-88z" />
<glyph horiz-adv-x="516" d="M116 736h46l82 -94l83 94h45l-89 -147h-78zM240 466q-58 0 -83 -5v-182q22 -6 83 -6q68 0 101.5 26.5t33.5 70.5q0 43 -33 69.5t-102 26.5zM277 210h-120v-210h-77v532h167q102 0 155 -43t53 -117q0 -104 -102 -145l123 -227h-88z" />
<glyph horiz-adv-x="516" d="M218 -147v78h78v-78q0 -32 -23.5 -59.5t-49.5 -39.5l-13 18q46 31 46 81h-38zM240 466q-58 0 -83 -5v-182q22 -6 83 -6q68 0 101.5 26.5t33.5 70.5q0 43 -33 69.5t-102 26.5zM277 210h-120v-210h-77v532h167q102 0 155 -43t53 -117q0 -104 -102 -145l123 -227h-88z" />
<glyph horiz-adv-x="516" d="M240 466q-58 0 -83 -5v-182q22 -6 83 -6q68 0 101.5 26.5t33.5 70.5q0 43 -33 69.5t-102 26.5zM277 210h-120v-210h-77v532h167q102 0 155 -43t53 -117q0 -104 -102 -145l123 -227h-88z" />
<glyph horiz-adv-x="516" d="M215 587h-46l80 147h85zM240 466q-58 0 -83 -5v-182q22 -6 83 -6q68 0 101.5 26.5t33.5 70.5q0 43 -33 69.5t-102 26.5zM277 210h-120v-210h-77v532h167q102 0 155 -43t53 -117q0 -104 -102 -145l123 -227h-88z" />
<glyph horiz-adv-x="516" d="M102 736h46l82 -94l83 94h45l-89 -147h-78zM240 466q-58 0 -83 -5v-182q22 -6 83 -6q68 0 101.5 26.5t33.5 70.5q0 43 -33 69.5t-102 26.5zM277 210h-120v-210h-77v532h167q102 0 155 -43t53 -117q0 -104 -102 -145l123 -227h-88z" />
<glyph horiz-adv-x="516" d="M205 -147v78h78v-78q0 -32 -23.5 -59.5t-49.5 -39.5l-13 18q46 31 46 81h-38zM240 466q-58 0 -83 -5v-182q22 -6 83 -6q68 0 101.5 26.5t33.5 70.5q0 43 -33 69.5t-102 26.5zM277 210h-120v-210h-77v532h167q102 0 155 -43t53 -117q0 -104 -102 -145l123 -227h-88z" />
<glyph horiz-adv-x="423" d="M378 521l-16 -68q-71 19 -121 19q-51 0 -77 -21.5t-26 -54.5q0 -17 6.5 -30t21.5 -23t26 -15.5t34 -15.5l38 -16q119 -49 119 -147q0 -73 -53.5 -116t-152.5 -43q-78 0 -137 21l16 68q48 -20 116 -20q65 0 97.5 23.5t32.5 61.5q0 54 -63 80l-58 24q-58 24 -90.5 57 t-32.5 91q0 66 49.5 105.5t136.5 39.5q74 0 134 -20zM243 588h-46l81 146h85z" />
<glyph horiz-adv-x="423" d="M383 149q0 -66 -43.5 -107.5t-125.5 -49.5l-20 -43q15 3 25 3q34 0 53 -20.5t19 -51.5q0 -48 -41 -84.5t-96 -43.5l-23 29q36 6 69 29.5t33 56.5q0 48 -55 48h-34l21 76q-64 1 -125 20l16 68q62 -19 116 -19q65 0 98 23t33 61q0 54 -64 80l-58 24q-58 24 -90.5 57.5 t-32.5 90.5q0 66 49.5 105.5t136.5 39.5q74 0 134 -20l-16 -68q-57 19 -120 19q-51 0 -77 -21.5t-26 -53.5t22.5 -49.5t65.5 -34.5l38 -16q54 -23 86 -61t32 -87z" />
<glyph horiz-adv-x="423" d="M378 521l-16 -68q-71 19 -121 19q-51 0 -77 -21.5t-26 -54.5q0 -17 6.5 -30t21.5 -23t26 -15.5t34 -15.5l38 -16q119 -49 119 -147q0 -73 -53.5 -116t-152.5 -43q-78 0 -137 21l16 68q48 -20 116 -20q65 0 97.5 23.5t32.5 61.5q0 54 -63 80l-58 24q-58 24 -90.5 57 t-32.5 91q0 66 49.5 105.5t136.5 39.5q74 0 134 -20zM368 588h-45l-83 94l-82 -94h-45l89 146h77z" />
<glyph horiz-adv-x="423" d="M378 521l-16 -68q-71 19 -121 19q-51 0 -77 -21.5t-26 -54.5q0 -17 6.5 -30t21.5 -23t26 -15.5t34 -15.5l38 -16q119 -49 119 -147q0 -73 -53.5 -116t-152.5 -43q-78 0 -137 21l16 68q48 -20 116 -20q65 0 97.5 23.5t32.5 61.5q0 54 -63 80l-58 24q-58 24 -90.5 57 t-32.5 91q0 66 49.5 105.5t136.5 39.5q74 0 134 -20zM135 -147v78h78v-78q0 -32 -23.5 -59.5t-49.5 -39.5l-13 18q46 31 46 81h-38z" />
<glyph horiz-adv-x="410" d="M10 532h390v-69h-157v-463h-77v463h-156v69zM81 736h46l82 -94l83 94h45l-89 -147h-78z" />
<glyph horiz-adv-x="410" d="M10 532h390v-70h-157v-172h157v-69h-157v-221h-77v221h-156v69h156v172h-156v70z" />
<glyph horiz-adv-x="410" d="M10 532h390v-69h-157v-463h-77v463h-156v69zM165 -147v78h78v-78q0 -32 -23.5 -59.5t-49.5 -39.5l-13 18q46 31 46 81h-38z" />
<glyph horiz-adv-x="591" d="M80 207v325h77v-340q0 -64 40 -98.5t98 -34.5t98.5 34.5t40.5 98.5v340h77v-325q0 -106 -54.5 -161.5t-161.5 -55.5q-106 0 -160.5 55.5t-54.5 161.5zM424 709q0 -40 -31.5 -73.5t-96.5 -33.5q-64 0 -95.5 33t-31.5 74h54q0 -20 17.5 -40.5t55.5 -20.5t56 20t18 41h54z " />
<glyph horiz-adv-x="590" d="M80 207q0 -106 54.5 -161.5t160.5 -55.5t160.5 55.5t54.5 161.5v325h-76v-340q0 -64 -40.5 -98.5t-98.5 -34.5t-98 34.5t-40 98.5v340h-77v-325zM248 587h-45l80 147h85zM389 587h-46l80 147h86z" />
<glyph horiz-adv-x="591" d="M80 207v325h77v-340q0 -64 40 -98.5t98 -34.5t98.5 34.5t40.5 98.5v340h77v-325q0 -106 -54.5 -161.5t-161.5 -55.5q-106 0 -160.5 55.5t-54.5 161.5zM408 638h-221v52h221v-52z" />
<glyph horiz-adv-x="591" d="M434 532h77v-324q0 -194 -175 -215q-52 -78 -52 -136q0 -24 15 -38.5t41 -14.5q20 0 44 8v-48q-26 -11 -58 -11q-11 0 -22.5 1.5t-27 7.5t-26.5 16t-19 27.5t-8 41.5q0 69 58 144q-99 4 -150 59.5t-51 157.5v324h77v-340q0 -64 40.5 -98t98.5 -34t98 34t40 98v340z" />
<glyph horiz-adv-x="591" d="M378 664q0 -40 -29 -68.5t-70 -28.5t-70 28.5t-29 68.5t29 68.5t70 28.5t70 -28.5t29 -68.5zM279 715q-21 0 -35.5 -15t-14.5 -36t14.5 -36t35.5 -15q22 0 36.5 15t14.5 36t-14.5 36t-36.5 15zM80 207v325h77v-340q0 -64 40 -98.5t98 -34.5t98.5 34.5t40.5 98.5v340h77 v-325q0 -106 -54.5 -161.5t-161.5 -55.5q-106 0 -160.5 55.5t-54.5 161.5z" />
<glyph horiz-adv-x="594" d="M83 207v325h77v-340q0 -64 40 -98.5t98 -34.5t98.5 34.5t40.5 98.5v340h77v-325q0 -106 -54.5 -161.5t-161.5 -55.5q-106 0 -160.5 55.5t-54.5 161.5zM175 617l-27 31q47 52 103 52q32 0 71.5 -18t66.5 -18q30 0 60 30l27 -31q-46 -52 -103 -52q-33 0 -72 18t-67 18 q-26 0 -59 -30z" />
<glyph horiz-adv-x="728" d="M151 0l-131 532h86l97 -434h2l108 434h103l110 -434h2l97 434h83l-133 -532h-103l-110 422h-2l-109 -422h-100zM378 587h-46l80 147h85z" />
<glyph horiz-adv-x="728" d="M151 0l-131 532h86l97 -434h2l108 434h103l110 -434h2l97 434h83l-133 -532h-103l-110 422h-2l-109 -422h-100zM292 589h-46l89 147h78l89 -147h-45l-83 94z" />
<glyph horiz-adv-x="728" d="M20 532l131 -532h100l109 422h2l110 -422h103l133 532h-83l-97 -434h-2l-110 434h-103l-108 -434h-2l-97 434h-86zM422 623v78h78v-78h-78zM237 623v78h78v-78h-78z" />
<glyph horiz-adv-x="728" d="M20 532l131 -532h100l107 422h4l110 -422h103l133 532h-83l-95 -434h-4l-110 434h-103l-106 -434h-4l-97 434h-86zM402 589h-46l-120 147h86z" />
<glyph horiz-adv-x="431" d="M256 164v-164h-77v164l-169 368h82l127 -287h1l126 287h75zM135 589h-46l95 147h72l89 -147h-45l-83 94z" />
<glyph horiz-adv-x="431" d="M256 0v164l165 368h-75l-126 -287h-1l-127 287h-82l169 -368v-164h77zM252 587h-46l-120 147h86z" />
<glyph horiz-adv-x="455" d="M40 73l280 389h-274v70h361v-74l-281 -388h289v-70h-375v73zM232 588h-45l80 146h85z" />
<glyph horiz-adv-x="455" d="M40 73v-73h375v70h-289l281 388v74h-361v-70h274zM187 623v78h78v-78h-78z" />
<glyph horiz-adv-x="509" d="M10 0h83l43 123h235l45 -123h83l-197 532h-89zM255 448l93 -258h-188l94 258h1zM328 709h54q0 -40 -31.5 -73t-96.5 -33q-64 0 -95.5 33t-31.5 73h54q0 -19 17.5 -39.5t55.5 -20.5t56 20t18 40z" />
<glyph horiz-adv-x="509" d="M255 448h-2l-94 -259h189zM416 0l-45 123h-235l-44 -123h-82l203 532h88l198 -532q-9 -12 -20.5 -31t-24 -52.5t-12.5 -59.5q0 -24 15 -38.5t41 -14.5q20 0 44 8v-48q-26 -11 -58 -11q-15 0 -29.5 3t-33 12t-29.5 29.5t-11 49.5q0 80 66 153h-31z" />
<glyph horiz-adv-x="509" d="M10 0h82l44 123h235l45 -123h83l-198 532h-88zM255 448l93 -258h-189l94 258h2zM365 690v-51h-221v51h221z" />
<glyph horiz-adv-x="311" d="M89 0h-69l202 532h69z" />
<glyph horiz-adv-x="755" d="M192 0h-77v532h101l260 -428h4v428h77v-532h-98l-264 433h-3v-433zM-36 454v78h78v-78q0 -32 -23.5 -59.5t-49.5 -39.5l-13 18q46 31 46 81h-38z" />
<glyph horiz-adv-x="378" d="M151 442v-78h-78v78q0 32 23.5 59.5t49.5 39.5l13 -18q-46 -31 -46 -81h38zM305 442v-78h-78v78q0 32 23.5 59.5t49.5 39.5l13 -18q-46 -31 -46 -81h38z" />
<glyph horiz-adv-x="378" d="M226 454v78h78v-78q0 -32 -23.5 -59.5t-49.5 -39.5l-13 18q46 31 46 81h-38zM72 454v78h78v-78q0 -32 -23.5 -59.5t-49.5 -39.5l-13 18q46 31 46 81h-38z" />
<glyph horiz-adv-x="224" d="M152 442v-78h-78v78q0 32 23.5 59.5t49.5 39.5l13 -18q-46 -31 -46 -81h38z" />
<glyph horiz-adv-x="224" d="M72 454v78h78v-78q0 -32 -23.5 -59.5t-49.5 -39.5l-13 18q46 31 46 81h-38z" />
<glyph horiz-adv-x="199" d="M81 333l-21 199h79l-21 -199h-37z" />
<glyph horiz-adv-x="325" d="M207 333l-21 199h79l-21 -199h-37zM81 333l-21 199h79l-21 -199h-37z" />
</font>
</defs>
</svg>
