<?xml version="1.0" standalone="no"?>
<!DOCTYPE svg PUBLIC "-//W3C//DTD SVG 1.1//EN" "http://www.w3.org/Graphics/SVG/1.1/DTD/svg11.dtd" >
<svg xmlns="http://www.w3.org/2000/svg">
<metadata></metadata>
<defs>
<font id="americansans_lightitalic" horiz-adv-x="568" >
<font-face units-per-em="1000" ascent="750" descent="-250" />
<missing-glyph horiz-adv-x="250" />
<glyph unicode="ff" horiz-adv-x="558" d="M623 736q51 0 78 -9l-5 -26q-2 -16 -16 -16q-2 0 -24.5 3.5t-41.5 3.5q-59 0 -93 -31t-46 -98l-13 -69h146l-8 -42h-146l-88 -452h-53l88 452h-210l-88 -452h-53q55 284 88 452h-86l8 42h86q12 58 13 69q17 95 64 134t127 39q60 0 78 -9l-4 -26q-2 -16 -16 -16 q-2 0 -25 3.5t-42 3.5q-107 0 -129 -129l-13 -69h210q10 47 12 58q17 99 67.5 141.5t134.5 42.5z" />
<glyph unicode="fi" horiz-adv-x="483" d="M365 736q51 0 78 -9l-5 -26q-4 -16 -15 -16q-2 0 -25 3.5t-42 3.5q-59 0 -93 -31t-46 -98l-13 -69h244l-96 -494h-52l88 452h-192l-88 -452h-53q56 284 88 452h-86l8 42h86q10 47 12 58q17 99 67.5 141.5t134.5 42.5z" />
<glyph unicode="fl" horiz-adv-x="480" d="M371 736q24 0 54 -3.5t47.5 -7t20.5 -4.5l-141 -721h-52l133 685q-28 7 -71 7q-122 0 -145 -129l-13 -69h108l-8 -42h-108l-88 -452h-53q56 284 88 452h-86l8 42h86q10 47 12 58q32 184 208 184z" />
<glyph unicode="ffi" horiz-adv-x="746" d="M628 736q51 0 78 -9l-5 -26q-4 -16 -15 -16q-2 0 -25 3.5t-42 3.5q-116 0 -139 -130l-13 -68h244l-96 -494h-53l88 452h-191l-88 -452h-53l88 452h-211l-88 -452h-52q55 284 88 452h-86l8 42h86q11 57 13 68q17 95 64 134.5t127 39.5q51 0 78 -9l-5 -26q-4 -16 -15 -16 q-2 0 -25 3.5t-42 3.5q-107 0 -129 -130l-13 -68h210q10 46 12 57q17 99 67.5 142t134.5 43z" />
<glyph unicode="ffl" horiz-adv-x="743" d="M634 736q21 0 51.5 -3.5t49 -7t21.5 -4.5l-141 -721h-52l133 685q-28 7 -72 7q-121 0 -144 -129l-13 -69h108l-8 -42h-108l-88 -452h-53l88 452h-211l-88 -452h-52q56 284 88 452h-86l8 42h86q11 58 13 69q17 95 64 134t127 39q51 0 78 -9l-5 -27q-2 -16 -15 -16 q-1 0 -25 4t-43 4q-107 0 -128 -129l-13 -69h210q10 47 12 58q18 98 70 141t138 43z" />
<glyph unicode="&#xd;" horiz-adv-x="360" />
<glyph unicode=" "  horiz-adv-x="250" />
<glyph unicode="&#x09;" horiz-adv-x="250" />
<glyph unicode="&#xa0;" horiz-adv-x="250" />
<glyph unicode="!" horiz-adv-x="274" d="M130 198h-38l82 476h60zM120 67l-13 -67h-67l13 67h67z" />
<glyph unicode="&#x22;" horiz-adv-x="233" d="M80 505l20 169h52l-47 -169h-25zM181 505l20 169h52l-47 -169h-25z" />
<glyph unicode="#" horiz-adv-x="642" d="M617 456h-120l-73 -238h120l-8 -43h-124l-52 -175h-53l52 175h-175l-52 -175h-53l53 175h-116l8 43h119l73 238h-118l8 43h122l54 175h53l-54 -175h175l54 175h53l-54 -175h116zM371 218l73 238h-175l-73 -238h175z" />
<glyph unicode="$" horiz-adv-x="501" d="M334 639q-84 0 -133 -38.5t-49 -95.5q0 -45 26.5 -74.5t76.5 -55.5l34 -19q122 -65 122 -172q0 -78 -54.5 -129t-150.5 -61l-19 -97h-53l19 94q-98 1 -153 24l10 50q66 -29 143 -29q92 0 147.5 41t55.5 107q0 78 -101 132l-36 20q-59 31 -91 69.5t-32 97.5 q0 69 52.5 117.5t137.5 59.5l17 86h53l-16 -82q78 -1 141 -20l-10 -48q-55 23 -137 23z" />
<glyph unicode="%" horiz-adv-x="738" d="M183 339q-47 0 -75 37t-28 89q0 54 15.5 102t53 82.5t90.5 34.5q48 0 75 -37.5t27 -90.5q0 -90 -42 -153.5t-116 -63.5zM307 559q0 39 -20 65.5t-55 26.5q-41 0 -69.5 -34.5t-38.5 -74t-10 -76.5q0 -43 19.5 -69t53.5 -26q56 0 88 57.5t32 130.5zM521 -9q-48 0 -76 37.5 t-28 90.5q0 54 15.5 102t53 82.5t90.5 34.5q48 0 75 -37.5t27 -90.5q0 -90 -42 -154.5t-115 -64.5zM644 212q0 40 -20 66.5t-55 26.5q-41 0 -69.5 -34.5t-38.5 -74t-10 -76.5q0 -43 20 -70t54 -27q55 0 87 58t32 131zM93 0l533 674h41l-533 -674h-41z" />
<glyph unicode="&#x26;" horiz-adv-x="712" d="M382 684q66 0 101.5 -37t35.5 -82q0 -40 -19.5 -74.5t-55.5 -60.5t-64 -41.5t-68 -33.5q24 -43 75 -106t99 -112q84 92 114 244h52q-15 -84 -52 -159t-81 -120l92 -92l-41 -33q-65 69 -86 92q-17 -22 -73 -50t-134 -28q-83 0 -140 47.5t-57 121.5q0 42 16.5 77.5t47 62.5 t51 41t52.5 31q-42 75 -42 141q0 80 50.5 125.5t126.5 45.5zM462 556q0 33 -22.5 58.5t-70.5 25.5q-42 0 -76.5 -34t-34.5 -87q0 -58 32 -124q33 16 49 24.5t44 26t42 32t25.5 35.5t11.5 43zM270 332q-27 -15 -42 -25.5t-40.5 -32t-38 -48.5t-12.5 -58q0 -56 42.5 -94.5 t102.5 -38.5q99 0 170 68q-129 139 -182 229z" />
<glyph unicode="'" horiz-adv-x="133" d="M80 505l21 169h52l-48 -169h-25z" />
<glyph unicode="(" horiz-adv-x="279" d="M270 674h49q-34 -47 -65.5 -102.5t-65.5 -132.5t-54.5 -169t-20.5 -182q0 -101 19 -187t41 -132h-41q-72 136 -72 321q0 95 20.5 188t55 168t66.5 128.5t68 99.5z" />
<glyph unicode=")" horiz-adv-x="279" d="M-32 -231h-48q34 47 65.5 103t65.5 132.5t54.5 169t20.5 183.5q0 101 -19 186t-41 131h41q27 -50 49.5 -133.5t22.5 -186.5q0 -95 -20.5 -188.5t-55.5 -168.5t-67 -128.5t-68 -99.5z" />
<glyph unicode="*" horiz-adv-x="368" d="M328 566l-106 -22l56 -75l-48 -30l-35 89l-67 -89l-35 30l83 77l-96 20l25 49l86 -42l8 101h52l-31 -102l101 43z" />
<glyph unicode="+" horiz-adv-x="639" d="M393 548l-44 -225h230l-8 -43h-230l-44 -226h-52l44 226h-229l8 43h229l44 225h52z" />
<glyph unicode="," horiz-adv-x="197" d="M4 0l15 78h78l-15 -78q-7 -34 -35.5 -60.5t-57.5 -38.5l-9 18q51 31 62 81h-38z" />
<glyph unicode="-" horiz-adv-x="430" d="M69 269h261l-9 -43h-261z" />
<glyph unicode="." horiz-adv-x="193" d="M0 0l15 78h78l-15 -78h-78z" />
<glyph unicode="/" horiz-adv-x="364" d="M36 0h-56l388 674h56z" />
<glyph unicode="0" horiz-adv-x="642" d="M268 -9q-96 0 -152 74.5t-56 180.5q0 79 19 154t55.5 140t100 104.5t143.5 39.5q96 0 150 -76.5t54 -182.5q0 -85 -20.5 -162t-58.5 -138.5t-99 -97.5t-136 -36zM528 437q0 87 -42 144.5t-118 57.5q-68 0 -120 -42.5t-79.5 -107.5t-41 -128.5t-13.5 -119.5q0 -92 42 -149 t116 -57q81 0 141 62t87.5 151.5t27.5 188.5z" />
<glyph unicode="1" horiz-adv-x="323" d="M130 0h-53l119 612q-81 -47 -166 -53v42q54 6 106.5 30t78.5 53h48z" />
<glyph unicode="2" horiz-adv-x="452" d="M-30 51q184 177 211 202q53 50 74.5 71.5t51.5 57.5t40.5 65.5t10.5 62.5q0 49 -37 89t-108 40q-64 0 -122 -37l-20 38q8 7 23.5 16t50.5 18.5t74 9.5q93 0 143 -52t50 -120q0 -42 -13.5 -80t-43 -74t-53.5 -60.5t-66 -60.5q-18 -16 -68.5 -64.5t-92.5 -89.5l-42 -41h319 l-8 -42h-384z" />
<glyph unicode="3" horiz-adv-x="429" d="M90 613l-17 39l7 4q7 3 13.5 6t19.5 7t25.5 7.5t30.5 5.5t36 2q89 0 136.5 -49t47.5 -113q0 -39 -16 -72t-42 -54t-48 -33t-43 -19l-1 -3q37 -16 67 -53.5t30 -94.5q0 -88 -72.5 -145t-184.5 -57q-68 0 -109 9l5 45q47 -10 104 -10q90 0 147.5 46t57.5 115 q0 52 -35.5 90.5t-108.5 38.5h-62l8 43h66q76 0 131 43.5t55 107.5q0 46 -35 83t-105 37q-60 0 -108 -26z" />
<glyph unicode="4" horiz-adv-x="550" d="M336 228l78 402h-4l-335 -402h261zM327 185h-293l-4 62l358 427h87l-87 -446h122l-8 -43h-122l-36 -185h-53z" />
<glyph unicode="5" horiz-adv-x="477" d="M206 631l-44 -226q16 4 35 4q96 0 152.5 -54t56.5 -127q0 -106 -82 -171.5t-205 -65.5q-87 0 -119 12l9 47q60 -15 114 -15q96 0 162.5 55t66.5 130q0 65 -45 105t-134 40q-10 0 -73 -9l62 318h315l-9 -43h-262z" />
<glyph unicode="6" horiz-adv-x="602" d="M311 385q-76 0 -134 -52t-58 -131q0 -66 43 -116t121 -50q82 0 137 56.5t55 136.5q0 68 -45.5 112t-118.5 44zM311 429q100 0 159 -56.5t59 -139.5q0 -103 -69 -172.5t-185 -69.5q-58 0 -101 21t-67 56t-35.5 76t-11.5 87q0 98 22 176.5t58 129t85 84.5t100.5 48.5 t107.5 14.5q91 0 129 -17l-15 -47q-53 20 -113 20q-62 0 -114 -21.5t-84.5 -53.5t-56.5 -73.5t-35 -76t-16 -66.5l5 -1q65 81 178 81z" />
<glyph unicode="7" horiz-adv-x="396" d="M60 0h-60q55 152 149.5 304.5t223.5 326.5h-352l8 43h407l-9 -46q-105 -134 -207.5 -304t-159.5 -324z" />
<glyph unicode="8" horiz-adv-x="536" d="M279 374q38 22 54.5 32t43 29t37.5 32t20 32t9 39q0 36 -32 68.5t-98 32.5q-56 0 -95 -34.5t-39 -84.5q0 -48 26 -80.5t74 -65.5zM233 35q73 0 121 40t48 95q0 76 -121 156q-93 -39 -140.5 -81.5t-47.5 -96.5q0 -47 36.5 -80t103.5 -33zM40 146q0 31 13.5 59.5t30.5 48 t46.5 40t48 31t47.5 25.5l1 4q-101 74 -101 163q0 83 55.5 125t137.5 42q93 0 135 -45.5t42 -102.5q0 -61 -38.5 -99t-123.5 -85l-1 -4q64 -46 93 -84.5t29 -89.5q0 -78 -66 -130.5t-163 -52.5q-88 0 -137 44t-49 111z" />
<glyph unicode="9" horiz-adv-x="601" d="M291 289q76 0 134 52t58 131q0 66 -43.5 116t-121.5 50q-81 0 -136 -57t-55 -136q0 -68 45.5 -112t118.5 -44zM290 245q-99 0 -158 56t-59 139q0 104 69 174t185 70q57 0 100.5 -21t67 -56.5t35 -76.5t11.5 -87q0 -98 -22 -176t-58 -129t-85 -84.5t-100.5 -48 t-106.5 -14.5q-95 0 -129 17l15 47q53 -20 113 -20q62 0 114 21.5t84.5 53.5t56 73t35 75.5t15.5 66.5l-3 1q-73 -81 -180 -81z" />
<glyph unicode=":" horiz-adv-x="231" d="M20 0l15 78h78l-15 -78h-78zM78 302l15 78h78l-15 -78h-78z" />
<glyph unicode=";" horiz-adv-x="255" d="M102 302l15 78h78l-15 -78h-78zM44 0l15 78h78l-15 -78q-7 -34 -35.5 -60.5t-57.5 -38.5l-9 18q51 31 62 81h-38z" />
<glyph unicode="&#x3c;" horiz-adv-x="354" d="M60 267l208 202l26 -28l-177 -174l110 -174l-38 -28z" />
<glyph unicode="=" horiz-adv-x="614" d="M86 369l9 43h469l-9 -43h-469zM50 183l9 43h469l-9 -43h-469z" />
<glyph unicode="&#x3e;" horiz-adv-x="333" d="M145 469l128 -202l-207 -202l-26 28l176 174l-109 174z" />
<glyph unicode="?" horiz-adv-x="449" d="M88 620l14 44q60 20 103 20q87 0 135.5 -42.5t48.5 -102.5q0 -32 -12 -60.5t-36.5 -53.5t-37.5 -36t-38 -29q-88 -65 -104 -145l-3 -16h-53q2 13 4 20q9 46 32.5 84.5t39 52.5t40.5 34q1 1 20.5 15.5t26.5 20t23.5 21t23.5 27t13.5 28t6.5 32.5q0 44 -35.5 74.5 t-106.5 30.5q-15 0 -34 -3t-31.5 -6t-25.5 -6.5t-14 -3.5zM127 0l13 67h-67l-13 -67h67z" />
<glyph unicode="@" horiz-adv-x="832" d="M498 685q80 0 142.5 -22t98.5 -58t54.5 -78t18.5 -87q0 -114 -75.5 -188t-166.5 -74q-49 0 -71.5 21t-22.5 49h-4q-52 -69 -126 -69q-47 0 -74 27.5t-27 77.5q0 92 77 168.5t189 76.5q64 0 102 -17q-67 -178 -78 -205q-19 -51 -19 -66q0 -41 60 -41q25 0 56.5 16.5 t62 45.5t51 76t20.5 100q0 90 -71.5 158.5t-201.5 68.5q-71 0 -140.5 -28.5t-123.5 -78t-87.5 -122.5t-33.5 -155q0 -118 73.5 -191.5t186.5 -73.5q82 0 153 34l-11 -34q-67 -25 -157 -25q-135 0 -214 84t-79 214q0 71 30.5 141t85 127t139 92.5t183.5 35.5zM510 511 q-83 0 -149 -78t-66 -148q0 -36 18 -57.5t44 -21.5q91 0 144 138l59 156q-15 11 -50 11z" />
<glyph unicode="A" d="M1 0h-61l385 674h63l120 -674h-59l-30 177h-318zM341 611l-216 -390h287l-67 390h-4z" />
<glyph unicode="B" horiz-adv-x="584" d="M221 41q95 0 159 44t64 116q0 54 -43 90t-125 36h-99l-54 -281q27 -5 98 -5zM376 350v-4q41 -7 82.5 -42.5t41.5 -101.5q0 -94 -75 -148t-186 -54h-179l131 674h159q97 0 145.5 -45.5t48.5 -108.5q0 -46 -20.5 -81t-50.5 -52.5t-54.5 -26.5t-42.5 -10zM264 370 q100 0 163 38.5t63 105.5q0 51 -39.5 85t-122.5 34q-23 0 -55.5 -1t-35.5 -1l-51 -261h78z" />
<glyph unicode="C" horiz-adv-x="571" d="M60 291q0 169 106.5 281t280.5 112q48 0 88.5 -7.5t55.5 -13.5t20 -9l-9 -49q-68 34 -160 34q-136 0 -230 -97t-94 -255q0 -108 67 -180t173 -72q76 0 140 32l-11 -54q-5 -3 -18 -7.5t-45.5 -9.5t-68.5 -5q-135 0 -215 87t-80 213z" />
<glyph unicode="D" horiz-adv-x="725" d="M225 36q107 0 192.5 36.5t140 117t54.5 195.5q0 110 -74 181.5t-211 71.5q-25 0 -92 -9l-112 -585q44 -8 102 -8zM665 384q0 -185 -120.5 -289t-313.5 -104q-111 0 -171 7l130 677q81 9 155 9q158 0 239 -86.5t81 -213.5z" />
<glyph unicode="E" horiz-adv-x="499" d="M122 43h274l-8 -43h-328l131 674h328l-9 -43h-274l-51 -261h259l-8 -43h-259z" />
<glyph unicode="F" horiz-adv-x="499" d="M510 631h-274l-51 -261h259l-8 -43h-259l-63 -327h-54l131 674h328z" />
<glyph unicode="G" horiz-adv-x="664" d="M614 653l-10 -49q-70 35 -159 35q-143 0 -235 -104.5t-92 -247.5q0 -102 63 -177t172 -75q63 0 115 21l52 270h-164l9 43h217l-67 -347q-62 -31 -155 -31q-77 0 -136.5 25.5t-94 68.5t-52 94t-17.5 108q0 167 107.5 282t272.5 115q48 0 91.5 -8t61 -14t21.5 -9z" />
<glyph unicode="H" horiz-adv-x="760" d="M646 674h54l-131 -674h-54l63 327h-401l-63 -327h-54l131 674h54l-60 -304h401z" />
<glyph unicode="I" horiz-adv-x="305" d="M245 674l-131 -674h-54l131 674h54z" />
<glyph unicode="J" horiz-adv-x="342" d="M127 156l101 518h54q-86 -442 -101 -518q-31 -163 -192 -163q-43 0 -69 11l8 44q39 -11 64 -11q112 0 135 119z" />
<glyph unicode="K" horiz-adv-x="550" d="M507 0h-68l-258 341l-67 -341h-54l131 674h54l-63 -327l359 327h69l-362 -332z" />
<glyph unicode="L" horiz-adv-x="406" d="M122 43h264l-8 -43h-318l131 674h54z" />
<glyph unicode="M" horiz-adv-x="868" d="M43 0h-53l215 674h76l90 -627h4l330 627h83l-34 -674h-56l36 626h-4l-329 -626h-75l-88 626h-4z" />
<glyph unicode="N" horiz-adv-x="767" d="M114 0h-54l131 674h67l277 -586h4l114 586h54l-131 -674h-61l-280 598h-4z" />
<glyph unicode="O" horiz-adv-x="744" d="M403 639q-121 0 -203 -100t-82 -266q0 -104 61.5 -171t159.5 -67q125 0 206 100.5t81 262.5q0 100 -58.5 170.5t-164.5 70.5zM340 -9q-129 0 -204.5 82.5t-75.5 212.5q0 171 96 284.5t252 113.5q125 0 200.5 -84t75.5 -209q0 -180 -98 -290t-246 -110z" />
<glyph unicode="P" horiz-adv-x="558" d="M171 294q36 -4 83 -4q101 0 164.5 55t63.5 138q0 63 -42.5 105.5t-124.5 42.5q-61 0 -79 -3zM250 247q-60 0 -87 6l-49 -253h-54l131 674h127q106 0 163 -53.5t57 -137.5q0 -105 -78.5 -170.5t-209.5 -65.5z" />
<glyph unicode="Q" horiz-adv-x="744" d="M684 392q0 -166 -84.5 -274t-216.5 -125l27 -108h-43l-27 106q-129 0 -204.5 83t-75.5 213q0 171 96 284t252 113q125 0 200.5 -83.5t75.5 -208.5zM373 37q112 14 182.5 113t70.5 249q0 100 -58.5 170t-164.5 70q-122 0 -203.5 -99.5t-81.5 -265.5q0 -101 58.5 -168.5 t152.5 -70.5l-34 140h45z" />
<glyph unicode="R" horiz-adv-x="596" d="M177 325q15 -3 92 -3q104 0 168 48.5t64 128.5q0 58 -42.5 95t-135.5 37q-69 0 -87 -3zM437 0l-112 279h-157l-54 -279h-54l131 674h154q107 0 159 -49t52 -124q0 -45 -15 -82t-35.5 -58.5t-48 -38t-45 -22.5t-33.5 -10l117 -290h-59z" />
<glyph unicode="S" horiz-adv-x="451" d="M451 664l-9 -48q-51 23 -138 23q-84 0 -133 -40t-49 -97q0 -45 26.5 -74.5t76.5 -55.5l34 -19q122 -65 122 -172q0 -88 -68.5 -139t-186.5 -51q-101 0 -156 23l10 51q69 -30 142 -30q93 0 148.5 39.5t55.5 105.5q0 78 -101 133l-37 20q-58 31 -90 69.5t-32 97.5 q0 79 68 131.5t172 52.5q78 0 145 -20z" />
<glyph unicode="T" horiz-adv-x="404" d="M29 674h475l-9 -43h-211l-122 -631h-54l122 631h-210z" />
<glyph unicode="U" horiz-adv-x="699" d="M553 233q-45 -242 -266 -242q-105 0 -166 58.5t-61 137.5q0 45 11 98l76 389h54l-72 -371q-15 -72 -15 -101q0 -74 43.5 -120.5t133.5 -46.5q168 0 210 208l84 431h54z" />
<glyph unicode="V" horiz-adv-x="552" d="M50 674h54l102 -617h4l344 617h58l-380 -674h-68z" />
<glyph unicode="W" horiz-adv-x="844" d="M103 0l-33 674h55l26 -612h5l280 612h75l45 -612h5l264 612h59l-296 -674h-80l-45 612h-4l-278 -612h-78z" />
<glyph unicode="X" horiz-adv-x="475" d="M207 346l-148 328h63l122 -281l236 281h65l-275 -325l160 -349h-60l-137 305l-255 -305h-68z" />
<glyph unicode="Y" horiz-adv-x="458" d="M126 0l48 247l-124 427h55l107 -371l255 371h61l-300 -428l-48 -246h-54z" />
<glyph unicode="Z" horiz-adv-x="476" d="M-50 0l10 48l492 583h-366l9 43h431l-9 -47l-494 -584h384l-8 -43h-449z" />
<glyph unicode="[" horiz-adv-x="311" d="M371 674l-9 -43h-141l-160 -819h142l-9 -43h-194l177 905h194z" />
<glyph unicode="\" horiz-adv-x="303" d="M169 0l-129 674h51l132 -674h-54z" />
<glyph unicode="]" horiz-adv-x="310" d="M47 631l9 43h194l-177 -905h-193l8 43h140l161 819h-142z" />
<glyph unicode="^" horiz-adv-x="642" d="M190 391h-54l216 283h46l107 -283h-55l-84 238z" />
<glyph unicode="_" horiz-adv-x="511" d="M5 -177h511l-10 -54h-511z" />
<glyph unicode="`" horiz-adv-x="176" d="M156 596h-45l-91 147h85z" />
<glyph unicode="a" horiz-adv-x="549" d="M447 150q-21 -103 -25 -150h-38q-16 0 -16 13l11 58h-4q-5 -8 -14 -18.5t-27 -26t-47.5 -26t-63.5 -10.5q-83 0 -130.5 58t-47.5 141q0 139 97 227t244 88q99 0 128 -16q-60 -302 -67 -338zM100 201q0 -78 35.5 -122.5t98.5 -44.5q65 0 114 63.5t71 173.5l35 177 q-30 12 -80 12q-113 0 -193.5 -76.5t-80.5 -182.5z" />
<glyph unicode="b" horiz-adv-x="551" d="M311 460q-59 0 -109 -56.5t-72 -174.5l-35 -183q32 -12 87 -12q76 0 139.5 42t96.5 102.5t33 121.5q0 65 -36.5 112.5t-103.5 47.5zM168 423h4q59 81 150 81q81 0 132.5 -60.5t51.5 -139.5q0 -51 -20.5 -104.5t-59 -101t-105 -78t-148.5 -30.5q-74 0 -138 16l138 711h52z " />
<glyph unicode="c" horiz-adv-x="448" d="M323 504q85 0 145 -30q0 -8 -8 -32q-4 -11 -11 -11q-4 0 -44 14.5t-85 14.5q-92 0 -156 -73t-64 -165q0 -73 43 -130t124 -57q35 0 70 11.5t38 11.5q11 0 11 -9q0 -3 -7 -38q-63 -21 -113 -21q-102 0 -161.5 66t-59.5 157q0 121 78 206t200 85z" />
<glyph unicode="d" horiz-adv-x="547" d="M460 488l44 229h53q-103 -528 -110 -564q-20 -100 -25 -153h-41q-13 0 -13 11q0 3 1.5 12t1.5 10l8 41h-4q-5 -9 -13 -19t-26 -27t-46.5 -27.5t-62.5 -10.5q-82 0 -132 62t-50 140q0 139 93.5 225.5t221.5 86.5q52 0 100 -16zM356 460q-102 0 -179 -73.5t-77 -182.5 q0 -72 36.5 -121t101.5 -49q64 0 111 64t69 176l33 169q-34 17 -95 17z" />
<glyph unicode="e" horiz-adv-x="548" d="M305 504q92 0 145 -53t53 -135q0 -38 -13 -86h-388q-1 -4 -1 -11q0 -82 57 -133t132 -51q48 0 85 11.5t39 11.5q10 0 10 -11q0 -6 -5 -36q-63 -21 -138 -21q-108 0 -172 68t-64 161q0 51 15.5 100t45.5 91t82 68t117 26zM106 272h341q6 30 6 53q0 50 -40.5 92.5 t-113.5 42.5q-46 0 -83.5 -20t-59.5 -50.5t-34.5 -60.5t-15.5 -57z" />
<glyph unicode="f" horiz-adv-x="295" d="M360 736q13 0 26 -1t21.5 -2t15.5 -2.5t10.5 -2.5t4.5 -1l-5 -26q-3 -16 -15 -16q-2 0 -24.5 3t-43.5 3q-59 0 -92.5 -31t-45.5 -98l-13 -68h146l-8 -42h-147l-88 -452h-52q55 285 88 452h-87l9 42h86q10 47 11 58q18 98 68 141t135 43z" />
<glyph unicode="g" horiz-adv-x="551" d="M379 72q-60 -82 -160 -82q-80 0 -127 59.5t-47 139.5q0 51 20.5 104.5t59 101.5t105 78.5t148.5 30.5q74 0 138 -16q-73 -378 -102 -524q-22 -110 -75.5 -160.5t-147.5 -50.5q-77 0 -128 22q2 14 4 26q3 17 17 17q4 0 18 -5t40 -10.5t58 -5.5q65 0 104 35t55 119l24 121 h-4zM421 267l35 182q-32 12 -87 12q-115 0 -192 -84.5t-77 -187.5q0 -66 33.5 -110.5t100.5 -44.5q63 0 113.5 57t73.5 176z" />
<glyph unicode="h" horiz-adv-x="538" d="M171 425h4q9 14 23.5 29t50 32.5t76.5 17.5q73 0 118 -43t45 -111q0 -10 -8 -66l-56 -284h-52q49 252 55 283q8 52 8 60q0 49 -30 83t-90 34q-59 0 -108.5 -52t-66.5 -138l-52 -270h-53l140 717h52z" />
<glyph unicode="i" horiz-adv-x="213" d="M35 0h53l96 494h-53zM223 691l-11 -55h-55l11 55h55z" />
<glyph unicode="j" horiz-adv-x="210" d="M220 691l-11 -55h-55l11 55h55zM12 -104q-18 -98 -108 -98q-14 0 -31 3.5t-20 3.5q-10 0 -14 -14q-5 -16 -9 -27q26 -11 77 -11q64 0 104 36.5t57 123.5l113 581h-53q-98 -509 -116 -598z" />
<glyph unicode="k" horiz-adv-x="430" d="M88 0h-53l140 717h52l-86 -441l247 218h72l-258 -228l199 -266h-66l-197 260z" />
<glyph unicode="l" horiz-adv-x="217" d="M88 0h-53l139 717h53z" />
<glyph unicode="m" horiz-adv-x="839" d="M126 494h42q12 0 12 -10q0 -5 -10 -55h4q52 75 138 75q38 0 67 -12t45.5 -31t24.5 -32.5t12 -27.5q67 103 172 103q68 0 112 -42t44 -101q0 -34 -11 -91l-53 -270h-53q44 223 54 273q9 45 9 76q0 45 -28 78t-84 33t-101.5 -50t-61.5 -133l-54 -277h-52q47 242 55 283 q8 40 8 66q0 48 -29.5 79.5t-79.5 31.5q-64 0 -107.5 -52.5t-61.5 -141.5l-51 -266h-53q56 289 67 345q20 101 24 149z" />
<glyph unicode="n" horiz-adv-x="538" d="M88 0h-53q60 308 67 344q15 74 26 150h40q12 0 12 -9q0 -2 -1 -9l-1 -7l-9 -45h4q9 14 23.5 29t50.5 33t78 18q73 0 118 -43t45 -111q0 -24 -9 -66l-55 -284h-52q48 252 54 283q9 39 9 60q0 49 -30 83t-90 34q-59 0 -108.5 -52t-66.5 -138z" />
<glyph unicode="o" d="M306 460q-88 0 -147.5 -70t-59.5 -187q0 -73 44.5 -121t115.5 -48q91 0 150.5 71.5t59.5 185.5q0 71 -42.5 120t-120.5 49zM260 -10q-98 0 -156.5 62t-58.5 158q0 126 73.5 210t192.5 84q95 0 153.5 -62t58.5 -154q0 -133 -75.5 -215.5t-187.5 -82.5z" />
<glyph unicode="p" horiz-adv-x="528" d="M69 7l-46 -238h-53q104 537 111 573q16 80 25 152h44q10 0 10 -9q0 -17 -4 -25l-7 -41h4q52 85 146 85q90 0 137 -58.5t47 -135.5q0 -143 -86.5 -231.5t-216.5 -88.5q-28 0 -64.5 6.5t-46.5 10.5zM174 34q104 0 179.5 80t75.5 202q0 58 -35 100.5t-97 42.5t-114.5 -63 t-72.5 -175l-33 -170q59 -17 97 -17z" />
<glyph unicode="q" horiz-adv-x="566" d="M231 34q69 0 120 62t71 170l35 182q-39 11 -93 11q-82 0 -144.5 -43.5t-91.5 -103.5t-29 -121q0 -62 35 -109.5t97 -47.5zM382 69h-4q-36 -44 -68 -60q-36 -19 -80 -19q-86 0 -135.5 61.5t-49.5 138.5q0 129 90.5 221.5t238.5 92.5q72 0 142 -21l-138 -714h-53z" />
<glyph unicode="r" horiz-adv-x="347" d="M126 494h43q12 0 12 -9q0 -4 -2 -15.5t-5 -25t-4 -16.5h4q5 9 13 18.5t25.5 24t46.5 24t65 9.5q43 0 73 -10q-1 -3 -3.5 -15.5t-3.5 -15.5q-3 -11 -13 -11q-1 0 -23.5 4t-42.5 4q-57 0 -105.5 -49.5t-63.5 -131.5l-54 -279h-53q60 309 69 355q18 92 22 139z" />
<glyph unicode="s" horiz-adv-x="363" d="M238 504q72 0 125 -15q-3 -16 -5 -25q-4 -17 -15 -17q-6 0 -39.5 6.5t-70.5 6.5q-52 0 -86 -25.5t-34 -64.5q0 -57 70 -86l44 -19q41 -18 65 -49.5t24 -71.5q0 -69 -51.5 -111.5t-148.5 -42.5q-87 0 -126 13q1 8 6 29q3 14 15 14q3 0 38.5 -5.5t75.5 -5.5q58 0 97 28.5 t39 70.5q0 57 -80 92l-31 12q-93 40 -93 123q0 60 48.5 101.5t132.5 41.5z" />
<glyph unicode="t" horiz-adv-x="293" d="M181 -10q-56 0 -90.5 29t-34.5 79q0 12 10 69l56 285h-92l8 42h92l21 109h52l-21 -109h151l-8 -42h-151q-57 -293 -59 -303q0 -2 -1.5 -11.5t-2.5 -18t-1 -15.5q0 -32 21.5 -50.5t60.5 -18.5q12 0 28.5 3.5t17.5 3.5q9 0 9 -10l-3 -33q-32 -9 -63 -9z" />
<glyph unicode="u" horiz-adv-x="538" d="M451 494h52q-60 -306 -67 -342q-16 -90 -25 -152h-41q-12 0 -12 9q0 12 11 62h-4q-55 -81 -151 -81q-74 0 -119 44t-45 112q0 24 9 66l55 282h52q-48 -250 -54 -282q-9 -39 -9 -59q0 -50 30 -84t90 -34q59 0 109.5 54t65.5 136z" />
<glyph unicode="v" horiz-adv-x="409" d="M121 0l-81 494h51l69 -431h4l241 431h54l-278 -494h-60z" />
<glyph unicode="w" horiz-adv-x="669" d="M81 0l-31 494h50l27 -425h4l213 425h63l32 -425h4l214 425h52l-250 -494h-66l-29 421h-6l-211 -421h-66z" />
<glyph unicode="x" horiz-adv-x="415" d="M183 263l-120 231h60l97 -187l170 187h65l-209 -229l136 -265h-60l-113 221l-204 -221h-65z" />
<glyph unicode="y" horiz-adv-x="422" d="M139 -1l-102 495h59l82 -423h2l233 423h59q-245 -441 -312 -561q-28 -51 -47 -78.5t-46 -54t-59.5 -37t-77.5 -10.5q-25 0 -70 9q4 18 7 29q5 12 13 12q2 0 8.5 -1.5t19 -2.5t29.5 -1q52 0 88.5 30t70.5 93z" />
<glyph unicode="z" horiz-adv-x="379" d="M59 452l8 42h342l-8 -44l-363 -408h287l-8 -42h-347l9 48l360 404h-280z" />
<glyph unicode="{" horiz-adv-x="298" d="M0 193l11 55q105 12 125 117q18 86 27 138q34 171 170 171h25l-7 -37q-108 0 -130 -108l-30 -155q-9 -46 -41 -90t-92 -61l-1 -5q78 -26 78 -114q0 -15 -4 -37l-29 -150q-4 -17 -4 -35q0 -40 22.5 -58t69.5 -18l-7 -37h-25q-110 0 -110 110q0 27 6 62q20 105 26 135 q4 24 4 33q0 73 -84 84z" />
<glyph unicode="|" horiz-adv-x="270" d="M0 -231l177 905h53l-177 -905h-53z" />
<glyph unicode="}" horiz-adv-x="291" d="M259 251l-10 -55q-106 -12 -126 -117l-27 -138q-34 -172 -171 -172h-25l7 37q110 0 131 108l31 156q9 46 41 90t92 61l1 5q-78 25 -78 115q0 19 3 36q3 15 29 152q3 17 3 32q0 40 -22 58t-70 18l8 37h25q110 0 110 -110q0 -34 -6 -62l-26 -134q-3 -18 -3 -33 q0 -73 83 -84z" />
<glyph unicode="~" horiz-adv-x="563" d="M56 218l-16 32q72 50 137 50q51 0 109 -30t96 -30q47 0 105 36l16 -32q-62 -50 -137 -50q-49 0 -108.5 30t-94.5 30q-63 0 -107 -36z" />
<glyph unicode="&#xa1;" horiz-adv-x="254" d="M141 261h-38l-103 -476h60zM114 392l13 67h67l-13 -67h-67z" />
<glyph unicode="&#xa2;" horiz-adv-x="544" d="M402 502q51 -6 102 -31l-3 -13q-3 -14 -5 -19q-4 -12 -11 -12q-4 0 -44 16.5t-86 16.5q-92 0 -156 -74t-64 -166q0 -73 43.5 -129t124.5 -56q35 0 70 12t38 12q10 0 10 -9q0 -17 -7 -38l-12 -4q-13 -4 -26 -7.5t-33.5 -7t-39.5 -3.5l-22 -107h-52l22 112 q-80 16 -125.5 77.5t-45.5 139.5q0 118 75.5 203t194.5 89l18 97h53z" />
<glyph unicode="&#xa3;" horiz-adv-x="530" d="M530 675l-16 -46q-30 10 -75 10q-93 0 -143.5 -58t-50.5 -137q0 -38 6 -83h181l-8 -43h-174q-14 -181 -134 -276h316l-8 -42h-384l9 44q61 34 100.5 108t43.5 166h-89l8 43h81q-4 60 -4 69q0 110 61.5 182t193.5 72q46 0 86 -9z" />
<glyph unicode="&#xa4;" horiz-adv-x="642" d="M343 467q-77 0 -128 -55t-51 -147q0 -58 38.5 -95.5t99.5 -37.5q78 0 129 56t51 146q0 56 -36.5 94.5t-102.5 38.5zM504 412q20 -40 20 -80q0 -104 -64 -170l39 -52l-40 -33l-40 52q-54 -32 -116 -32q-80 0 -130 48l-76 -61l-32 41l78 62q-20 37 -20 83q0 101 63 166 l-44 58l40 33l44 -58q53 33 120 33q78 0 128 -48l70 56l32 -41z" />
<glyph unicode="&#xa5;" horiz-adv-x="534" d="M554 674l-249 -366h136l-9 -43h-149l-13 -67h149l-8 -43h-150l-30 -155h-52l30 155h-149l8 43h149l13 67h-149l8 43h136l-108 366h59l93 -338l225 338h60z" />
<glyph unicode="&#xa6;" horiz-adv-x="270" d="M101 282l76 392h53l-76 -392h-53zM0 -231l77 394h53l-77 -394h-53z" />
<glyph unicode="&#xa7;" horiz-adv-x="534" d="M370 640q-61 0 -103.5 -37t-42.5 -92q0 -36 19 -61t55 -53q3 -3 23 -18l28 -21q95 -71 95 -155q0 -94 -117 -165q40 -45 40 -106q0 -81 -57 -129.5t-142 -48.5q-92 0 -148 26l22 47q63 -28 122 -28q62 0 104 35.5t42 89.5q0 36 -19 62t-55 53l-51 39q-95 70 -95 155 q0 40 21 75t42.5 52.5t53.5 37.5q-40 43 -40 105q0 81 57.5 131.5t141.5 50.5q92 0 148 -26l-22 -47q-63 28 -122 28zM313 312q-48 35 -71 54q-4 2 -5 4q-89 -62 -89 -135q0 -56 73 -111q48 -36 72 -55l4 -4q90 61 90 135q0 56 -74 112z" />
<glyph unicode="&#xa8;" horiz-adv-x="319" d="M20 545l16 78h78l-16 -78h-78zM205 545l16 78h78l-16 -78h-78z" />
<glyph unicode="&#xa9;" horiz-adv-x="867" d="M480 684q142 0 224.5 -85t82.5 -213q0 -103 -47 -192.5t-140 -146.5t-213 -57q-146 0 -226.5 87t-80.5 213q0 167 116 280.5t284 113.5zM393 37q153 0 248.5 101.5t95.5 241.5q0 109 -68 181.5t-194 72.5q-100 0 -180 -49t-121.5 -126t-41.5 -166q0 -111 66 -183.5 t195 -72.5zM549 454l15 46q0 2 -13.5 5t-35 6t-39.5 3q-93 0 -150.5 -55.5t-57.5 -139.5q0 -65 40 -111t121 -46q15 0 30 2.5t28 6.5t14 4l3 44q-26 -13 -67 -13q-60 0 -89 33.5t-29 79.5q0 66 44 109t105 43q50 0 81 -17z" />
<glyph unicode="&#xaa;" horiz-adv-x="446" d="M351 300l-8 -39h-263l7 39h264zM172 665q2 2 14.5 6t35 8.5t42.5 4.5q59 0 90.5 -27.5t31.5 -68.5q0 -14 -7 -47l-19 -101q-10 -50 -12 -84h-29q-9 0 -9 9q0 3 1 9t1 7l4 22h-4q-41 -51 -100 -51q-49 0 -78 28t-29 66q0 49 40.5 80t123.5 31h75q4 28 4 29q0 29 -22.5 47 t-62.5 18q-22 0 -42.5 -5.5t-33 -11t-15.5 -5.5q-5 0 -5 5q0 11 5 31zM338 526h-73q-61 0 -90 -24t-29 -53q0 -26 19.5 -45.5t54.5 -19.5q43 0 73 33.5t40 81.5z" />
<glyph unicode="&#xab;" horiz-adv-x="471" d="M50 235l207 202l27 -28l-177 -174l109 -173l-37 -29zM207 235l207 202l27 -28l-177 -174l109 -173l-37 -29z" />
<glyph unicode="&#xac;" horiz-adv-x="640" d="M68 333h512l-52 -269h-52l44 226h-460z" />
<glyph unicode="&#xad;" horiz-adv-x="430" d="M69 269h261l-9 -43h-261z" />
<glyph unicode="&#xae;" horiz-adv-x="413" d="M240 541h11q17 0 28 7.5t11 20.5q0 22 -29 22h-11zM275 459l-22 62h-17l-12 -62h-27l30 151h41q50 0 50 -40q0 -37 -39 -45l24 -66h-28zM277 684q63 0 99.5 -37t36.5 -94q0 -71 -49 -123t-128 -52q-65 0 -100.5 38.5t-35.5 94.5q0 74 51 123.5t126 49.5zM238 402 q67 0 108.5 44t41.5 105q0 47 -29.5 78t-84.5 31q-65 0 -107 -44t-42 -103q0 -48 28.5 -79.5t84.5 -31.5z" />
<glyph unicode="&#xaf;" horiz-adv-x="269" d="M249 684l-8 -41h-221l8 41h221z" />
<glyph unicode="&#xb0;" horiz-adv-x="414" d="M206 415q-58 0 -92 36.5t-34 84.5q0 66 42 107t105 41q60 0 93.5 -36.5t33.5 -82.5q0 -69 -42.5 -109.5t-105.5 -40.5zM227 644q-46 0 -76 -31.5t-30 -71.5q0 -38 25 -62t64 -24q44 0 73.5 31.5t29.5 71.5q0 35 -23 60.5t-63 25.5z" />
<glyph unicode="&#xb1;" horiz-adv-x="680" d="M38 43h511l-8 -43h-511zM424 582l-44 -225h230l-8 -43h-230l-44 -226h-52l44 226h-229l8 43h229l44 225h52z" />
<glyph unicode="&#xb2;" horiz-adv-x="261" d="M-5 362q92 94 106 107q33 32 47.5 48t26.5 37t12 41q0 23 -18.5 42t-49.5 19q-29 0 -61 -19l-12 25q27 22 73 22q50 0 76 -28t26 -63q0 -11 -2.5 -22t-8 -22t-10 -18.5t-15 -19t-15 -16.5t-18 -18t-16.5 -16l-92 -96h144l-6 -28h-192z" />
<glyph unicode="&#xb3;" horiz-adv-x="269" d="M72 643l-11 25q24 16 72 16q44 0 70 -27t26 -59q0 -36 -24.5 -57.5t-50.5 -29.5v-4q19 -7 33.5 -26t14.5 -47q0 -44 -36 -72.5t-92 -28.5q-32 0 -64 7l4 31q21 -7 51 -7q44 0 73 20.5t29 53.5q0 26 -18 43.5t-55 17.5h-32l7 29h34q38 0 64 18.5t26 50.5q0 23 -17 41 t-50 18q-28 0 -54 -13z" />
<glyph unicode="&#xb4;" horiz-adv-x="235" d="M66 595h-46l109 147h86z" />
<glyph unicode="&#xb5;" horiz-adv-x="642" d="M507 494h53q-60 -308 -67 -343q-14 -70 -26 -151h-40q-12 0 -12 9q0 8 5.5 33.5t5.5 27.5h-4q-55 -80 -152 -80q-87 0 -133 61l-55 -282h-52l141 725h52q-48 -252 -54 -283q-9 -39 -9 -60q0 -49 30 -83t90 -34q59 0 108.5 52.5t66.5 137.5z" />
<glyph unicode="&#xb6;" horiz-adv-x="551" d="M262 -244h-52l171 875h-137l-170 -875h-53l102 524q-47 12 -85 51t-38 104q0 102 71.5 170.5t215.5 68.5h224l-8 -43h-70z" />
<glyph unicode="&#xb7;" horiz-adv-x="240" d="M160 281l-13 -67h-67l13 67h67z" />
<glyph unicode="&#xb8;" horiz-adv-x="210" d="M104 0h41l-43 -62q6 2 19 2q29 0 49 -17t20 -49q0 -54 -49 -87.5t-109 -37.5l-12 19q127 25 127 99q0 22 -16 35.5t-44 13.5q-3 0 -10.5 -0.5t-9.5 -0.5z" />
<glyph unicode="&#xb9;" horiz-adv-x="190" d="M83 337h-35l58 298q-43 -25 -83 -27l-3 29q27 3 55.5 15.5t40.5 26.5h34z" />
<glyph unicode="&#xba;" horiz-adv-x="488" d="M360 299l-7 -39h-273l7 39h273zM286 649q-55 0 -92 -43t-37 -115q0 -45 27.5 -74.5t72.5 -29.5q56 0 93 44t37 114q0 43 -26.5 73.5t-74.5 30.5zM256 352q-64 0 -102 39.5t-38 102.5q0 82 48 136t126 54q62 0 100 -40t38 -100q0 -87 -49 -139.5t-123 -52.5z" />
<glyph unicode="&#xbb;" horiz-adv-x="470" d="M282 438l128 -202l-207 -202l-26 29l176 176l-109 171zM125 438l128 -202l-207 -202l-26 29l176 176l-109 171z" />
<glyph unicode="&#xbc;" horiz-adv-x="594" d="M158 337h-36l58 298q-38 -23 -82 -27l-3 29q27 3 55 16t41 27h33zM0 0l533 674h41l-533 -674h-41zM440 114l36 187h-4l-151 -187h119zM435 86h-147l-5 29l183 222h52l-43 -223h52l-5 -28h-52l-17 -86h-36z" />
<glyph unicode="&#xbd;" horiz-adv-x="614" d="M158 337h-36l58 298q-38 -23 -82 -27l-3 29q27 3 55 15.5t41 26.5h33zM0 0l533 674h41l-533 -674h-41zM368 25q92 88 106 101q33 32 47.5 48t26.5 37t12 41q0 23 -18.5 42.5t-49.5 19.5q-28 0 -61 -20l-12 25q29 23 73 23q50 0 76 -28t26 -64q0 -11 -2.5 -22t-8 -22 t-10 -18.5t-15 -19t-15 -16.5t-18 -18t-16.5 -16l-92 -90h144l-6 -28h-192z" />
<glyph unicode="&#xbe;" horiz-adv-x="654" d="M60 0l533 674h41l-533 -674h-41zM140 637l-11 25q25 17 72 17q44 0 70 -24.5t26 -56.5q0 -36 -24.5 -57.5t-50.5 -29.5v-4q19 -7 33.5 -26t14.5 -47q0 -44 -36 -73t-92 -29q-32 0 -64 7l4 31q21 -7 51 -7q43 0 72.5 21t29.5 54q0 26 -18 43.5t-55 17.5h-32l7 29h34 q38 0 64 18.5t26 50.5q0 22 -17 38t-50 16q-26 0 -54 -14zM511 114l36 187h-4l-151 -187h119zM506 86h-147l-5 29l183 222h52l-43 -223h52l-5 -28h-52l-17 -86h-36z" />
<glyph unicode="&#xbf;" horiz-adv-x="410" d="M301 -158l-13 -45q-60 -20 -104 -20q-86 0 -135 43t-49 102q0 32 12.5 61.5t35.5 53t38.5 36.5t37.5 29q88 62 105 145l3 16h53q-3 -12 -4 -20q-7 -35 -20.5 -64t-33 -51t-30 -31.5t-29.5 -24.5q-1 -1 -25 -19t-33 -26.5t-25.5 -26t-23.5 -35.5t-7 -37q0 -45 35.5 -75.5 t106.5 -30.5q45 0 105 20zM250 392l13 67h67l-13 -67h-67z" />
<glyph unicode="&#xc0;" horiz-adv-x="569" d="M380 736h-26l-92 147h66zM2 0h-62l386 674h63l120 -674h-59l-30 177h-319zM342 610l-216 -389h287l-67 389h-4z" />
<glyph unicode="&#xc1;" horiz-adv-x="569" d="M358 736h-27l109 147h66zM1 0h-61l386 674h63l120 -674h-60l-29 177h-319zM341 610l-216 -389h287l-67 389h-4z" />
<glyph unicode="&#xc2;" horiz-adv-x="569" d="M-60 0h62l99 177h319l30 -177h59l-120 674h-63zM126 221l216 389h4l67 -389h-287zM497 736h-24l-79 116l-124 -116h-29l115 147h78z" />
<glyph unicode="&#xc3;" horiz-adv-x="585" d="M1 0h-61l385 674h63l121 -674h-60l-30 177h-319zM341 610l-216 -389h287l-67 389h-4zM214 783l-16 24q12 14 40 30.5t63 16.5q31 0 67.5 -15.5t57.5 -15.5q50 0 82 28l17 -24q-47 -47 -102 -47q-33 0 -70 16t-57 16q-50 0 -82 -29z" />
<glyph unicode="&#xc4;" horiz-adv-x="569" d="M313 835l-10 -51h-50l10 51h50zM493 835l-10 -51h-51l10 51h51zM2 0h-62l386 674h63l120 -674h-59l-30 177h-319zM341 610l-215 -389h287l-67 389h-5z" />
<glyph unicode="&#xc5;" horiz-adv-x="569" d="M2 0h-62l386 674h63l120 -674h-59l-30 177h-319zM342 610l-216 -389h287l-67 389h-4zM369 692q-40 0 -66.5 25t-26.5 66q0 44 31 73.5t76 29.5q43 0 69 -26t26 -64q0 -46 -32 -75t-77 -29zM381 856q-28 0 -50.5 -20.5t-22.5 -52.5q0 -27 18 -44t45 -17q30 0 52 21t22 53 q0 25 -17.5 42.5t-46.5 17.5z" />
<glyph unicode="&#xc6;" horiz-adv-x="827" d="M716 0h-328l35 177h-298l-159 -177h-66l592 674h355l-8 -43h-274l-51 -262h258l-8 -43h-258l-55 -283h273zM503 610l-340 -390h269l76 390h-5z" />
<glyph unicode="&#xc7;" horiz-adv-x="572" d="M442 639q-137 0 -230.5 -96t-93.5 -255q0 -107 67 -180.5t173 -73.5q43 0 82.5 11.5t57.5 20.5l-10 -54q-42 -21 -125 -22l-35 -48q6 2 19 2q30 0 50 -17.5t20 -48.5q0 -54 -49.5 -88t-109.5 -37l-11 19q127 26 127 99q0 21 -16.5 35t-44.5 14q-3 0 -10.5 -0.5t-9.5 -0.5 q9 15 33 72q-122 9 -194 96t-72 205q0 169 106.5 280.5t280.5 111.5q115 0 165 -30l-10 -49q-62 34 -160 34z" />
<glyph unicode="&#xc8;" horiz-adv-x="499" d="M395 43h-273l55 284h258l8 43h-258l51 261h273l9 43h-327l-131 -674h327zM444 736h-27l-92 147h66z" />
<glyph unicode="&#xc9;" horiz-adv-x="499" d="M395 43h-273l55 284h258l8 43h-258l51 261h273l9 43h-327l-131 -674h327zM383 736h-26l108 147h66z" />
<glyph unicode="&#xca;" horiz-adv-x="499" d="M122 43h273l-8 -43h-327l131 674h327l-9 -43h-273l-51 -261h258l-8 -43h-258zM488 736h-27l-79 116l-124 -116h-26l117 147h77z" />
<glyph unicode="&#xcb;" horiz-adv-x="499" d="M395 43h-273l55 284h258l8 43h-258l51 261h273l9 43h-327l-131 -674h327zM314 835l-10 -51h-50l10 51h50zM500 784l10 51h-51l-10 -51h51z" />
<glyph unicode="&#xcc;" horiz-adv-x="305" d="M114 0l131 674h-54l-131 -674h54zM244 736h-26l-92 147h66z" />
<glyph unicode="&#xcd;" horiz-adv-x="305" d="M114 0l131 674h-54l-131 -674h54zM243 736h-27l108 147h67z" />
<glyph unicode="&#xce;" horiz-adv-x="305" d="M245 674l-131 -674h-54l131 674h54zM358 736h-26l-80 116l-124 -116h-26l117 147h78z" />
<glyph unicode="&#xcf;" horiz-adv-x="305" d="M114 0l131 674h-54l-131 -674h54zM177 835l-10 -51h-51l10 51h51zM362 784l10 51h-50l-10 -51h50z" />
<glyph unicode="&#xd0;" horiz-adv-x="710" d="M329 684q81 0 144.5 -25t101 -68t56.5 -96t19 -113q0 -186 -120.5 -289t-314.5 -103q-111 0 -171 7l63 325h-77l8 43h77l59 310q81 9 155 9zM209 35q108 0 193.5 36t139.5 116t54 195q0 111 -74 184t-210 73q-23 0 -41.5 -2t-34 -5t-17.5 -3l-50 -264h222l-8 -43h-222 l-54 -279q44 -8 102 -8z" />
<glyph unicode="&#xd1;" horiz-adv-x="767" d="M114 0h-54l131 674h67l277 -585h4l114 585h54l-131 -674h-61l-281 599h-4zM335 785l-16 24q7 8 18.5 17t36 19.5t48.5 10.5q31 0 68 -16t57 -16q51 0 82 28l17 -23q-45 -47 -102 -47q-32 0 -69 15.5t-58 15.5q-49 0 -82 -28z" />
<glyph unicode="&#xd2;" horiz-adv-x="745" d="M421 736h-23l-99 147h70zM403 640q-122 0 -203.5 -99t-81.5 -266q0 -104 61.5 -172t159.5 -68q124 0 205.5 101.5t81.5 263.5q0 100 -58.5 170t-164.5 70zM340 -10q-129 0 -204.5 83.5t-75.5 214.5q0 171 96 283.5t252 112.5q125 0 201 -83t76 -208q0 -180 -98.5 -291.5 t-246.5 -111.5z" />
<glyph unicode="&#xd3;" horiz-adv-x="745" d="M435 736h-29l103 147h75zM404 640q-122 0 -203.5 -99t-81.5 -266q0 -105 61 -172.5t159 -67.5q125 0 206.5 101t81.5 264q0 100 -58.5 170t-164.5 70zM341 -10q-130 0 -205.5 83.5t-75.5 214.5q0 171 96.5 283.5t252.5 112.5q125 0 200.5 -83t75.5 -208 q0 -180 -98 -291.5t-246 -111.5z" />
<glyph unicode="&#xd4;" horiz-adv-x="745" d="M527 736h-24l-79 116l-124 -116h-29l115 147h78zM403 640q-122 0 -203.5 -99.5t-81.5 -265.5q0 -104 61.5 -172t159.5 -68q125 0 206 101t81 264q0 100 -58.5 170t-164.5 70zM341 -10q-130 0 -205.5 83.5t-75.5 214.5q0 171 96 283.5t252 112.5q125 0 201 -83t76 -208 q0 -180 -98.5 -291.5t-245.5 -111.5z" />
<glyph unicode="&#xd5;" horiz-adv-x="744" d="M265 784l-16 24q12 14 40 30.5t63 16.5q31 0 68 -16t57 -16q53 0 82 29l17 -24q-47 -47 -102 -47q-33 0 -70 16t-57 16q-48 0 -82 -29zM403 640q-122 0 -203.5 -99t-81.5 -266q0 -105 61 -172.5t159 -67.5q125 0 206.5 101t81.5 264q0 100 -58.5 170t-164.5 70zM340 -10 q-130 0 -205 83.5t-75 214.5q0 171 96 283.5t252 112.5q125 0 200.5 -83t75.5 -208q0 -180 -98 -291.5t-246 -111.5z" />
<glyph unicode="&#xd6;" horiz-adv-x="744" d="M355 836l-10 -51h-50l9 51h51zM551 836l-10 -51h-51l10 51h51zM403 640q-122 0 -203.5 -99t-81.5 -266q0 -104 61.5 -172t158.5 -68q125 0 206.5 101t81.5 264q0 100 -58.5 170t-164.5 70zM340 -10q-129 0 -204.5 83.5t-75.5 214.5q0 171 96 283.5t252 112.5 q125 0 200.5 -83t75.5 -208q0 -180 -98 -291.5t-246 -111.5z" />
<glyph unicode="&#xd7;" horiz-adv-x="542" d="M137 497l129 -160l196 164l30 -37l-196 -165l131 -162l-40 -32l-131 162l-196 -165l-30 37l196 165l-129 161z" />
<glyph unicode="&#xd8;" horiz-adv-x="745" d="M685 392q0 -180 -98 -291t-246 -111q-66 0 -127 28l-62 -104l-46 21l65 108q-111 81 -111 244q0 171 96.5 284t252.5 113q65 0 127 -30l63 107l47 -20l-68 -113q107 -82 107 -236zM199 85l314 527q-51 27 -109 27q-122 0 -203.5 -99.5t-81.5 -265.5q0 -122 80 -189z M550 586l-314 -526q52 -26 103 -26q125 0 206.5 101t81.5 264q0 121 -77 187z" />
<glyph unicode="&#xd9;" horiz-adv-x="700" d="M420 736h-26l-92 147h66zM554 233q-47 -243 -267 -243q-104 0 -165.5 59.5t-61.5 138.5q0 43 11 98l76 388h54l-72 -370q-15 -75 -15 -102q0 -75 43.5 -121.5t133.5 -46.5q83 0 137.5 56.5t73.5 153.5l84 430h54z" />
<glyph unicode="&#xda;" horiz-adv-x="700" d="M415 736h-30l104 147h74zM554 233q-47 -243 -267 -243q-104 0 -165.5 59.5t-61.5 138.5q0 43 11 98l76 388h54l-72 -370q-15 -75 -15 -102q0 -75 43.5 -121.5t133.5 -46.5q83 0 137.5 56.5t73.5 153.5l84 430h54z" />
<glyph unicode="&#xdb;" horiz-adv-x="700" d="M535 736h-27l-80 116l-123 -116h-27l118 147h77zM554 233q-47 -243 -267 -243q-104 0 -165.5 59.5t-61.5 138.5q0 43 11 98l76 388h54l-72 -370q-15 -75 -15 -102q0 -75 43.5 -121.5t133.5 -46.5q83 0 137.5 56.5t73.5 153.5l84 430h54z" />
<glyph unicode="&#xdc;" horiz-adv-x="700" d="M353 834l-10 -50h-50l10 50h50zM539 784l10 50h-51l-10 -50h51zM554 233q-47 -243 -267 -243q-104 0 -165.5 59.5t-61.5 138.5q0 43 11 98l76 388h54l-72 -370q-15 -75 -15 -102q0 -75 43.5 -121.5t133.5 -46.5q83 0 137.5 56.5t73.5 153.5l84 430h54z" />
<glyph unicode="&#xdd;" horiz-adv-x="458" d="M125 0l48 247l-123 427h54l107 -370l256 370h61l-301 -427l-48 -247h-54zM288 736h-29l103 147h75z" />
<glyph unicode="&#xde;" horiz-adv-x="553" d="M145 162q23 -5 83 -5q101 0 165 55t64 137q0 64 -43 107t-125 43q-61 0 -79 -3zM224 114q-60 0 -87 6l-23 -120h-54l131 674h54l-26 -132h73q106 0 163.5 -54.5t57.5 -138.5q0 -105 -79 -170t-210 -65z" />
<glyph unicode="&#xdf;" horiz-adv-x="529" d="M140 540q19 99 81 147.5t140 48.5q86 0 127 -40.5t41 -85.5q0 -50 -24 -80.5t-73 -54.5q-3 -2 -33 -17q-63 -34 -63 -83q0 -39 42 -72l32 -24q41 -32 62 -63t21 -73q0 -70 -55 -111.5t-144 -41.5q-43 0 -113 14l8 32q4 11 12 11q1 0 32 -6.5t61 -6.5q65 0 104.5 30.5 t39.5 80.5q0 49 -53 90l-36 28q-15 12 -23.5 19.5t-21 21.5t-18.5 31.5t-6 38.5q0 75 90 121l34 17q36 19 52.5 41t16.5 56q0 31 -29.5 54.5t-86.5 23.5q-61 0 -105.5 -36.5t-58.5 -107.5l-105 -543h-53z" />
<glyph unicode="&#xe0;" horiz-adv-x="549" d="M410 595h-26l-91 147h66zM447 150l67 338q-29 16 -128 16q-147 0 -244 -88t-97 -227q0 -83 47.5 -141t130.5 -58q34 0 63.5 10.5t47.5 26t27 26t14 18.5h4q-11 -41 -11 -58q0 -13 16 -13h38q4 47 25 150zM100 201q0 106 80.5 182.5t193.5 76.5q50 0 80 -12 q-29 -147 -35 -177q-22 -110 -71 -173.5t-114 -63.5q-63 0 -98.5 44.5t-35.5 122.5z" />
<glyph unicode="&#xe1;" horiz-adv-x="549" d="M364 595h-27l109 147h67zM447 150l67 338q-29 16 -128 16q-147 0 -244 -88t-97 -227q0 -83 47.5 -141t130.5 -58q34 0 63.5 10.5t47.5 26t27 26t14 18.5h4q-11 -41 -11 -58q0 -13 16 -13h38q4 47 25 150zM100 201q0 106 80.5 182.5t193.5 76.5q50 0 80 -12 q-29 -147 -35 -177q-22 -110 -71 -173.5t-114 -63.5q-63 0 -98.5 44.5t-35.5 122.5z" />
<glyph unicode="&#xe2;" horiz-adv-x="549" d="M505 595h-26l-79 115l-125 -115h-26l118 147h78zM447 150l67 338q-29 16 -128 16q-147 0 -244 -88t-97 -227q0 -83 47.5 -141t130.5 -58q34 0 63.5 10.5t47.5 26t27 26t14 18.5h4q-11 -41 -11 -58q0 -13 16 -13h38q4 47 25 150zM100 201q0 106 80.5 182.5t193.5 76.5 q50 0 80 -12q-29 -147 -35 -177q-22 -110 -71 -173.5t-114 -63.5q-63 0 -98.5 44.5t-35.5 122.5z" />
<glyph unicode="&#xe3;" horiz-adv-x="549" d="M204 641l-17 24q12 14 40 30.5t63 16.5q31 0 68 -15.5t57 -15.5q51 0 82 28l17 -24q-47 -47 -102 -47q-32 0 -69 16t-58 16q-52 0 -81 -29zM447 150q-21 -103 -25 -150h-38q-16 0 -16 13l11 58h-4q-5 -8 -14 -18.5t-27 -26t-47.5 -26t-63.5 -10.5q-83 0 -130.5 58 t-47.5 141q0 139 97 227t244 88q99 0 128 -16q-60 -302 -67 -338zM100 201q0 -78 35.5 -122.5t98.5 -44.5q65 0 114 63.5t71 173.5l35 177q-30 12 -80 12q-113 0 -193.5 -76.5t-80.5 -182.5z" />
<glyph unicode="&#xe4;" horiz-adv-x="549" d="M330 693l-10 -50h-51l10 50h51zM512 693l-10 -50h-51l10 50h51zM447 150l67 338q-29 16 -128 16q-147 0 -244 -88t-97 -227q0 -83 47.5 -141t130.5 -58q34 0 63.5 10.5t47.5 26t27 26t14 18.5h4q-11 -41 -11 -58q0 -13 16 -13h38q4 47 25 150zM100 201q0 106 80.5 182.5 t193.5 76.5q50 0 80 -12q-29 -147 -35 -177q-22 -110 -71 -173.5t-114 -63.5q-63 0 -98.5 44.5t-35.5 122.5z" />
<glyph unicode="&#xe5;" horiz-adv-x="549" d="M393 548q-40 0 -66.5 25t-26.5 66q0 44 31.5 73.5t75.5 29.5q43 0 69 -26t26 -64q0 -46 -32 -75t-77 -29zM406 712q-28 0 -50.5 -21t-22.5 -52q0 -27 18 -44t45 -17q29 0 51 21t22 53q0 25 -17 42.5t-46 17.5zM447 150q-21 -103 -25 -150h-38q-16 0 -16 13l11 58h-4 q-5 -8 -14 -18.5t-27 -26t-47.5 -26t-63.5 -10.5q-83 0 -130.5 58t-47.5 141q0 139 97 227t244 88q99 0 128 -16q-60 -302 -67 -338zM100 201q0 -78 35.5 -122.5t98.5 -44.5q65 0 114 63.5t71 173.5l35 177q-30 12 -80 12q-113 0 -193.5 -76.5t-80.5 -182.5z" />
<glyph unicode="&#xe6;" horiz-adv-x="871" d="M815 243h-388q-1 -4 -1 -12q0 -82 56.5 -139t129.5 -57q48 0 85 12.5t39 12.5q10 0 10 -10q0 -6 -5 -36q-64 -24 -135 -24q-45 0 -83.5 14t-64 36.5t-41.5 42.5t-25 40h-6q-28 -49 -56 -75q-64 -58 -157 -58q-79 0 -121 43.5t-42 103.5q0 27 9 50.5t31.5 47t68.5 37 t111 13.5h148q9 39 9 66q0 47 -35.5 78t-98.5 31q-45 0 -91 -16t-48 -16q-9 0 -9 10q0 5 3 19.5t3 17.5q72 29 143 29q67 0 112 -26t63 -68q73 94 198 94q93 0 146 -53t53 -135q0 -36 -11 -73zM622 460q-46 0 -83.5 -18t-59 -46.5t-33.5 -56t-16 -54.5h342q0 1 1.5 15.5 t1.5 24.5q0 50 -40.5 92.5t-112.5 42.5zM362 202l8 41h-133q-92 0 -132 -30t-40 -71q0 -44 28.5 -75.5t83.5 -31.5q72 0 120.5 46t64.5 121z" />
<glyph unicode="&#xe7;" horiz-adv-x="448" d="M323 504q81 0 145 -32q0 -8 -8 -32q-4 -11 -11 -11q-3 0 -43 15.5t-86 15.5q-92 0 -156 -73.5t-64 -165.5q0 -72 43 -128.5t124 -56.5q35 0 70 12t39 12q10 0 10 -9q0 -2 -7 -37q-53 -20 -103 -22l-35 -50q6 2 19 2q29 0 49 -17t20 -49q0 -54 -49.5 -88t-109.5 -37 l-11 19q127 25 127 99q0 21 -16.5 35t-44.5 14q-3 0 -10.5 -0.5t-8.5 -0.5q1 2 14.5 33t17.5 41q-89 9 -141 72.5t-52 147.5q0 121 78 206t200 85z" />
<glyph unicode="&#xe8;" horiz-adv-x="548" d="M355 595h-26l-91 147h66zM305 504q-65 0 -117 -26t-82 -68t-45.5 -91t-15.5 -100q0 -93 64 -161t172 -68q75 0 138 21q5 30 5 36q0 11 -10 11q-2 0 -39 -11.5t-85 -11.5q-75 0 -132 51t-57 133q0 7 1 11h388q13 48 13 86q0 82 -53 135t-145 53zM106 272q3 27 15.5 57 t34.5 60.5t59.5 50.5t83.5 20q73 0 113.5 -42.5t40.5 -92.5q0 -23 -6 -53h-341z" />
<glyph unicode="&#xe9;" horiz-adv-x="548" d="M351 595h-26l109 147h66zM305 505q-65 0 -117 -26t-82 -68.5t-45.5 -91.5t-15.5 -100q0 -92 64 -160t172 -68q75 0 138 21q5 30 5 36q0 11 -10 11q-2 0 -39 -11.5t-85 -11.5q-75 0 -132 50.5t-57 132.5q0 7 1 11h388q13 48 13 86q0 82 -53 135.5t-145 53.5zM106 272 q3 27 15.5 57t34.5 61t59.5 51t83.5 20q73 0 113.5 -43t40.5 -93q0 -23 -6 -53h-341z" />
<glyph unicode="&#xea;" horiz-adv-x="548" d="M470 595h-27l-78 116l-125 -116h-26l118 147h78zM305 504q-65 0 -117 -26t-82 -68t-45.5 -91t-15.5 -100q0 -93 64 -161t172 -68q75 0 138 21q5 30 5 36q0 11 -10 11q-2 0 -39 -11.5t-85 -11.5q-75 0 -132 51t-57 133q0 7 1 11h388q13 48 13 86q0 82 -53 135t-145 53z M106 272q3 27 15.5 57t34.5 60.5t59.5 50.5t83.5 20q73 0 113.5 -42.5t40.5 -92.5q0 -23 -6 -53h-341z" />
<glyph unicode="&#xeb;" horiz-adv-x="548" d="M290 693l-10 -51h-50l10 51h50zM472 693l-10 -51h-51l10 51h51zM305 504q-65 0 -117 -26t-82 -68t-45.5 -91t-15.5 -100q0 -93 64 -161t172 -68q75 0 138 21q5 30 5 36q0 11 -10 11q-2 0 -39 -11.5t-85 -11.5q-75 0 -132 51t-57 133q0 7 1 11h388q13 48 13 86 q0 82 -53 135t-145 53zM106 272q3 27 15.5 57t34.5 60.5t59.5 50.5t83.5 20q73 0 113.5 -42.5t40.5 -92.5q0 -23 -6 -53h-341z" />
<glyph unicode="&#xec;" horiz-adv-x="213" d="M35 0h52l96 494h-52zM190 595h-26l-91 147h66z" />
<glyph unicode="&#xed;" horiz-adv-x="213" d="M35 0h52l96 494h-52zM187 595h-27l109 147h66z" />
<glyph unicode="&#xee;" horiz-adv-x="213" d="M35 0h53l96 494h-53zM307 595h-26l-79 116l-125 -116h-26l118 147h78z" />
<glyph unicode="&#xef;" horiz-adv-x="213" d="M35 0h53l96 494h-53zM126 693l-10 -51h-51l10 51h51zM308 693l-10 -51h-51l10 51h51z" />
<glyph unicode="&#xf0;" horiz-adv-x="571" d="M306 460q-89 0 -148.5 -70t-59.5 -186q0 -74 45 -122t116 -48q91 0 150.5 71.5t59.5 185.5q0 71 -42.5 120t-120.5 49zM522 305q0 -146 -74 -230.5t-189 -84.5q-98 0 -156 62t-58 159q0 126 73.5 209.5t192.5 83.5q78 0 138 -53l3 2q-21 93 -66 154l-107 -59l-14 36 l96 54q-16 17 -47 40q-4 3 -4 8q0 11 27 38q36 -19 71 -59l100 57l18 -36l-94 -52q90 -135 90 -329z" />
<glyph unicode="&#xf1;" horiz-adv-x="579" d="M35 0h53q37 191 52 270q17 86 66.5 138t108.5 52q60 0 90 -34t30 -83q0 -8 -8 -60l-55 -283h52q39 198 55 284q9 42 9 65q0 68 -45 111.5t-118 43.5q-97 0 -152 -80h-4q0 1 3 15t5.5 27.5t2.5 18.5q0 9 -12 9h-40q-11 -76 -26 -150zM219 640l-16 24q7 8 18.5 17t36 19.5 t48.5 10.5q31 0 68 -16t57 -16q53 0 82 29l16 -24q-43 -47 -101 -47q-33 0 -70 15.5t-57 15.5q-49 0 -82 -28z" />
<glyph unicode="&#xf2;" d="M360 595h-27l-90 147h66zM306 460q-88 0 -147.5 -70t-59.5 -187q0 -73 44.5 -121t115.5 -48q91 0 150.5 71.5t59.5 185.5q0 71 -42.5 120t-120.5 49zM260 -10q-98 0 -156.5 62t-58.5 158q0 126 73.5 210t192.5 84q95 0 153.5 -62t58.5 -154q0 -133 -75.5 -215.5 t-187.5 -82.5z" />
<glyph unicode="&#xf3;" d="M356 595h-26l109 147h66zM306 460q-88 0 -147.5 -70t-59.5 -187q0 -73 44.5 -121t115.5 -48q91 0 150.5 71.5t59.5 185.5q0 71 -42.5 120t-120.5 49zM260 -10q-98 0 -156.5 62t-58.5 158q0 126 73.5 210t192.5 84q95 0 153.5 -62t58.5 -154q0 -133 -75.5 -215.5 t-187.5 -82.5z" />
<glyph unicode="&#xf4;" d="M474 595h-26l-79 116l-125 -116h-26l118 147h78zM306 460q-88 0 -147.5 -70t-59.5 -187q0 -73 44.5 -121t115.5 -48q91 0 150.5 71.5t59.5 185.5q0 71 -42.5 120t-120.5 49zM260 -10q-98 0 -156.5 62t-58.5 158q0 126 73.5 210t192.5 84q95 0 153.5 -62t58.5 -154 q0 -133 -75.5 -215.5t-187.5 -82.5z" />
<glyph unicode="&#xf5;" d="M306 460q-88 0 -147.5 -70t-59.5 -187q0 -73 44.5 -121t115.5 -48q91 0 150.5 71.5t59.5 185.5q0 71 -42.5 120t-120.5 49zM260 -10q-98 0 -156.5 62t-58.5 158q0 126 73.5 210t192.5 84q95 0 153.5 -62t58.5 -154q0 -133 -75.5 -215.5t-187.5 -82.5zM195 640l-16 24 q12 14 40 30.5t63 16.5q31 0 68 -15.5t57 -15.5q51 0 82 28l16 -24q-45 -47 -101 -47q-33 0 -70 16t-57 16q-48 0 -82 -29z" />
<glyph unicode="&#xf6;" d="M295 693l-10 -51h-50l10 51h50zM477 693l-10 -51h-51l10 51h51zM306 460q-88 0 -147.5 -70t-59.5 -187q0 -73 44.5 -121t115.5 -48q91 0 150.5 71.5t59.5 185.5q0 71 -42.5 120t-120.5 49zM260 -10q-98 0 -156.5 62t-58.5 158q0 126 73.5 210t192.5 84q95 0 153.5 -62 t58.5 -154q0 -133 -75.5 -215.5t-187.5 -82.5z" />
<glyph unicode="&#xf7;" horiz-adv-x="639" d="M240 105l15 78h78l-15 -78h-78zM301 414l15 78h78l-15 -78h-78zM68 323h511l-8 -43h-511z" />
<glyph unicode="&#xf8;" horiz-adv-x="567" d="M522 288q0 -133 -75 -215.5t-188 -82.5q-19 0 -37 3l-23 -65h-52l27 76q-61 23 -95 78t-34 128q0 126 73.5 210t192.5 84q12 0 34 -2l19 52h52l-23 -64q60 -23 94.5 -77.5t34.5 -124.5zM191 49l141 409q-16 2 -26 2q-89 0 -148.5 -70t-59.5 -187q0 -53 25 -94.5t68 -59.5 zM376 447l-141 -412q7 -1 24 -1q91 0 150 71.5t59 185.5q0 51 -24 93.5t-68 62.5z" />
<glyph unicode="&#xf9;" horiz-adv-x="538" d="M336 595h-26l-91 147h66zM503 494h-52q-39 -190 -53 -269q-15 -82 -65.5 -136t-109.5 -54q-60 0 -90 34t-30 84q0 20 9 59l54 282h-52q-39 -197 -55 -282q-9 -42 -9 -66q0 -68 45 -112t119 -44q96 0 151 81h4q-11 -50 -11 -62q0 -9 12 -9h41q9 62 25 152z" />
<glyph unicode="&#xfa;" horiz-adv-x="538" d="M331 595h-27l109 147h67zM503 494h-52q-39 -190 -53 -269q-15 -82 -65.5 -136t-109.5 -54q-60 0 -90 34t-30 84q0 20 9 59l54 282h-52q-39 -197 -55 -282q-9 -42 -9 -66q0 -68 45 -112t119 -44q96 0 151 81h4q-11 -50 -11 -62q0 -9 12 -9h41q9 62 25 152z" />
<glyph unicode="&#xfb;" horiz-adv-x="538" d="M452 595h-26l-79 115l-125 -115h-26l118 147h78zM503 494h-52q-39 -190 -53 -269q-15 -82 -65.5 -136t-109.5 -54q-60 0 -90 34t-30 84q0 20 9 59l54 282h-52q-39 -197 -55 -282q-9 -42 -9 -66q0 -68 45 -112t119 -44q96 0 151 81h4q-11 -50 -11 -62q0 -9 12 -9h41 q9 62 25 152z" />
<glyph unicode="&#xfc;" horiz-adv-x="538" d="M271 692l-10 -50h-51l10 50h51zM453 692l-10 -50h-51l10 50h51zM503 494h-52q-39 -190 -53 -269q-15 -82 -65.5 -136t-109.5 -54q-60 0 -90 34t-30 84q0 20 9 59l54 282h-52q-39 -197 -55 -282q-9 -42 -9 -66q0 -68 45 -112t119 -44q96 0 151 81h4q-11 -50 -11 -62 q0 -9 12 -9h41q9 62 25 152z" />
<glyph unicode="&#xfd;" horiz-adv-x="422" d="M289 595h-27l110 147h66zM37 494l102 -495q-22 -41 -43 -78q-34 -63 -70.5 -92.5t-88.5 -29.5q-17 0 -29.5 1.5t-19 2.5t-8.5 1q-8 0 -13 -12l-7 -29q45 -9 70 -9q85 0 130 39.5t100 139.5l312 561h-59l-233 -423h-2l-82 423h-59z" />
<glyph unicode="&#xfe;" horiz-adv-x="528" d="M69 7l-46 -237h-53l184 947h53l-58 -298h4q53 86 146 86q90 0 137 -59t47 -136q0 -143 -87 -231t-216 -88q-47 0 -111 16zM174 35q103 0 179 80t76 201q0 59 -35 102t-97 43t-114 -63.5t-73 -176.5l-33 -169q8 -4 37.5 -10.5t59.5 -6.5z" />
<glyph unicode="&#xff;" horiz-adv-x="422" d="M228 692l-10 -51h-51l10 51h51zM410 692l-10 -51h-51l10 51h51zM37 494l102 -495q-22 -41 -43 -78q-34 -63 -70.5 -93t-88.5 -30q-17 0 -29.5 1t-19 2.5t-8.5 1.5q-8 0 -13 -12l-7 -29q45 -9 70 -9q45 0 77.5 10.5t59.5 37t46 54t47 78.5l312 561h-59l-233 -423h-2 l-82 423h-59z" />
<glyph unicode="&#x100;" horiz-adv-x="569" d="M-60 0h61l99 177h319l30 -177h60l-121 674h-63zM125 221l216 389h4l67 -389h-287zM491 821l-8 -41h-221l8 41h221z" />
<glyph unicode="&#x101;" horiz-adv-x="549" d="M501 674l-8 -41h-222l8 41h222zM447 150l67 338q-29 16 -128 16q-147 0 -244 -88t-97 -227q0 -83 47.5 -141t130.5 -58q34 0 63.5 10.5t47.5 26t27 26t14 18.5h4q-11 -41 -11 -58q0 -13 16 -13h38q4 47 25 150zM100 201q0 106 80.5 182.5t193.5 76.5q50 0 80 -12 q-29 -147 -35 -177q-22 -110 -71 -173.5t-114 -63.5q-63 0 -98.5 44.5t-35.5 122.5z" />
<glyph unicode="&#x102;" horiz-adv-x="577" d="M-60 0h62l99 177h319l30 -177h59l-120 674h-63zM125 221l216 389h5l66 -389h-287zM488 858h29q-7 -41 -40 -74t-97 -33t-91 34.5t-27 72.5h36q0 -14 5 -28.5t25 -29.5t54 -15q46 0 73.5 24.5t32.5 48.5z" />
<glyph unicode="&#x103;" horiz-adv-x="549" d="M484 713h30q-8 -41 -41 -73.5t-97 -32.5q-63 0 -90.5 34.5t-27.5 71.5h36q0 -13 5 -27.5t25.5 -29.5t54.5 -15q46 0 73 24t32 48zM447 150q-21 -103 -25 -150h-38q-16 0 -16 13l11 58h-4q-5 -8 -14 -18.5t-27 -26t-47.5 -26t-63.5 -10.5q-83 0 -130.5 58t-47.5 141 q0 139 97 227t244 88q99 0 128 -16q-60 -302 -67 -338zM100 201q0 -78 35.5 -122.5t98.5 -44.5q65 0 114 63.5t71 173.5l35 177q-30 12 -80 12q-113 0 -193.5 -76.5t-80.5 -182.5z" />
<glyph unicode="&#x104;" d="M341 610l-216 -389h287l-67 389h-4zM389 674l120 -674q-1 -1 -11.5 -12.5t-19 -21t-21 -25.5t-20.5 -30.5t-14 -32.5t-6 -34q0 -25 16 -41t43 -16q19 0 33 7l-6 -32q-18 -9 -45 -9q-36 0 -61 25t-25 63q0 81 106 159h-29l-30 177h-318l-100 -177h-61l385 674h64z" />
<glyph unicode="&#x105;" horiz-adv-x="549" d="M391 0h-7q-16 0 -16 13l11 58h-4q-5 -8 -14 -18.5t-27 -26t-47.5 -26t-63.5 -10.5q-83 0 -130.5 58t-47.5 141q0 139 97 227.5t244 88.5q64 0 128 -16q-60 -303 -67 -339q-21 -103 -25 -150q-1 -1 -11.5 -12t-19 -20.5t-20.5 -25.5t-20.5 -31t-14.5 -33t-6 -34 q0 -25 16.5 -41t43.5 -16q18 0 32 7l-6 -32q-18 -9 -45 -9q-36 0 -61 25t-25 63q0 73 101 155q3 3 5 4zM100 201q0 -78 35.5 -122.5t98.5 -44.5q65 0 114 63.5t71 173.5l35 178q-30 12 -80 12q-113 0 -193.5 -77t-80.5 -183z" />
<glyph unicode="&#x106;" horiz-adv-x="584" d="M476 736h-26l108 147h66zM447 684q-174 0 -280.5 -111.5t-106.5 -280.5q0 -125 80 -213.5t215 -88.5q89 0 133 22l10 54q-69 -32 -140 -32q-106 0 -173 73.5t-67 181.5q0 158 93.5 254t230.5 96q92 0 160 -34l10 49q-5 3 -20 9t-55.5 13.5t-89.5 7.5z" />
<glyph unicode="&#x107;" horiz-adv-x="448" d="M364 595h-26l109 147h66zM323 504q-122 0 -200 -85t-78 -206q0 -91 59.5 -157t161.5 -66q50 0 113 21q7 35 7 38q0 9 -11 9q-3 0 -38 -11.5t-70 -11.5q-81 0 -124 57t-43 130q0 92 64 165t156 73q45 0 85 -14.5t44 -14.5q7 0 11 11q8 24 8 32q-60 30 -145 30z" />
<glyph unicode="&#x108;" horiz-adv-x="572" d="M601 736h-27l-79 116l-124 -116h-26l117 147h77zM447 684q49 0 89.5 -7.5t55.5 -13.5t20 -9l-10 -49q-68 34 -160 34q-137 0 -230.5 -96t-93.5 -254q0 -108 67 -181.5t173 -73.5q71 0 140 32l-10 -54q-44 -22 -133 -22q-135 0 -215 88.5t-80 213.5q0 169 106.5 280.5 t280.5 111.5z" />
<glyph unicode="&#x109;" horiz-adv-x="448" d="M490 595h-26l-79 116l-124 -116h-27l119 147h77zM323 504q-122 0 -200 -85t-78 -206q0 -91 59.5 -156.5t161.5 -65.5q50 0 113 21q7 35 7 38q0 9 -11 9q-3 0 -38 -11.5t-70 -11.5q-81 0 -124 56.5t-43 129.5q0 92 64 165t156 73q45 0 85 -14.5t44 -14.5q7 0 11 11 q8 24 8 32q-60 30 -145 30z" />
<glyph unicode="&#x10a;" horiz-adv-x="572" d="M518 832l-10 -51h-51l10 51h51zM447 684q-174 0 -280.5 -111.5t-106.5 -280.5q0 -125 80 -213.5t215 -88.5q89 0 133 22l10 54q-69 -32 -140 -32q-106 0 -173 73.5t-67 181.5q0 158 93.5 254t230.5 96q92 0 160 -34l10 49q-5 3 -20 9t-55.5 13.5t-89.5 7.5z" />
<glyph unicode="&#x10b;" horiz-adv-x="448" d="M405 693l-10 -51h-51l10 51h51zM323 504q85 0 145 -30q0 -8 -8 -32q-4 -11 -11 -11q-4 0 -44 14.5t-85 14.5q-92 0 -156 -73t-64 -165q0 -73 43 -130t124 -57q35 0 70 11.5t38 11.5q11 0 11 -9q0 -3 -7 -38q-63 -21 -113 -21q-102 0 -161.5 66t-59.5 157q0 121 78 206 t200 85z" />
<glyph unicode="&#x10c;" horiz-adv-x="598" d="M382 883h26l80 -116l124 116h26l-117 -147h-78zM447 684q49 0 89.5 -7.5t55.5 -13.5t20 -9l-10 -49q-68 34 -160 34q-137 0 -230.5 -96t-93.5 -254q0 -108 67 -181.5t173 -73.5q71 0 140 32l-10 -54q-44 -22 -133 -22q-135 0 -215 88.5t-80 213.5q0 169 106.5 280.5 t280.5 111.5z" />
<glyph unicode="&#x10d;" horiz-adv-x="448" d="M262 742h26l79 -116l125 116h26l-118 -147h-78zM323 504q85 0 145 -30q0 -8 -8 -32q-4 -11 -11 -11q-4 0 -44 14.5t-85 14.5q-92 0 -156 -73t-64 -165q0 -73 43 -130t124 -57q35 0 70 11.5t38 11.5q11 0 11 -9q0 -3 -7 -38q-63 -21 -113 -21q-102 0 -161.5 66t-59.5 157 q0 121 78 206t200 85z" />
<glyph unicode="&#x10e;" horiz-adv-x="725" d="M313 883h26l80 -116l124 116h26l-117 -147h-78zM345 684q81 0 144 -25t100.5 -68t56.5 -96t19 -113q0 -186 -120 -289t-314 -103q-111 0 -171 7l130 679q72 8 155 8zM225 35q108 0 193.5 36t139.5 116t54 195q0 111 -74 184t-211 73q-25 0 -92 -9l-112 -587q44 -8 102 -8 z" />
<glyph unicode="&#x10f;" horiz-adv-x="547" d="M460 488l44 229h53q-103 -528 -110 -564q-20 -100 -25 -153h-41q-13 0 -13 11q0 3 1.5 12t1.5 10l8 41h-4q-5 -9 -13 -19t-26 -27t-46.5 -27.5t-62.5 -10.5q-82 0 -132 62t-50 140q0 139 93.5 225.5t221.5 86.5q52 0 100 -16zM356 460q-102 0 -179 -73.5t-77 -182.5 q0 -72 36.5 -121t101.5 -49q64 0 111 64t69 176l33 169q-34 17 -95 17zM676 627q-8 -40 -28.5 -64.5t-67.5 -54.5l-9 17q60 38 67 83h-33l13 66h67q-5 -23 -9 -47z" />
<glyph unicode="&#x110;" horiz-adv-x="710" d="M329 684q81 0 144.5 -25t101 -68t56.5 -96t19 -113q0 -186 -120.5 -289t-314.5 -103q-111 0 -171 7l63 325h-77l8 43h77l59 311q72 8 155 8zM209 35q108 0 193.5 36t139.5 116t54 195q0 111 -74 184t-210 73q-26 0 -93 -9l-50 -265h222l-8 -43h-222l-54 -279 q44 -8 102 -8z" />
<glyph unicode="&#x111;" horiz-adv-x="547" d="M582 630l-8 -42h-43l-84 -435q-20 -99 -25 -153h-41q-13 0 -13 11q0 13 3 22l8 41h-4q-4 -8 -13 -19t-26.5 -27t-46.5 -27t-63 -11q-81 0 -131 62t-50 140q0 139 93 225.5t221 86.5q57 0 100 -16l20 100h-211l8 42h211l17 87h52q-6 -35 -17 -87h43zM418 274l33 169 q-8 4 -37 10.5t-59 6.5q-102 0 -178.5 -73.5t-76.5 -182.5q0 -72 36.5 -121t100.5 -49q65 0 111.5 64t69.5 176z" />
<glyph unicode="&#x112;" horiz-adv-x="499" d="M122 43h273l-8 -43h-327l131 674h327l-9 -43h-273l-51 -261h258l-8 -43h-258zM498 821l-8 -41h-221l8 41h221z" />
<glyph unicode="&#x113;" horiz-adv-x="548" d="M466 673l-8 -41h-221l8 41h221zM305 504q-65 0 -117 -26t-82 -68t-45.5 -91t-15.5 -100q0 -93 64 -161t172 -68q75 0 138 21q5 30 5 36q0 11 -10 11q-2 0 -39 -11.5t-85 -11.5q-75 0 -132 51t-57 133q0 7 1 11h388q13 48 13 86q0 82 -53 135t-145 53zM106 272 q3 27 15.5 57t34.5 60.5t59.5 50.5t83.5 20q73 0 113.5 -42.5t40.5 -92.5q0 -23 -6 -53h-341z" />
<glyph unicode="&#x114;" horiz-adv-x="499" d="M397 43h-274l55 284h258l9 43h-259l51 262h274l9 43h-328l-132 -675h328zM488 858h29q-7 -41 -40 -73.5t-97 -32.5t-91 34t-27 72h35q0 -13 5 -27.5t25.5 -29.5t54.5 -15q46 0 73 23.5t33 48.5z" />
<glyph unicode="&#x115;" horiz-adv-x="557" d="M483 714h29q-7 -41 -40 -73.5t-97 -32.5t-91 34t-27 72h36q0 -14 4.5 -28t25 -29t54.5 -15q46 0 73.5 24t32.5 48zM305 504q92 0 145 -53t53 -135q0 -38 -13 -86h-388q-1 -4 -1 -11q0 -82 57 -133t132 -51q48 0 85 11.5t39 11.5q10 0 10 -11q0 -6 -5 -36 q-63 -21 -138 -21q-108 0 -172 68t-64 161q0 51 15.5 100t45.5 91t82 68t117 26zM106 272h341q6 30 6 53q0 50 -40.5 92.5t-113.5 42.5q-46 0 -83.5 -20t-59.5 -50.5t-34.5 -60.5t-15.5 -57z" />
<glyph unicode="&#x116;" horiz-adv-x="499" d="M122 43h273l-8 -43h-327l131 674h327l-9 -43h-273l-51 -261h258l-8 -43h-258zM407 835l-10 -51h-51l10 51h51z" />
<glyph unicode="&#x117;" horiz-adv-x="553" d="M376 693l-10 -51h-51l10 51h51zM310 504q-65 0 -117 -26t-82 -68t-45.5 -91t-15.5 -100q0 -93 64 -161t172 -68q75 0 138 21q5 30 5 36q0 11 -10 11q-2 0 -39 -11.5t-85 -11.5q-75 0 -132 51t-57 133q0 7 1 11h388q13 48 13 86q0 82 -53 135t-145 53zM111 272 q3 27 15.5 57t34.5 60.5t59.5 50.5t83.5 20q73 0 113.5 -42.5t40.5 -92.5q0 -23 -6 -53h-341z" />
<glyph unicode="&#x118;" horiz-adv-x="499" d="M397 43l-9 -43q-1 -1 -11.5 -12t-18.5 -20.5t-20.5 -26t-20.5 -31t-14 -32.5t-6 -34q0 -25 16 -41t43 -16q16 0 33 7l-7 -32q-18 -9 -45 -9q-36 0 -61 25t-25 63q0 76 106 159h-297l132 674h328l-9 -43h-274l-51 -261h259l-9 -43h-258l-55 -284h274z" />
<glyph unicode="&#x119;" horiz-adv-x="549" d="M504 316q0 -35 -14 -86v0h-388q-1 -4 -1 -12q0 -82 57 -132.5t132 -50.5q48 0 85 11.5t39 11.5q11 0 11 -11q0 -20 -6 -35q-41 -18 -114 -21q-1 -1 -9 -9.5t-11.5 -12.5t-11.5 -13.5t-13 -16t-12 -17t-11 -19t-8.5 -19t-6.5 -20.5t-2 -20q0 -25 16 -41t43 -16q19 0 33 7 l-6 -32q-18 -9 -46 -9q-36 0 -61 25t-25 63q0 72 98 150q-104 3 -165.5 70t-61.5 158q0 73 31 140t91 106q63 39 138 39q93 0 146 -53t53 -135zM447 272q4 11 5 33q1 6 1 20q0 50 -40.5 92.5t-112.5 42.5q-46 0 -84 -20t-60 -50.5t-34.5 -60.5t-15.5 -57h341z" />
<glyph unicode="&#x11a;" horiz-adv-x="499" d="M264 883h26l80 -116l124 116h26l-117 -147h-78zM122 43h274l-8 -43h-328l131 674h328l-9 -43h-274l-51 -261h259l-8 -43h-259z" />
<glyph unicode="&#x11b;" horiz-adv-x="548" d="M236 742h26l79 -116l125 116h26l-118 -147h-78zM305 504q92 0 145 -53t53 -135q0 -38 -13 -86h-388q-1 -4 -1 -11q0 -82 57 -133t132 -51q48 0 85 11.5t39 11.5q10 0 10 -11q0 -6 -5 -36q-63 -21 -138 -21q-108 0 -172 68t-64 161q0 51 15.5 100t45.5 91t82 68t117 26z M106 272h341q6 30 6 53q0 50 -40.5 92.5t-113.5 42.5q-46 0 -83.5 -20t-59.5 -50.5t-34.5 -60.5t-15.5 -57z" />
<glyph unicode="&#x11c;" horiz-adv-x="664" d="M601 736h-27l-79 116l-124 -116h-26l117 147h77zM614 653l-10 -49q-70 35 -159 35q-143 0 -235 -104.5t-92 -247.5q0 -102 63 -177.5t172 -75.5q63 0 115 21l52 271h-164l9 43h217l-67 -348q-62 -31 -155 -31q-77 0 -136.5 25.5t-94 68.5t-52 94.5t-17.5 108.5 q0 167 107.5 282t272.5 115q48 0 91.5 -8t61 -14t21.5 -9z" />
<glyph unicode="&#x11d;" horiz-adv-x="551" d="M515 595h-27l-78 116l-125 -116h-26l118 147h77zM383 72h-4q-60 -82 -160 -82q-80 0 -127 59.5t-47 139.5q0 51 20.5 104.5t59 101.5t105 78.5t148.5 30.5q66 0 138 -18q-73 -376 -102 -522q-22 -110 -75.5 -160.5t-147.5 -50.5q-77 0 -128 22q2 14 4 26q3 17 17 17 q4 0 18 -5t40 -10.5t58 -5.5q65 0 104 35t55 119zM421 267l35 180q-37 14 -87 14q-115 0 -192 -84.5t-77 -187.5q0 -66 33.5 -110.5t100.5 -44.5q63 0 113.5 57t73.5 176z" />
<glyph unicode="&#x11e;" horiz-adv-x="664" d="M614 653l-10 -49q-70 35 -159 35q-143 0 -235 -104.5t-92 -247.5q0 -102 63 -177.5t172 -75.5q63 0 115 21l52 271h-164l9 43h217l-67 -348q-62 -31 -155 -31q-77 0 -136.5 25.5t-94 68.5t-52 94.5t-17.5 108.5q0 167 107.5 282t272.5 115q48 0 91.5 -8t61 -14t21.5 -9z M581 858h29q-7 -41 -40 -74t-97 -33t-91 34.5t-27 72.5h36q0 -14 5 -28.5t25 -29.5t54 -15q46 0 73.5 24.5t32.5 48.5z" />
<glyph unicode="&#x11f;" horiz-adv-x="551" d="M487 742h29q-7 -41 -40 -74t-97 -33t-91 34.5t-27 72.5h36q0 -14 5 -28.5t25 -29.5t54 -15q46 0 73.5 24.5t32.5 48.5zM379 72h4q-15 -75 -24 -121q-16 -84 -55 -119t-104 -35q-32 0 -58 5.5t-40 10.5t-18 5q-14 0 -17 -17l-4 -26q51 -22 128 -22q94 0 147.5 50.5 t75.5 160.5l102 524q-64 16 -138 16q-82 0 -148.5 -30.5t-105 -78.5t-59 -101.5t-20.5 -104.5q0 -80 47 -139.5t127 -59.5q100 0 160 82zM421 267q-23 -119 -73.5 -176t-113.5 -57q-67 0 -100.5 44.5t-33.5 110.5q0 103 77 187.5t192 84.5q55 0 87 -12z" />
<glyph unicode="&#x120;" horiz-adv-x="664" d="M504 832l-10 -51h-51l10 51h51zM614 653l-10 -49q-70 35 -159 35q-143 0 -235 -104.5t-92 -247.5q0 -102 63 -177.5t172 -75.5q63 0 115 21l52 271h-164l9 43h217l-67 -348q-62 -31 -155 -31q-77 0 -136.5 25.5t-94 68.5t-52 94.5t-17.5 108.5q0 167 107.5 282t272.5 115 q48 0 91.5 -8t61 -14t21.5 -9z" />
<glyph unicode="&#x121;" horiz-adv-x="551" d="M421 690l-10 -51h-51l10 51h51zM383 72h-4q-60 -82 -160 -82q-80 0 -127 59.5t-47 139.5q0 51 20.5 104.5t59 101.5t105 78.5t148.5 30.5q74 0 138 -16q-73 -378 -102 -524q-22 -110 -75.5 -160.5t-147.5 -50.5q-77 0 -128 22q2 14 4 26q3 17 17 17q4 0 18 -5t40 -10.5 t58 -5.5q65 0 104 35t55 119zM421 267l35 182q-32 12 -87 12q-115 0 -192 -84.5t-77 -187.5q0 -66 33.5 -110.5t100.5 -44.5q63 0 113.5 57t73.5 176z" />
<glyph unicode="&#x122;" horiz-adv-x="664" d="M614 653l-10 -49q-70 35 -159 35q-143 0 -235 -104.5t-92 -247.5q0 -102 63 -177.5t172 -75.5q63 0 115 21l52 271h-164l9 43h217l-67 -348q-62 -31 -155 -31q-77 0 -136.5 25.5t-94 68.5t-52 94.5t-17.5 108.5q0 167 107.5 282t272.5 115q48 0 91.5 -8t61 -14t21.5 -9z M357 -116l9 47h-67l-13 -66h33q-7 -45 -67 -83l9 -17q47 30 67.5 54.5t28.5 64.5z" />
<glyph unicode="&#x123;" horiz-adv-x="551" d="M367 595h-26l109 147h66zM379 72h4q-15 -75 -24 -121q-16 -84 -55 -119t-104 -35q-32 0 -58 5.5t-40 10.5t-18 5q-14 0 -17 -17l-4 -26q51 -22 128 -22q94 0 147.5 50.5t75.5 160.5l102 522q-72 18 -138 18q-82 0 -148.5 -30.5t-105 -78.5t-59 -101.5t-20.5 -104.5 q0 -80 47 -139.5t127 -59.5q100 0 160 82zM421 267q-23 -119 -73.5 -176t-113.5 -57q-67 0 -100.5 44.5t-33.5 110.5q0 103 77 187.5t192 84.5q50 0 87 -14z" />
<glyph unicode="&#x124;" horiz-adv-x="760" d="M600 736h-27l-79 116l-124 -116h-26l117 147h77zM646 674h54l-131 -674h-54l63 327h-401l-63 -327h-54l131 674h54l-60 -304h401z" />
<glyph unicode="&#x125;" horiz-adv-x="538" d="M522 736h-27l-79 116l-124 -116h-26l117 147h77zM171 425h4q9 14 23.5 29t50 32.5t76.5 17.5q73 0 118 -43t45 -111q0 -10 -8 -66l-56 -284h-52q49 252 55 283q8 52 8 60q0 49 -30 83t-90 34q-59 0 -108.5 -52t-66.5 -138l-52 -270h-53l140 717h52z" />
<glyph unicode="&#x126;" horiz-adv-x="760" d="M713 558l-8 -43h-36l-100 -515h-54l63 326h-401l-63 -326h-54l100 515h-42l8 43h42l23 116h54l-23 -116h401l23 116h54l-23 -116h36zM586 369l29 146h-401l-29 -146h401z" />
<glyph unicode="&#x127;" horiz-adv-x="537" d="M324 504q74 0 118.5 -43.5t44.5 -111.5q0 -9 -8 -65l-56 -284h-52q49 252 55 283q8 52 8 60q0 49 -30 83t-90 34q-59 0 -108.5 -52t-66.5 -138l-52 -270h-52l114 588h-51l8 42h51l17 87h52l-17 -87h203l-8 -42h-203l-31 -163h4q9 14 23.5 29t50 32.5t76.5 17.5z" />
<glyph unicode="&#x128;" horiz-adv-x="305" d="M245 674l-131 -674h-54l131 674h54zM107 783l-16 24q12 14 40 30.5t63 16.5q31 0 67.5 -15.5t57.5 -15.5q50 0 82 28l17 -24q-47 -47 -102 -47q-33 0 -70 16t-57 16q-50 0 -82 -29z" />
<glyph unicode="&#x129;" horiz-adv-x="213" d="M88 0h-52l96 494h52zM31 640l-16 24q7 8 18.5 17t36 19.5t48.5 10.5q31 0 68 -16t57 -16q53 0 82 29l16 -24q-43 -47 -101 -47q-33 0 -70 15.5t-57 15.5q-49 0 -82 -28z" />
<glyph unicode="&#x12a;" horiz-adv-x="305" d="M245 674l-131 -674h-54l131 674h54zM356 821l-8 -41h-222l8 41h222z" />
<glyph unicode="&#x12b;" horiz-adv-x="213" d="M35 0h52l96 494h-52zM301 673l-8 -41h-221l8 41h221z" />
<glyph unicode="&#x12c;" horiz-adv-x="305" d="M114 0l131 674h-54l-131 -674h54zM349 858h29q-7 -41 -40 -73.5t-97 -32.5q-34 0 -58.5 11t-36.5 28.5t-17.5 34t-5.5 32.5h36q0 -14 4.5 -28t25 -29t54.5 -15q46 0 73 24t33 48z" />
<glyph unicode="&#x12d;" horiz-adv-x="213" d="M35 0h52l96 494h-52zM296 714h29q-7 -41 -40 -73.5t-97 -32.5q-34 0 -58.5 11t-36.5 28.5t-17.5 34t-5.5 32.5h36q0 -14 4.5 -28t25 -29t54.5 -15q46 0 73 24t33 48z" />
<glyph unicode="&#x12e;" horiz-adv-x="305" d="M76 0h-23l132 674h54l-132 -674q-1 -1 -11.5 -12t-18.5 -20.5t-20.5 -26t-20.5 -31t-14 -32.5t-6 -34q0 -25 16 -41.5t43 -16.5q13 0 33 8l-7 -33q-16 -8 -45 -8q-36 0 -61 24.5t-25 62.5q0 77 106 160z" />
<glyph unicode="&#x12f;" horiz-adv-x="213" d="M227 691l-11 -55h-55l11 55h55zM40 0h21q-106 -83 -106 -160q0 -38 25 -62.5t61 -24.5q27 0 45 9l7 32q-18 -7 -33 -7q-27 0 -43 16t-16 41q0 16 6 34t14.5 32.5t20 30.5t20 25.5t19 20.5t11.5 12l96 495h-52z" />
<glyph unicode="&#x130;" horiz-adv-x="305" d="M277 845l-10 -51h-50l10 51h50zM114 0l131 674h-54l-131 -674h54z" />
<glyph unicode="&#x131;" horiz-adv-x="213" d="M88 0h-53l96 494h53z" />
<glyph unicode="&#x132;" horiz-adv-x="588" d="M295 674l-131 -674h-54l131 674h54zM449 153l101 521h54q-86 -445 -101 -521q-31 -163 -192 -163q-43 0 -69 11l8 44q38 -11 64 -11q112 0 135 119z" />
<glyph unicode="&#x133;" horiz-adv-x="453" d="M40 0h53l96 494h-53zM228 691l-11 -55h-55l11 55h55zM244 -103q-19 -100 -108 -100q-14 0 -31 4t-19 4q-9 0 -15 -14q-5 -16 -8 -27q22 -11 69 -11q137 0 169 160l113 581h-53q-99 -508 -117 -597zM453 691l-11 -55h-55l11 55h55z" />
<glyph unicode="&#x134;" horiz-adv-x="342" d="M388 736h-27l-79 116l-124 -116h-26l117 147h77zM127 153l101 521h54q-86 -445 -101 -521q-31 -163 -192 -163q-43 0 -69 11l8 44q39 -11 64 -11q112 0 135 119z" />
<glyph unicode="&#x135;" horiz-adv-x="210" d="M301 595h-27l-78 116l-125 -116h-26l118 147h77zM12 -104q-18 -98 -108 -98q-14 0 -31 3.5t-20 3.5q-10 0 -14 -14q-5 -16 -9 -27q26 -11 77 -11q64 0 104 36.5t57 123.5l113 581h-53q-98 -509 -116 -598z" />
<glyph unicode="&#x136;" horiz-adv-x="550" d="M507 0h-68l-258 341l-67 -341h-54l131 674h54l-63 -327l359 327h69l-362 -332zM269 -116l9 47h-67l-13 -66h33q-7 -45 -67 -83l9 -17q47 30 67.5 54.5t28.5 64.5z" />
<glyph unicode="&#x137;" horiz-adv-x="430" d="M88 0h-53l140 717h52l-86 -441l247 218h72l-258 -228l199 -266h-66l-197 260zM209 -116l9 47h-67l-13 -66h33q-7 -45 -67 -83l9 -17q47 30 67.5 54.5t28.5 64.5z" />
<glyph unicode="&#x138;" horiz-adv-x="430" d="M88 0h-53l96 494h53l-43 -218l247 218h72l-258 -228l199 -266h-66l-197 260z" />
<glyph unicode="&#x139;" horiz-adv-x="406" d="M331 736h-26l108 147h66zM386 43h-264l123 631h-54l-131 -674h318z" />
<glyph unicode="&#x13a;" horiz-adv-x="217" d="M203 736h-26l108 147h66zM88 0h-53l139 717h53z" />
<glyph unicode="&#x13b;" horiz-adv-x="406" d="M122 43h264l-8 -43h-318l131 674h54zM240 -116q-8 -40 -28.5 -64.5t-67.5 -54.5l-9 17q60 38 67 83h-33l13 66h67q-5 -23 -9 -47z" />
<glyph unicode="&#x13c;" horiz-adv-x="217" d="M93 0h-53l139 717h53zM80 -116l9 47h-67l-13 -66h33q-7 -45 -67 -83l9 -17q47 30 67.5 54.5t28.5 64.5z" />
<glyph unicode="&#x13d;" horiz-adv-x="443" d="M122 43h264l-8 -43h-318l131 674h54zM474 627q-8 -40 -28.5 -64.5t-67.5 -54.5l-9 17q60 38 67 83h-33l13 66h67q-5 -23 -9 -47z" />
<glyph unicode="&#x13e;" horiz-adv-x="265" d="M88 0h-53l139 717h53zM376 627l9 47h-67l-13 -66h33q-7 -45 -67 -83l9 -17q47 30 67.5 54.5t28.5 64.5z" />
<glyph unicode="&#x13f;" horiz-adv-x="422" d="M122 43h264l-8 -43h-318l131 674h54zM402 405l-10 -51h-51l10 51h51z" />
<glyph unicode="&#x140;" horiz-adv-x="287" d="M298 319l9 51h-51l-9 -51h51zM88 0h-53l139 717h53z" />
<glyph unicode="&#x141;" horiz-adv-x="406" d="M116 43h264l-8 -43h-318l49 256l-83 -34l9 47l83 33l73 372h54l-68 -348l181 73l-9 -47l-181 -73z" />
<glyph unicode="&#x142;" horiz-adv-x="217" d="M243 386l-9 -53l-87 -48l-55 -285h-52l49 253l-69 -38l9 53l70 38l80 411h53l-74 -379z" />
<glyph unicode="&#x143;" horiz-adv-x="767" d="M470 736h-26l108 147h66zM60 0h54l117 598h4l280 -598h61l131 674h-54l-114 -586h-4l-277 586h-67z" />
<glyph unicode="&#x144;" horiz-adv-x="569" d="M370 595h-26l109 147h66zM35 0h53q37 191 52 270q17 86 66.5 138t108.5 52q60 0 90 -34t30 -83q0 -8 -8 -60l-55 -283h52q39 198 55 284q9 42 9 65q0 68 -45 111.5t-118 43.5q-97 0 -152 -80h-4q0 1 3 15t5.5 27.5t2.5 18.5q0 9 -12 9h-40q-11 -76 -26 -150z" />
<glyph unicode="&#x145;" horiz-adv-x="767" d="M114 0h-54l131 674h67l277 -586h4l114 586h54l-131 -674h-61l-280 598h-4zM322 -116q-8 -40 -28.5 -64.5t-67.5 -54.5l-9 17q60 38 67 83h-33l13 66h67q-5 -23 -9 -47z" />
<glyph unicode="&#x146;" horiz-adv-x="538" d="M88 0h-53q60 308 67 344q15 74 26 150h40q12 0 12 -9q0 -5 -2.5 -18.5t-5.5 -27.5t-3 -15h4q55 80 152 80q73 0 118 -43.5t45 -111.5q0 -23 -9 -65l-55 -284h-52q48 252 55 283q8 52 8 60q0 49 -30 83t-90 34q-59 0 -108.5 -52t-66.5 -138zM239 -116q-8 -40 -28.5 -64.5 t-67.5 -54.5l-9 17q60 38 67 83h-33l13 66h67q-5 -23 -9 -47z" />
<glyph unicode="&#x147;" horiz-adv-x="767" d="M383 883h26l80 -116l124 116h26l-117 -147h-78zM114 0h-54l131 674h67l277 -586h4l114 586h54l-131 -674h-61l-280 598h-4z" />
<glyph unicode="&#x148;" horiz-adv-x="575" d="M269 742h26l79 -116l125 116h26l-118 -147h-78zM88 0h-53q60 308 67 344q15 74 26 150h40q12 0 12 -9q0 -5 -2.5 -18.5t-5.5 -27.5t-3 -15h4q55 80 152 80q73 0 118 -43.5t45 -111.5q0 -23 -9 -65l-55 -284h-52q48 252 55 283q8 52 8 60q0 49 -30 83t-90 34 q-59 0 -108.5 -52t-66.5 -138z" />
<glyph unicode="&#x149;" horiz-adv-x="580" d="M157 627q-8 -40 -28.5 -64.5t-67.5 -54.5l-9 17q60 38 67 83h-33l13 66h67q-5 -23 -9 -47zM130 0h-53q60 308 67 344q15 74 26 150h40q12 0 12 -9q0 -2 -1 -9l-1 -7l-9 -45h4q9 14 23.5 29t50.5 33t78 18q73 0 118 -43t45 -111q0 -24 -9 -66l-55 -284h-52q48 252 54 283 q9 39 9 60q0 49 -30 83t-90 34q-59 0 -108.5 -52t-66.5 -138z" />
<glyph unicode="&#x14a;" horiz-adv-x="766" d="M652 674h54q-141 -727 -147 -759q-31 -162 -197 -162q-43 0 -64 7l9 46q23 -9 56 -9q58 0 94.5 31.5t47.5 86.5l15 76l-286 608h-4l-116 -599h-54l131 674h67l277 -586h4z" />
<glyph unicode="&#x14b;" horiz-adv-x="478" d="M351 -103q69 355 75 386q9 39 9 60q0 49 -30 83t-90 34q-59 0 -108.5 -52t-66.5 -138l-52 -270h-53q60 308 67 344q15 74 26 150h40q12 0 12 -9q0 -2 -1 -9l-1 -7l-9 -45h4q9 14 23.5 29t50.5 33t78 18q73 0 118 -43t45 -111q0 -24 -9 -66l-72 -371q-32 -160 -169 -160 q-47 0 -69 11l8 27q6 14 15 14q2 0 19 -4t31 -4q90 0 109 100z" />
<glyph unicode="&#x14c;" horiz-adv-x="745" d="M535 821l-8 -41h-221l8 41h221zM403 640q-122 0 -203.5 -99.5t-81.5 -265.5q0 -104 61.5 -172t159.5 -68q125 0 206.5 101t81.5 264q0 100 -59 170t-165 70zM341 -10q-130 0 -205.5 83.5t-75.5 214.5q0 171 96 283.5t253 112.5q125 0 200.5 -83t75.5 -208 q0 -180 -98 -291.5t-246 -111.5z" />
<glyph unicode="&#x14d;" d="M472 673l-8 -41h-221l8 41h221zM306 460q-88 0 -147.5 -70t-59.5 -187q0 -73 44.5 -121t115.5 -48q91 0 150.5 71.5t59.5 185.5q0 71 -42.5 120t-120.5 49zM260 -10q-98 0 -156.5 62t-58.5 158q0 126 73.5 210t192.5 84q95 0 153.5 -62t58.5 -154q0 -133 -75.5 -215.5 t-187.5 -82.5z" />
<glyph unicode="&#x14e;" horiz-adv-x="745" d="M522 858h29q-7 -41 -40 -73.5t-97 -32.5t-91 34t-27 72h36q0 -14 4.5 -28t25 -29t54.5 -15q46 0 73.5 24t32.5 48zM403 640q-122 0 -203.5 -99t-81.5 -266q0 -104 61.5 -172t159.5 -68q124 0 205.5 101.5t81.5 263.5q0 100 -58.5 170t-164.5 70zM340 -10 q-129 0 -204.5 83.5t-75.5 214.5q0 171 96 283.5t252 112.5q125 0 201 -83t76 -208q0 -180 -98.5 -291.5t-246.5 -111.5z" />
<glyph unicode="&#x14f;" horiz-adv-x="567" d="M306 459q-89 0 -148.5 -70t-59.5 -186q0 -74 45 -122t116 -48q91 0 150.5 71.5t59.5 185.5q0 71 -42.5 120t-120.5 49zM259 -10q-98 0 -156 62t-58 158q0 126 73.5 210t192.5 84q95 0 153 -62t58 -154q0 -133 -75 -215.5t-188 -82.5zM429 713h30q-8 -41 -41 -73.5 t-97 -32.5q-63 0 -90 34t-27 72h35q0 -13 5 -27.5t25.5 -29.5t54.5 -15q46 0 73 24t32 48z" />
<glyph unicode="&#x150;" horiz-adv-x="745" d="M350 736h-30l104 147h74zM490 736h-29l103 147h75zM403 640q-122 0 -203.5 -99.5t-81.5 -265.5q0 -104 61.5 -172t159.5 -68q124 0 205.5 101.5t81.5 263.5q0 100 -58.5 170t-164.5 70zM340 -10q-129 0 -204.5 83.5t-75.5 214.5q0 171 96 283.5t252 112.5q125 0 201 -83 t76 -208q0 -180 -98.5 -291.5t-246.5 -111.5z" />
<glyph unicode="&#x151;" horiz-adv-x="589" d="M395 595h-27l109 147h67zM273 595h-26l109 147h66zM306 460q-88 0 -147.5 -70t-59.5 -187q0 -73 44.5 -121t115.5 -48q91 0 150.5 71.5t59.5 185.5q0 71 -42.5 120t-120.5 49zM260 -10q-98 0 -156.5 62t-58.5 158q0 126 73.5 210t192.5 84q95 0 153.5 -62t58.5 -154 q0 -133 -75.5 -215.5t-187.5 -82.5z" />
<glyph unicode="&#x152;" horiz-adv-x="998" d="M402 639q-121 0 -202.5 -99.5t-81.5 -265.5q0 -104 61 -172t159 -68q125 0 206 101t81 263q0 101 -58.5 171t-164.5 70zM1009 631h-273l-51 -262h258l-8 -43h-258l-56 -283h274l-8 -43h-328l18 94q-98 -104 -237 -104q-130 0 -205 83t-75 214q0 171 96 284t252 113 q89 0 155 -45t97 -121l30 156h328z" />
<glyph unicode="&#x153;" horiz-adv-x="967" d="M909 230h-388q-1 -4 -1 -12q0 -81 57 -132t132 -51q46 0 84 13t40 13q10 0 10 -11q0 -6 -5 -36q-72 -24 -138 -24q-78 0 -134 37.5t-82 98.5q-35 -63 -94 -99.5t-130 -36.5q-99 0 -157 62t-58 159q0 126 73.5 209.5t192.5 83.5q69 0 120 -34.5t74 -90.5q71 125 219 125 q92 0 145 -53t53 -135q0 -38 -13 -86zM525 272h341q6 30 6 53q0 50 -40.5 92.5t-113.5 42.5q-46 0 -83.5 -20t-59.5 -51t-34.5 -60.5t-15.5 -56.5zM469 291q0 71 -42.5 120t-120.5 49q-89 0 -148 -70t-59 -186q0 -74 44.5 -122t115.5 -48q91 0 150.5 71.5t59.5 185.5z" />
<glyph unicode="&#x154;" horiz-adv-x="596" d="M383 736h-26l108 147h66zM177 325q15 -3 92 -3q104 0 168 48.5t64 128.5q0 58 -42.5 95t-135.5 37q-69 0 -87 -3zM437 0l-112 279h-157l-54 -279h-54l131 674h154q107 0 159 -49t52 -124q0 -45 -15 -82t-35.5 -58.5t-48 -38t-45 -22.5t-33.5 -10l117 -290h-59z" />
<glyph unicode="&#x155;" horiz-adv-x="347" d="M245 595h-26l109 147h66zM126 494q-4 -47 -22 -139l-69 -355h53q46 236 54 279q15 82 63.5 131.5t105.5 49.5q20 0 42.5 -4t23.5 -4q10 0 13 11q1 3 3.5 15.5t3.5 15.5q-30 10 -73 10q-36 0 -65 -9.5t-46.5 -24t-25.5 -24t-13 -18.5h-4q1 3 4 16.5t5 25t2 15.5q0 9 -12 9 h-43z" />
<glyph unicode="&#x156;" horiz-adv-x="596" d="M290 -116l9 47h-67l-13 -66h33q-7 -45 -67 -83l9 -17q47 30 67.5 54.5t28.5 64.5zM177 325q15 -3 92 -3q104 0 168 48.5t64 128.5q0 58 -42.5 95t-135.5 37q-69 0 -87 -3zM437 0l-112 279h-157l-54 -279h-54l131 674h154q107 0 159 -49t52 -124q0 -45 -15 -82 t-35.5 -58.5t-48 -38t-45 -22.5t-33.5 -10l117 -290h-59z" />
<glyph unicode="&#x157;" horiz-adv-x="347" d="M189 494h43q12 0 12 -9q0 -4 -2 -15.5t-5 -25t-4 -16.5h4q5 9 13 18.5t25.5 24t46.5 24t65 9.5q43 0 73 -10q-1 -3 -3.5 -15.5t-3.5 -15.5q-3 -11 -13 -11q-1 0 -23.5 4t-42.5 4q-57 0 -105.5 -49.5t-63.5 -131.5l-54 -279h-53q60 309 69 355q18 92 22 139zM140 -116 q-8 -40 -28.5 -64.5t-67.5 -54.5l-9 17q60 38 67 83h-33l13 66h67q-5 -23 -9 -47z" />
<glyph unicode="&#x158;" horiz-adv-x="596" d="M273 883h26l80 -116l124 116h26l-117 -147h-78zM177 325q15 -3 92 -3q104 0 168 48.5t64 128.5q0 58 -42.5 95t-135.5 37q-69 0 -87 -3zM437 0l-112 279h-157l-54 -279h-54l131 674h154q107 0 159 -49t52 -124q0 -45 -15 -82t-35.5 -58.5t-48 -38t-45 -22.5t-33.5 -10 l117 -290h-59z" />
<glyph unicode="&#x159;" horiz-adv-x="347" d="M207 742h26l79 -116l125 116h26l-118 -147h-78zM126 494h43q12 0 12 -9q0 -4 -2 -15.5t-5 -25t-4 -16.5h4q5 9 13 18.5t25.5 24t46.5 24t65 9.5q43 0 73 -10q-1 -3 -3.5 -15.5t-3.5 -15.5q-3 -11 -13 -11q-1 0 -23.5 4t-42.5 4q-57 0 -105.5 -49.5t-63.5 -131.5l-54 -279 h-53q60 309 69 355q18 92 22 139z" />
<glyph unicode="&#x15a;" horiz-adv-x="493" d="M345 736h-26l108 147h66zM442 616l9 48q-67 20 -145 20q-104 0 -172 -52.5t-68 -131.5q0 -59 32 -97.5t90 -69.5l37 -20q101 -55 101 -133q0 -66 -55.5 -106t-148.5 -40q-73 0 -142 30l-10 -51q55 -23 156 -23q118 0 186.5 51.5t68.5 139.5q0 107 -122 172l-34 19 q-50 26 -76.5 55.5t-26.5 74.5q0 57 49 97t133 40q87 0 138 -23z" />
<glyph unicode="&#x15b;" horiz-adv-x="363" d="M268 595h-26l109 147h66zM238 504q-84 0 -132.5 -41.5t-48.5 -101.5q0 -83 93 -123l31 -12q80 -35 80 -92q0 -42 -39 -70.5t-97 -28.5q-40 0 -75.5 5.5t-38.5 5.5q-12 0 -15 -14q-5 -21 -6 -29q39 -13 126 -13q97 0 148.5 42.5t51.5 111.5q0 40 -24 71.5t-65 49.5l-44 19 q-70 29 -70 86q0 39 34 64.5t86 25.5q37 0 70.5 -6.5t39.5 -6.5q11 0 15 17l5 25q-53 15 -125 15z" />
<glyph unicode="&#x15c;" horiz-adv-x="474" d="M474 736h-27l-79 116l-124 -116h-26l117 147h77zM451 664l-9 -48q-51 23 -138 23q-84 0 -133 -40t-49 -97q0 -45 26.5 -74.5t76.5 -55.5l34 -19q122 -65 122 -172q0 -88 -68.5 -139.5t-186.5 -51.5q-101 0 -156 23l10 51q69 -30 142 -30q93 0 148.5 40t55.5 106 q0 78 -101 133l-37 20q-58 31 -90 69.5t-32 97.5q0 79 68 131.5t172 52.5q78 0 145 -20z" />
<glyph unicode="&#x15d;" horiz-adv-x="363" d="M397 595h-26l-79 116l-125 -116h-26l118 147h78zM238 504q-84 0 -132.5 -41.5t-48.5 -101.5q0 -83 93 -123l31 -12q80 -35 80 -92q0 -42 -39 -70.5t-97 -28.5q-40 0 -75.5 5.5t-38.5 5.5q-12 0 -15 -14q-5 -21 -6 -29q39 -13 126 -13q97 0 148.5 42.5t51.5 111.5 q0 40 -24 71.5t-65 49.5l-44 19q-70 29 -70 86q0 39 34 64.5t86 25.5q37 0 70.5 -6.5t39.5 -6.5q11 0 15 17l5 25q-53 15 -125 15z" />
<glyph unicode="&#x15e;" horiz-adv-x="452" d="M304 639q-83 0 -132 -40t-49 -97q0 -45 26.5 -74.5t75.5 -55.5l35 -19q122 -65 122 -172q0 -81 -58.5 -132t-161.5 -58l-35 -49q6 2 19 2q29 0 49 -17t20 -49q0 -54 -49 -87.5t-109 -36.5l-12 19q127 25 127 98q0 21 -16.5 35t-44.5 14q-3 0 -10.5 -0.5t-8.5 -0.5l32 71 q-99 0 -154 23l10 50q66 -29 143 -29q93 0 148.5 40t55.5 106q0 78 -101 133l-37 19q-59 32 -91 70.5t-32 97.5q0 80 68.5 132t172.5 52q85 0 145 -20l-10 -48q-51 23 -138 23z" />
<glyph unicode="&#x15f;" horiz-adv-x="363" d="M238 504q72 0 125 -15q-3 -16 -5 -25q-3 -17 -14 -17q-7 0 -40.5 6.5t-70.5 6.5q-52 0 -86 -25t-34 -65q0 -56 70 -86l44 -19q89 -39 89 -121q0 -65 -46.5 -107t-133.5 -46l-35 -48q6 2 19 2q29 0 49 -17t20 -49q0 -54 -49 -88t-109 -37l-12 19q127 25 127 99 q0 22 -16 35.5t-44 13.5q-3 0 -10.5 -0.5t-9.5 -0.5q1 2 7.5 15.5t13.5 29.5t11 26q-81 1 -108 12q1 8 6 29q2 15 15 15q3 0 38.5 -6t75.5 -6q58 0 97 29t39 70q0 58 -81 92l-30 13q-93 39 -93 123q0 59 48.5 100.5t132.5 41.5z" />
<glyph unicode="&#x160;" horiz-adv-x="496" d="M469 883h27l-118 -147h-77l-61 147h26l80 -116zM442 616l9 48q-67 20 -145 20q-104 0 -172 -52.5t-68 -131.5q0 -59 32 -97.5t90 -69.5l37 -20q101 -55 101 -133q0 -66 -55.5 -106t-148.5 -40q-73 0 -142 30l-10 -51q55 -23 156 -23q118 0 186.5 51.5t68.5 139.5 q0 107 -122 172l-34 19q-50 26 -76.5 55.5t-26.5 74.5q0 57 49 97t133 40q87 0 138 -23z" />
<glyph unicode="&#x161;" horiz-adv-x="363" d="M174 742h26l79 -116l125 116h26l-118 -147h-78zM238 504q76 0 125 -14q-3 -16 -5 -25q-4 -17 -15 -17q-6 0 -39.5 6t-70.5 6q-52 0 -86 -25.5t-34 -64.5q0 -57 70 -86l44 -19q41 -18 65 -49.5t24 -71.5q0 -69 -51.5 -111.5t-148.5 -42.5q-87 0 -126 13q1 8 6 29 q3 14 15 14q3 0 38.5 -5.5t75.5 -5.5q58 0 97 28.5t39 70.5q0 57 -80 92l-31 12q-93 40 -93 123q0 60 48.5 101.5t132.5 41.5z" />
<glyph unicode="&#x162;" horiz-adv-x="404" d="M29 674h475l-9 -43h-211l-122 -631h-54l122 631h-210zM147 -116l9 47h-67l-13 -66h33q-8 -50 -66 -87l9 -13q46 29 66.5 53.5t28.5 65.5z" />
<glyph unicode="&#x163;" horiz-adv-x="293" d="M181 -10q-56 0 -90.5 29t-34.5 79q0 15 10 72l56 282h-92l8 42h92l21 109h52l-21 -109h151l-8 -42h-151q-57 -293 -59 -303q0 -2 -1.5 -11.5t-2.5 -18t-1 -15.5q0 -32 21.5 -50.5t60.5 -18.5q12 0 28.5 3.5t17.5 3.5q9 0 9 -10l-3 -33q-32 -9 -63 -9zM177 -116 q-8 -40 -28.5 -64.5t-67.5 -54.5l-9 17q60 38 67 83h-33l13 66h67q-5 -23 -9 -47z" />
<glyph unicode="&#x164;" horiz-adv-x="404" d="M182 883h26l80 -116l124 116h26l-117 -147h-78zM29 674h475l-9 -43h-211l-122 -631h-54l122 631h-210z" />
<glyph unicode="&#x165;" horiz-adv-x="354" d="M181 -9q-56 0 -90.5 29t-34.5 79q0 12 10 69l56 284h-92l8 42h92l21 109h52l-21 -109h151l-8 -42h-151q-57 -292 -59 -302q0 -2 -1.5 -11.5t-2.5 -18t-1 -15.5q0 -32 21.5 -50.5t60.5 -18.5q12 0 28.5 3.5t17.5 3.5q9 0 9 -10l-3 -33q-32 -9 -63 -9zM485 627 q-8 -40 -28.5 -64.5t-67.5 -54.5l-9 17q60 38 67 83h-33l13 66h67q-5 -23 -9 -47z" />
<glyph unicode="&#x166;" horiz-adv-x="455" d="M80 674h475l-9 -43h-211l-42 -219h211l-9 -43h-211l-71 -369h-54l71 369h-210l9 43h210l42 219h-210z" />
<glyph unicode="&#x167;" horiz-adv-x="316" d="M348 452h-150q-8 -40 -18 -91h152l-8 -42h-152l-33 -171q-5 -40 -5 -44q0 -32 21.5 -50.5t60.5 -18.5q12 0 28.5 3.5t17.5 3.5q9 0 9 -10q0 -2 -0.5 -4.5t-1.5 -11t-2 -18.5q-24 -8 -62 -8q-56 0 -90.5 29t-34.5 79q0 9 10 69l29 152h-89l8 42h89l18 91h-91l8 42h91 l22 110h52l-21 -110h150z" />
<glyph unicode="&#x168;" horiz-adv-x="710" d="M261 783l-16 24q12 14 40 30.5t63 16.5q31 0 68 -15.5t57 -15.5q51 0 82 28l17 -23q-46 -48 -102 -48q-32 0 -69.5 16t-57.5 16q-51 0 -82 -29zM554 233q-47 -243 -267 -243q-103 0 -165 59.5t-62 138.5q0 43 11 98l76 388h54l-72 -370q-15 -75 -15 -102 q0 -75 43.5 -121.5t133.5 -46.5q85 0 138.5 57t72.5 153l84 430h54z" />
<glyph unicode="&#x169;" horiz-adv-x="538" d="M197 640l-16 24q12 14 40 30.5t63 16.5q31 0 67.5 -16t57.5 -16q49 0 82 29l16 -24q-45 -47 -101 -47q-33 0 -70 16t-57 16q-48 0 -82 -29zM503 494h-52q-39 -190 -53 -269q-15 -82 -65.5 -136t-109.5 -54q-60 0 -90 34t-30 84q0 20 9 59l54 282h-52q-39 -197 -55 -282 q-9 -42 -9 -66q0 -68 45 -112t119 -44q96 0 151 81h4q-11 -50 -11 -62q0 -9 12 -9h41q9 62 25 152z" />
<glyph unicode="&#x16a;" horiz-adv-x="710" d="M531 821l-8 -41h-221l8 41h221zM554 233q-47 -243 -267 -243q-104 0 -165.5 59.5t-61.5 138.5q0 43 11 98l76 388h54l-72 -370q-15 -75 -15 -102q0 -75 43.5 -121.5t133.5 -46.5q83 0 137.5 56.5t73.5 153.5l84 430h54z" />
<glyph unicode="&#x16b;" horiz-adv-x="538" d="M445 673l-8 -41h-221l8 41h221zM451 494h52q-60 -306 -67 -342q-16 -90 -25 -152h-41q-12 0 -12 9q0 12 11 62h-4q-55 -81 -151 -81q-74 0 -119 44t-45 112q0 24 9 66l55 282h52q-48 -250 -54 -282q-9 -39 -9 -59q0 -50 30 -84t90 -34q59 0 109.5 54t65.5 136z" />
<glyph unicode="&#x16c;" horiz-adv-x="710" d="M497 857h30q-8 -42 -40.5 -74.5t-97.5 -32.5q-64 0 -91 34.5t-27 72.5h36q0 -10 3 -20t11 -23t26.5 -21t44.5 -8q46 0 73 24t32 48zM287 -10q220 0 267 243l86 441h-54l-84 -430q-42 -210 -211 -210q-89 0 -133 47t-44 121q0 27 15 102l72 370h-54l-76 -388 q-11 -55 -11 -98q0 -79 61.5 -138.5t165.5 -59.5z" />
<glyph unicode="&#x16d;" horiz-adv-x="538" d="M437 713h30q-8 -41 -40.5 -73.5t-96.5 -32.5t-91 34t-27 72h35q0 -13 5 -27.5t25.5 -29.5t54.5 -15q46 0 73 24t32 48zM503 494h-52q-39 -190 -53 -269q-15 -82 -65.5 -136t-109.5 -54q-60 0 -90 34t-30 84q0 20 9 59l54 282h-52q-39 -197 -55 -282q-9 -42 -9 -66 q0 -68 45 -112t119 -44q96 0 151 81h4q-11 -50 -11 -62q0 -9 12 -9h41q9 62 25 152z" />
<glyph unicode="&#x16e;" horiz-adv-x="710" d="M400 692q-40 0 -66.5 25t-26.5 66q0 44 31 73.5t76 29.5q43 0 69 -26t26 -64q0 -46 -31.5 -75t-77.5 -29zM413 856q-29 0 -51 -20.5t-22 -52.5q0 -27 18 -44t45 -17q29 0 51.5 21t22.5 53q0 25 -17.5 42.5t-46.5 17.5zM554 234q-47 -244 -267 -244q-105 0 -166 60 t-61 139q0 43 11 98l76 387h54l-72 -369q-15 -75 -15 -102q0 -75 43.5 -122t133.5 -47q169 0 211 211l84 429h54z" />
<glyph unicode="&#x16f;" horiz-adv-x="538" d="M327 548q-40 0 -66.5 25t-26.5 66q0 44 31.5 73.5t76.5 29.5q43 0 68.5 -26t25.5 -64q0 -46 -31.5 -75t-77.5 -29zM340 712q-28 0 -50.5 -21t-22.5 -52q0 -27 18 -44t45 -17q29 0 51.5 21t22.5 53q0 25 -17.5 42.5t-46.5 17.5zM451 494h52q-60 -306 -67 -342 q-16 -90 -25 -152h-41q-12 0 -12 9q0 12 11 62h-4q-55 -81 -151 -81q-74 0 -119 44t-45 112q0 24 9 66l55 282h52q-48 -250 -54 -282q-9 -39 -9 -59q0 -50 30 -84t90 -34q59 0 109.5 54t65.5 136z" />
<glyph unicode="&#x170;" horiz-adv-x="710" d="M347 736h-30l104 147h75zM487 736h-29l104 147h74zM554 233q-47 -243 -267 -243q-104 0 -165.5 59.5t-61.5 138.5q0 43 11 98l76 388h54l-72 -370q-15 -75 -15 -102q0 -75 43.5 -121.5t133.5 -46.5q83 0 137.5 56.5t73.5 153.5l84 430h54z" />
<glyph unicode="&#x171;" horiz-adv-x="538" d="M367 595h-27l110 147h66zM240 595h-26l109 147h66zM503 494h-52q-39 -190 -53 -269q-15 -82 -65.5 -136t-109.5 -54q-60 0 -90 34t-30 84q0 20 9 59l54 282h-52q-39 -197 -55 -282q-9 -42 -9 -66q0 -68 45 -112t119 -44q96 0 151 81h4q-11 -50 -11 -62q0 -9 12 -9h41 q9 62 25 152z" />
<glyph unicode="&#x172;" horiz-adv-x="710" d="M586 674h54l-86 -439q-45 -232 -245 -244q-86 -90 -86 -147q0 -25 16 -41.5t43 -16.5q17 0 33 8l-6 -32q-18 -9 -45 -9q-36 0 -61 24.5t-25 62.5q0 71 97 150q-99 4 -157 63t-58 136q0 38 12 98l75 387h54l-72 -369q-15 -72 -15 -101q0 -75 44 -122.5t133 -47.5 q87 0 139.5 58t71.5 153z" />
<glyph unicode="&#x173;" horiz-adv-x="538" d="M380 0h-10q-12 0 -12 9q0 7 11 62h-4q-56 -81 -151 -81q-74 0 -119 44t-45 112q0 24 9 66l55 282h53q-49 -251 -55 -282q-9 -39 -9 -60q0 -49 30 -83.5t90 -34.5q59 0 108.5 53t66.5 138l53 269h52q-59 -307 -67 -342q-14 -61 -25 -151q-1 -1 -12 -12.5t-19 -21 t-20.5 -26t-20.5 -31t-14 -32.5t-6 -34q0 -25 16 -41t43 -16q13 0 33 8l-6 -33q-24 -8 -46 -8q-36 0 -60.5 24.5t-24.5 62.5q0 76 106 159z" />
<glyph unicode="&#x174;" horiz-adv-x="844" d="M605 736h-27l-79 116l-124 -116h-26l117 147h77zM103 0l-33 674h55l26 -612h5l280 612h75l45 -612h5l264 612h59l-296 -674h-80l-45 612h-4l-278 -612h-78z" />
<glyph unicode="&#x175;" horiz-adv-x="669" d="M522 595h-27l-78 116l-125 -116h-26l118 147h77zM81 0l-31 494h50l27 -425h4l213 425h63l32 -425h4l214 425h52l-250 -494h-66l-29 421h-6l-211 -421h-66z" />
<glyph unicode="&#x176;" horiz-adv-x="458" d="M430 736h-27l-79 116l-124 -116h-26l117 147h77zM126 0l48 247l-124 427h60l106 -371l257 371h55l-300 -427l-48 -247h-54z" />
<glyph unicode="&#x177;" horiz-adv-x="422" d="M403 595h-27l-78 116l-125 -116h-26l118 147h77zM139 -1l-102 495h59l82 -423h2l233 423h59q-245 -441 -312 -561q-28 -51 -47 -78.5t-46 -54t-59.5 -37t-77.5 -10.5q-25 0 -70 9q4 18 7 29q5 12 13 12q2 0 8.5 -1.5t19 -2.5t29.5 -1q52 0 88.5 30t70.5 93z" />
<glyph unicode="&#x178;" horiz-adv-x="458" d="M125 0l48 247l-123 427h54l107 -370l256 370h61l-301 -427l-48 -247h-54zM233 836l-10 -51h-51l10 51h51zM428 836l-10 -51h-50l9 51h51z" />
<glyph unicode="&#x179;" horiz-adv-x="477" d="M344 736h-26l108 147h66zM-40 49l-10 -49h450l8 43h-384l494 584l9 47h-432l-8 -43h366z" />
<glyph unicode="&#x17a;" horiz-adv-x="379" d="M257 595h-26l109 147h66zM66 494l-9 -42h280l-358 -404l-9 -48h347l8 42h-288l363 408l9 44h-343z" />
<glyph unicode="&#x17b;" horiz-adv-x="477" d="M-40 49l-10 -49h450l8 43h-384l494 584l9 47h-432l-8 -43h366zM383 836l-10 -51h-51l10 51h51z" />
<glyph unicode="&#x17c;" horiz-adv-x="379" d="M57 452l9 42h343l-9 -44l-363 -408h288l-8 -42h-347l9 48l358 404h-280zM303 693l-10 -51h-51l10 51h51z" />
<glyph unicode="&#x17d;" horiz-adv-x="477" d="M447 883h27l-118 -147h-77l-61 147h26l80 -116zM-40 49l-10 -49h450l8 43h-384l494 584l9 47h-432l-8 -43h366z" />
<glyph unicode="&#x17e;" horiz-adv-x="386" d="M98 453l8 41h343l-9 -43l-363 -409h288l-8 -42h-348l9 48l360 405h-280zM208 742h26l79 -116l125 116h26l-118 -147h-78z" />
<glyph unicode="&#x192;" horiz-adv-x="495" d="M458 640q-53 0 -95 -38t-62 -108l-29 -102h164l-11 -42h-165q-20 -72 -65 -232.5t-46 -163.5q-56 -201 -229 -201q-32 0 -60 7l13 44q31 -7 54 -7q125 0 167 147l114 406h-102l11 42h102q24 83 26 92q58 200 224 200q40 0 66 -7l-13 -44q-35 7 -64 7z" />
<glyph unicode="&#x1fc;" horiz-adv-x="827" d="M716 0h-327l34 177h-298l-158 -177h-67l592 674h355l-8 -43h-274l-50 -261h258l-9 -43h-258l-55 -284h274zM504 610l-341 -389h269l76 389h-4zM558 736h-30l104 147h74z" />
<glyph unicode="&#x1fd;" horiz-adv-x="871" d="M815 243h-388q-1 -4 -1 -12q0 -82 56.5 -139t129.5 -57q48 0 85 12.5t39 12.5q10 0 10 -10q0 -6 -5 -36q-64 -24 -135 -24q-45 0 -83.5 14t-64 36.5t-41.5 42.5t-25 40h-6q-28 -49 -56 -75q-64 -58 -157 -58q-79 0 -121 43.5t-42 103.5q0 27 9 50.5t31.5 47t68.5 37 t111 13.5h148q9 39 9 66q0 47 -35.5 78t-98.5 31q-45 0 -91 -16t-48 -16q-9 0 -9 10q0 5 3 19.5t3 17.5q72 29 143 29q67 0 112 -26t63 -68q73 94 198 94q93 0 146 -53t53 -135q0 -36 -11 -73zM622 460q-46 0 -83.5 -18t-59 -46.5t-33.5 -56t-16 -54.5h342q0 1 1.5 15.5 t1.5 24.5q0 50 -40.5 92.5t-112.5 42.5zM362 202l8 41h-133q-92 0 -132 -30t-40 -71q0 -44 28.5 -75.5t83.5 -31.5q72 0 120.5 46t64.5 121zM493 595h-30l104 147h74z" />
<glyph unicode="&#x1fe;" horiz-adv-x="744" d="M410 736h-30l104 147h74zM578 629q51 -39 78.5 -100.5t27.5 -135.5q0 -180 -98 -291.5t-245 -111.5q-72 0 -127 26l-62 -101l-46 21l65 105q-53 39 -82 103.5t-29 143.5q0 171 96 283.5t252 112.5q69 0 127 -28l64 105l46 -20zM119 275q0 -124 79 -192l314 530 q-49 26 -109 26q-121 0 -202.5 -99t-81.5 -265zM626 399q0 122 -77 189l-313 -530q48 -24 103 -24q124 0 205.5 101.5t81.5 263.5z" />
<glyph unicode="&#x1ff;" horiz-adv-x="567" d="M333 595h-27l110 147h66zM522 288q0 -133 -75 -215.5t-188 -82.5q-19 0 -37 3l-23 -65h-52l27 76q-61 23 -95 78t-34 128q0 126 73.5 210t192.5 84q12 0 34 -2l19 52h52l-23 -64q60 -23 94.5 -77.5t34.5 -124.5zM191 47l141 411q-16 2 -26 2q-89 0 -148.5 -70t-59.5 -187 q0 -53 25 -95.5t68 -60.5zM376 447l-141 -412q7 -1 24 -1q91 0 150 71.5t59 185.5q0 51 -24 93.5t-68 62.5z" />
<glyph unicode="&#x218;" horiz-adv-x="451" d="M155 -116q-8 -41 -28.5 -65.5t-66.5 -53.5l-9 13q58 37 66 87h-33l13 66h67q-4 -23 -9 -47zM451 663l-9 -48q-53 24 -138 24q-84 0 -133 -39t-49 -96q0 -45 26.5 -74.5t76.5 -55.5l34 -19q122 -65 122 -172q0 -88 -68.5 -140.5t-186.5 -52.5q-101 0 -156 23l10 51 q69 -30 142 -30q93 0 148.5 41t55.5 107q0 78 -101 133l-37 20q-58 31 -90 69.5t-32 97.5q0 79 68 130.5t172 51.5q75 0 145 -21z" />
<glyph unicode="&#x219;" horiz-adv-x="363" d="M135 -116q-8 -41 -28.5 -65.5t-66.5 -53.5l-9 13q58 37 66 87h-33l13 66h67q-4 -23 -9 -47zM238 504q72 0 125 -15q-3 -16 -5 -25q-4 -17 -15 -17q-6 0 -39.5 6.5t-70.5 6.5q-52 0 -86 -25.5t-34 -64.5q0 -57 70 -86l44 -19q41 -18 65 -49.5t24 -71.5q0 -69 -51.5 -111.5 t-148.5 -42.5q-87 0 -126 13q1 8 6 29q3 14 15 14q3 0 38.5 -5.5t75.5 -5.5q58 0 97 28.5t39 70.5q0 57 -80 92l-31 12q-93 40 -93 123q0 60 48.5 101.5t132.5 41.5z" />
<glyph unicode="&#x21a;" horiz-adv-x="404" d="M29 674h475l-9 -43h-211l-122 -631h-54l122 631h-210zM147 -116l9 47h-67l-13 -66h33q-7 -45 -67 -83l9 -17q47 30 67.5 54.5t28.5 64.5z" />
<glyph unicode="&#x21b;" horiz-adv-x="293" d="M181 -9q-56 0 -90.5 29t-34.5 79q0 12 10 69l56 284h-92l8 42h92l21 109h52l-21 -109h151l-8 -42h-151q-57 -292 -59 -302q0 -2 -1.5 -11.5t-2.5 -18t-1 -15.5q0 -32 21.5 -50.5t60.5 -18.5q12 0 28.5 3.5t17.5 3.5q9 0 9 -10l-3 -33q-32 -9 -63 -9zM189 -116 q-8 -40 -28.5 -64.5t-67.5 -54.5l-9 17q60 38 67 83h-33l13 66h67q-5 -23 -9 -47z" />
<glyph unicode="&#x237;" horiz-adv-x="210" d="M22 -103l116 597h53q-89 -457 -113 -580q-17 -87 -57.5 -124t-103.5 -37q-51 0 -77 11l9 27q4 14 14 14q3 0 20 -3.5t31 -3.5q89 0 108 99z" />
<glyph unicode="&#x2c6;" horiz-adv-x="296" d="M276 595h-27l-78 116l-125 -116h-26l118 147h77z" />
<glyph unicode="&#x2c7;" horiz-adv-x="296" d="M20 742h26l79 -116l125 116h26l-118 -147h-78z" />
<glyph unicode="&#x2d8;" horiz-adv-x="295" d="M246 742h29q-7 -41 -39.5 -73.5t-97.5 -32.5q-64 0 -91 34t-27 72h36q0 -10 3 -20t11.5 -23t26.5 -21t44 -8q46 0 73 24t32 48z" />
<glyph unicode="&#x2d9;" horiz-adv-x="101" d="M81 701l-10 -51h-51l10 51h51z" />
<glyph unicode="&#x2da;" horiz-adv-x="242" d="M113 548q-40 0 -66.5 25t-26.5 66q0 44 31.5 73.5t75.5 29.5q43 0 69 -26t26 -64q0 -46 -32 -75t-77 -29zM126 712q-28 0 -50.5 -20.5t-22.5 -52.5q0 -27 18 -44t45 -17q29 0 51 21t22 53q0 25 -17 42.5t-46 17.5z" />
<glyph unicode="&#x2db;" horiz-adv-x="177" d="M125 0h32q-92 -87 -92 -156q0 -25 16 -41t43 -16q16 0 33 7l-7 -32q-13 -8 -45 -8q-36 0 -60.5 24.5t-24.5 62.5q0 50 34.5 92t70.5 67z" />
<glyph unicode="&#x2dc;" horiz-adv-x="367" d="M37 644l-17 24q7 8 19 17t36 19.5t48 10.5q31 0 68 -16t57 -16q53 0 82 29l17 -24q-47 -47 -102 -47q-32 0 -69 16t-58 16q-49 0 -81 -29z" />
<glyph unicode="&#x2dd;" horiz-adv-x="340" d="M47 595h-27l109 147h67zM171 595h-26l109 147h66z" />
<glyph unicode="&#x401;" horiz-adv-x="499" d="M396 43h-274l55 285h258l9 43h-258l50 260h274l9 43h-328l-131 -674h328zM315 835l-10 -51h-51l10 51h51zM500 784l10 51h-50l-10 -51h50z" />
<glyph unicode="&#x402;" horiz-adv-x="616" d="M277 -87q22 10 46 24t57 41.5t58 59.5t43 80.5t18 101.5q0 71 -44 120.5t-123 49.5q-55 0 -95 -20l-72 -369h-54l123 630h-214l8 43h480l-9 -43h-211l-42 -213q46 23 101 23q96 0 152.5 -67t56.5 -157q0 -215 -260 -348z" />
<glyph unicode="&#x403;" horiz-adv-x="469" d="M500 631h-264l-122 -631h-54l131 674h318zM379 736h-26l108 147h66z" />
<glyph unicode="&#x404;" horiz-adv-x="571" d="M442 639q-117 0 -204.5 -73t-111.5 -197h353l-8 -43h-351q-2 -24 -2 -38q0 -108 67 -181t173 -73q43 0 82.5 11.5t57.5 20.5l-11 -54q-5 -3 -18 -7.5t-45.5 -9.5t-68.5 -5q-135 0 -215 88t-80 214q0 169 106.5 280.5t280.5 111.5q48 0 88.5 -7.5t55.5 -13.5t20 -9l-9 -49 q-8 5 -25.5 11.5t-55.5 14.5t-79 8z" />
<glyph unicode="&#x405;" horiz-adv-x="451" d="M451 665l-9 -48q-51 23 -138 23q-84 0 -133 -39.5t-49 -96.5q0 -45 26.5 -74.5t76.5 -55.5l34 -19q122 -65 122 -172q0 -88 -68.5 -140.5t-186.5 -52.5q-101 0 -156 23l10 51q69 -30 142 -30q93 0 148.5 41t55.5 107q0 78 -101 133l-37 20q-58 31 -90 69.5t-32 97.5 q0 79 68 131t172 52q78 0 145 -20z" />
<glyph unicode="&#x406;" horiz-adv-x="305" d="M245 674l-131 -674h-54l131 674h54z" />
<glyph unicode="&#x407;" horiz-adv-x="305" d="M114 0l131 674h-54l-131 -674h54zM177 835l-10 -51h-51l10 51h51zM362 784l10 51h-50l-10 -51h50z" />
<glyph unicode="&#x408;" horiz-adv-x="342" d="M127 153l101 521h54q-86 -445 -101 -521q-31 -163 -192 -163q-43 0 -69 11l8 44q39 -11 64 -11q112 0 135 119z" />
<glyph unicode="&#x409;" horiz-adv-x="948" d="M660 434q101 0 164.5 -58t63.5 -141q0 -111 -83.5 -178t-215.5 -67q-45 0 -91 7t-62 13l121 621h-284q-43 -224 -62 -322q-11 -54 -28.5 -99t-40.5 -77t-44.5 -55t-50.5 -41t-46 -27t-43 -20l-18 46q179 75 214 258l74 380h391l-49 -252q54 12 90 12zM593 34q99 0 169 54 t70 142q0 68 -45.5 114t-135.5 46q-45 0 -90 -15l-63 -328q36 -13 95 -13z" />
<glyph unicode="&#x40a;" horiz-adv-x="909" d="M620 434q101 0 165 -58t64 -141q0 -111 -84 -178t-216 -67q-45 0 -90.5 7t-61.5 13l63 330h-280l-66 -340h-54l131 674h54l-57 -291h281l56 291h54l-49 -252q60 12 90 12zM554 34q98 0 168 54t70 142q0 68 -45 114t-136 46q-40 0 -90 -15l-63 -328q39 -13 96 -13z" />
<glyph unicode="&#x40b;" horiz-adv-x="613" d="M228 366l-71 -366h-54l123 631h-206l9 43h456l-8 -43h-198l-41 -214q38 23 119 23q91 0 143.5 -50t52.5 -134q0 -29 -7 -69l-36 -187h-54q30 156 36 188q7 35 7 60q0 67 -40.5 107.5t-115.5 40.5q-63 0 -115 -30z" />
<glyph unicode="&#x40c;" horiz-adv-x="550" d="M395 736h-26l108 147h66zM507 0h-68l-258 341l-67 -341h-54l131 674h54l-63 -327l359 327h69l-362 -332z" />
<glyph unicode="&#x40e;" horiz-adv-x="583" d="M543 857h29q-7 -41 -40 -73.5t-97 -32.5q-34 0 -58.5 11t-36.5 28.5t-17.5 34t-5.5 32.5h36q0 -14 4.5 -28t25 -29t54.5 -15q46 0 73.5 24t32.5 48zM283 170q-44 -71 -77.5 -103.5t-80.5 -32.5q-19 0 -35.5 4t-17.5 4q-7 0 -12 -13l-10 -30q21 -9 64 -9q25 0 47 5 t38.5 12t34.5 22t28.5 26t26.5 33.5t24 35.5t25 41t25 41l290 468h-62l-261 -425h-4l-118 425h-60l141 -494z" />
<glyph unicode="&#x40f;" horiz-adv-x="724" d="M664 674l-131 -674h-210l-32 -164h-54l32 164h-209l131 674h54l-123 -632h365l123 632h54z" />
<glyph unicode="&#x410;" d="M1 0h-61l385 674h63l120 -674h-59l-30 177h-318zM341 611l-216 -390h287l-67 390h-4z" />
<glyph unicode="&#x411;" horiz-adv-x="572" d="M283 434q101 0 165 -58t64 -141q0 -111 -83.5 -178t-216.5 -67q-45 0 -90.5 7t-61.5 13l129 664h309l-9 -43h-255l-40 -209q54 12 89 12zM217 34q99 0 168.5 54t69.5 142q0 68 -45 114t-135 46q-41 0 -91 -15l-63 -328q39 -13 96 -13z" />
<glyph unicode="&#x412;" horiz-adv-x="584" d="M221 41q95 0 159 43.5t64 115.5q0 54 -43 90t-125 36h-99l-54 -280q27 -5 98 -5zM376 349v-4q41 -7 82.5 -42.5t41.5 -101.5q0 -94 -75 -147.5t-186 -53.5h-179l131 674h159q97 0 145.5 -46t48.5 -109q0 -46 -20.5 -81t-50.5 -52.5t-54.5 -26.5t-42.5 -10zM264 369 q100 0 163 38.5t63 105.5q0 51 -39.5 85.5t-122.5 34.5q-23 0 -55.5 -1t-35.5 -1l-51 -262h78z" />
<glyph unicode="&#x413;" horiz-adv-x="469" d="M500 631h-264l-122 -631h-54l131 674h318z" />
<glyph unicode="&#x414;" horiz-adv-x="616" d="M453 42h69l-40 -206h-54l32 164h-474l-32 -164h-54l40 206h58q100 100 135 279l68 353h375zM399 42l115 589h-267q-31 -159 -59 -302q-36 -182 -125 -287h336z" />
<glyph unicode="&#x415;" horiz-adv-x="499" d="M122 43h274l-8 -43h-328l131 674h328l-9 -43h-274l-51 -261h258l-8 -43h-258z" />
<glyph unicode="&#x416;" horiz-adv-x="802" d="M500 342l260 -342h-69l-258 341l-66 -341h-54l66 341l-380 -341h-79l396 347l-251 327h65l250 -327l64 327h54l-64 -327l359 327h69z" />
<glyph unicode="&#x417;" horiz-adv-x="459" d="M83 597l-20 39q72 48 172 48q89 0 136.5 -49t47.5 -114q0 -39 -16 -71.5t-41 -53.5t-47 -33t-43 -19l-1 -3q36 -16 65 -53.5t29 -94.5q0 -88 -72.5 -145.5t-183.5 -57.5q-92 0 -149 21l5 48q54 -25 144 -25t147.5 47t57.5 115q0 52 -36.5 90.5t-110.5 38.5h-67l9 43h70 q76 0 132 43.5t56 107.5q0 46 -35 83t-105 37q-17 0 -34.5 -3t-31 -6.5t-28 -9t-23 -9.5t-17.5 -9t-10 -5z" />
<glyph unicode="&#x418;" horiz-adv-x="766" d="M575 0h-54l117 598h-4l-513 -598h-61l131 674h54l-114 -585h4l503 585h68z" />
<glyph unicode="&#x419;" horiz-adv-x="766" d="M522 0h53l131 674h-68l-503 -585h-4l114 585h-54l-131 -674h61l513 599h4zM583 857h29q-7 -41 -40 -73.5t-97 -32.5q-34 0 -58.5 11t-36.5 28.5t-17.5 34t-5.5 32.5h36q0 -14 4.5 -28t25 -29t54.5 -15q46 0 73.5 24t32.5 48z" />
<glyph unicode="&#x41a;" horiz-adv-x="550" d="M507 0h-68l-258 341l-67 -341h-54l131 674h54l-63 -327l359 327h69l-362 -332z" />
<glyph unicode="&#x41b;" horiz-adv-x="659" d="M468 0h-54l122 631h-283q-44 -224 -63 -322q-12 -64 -36.5 -116.5t-48.5 -83.5t-59.5 -57.5t-55.5 -37t-52 -24.5l-18 47q177 73 214 256l73 381h392z" />
<glyph unicode="&#x41c;" horiz-adv-x="868" d="M43 0h-53l215 674h76l90 -627h4l330 627h83l-34 -674h-56l36 626h-4l-329 -626h-75l-88 626h-4z" />
<glyph unicode="&#x41d;" horiz-adv-x="760" d="M646 674h54l-131 -674h-54l63 327h-401l-63 -327h-54l131 674h54l-60 -304h401z" />
<glyph unicode="&#x41e;" horiz-adv-x="744" d="M403 639q-121 0 -203 -99.5t-82 -265.5q0 -104 61.5 -172t159.5 -68q124 0 205.5 101.5t81.5 263.5q0 100 -58.5 170t-164.5 70zM340 -10q-129 0 -204.5 83t-75.5 214q0 171 96 284t252 113q125 0 200.5 -83.5t75.5 -208.5q0 -180 -98 -291t-246 -111z" />
<glyph unicode="&#x41f;" horiz-adv-x="746" d="M191 674h495l-131 -674h-54l122 631h-387l-122 -631h-54z" />
<glyph unicode="&#x420;" horiz-adv-x="558" d="M171 294q36 -4 83 -4q101 0 164.5 54.5t63.5 137.5q0 63 -42.5 106t-124.5 43q-61 0 -79 -3zM250 247q-60 0 -87 6l-49 -253h-54l131 674h127q106 0 163 -54t57 -138q0 -105 -78.5 -170t-209.5 -65z" />
<glyph unicode="&#x421;" horiz-adv-x="571" d="M60 292q0 169 106.5 280.5t280.5 111.5q48 0 88.5 -7.5t55.5 -13.5t20 -9l-9 -49q-68 34 -160 34q-136 0 -230 -96.5t-94 -254.5q0 -108 67 -181t173 -73q76 0 140 32l-11 -54q-5 -3 -18 -7.5t-45.5 -9.5t-68.5 -5q-135 0 -215 88t-80 214z" />
<glyph unicode="&#x422;" horiz-adv-x="405" d="M29 674h476l-9 -43h-211l-122 -631h-54l122 631h-211z" />
<glyph unicode="&#x423;" horiz-adv-x="583" d="M283 170l6 10l-141 494h60l118 -425h4l261 425h62q-212 -342 -290 -468q-8 -13 -25 -41t-25 -41t-24 -35.5t-26.5 -33.5t-28.5 -26t-34.5 -22t-38.5 -12t-47 -5q-43 0 -64 9q7 22 10 30q5 13 12 13q1 0 17.5 -4t35.5 -4q47 0 80.5 32.5t77.5 103.5z" />
<glyph unicode="&#x424;" horiz-adv-x="777" d="M367 89q118 0 206.5 75t88.5 207q0 83 -59.5 146.5t-139.5 68.5zM411 586q-51 0 -102 -17.5t-95 -50t-71 -86.5t-27 -121q0 -86 55 -150t143 -72zM343 -36h-54l16 80q-114 10 -179.5 86t-65.5 188q0 137 106 224.5t253 87.5l15 81h54l-15 -81q110 -9 177 -85t67 -177 q0 -148 -104 -236t-254 -88z" />
<glyph unicode="&#x425;" horiz-adv-x="475" d="M207 346l-148 328h63l122 -281l236 281h65l-275 -325l160 -349h-60l-137 305l-255 -305h-68z" />
<glyph unicode="&#x426;" horiz-adv-x="703" d="M540 42h70l-40 -206h-54l32 164h-488l131 674h54l-123 -632h364l123 632h54z" />
<glyph unicode="&#x427;" horiz-adv-x="591" d="M400 0h-54l50 259q-1 0 -7 -2.5t-12.5 -5t-17.5 -5.5t-22.5 -5t-27.5 -3.5t-33 -1.5q-91 0 -143.5 50t-52.5 133q0 25 8 69l35 186h54l-36 -186q-6 -38 -6 -60q0 -67 40 -107.5t116 -40.5q57 0 115 29l71 365h54z" />
<glyph unicode="&#x428;" horiz-adv-x="912" d="M799 674h53l-131 -674h-661l131 674h54l-123 -632h249l123 632h54l-123 -632h251z" />
<glyph unicode="&#x429;" horiz-adv-x="893" d="M730 42h69l-40 -206h-54l32 164h-677l131 674h54l-123 -632h249l123 632h54l-123 -632h251l123 632h54z" />
<glyph unicode="&#x42a;" horiz-adv-x="586" d="M40 631l9 43h207l-49 -252q60 12 90 12q101 0 165 -58t64 -141q0 -111 -84 -178t-216 -67q-45 0 -91 7t-61 13l120 621h-154zM231 34q98 0 168 54t70 142q0 68 -45 114t-136 46q-40 0 -90 -15l-63 -328q39 -13 96 -13z" />
<glyph unicode="&#x42b;" horiz-adv-x="821" d="M761 674l-131 -674h-54l131 674h54zM189 674h54l-49 -252q54 12 89 12q102 0 165.5 -58t63.5 -141q0 -111 -83.5 -178t-215.5 -67q-45 0 -91 7t-62 13zM217 34q99 0 168.5 54t69.5 142q0 68 -45 114t-135 46q-41 0 -91 -15l-63 -328q39 -13 96 -13z" />
<glyph unicode="&#x42c;" horiz-adv-x="572" d="M189 674h54l-49 -252q54 12 89 12q102 0 165.5 -58t63.5 -141q0 -111 -83.5 -178t-215.5 -67q-45 0 -91 7t-62 13zM217 34q99 0 168.5 54t69.5 142q0 68 -45 114t-135 46q-41 0 -91 -15l-63 -328q39 -13 96 -13z" />
<glyph unicode="&#x42d;" horiz-adv-x="581" d="M-30 19l10 50q61 -34 160 -34q132 0 219 86t99 203h-357l9 43h353q0 49 -14 95.5t-42 87t-75.5 65t-108.5 24.5q-76 0 -140 -32l11 54q52 23 125 23q74 0 133.5 -26.5t95.5 -70t54.5 -95.5t18.5 -108q0 -81 -24.5 -151t-71.5 -125t-123 -86.5t-172 -31.5q-110 0 -160 29z " />
<glyph unicode="&#x42e;" horiz-adv-x="970" d="M634 684q125 0 200.5 -83.5t75.5 -208.5q0 -180 -98 -291t-246 -111q-129 0 -204.5 83t-75.5 214q0 13 2 39h-111l-63 -326h-54l131 674h54l-59 -305h107q22 140 113.5 227.5t227.5 87.5zM565 34q124 0 205.5 101.5t81.5 263.5q0 100 -58.5 170t-164.5 70 q-121 0 -202.5 -99.5t-81.5 -265.5q0 -104 61 -172t159 -68z" />
<glyph unicode="&#x42f;" horiz-adv-x="567" d="M313 323q42 0 72 3l59 302q-1 0 -15.5 1t-33.5 1.5t-32 0.5q-102 0 -161.5 -42.5t-59.5 -122.5q0 -60 42.5 -101.5t128.5 -41.5zM246 282l-215 -282h-71l234 296q-37 15 -72.5 57.5t-35.5 107.5q0 102 71.5 157.5t189.5 55.5h160l-131 -674h-54l54 280h-76q-44 0 -54 2z " />
<glyph unicode="&#x430;" horiz-adv-x="549" d="M447 150q-21 -103 -25 -150h-38q-16 0 -16 13l11 58h-4q-5 -8 -14 -18.5t-27 -26t-47.5 -26t-63.5 -10.5q-83 0 -130.5 58t-47.5 141q0 139 97 227t244 88q99 0 128 -16q-60 -302 -67 -338zM100 201q0 -78 35.5 -122.5t98.5 -44.5q65 0 114 63.5t71 173.5l35 177 q-30 12 -80 12q-113 0 -193.5 -76.5t-80.5 -182.5z" />
<glyph unicode="&#x431;" d="M307 460q-89 0 -148.5 -70t-59.5 -187q0 -73 44.5 -121t116.5 -48q91 0 150 71t59 185q0 71 -42.5 120.5t-119.5 49.5zM45 226q0 47 5.5 93.5t17 100t34.5 98.5t55 83t81 59.5t109 21.5h58q50 0 56 28l1 7h46q-1 -10 -3 -16q-12 -61 -108 -61h-43q-97 0 -150.5 -60 t-71.5 -153h4q67 77 175 77q95 0 153.5 -62t58.5 -154q0 -133 -75.5 -215.5t-187.5 -82.5q-104 0 -159.5 65t-55.5 171z" />
<glyph unicode="&#x432;" horiz-adv-x="474" d="M131 228l-35 -186q36 -8 86 -8q70 0 115.5 34t45.5 78q0 35 -25.5 58.5t-85.5 23.5h-101zM174 448l-35 -179h89q74 0 112 31.5t38 73.5q0 34 -28 57t-87 23q-62 0 -89 -6zM329 248l-1 -3q27 -9 49.5 -33.5t22.5 -64.5q0 -69 -56 -113t-175 -44q-94 0 -134 8l96 496h147 q75 0 115.5 -34t40.5 -84q0 -31 -12 -55.5t-31 -39t-33.5 -22t-28.5 -11.5z" />
<glyph unicode="&#x433;" horiz-adv-x="407" d="M87 0h-52l96 494h316l-8 -41h-264z" />
<glyph unicode="&#x434;" horiz-adv-x="514" d="M454 42l-38 -197h-53l30 155h-391l-30 -155h-52l38 197h50q37 38 72.5 100t47.5 140l42 212h304q-44 -227 -88 -452h68zM65 42h269l80 411h-200q-27 -138 -34 -173q-28 -149 -115 -238z" />
<glyph unicode="&#x435;" horiz-adv-x="548" d="M305 504q92 0 145 -53t53 -135q0 -38 -13 -86h-388q-1 -4 -1 -11q0 -82 57 -133t132 -51q48 0 85 11.5t39 11.5q10 0 10 -11q0 -6 -5 -36q-63 -21 -138 -21q-108 0 -172 68t-64 161q0 51 15.5 100t45.5 91t82 68t117 26zM106 272h341q6 30 6 53q0 50 -40.5 92.5 t-113.5 42.5q-46 0 -83.5 -20t-59.5 -50.5t-34.5 -60.5t-15.5 -57z" />
<glyph unicode="&#x436;" horiz-adv-x="648" d="M420 265l199 -265h-66l-196 260l-51 -260h-52l50 260l-286 -260h-78l300 270l-174 224h72l169 -219l43 219h52l-42 -219l246 219h72z" />
<glyph unicode="&#x437;" horiz-adv-x="453" d="M239 504q87 0 130.5 -39.5t43.5 -91.5q0 -36 -21.5 -65t-42.5 -40t-41 -17v-2q28 -7 51 -33.5t23 -70.5q0 -72 -64.5 -113.5t-163.5 -41.5q-92 0 -174 33q4 12 11 26q7 15 17 15q5 0 11 -3q67 -27 140 -27q70 0 119.5 32.5t49.5 82.5q0 34 -25.5 56.5t-83.5 22.5h-110 l8 41h100q54 0 97.5 28.5t43.5 73.5q0 35 -27.5 62t-89.5 27q-34 0 -67 -8.5t-53.5 -17t-24.5 -8.5q-7 0 -10 10q-1 4 -2 10t-2.5 13t-1.5 8q9 5 27.5 12t57 16t74.5 9z" />
<glyph unicode="&#x438;" d="M443 400l-359 -400h-49l96 494h53l-77 -395h4l354 395h53l-96 -494h-53l78 400h-4z" />
<glyph unicode="&#x439;" horiz-adv-x="567" d="M442 400l-359 -400h-48l96 494h52l-76 -395h4l353 395h53l-96 -494h-53l78 400h-4zM467 713h30q-8 -41 -41 -73.5t-97 -32.5q-63 0 -90 34t-27 72h35q0 -13 5 -27.5t25.5 -29.5t54.5 -15q46 0 73 24t32 48z" />
<glyph unicode="&#x43a;" horiz-adv-x="420" d="M88 0h-53l96 494h53l-43 -218l247 218h72l-258 -228l199 -266h-66l-197 260z" />
<glyph unicode="&#x43b;" horiz-adv-x="536" d="M152 494h349l-96 -494h-53l88 453h-244q-21 -107 -47 -242q-19 -99 -63.5 -153.5t-126.5 -72.5q-5 20 -7 29q-2 10 -1 14q2 6 11 9q62 19 91 58.5t44 115.5z" />
<glyph unicode="&#x43c;" horiz-adv-x="643" d="M37 0h-57l192 494h79l34 -366h4l190 366h84l-29 -494h-56l26 421h-5l-223 -421h-32l-41 421h-4z" />
<glyph unicode="&#x43d;" horiz-adv-x="556" d="M454 494h52l-96 -494h-52l45 235h-270l-45 -235h-53l96 494h53l-43 -217h270z" />
<glyph unicode="&#x43e;" d="M306 460q-88 0 -147.5 -70t-59.5 -187q0 -73 44.5 -121t115.5 -48q91 0 150.5 71.5t59.5 185.5q0 71 -42.5 120t-120.5 49zM260 -10q-98 0 -156.5 62t-58.5 158q0 126 73.5 210t192.5 84q95 0 153.5 -62t58.5 -154q0 -133 -75.5 -215.5t-187.5 -82.5z" />
<glyph unicode="&#x43f;" horiz-adv-x="572" d="M131 494h391l-96 -494h-52l88 453h-287l-88 -453h-52z" />
<glyph unicode="&#x440;" horiz-adv-x="528" d="M69 7l-46 -238h-53q104 537 111 573q16 80 25 152h44q10 0 10 -9q0 -17 -4 -25l-7 -41h4q52 85 146 85q90 0 137 -58.5t47 -135.5q0 -143 -86.5 -231.5t-216.5 -88.5q-28 0 -64.5 6.5t-46.5 10.5zM174 34q104 0 179.5 80t75.5 202q0 58 -35 100.5t-97 42.5t-114.5 -63 t-72.5 -175l-33 -170q59 -17 97 -17z" />
<glyph unicode="&#x441;" horiz-adv-x="448" d="M323 504q85 0 145 -30q0 -8 -8 -32q-4 -11 -11 -11q-4 0 -44 14.5t-85 14.5q-92 0 -156 -73t-64 -165q0 -73 43 -130t124 -57q35 0 70 11.5t38 11.5q11 0 11 -9q0 -3 -7 -38q-63 -21 -113 -21q-102 0 -161.5 66t-59.5 157q0 121 78 206t200 85z" />
<glyph unicode="&#x442;" horiz-adv-x="386" d="M163 0h-52l87 452h-158l9 42h367l-9 -42h-157z" />
<glyph unicode="&#x443;" horiz-adv-x="422" d="M139 -1l-102 495h59l82 -423h2l233 423h59q-245 -441 -312 -561q-28 -51 -47 -78.5t-46 -54t-59.5 -37t-77.5 -10.5q-25 0 -70 9q4 18 7 29q5 12 13 12q2 0 8.5 -1.5t19 -2.5t29.5 -1q52 0 88.5 30t70.5 93z" />
<glyph unicode="&#x444;" horiz-adv-x="676" d="M405 460l-82 -426q104 2 177.5 69.5t73.5 174.5q0 79 -44 127t-125 55zM271 34l82 426q-107 -3 -179 -70.5t-72 -171.5q0 -75 42 -126.5t127 -57.5zM271 -233h-53l44 223q-97 6 -157 69t-60 163q0 121 86.5 201t229.5 81l34 170h52l-33 -170q102 -7 159.5 -71.5 t57.5 -155.5q0 -92 -47.5 -159.5t-117.5 -97.5t-151 -30z" />
<glyph unicode="&#x445;" horiz-adv-x="415" d="M183 263l-120 231h60l97 -187l170 187h65l-209 -229l136 -265h-60l-113 221l-204 -221h-65z" />
<glyph unicode="&#x446;" horiz-adv-x="539" d="M447 494h52l-88 -452h68l-38 -196h-53l30 154h-383l96 494h52l-88 -452h264z" />
<glyph unicode="&#x447;" horiz-adv-x="484" d="M381 494h53l-96 -494h-53l30 153q-42 -21 -87 -21q-82 0 -125 42t-43 113q0 22 7 59l29 148h52q-24 -123 -30 -154q-6 -27 -6 -52q0 -51 30.5 -81.5t88.5 -30.5q51 0 94 27z" />
<glyph unicode="&#x448;" horiz-adv-x="755" d="M652 494h53l-96 -494h-574l96 494h53l-88 -452h209l88 452h53l-88 -452h206z" />
<glyph unicode="&#x449;" horiz-adv-x="744" d="M616 42h68l-38 -196h-53l30 154h-588l96 494h53l-88 -452h207l88 452h52l-88 -452h209l88 452h52z" />
<glyph unicode="&#x44a;" horiz-adv-x="509" d="M30 452l8 42h188l-35 -180q33 11 80 11q89 0 138.5 -44t49.5 -107q0 -86 -65.5 -135t-176.5 -49q-89 0 -139 11l87 451h-135zM225 34q81 0 130 39.5t49 96.5q0 46 -32.5 78.5t-108.5 32.5q-37 0 -81 -11l-44 -230q45 -6 87 -6z" />
<glyph unicode="&#x44b;" horiz-adv-x="672" d="M474 0l96 494h52l-96 -494h-52zM130 494h52l-35 -180q33 11 81 11q89 0 138 -44t49 -107q0 -86 -65 -135t-176 -49q-89 0 -139 11zM182 34q81 0 130 39.5t49 96.5q0 46 -33 78.5t-109 32.5q-41 0 -80 -11l-44 -230q45 -6 87 -6z" />
<glyph unicode="&#x44c;" horiz-adv-x="465" d="M130 494h52l-35 -180q33 11 81 11q89 0 138 -44t49 -107q0 -86 -65 -135t-176 -49q-89 0 -139 11zM182 34q81 0 130 39.5t49 96.5q0 46 -33 78.5t-109 32.5q-41 0 -80 -11l-44 -230q45 -6 87 -6z" />
<glyph unicode="&#x44d;" horiz-adv-x="448" d="M182 504q101 0 161 -65.5t60 -155.5q0 -122 -78.5 -207.5t-200.5 -85.5q-19 0 -36.5 1.5t-31.5 4.5t-25.5 6t-21 6t-15.5 5.5t-10 4.5l-5 3q0 2 3 13t5 18q4 11 11 11q2 0 43 -14t87 -14q80 0 140.5 58.5t75.5 139.5h-240l8 42h236q0 72 -43 128.5t-125 56.5 q-30 0 -68 -14t-41 -14q-10 0 -10 9q0 17 7 38q50 25 114 25z" />
<glyph unicode="&#x44e;" horiz-adv-x="798" d="M542 504q95 0 153 -62t58 -155q0 -133 -75.5 -215t-187.5 -82q-98 0 -156 61.5t-58 158.5q0 10 1 14h-146l-44 -224h-52l96 494h52l-44 -228h141q17 105 87.5 171.5t174.5 66.5zM490 34q91 0 150.5 71t59.5 185q0 71 -42.5 120.5t-120.5 49.5q-89 0 -148.5 -70.5 t-59.5 -186.5q0 -73 45 -121t116 -48z" />
<glyph unicode="&#x44f;" horiz-adv-x="456" d="M318 232l42 218q-45 9 -95 9q-71 0 -114 -34t-43 -90q0 -43 28 -73t93 -30h89zM27 0h-67l189 200q-37 10 -66 42.5t-29 88.5q0 81 63 127t171 46q73 0 133 -12l-96 -492h-52l37 190h-69l-36 1z" />
<glyph unicode="&#x451;" horiz-adv-x="548" d="M290 693l-10 -51h-50l10 51h50zM472 693l-10 -51h-51l10 51h51zM305 504q-65 0 -117 -26t-82 -68t-45.5 -91t-15.5 -100q0 -93 64 -161t172 -68q75 0 138 21q5 30 5 36q0 11 -10 11q-2 0 -39 -11.5t-85 -11.5q-75 0 -132 51t-57 133q0 7 1 11h388q13 48 13 86 q0 82 -53 135t-145 53zM106 272q3 27 15.5 57t34.5 60.5t59.5 50.5t83.5 20q73 0 113.5 -42.5t40.5 -92.5q0 -23 -6 -53h-341z" />
<glyph unicode="&#x452;" horiz-adv-x="507" d="M255 440q100 0 153.5 -63t53.5 -151q0 -72 -24 -134t-64.5 -106t-82.5 -73.5t-88 -49.5q-17 28 -17 38q0 9 13 15q82 41 145.5 125.5t63.5 189.5q0 71 -45 117.5t-115 46.5q-36 0 -88 -21l-72 -374h-53l104 537h-56l8 41h57l25 139h53l-26 -139h201l-9 -41h-200l-22 -114 q51 17 85 17z" />
<glyph unicode="&#x453;" horiz-adv-x="407" d="M35 0h52l88 453h243l8 41h-295zM270 595h-26l109 147h66z" />
<glyph unicode="&#x454;" horiz-adv-x="448" d="M265 -10q-101 0 -160.5 66t-59.5 157q0 121 78 206t200 85q91 0 145 -30q0 -1 -3.5 -15t-5.5 -19q-4 -11 -11 -11q-4 0 -19 7.5t-44 15.5t-66 8q-80 0 -140.5 -58t-75.5 -139h241l-8 -42h-237q0 -72 43.5 -129.5t124.5 -57.5q34 0 71 14t39 14q8 0 8 -8q0 -9 -6 -39 q-50 -25 -114 -25z" />
<glyph unicode="&#x455;" horiz-adv-x="363" d="M238 504q72 0 125 -15q-3 -16 -5 -25q-4 -17 -15 -17q-6 0 -39.5 6.5t-70.5 6.5q-52 0 -86 -25.5t-34 -64.5q0 -57 70 -86l44 -19q41 -18 65 -49.5t24 -71.5q0 -69 -51.5 -111.5t-148.5 -42.5q-87 0 -126 13q1 8 6 29q3 14 15 14q3 0 38.5 -5.5t75.5 -5.5q58 0 97 28.5 t39 70.5q0 57 -80 92l-31 12q-93 40 -93 123q0 60 48.5 101.5t132.5 41.5z" />
<glyph unicode="&#x456;" horiz-adv-x="213" d="M35 0h53l96 494h-53zM223 691l-11 -56h-55l11 56h55z" />
<glyph unicode="&#x457;" horiz-adv-x="228" d="M40 0h52l96 494h-52zM131 693l-10 -51h-51l10 51h51zM313 693l-10 -51h-51l10 51h51z" />
<glyph unicode="&#x458;" horiz-adv-x="220" d="M220 691l-11 -55h-55l11 55h55zM12 -103q-19 -99 -108 -99q-14 0 -31 3.5t-20 3.5q-10 0 -14 -14q-5 -16 -9 -27q26 -11 77 -11q63 0 103.5 37t57.5 124l113 580h-53q-98 -508 -116 -597z" />
<glyph unicode="&#x459;" horiz-adv-x="783" d="M545 325q89 0 138.5 -44t49.5 -107q0 -87 -65 -135.5t-177 -48.5q-85 0 -139 12l87 451h-243q-21 -108 -47 -243q-20 -100 -64.5 -154t-126.5 -72q-5 20 -6 29q-2 10 -2 14q1 6 11 9q58 18 88.5 54t46.5 120l55 284h296h53l-36 -180q33 11 81 11zM499 34q81 0 130 39.5 t49 96.5q0 46 -32.5 78.5t-108.5 32.5q-37 0 -81 -11l-44 -229q53 -7 87 -7z" />
<glyph unicode="&#x45a;" horiz-adv-x="752" d="M515 325q89 0 138 -43.5t49 -106.5q0 -87 -65 -136t-176 -49q-91 0 -140 11l47 246h-233l-48 -247h-52l96 494h52l-40 -206h234l40 206h52l-35 -180q33 11 81 11zM469 34q80 0 129.5 40t49.5 97q0 45 -33 77.5t-109 32.5q-37 0 -81 -11l-44 -229q37 -7 88 -7z" />
<glyph unicode="&#x45b;" horiz-adv-x="537" d="M324 504q74 0 118.5 -43.5t44.5 -111.5q0 -9 -8 -65l-56 -284h-52q49 252 55 283q8 52 8 60q0 49 -30 83t-90 34q-59 0 -108.5 -52t-66.5 -138l-52 -270h-52l114 588h-51l8 42h51l17 87h52l-17 -87h203l-8 -42h-203l-31 -163h4q9 14 23.5 29t50 32.5t76.5 17.5z" />
<glyph unicode="&#x45c;" horiz-adv-x="430" d="M298 595h-26l109 147h66zM35 0h53l50 260l197 -260h66l-199 265l258 229h-72l-247 -219l43 219h-53z" />
<glyph unicode="&#x45e;" horiz-adv-x="422" d="M407 713h29q-7 -41 -40 -73.5t-97 -32.5q-34 0 -58.5 11t-36.5 28.5t-17.5 34t-5.5 32.5h36q0 -14 4.5 -28t25 -29t54.5 -15q46 0 73 24t33 48zM139 -1l-102 495h59l82 -423h2l233 423h59q-245 -441 -312 -561q-28 -51 -47 -78.5t-46 -54t-59.5 -37t-77.5 -10.5 q-25 0 -70 9q4 18 7 29q5 12 13 12q2 0 8.5 -1.5t19 -2.5t29.5 -1q52 0 88.5 30.5t70.5 94.5z" />
<glyph unicode="&#x45f;" horiz-adv-x="549" d="M447 494h52l-96 -494h-158l-30 -154h-53l30 154h-157l96 494h52l-88 -452h264z" />
<glyph unicode="&#x490;" horiz-adv-x="469" d="M532 796l-32 -165h-264l-122 -631h-54l131 674h264l23 122h54z" />
<glyph unicode="&#x491;" horiz-adv-x="407" d="M88 0h-53l96 494h247l19 99h52l-27 -140h-246z" />
<glyph unicode="&#x4d9;" horiz-adv-x="548" d="M244 -10q-93 0 -146 54t-53 136q0 34 14 85h388v12q0 82 -56.5 132.5t-131.5 50.5q-48 0 -85 -11.5t-39 -11.5q-11 0 -11 10q0 21 6 36q52 21 138 21q107 0 171 -67.5t64 -159.5q0 -52 -15.5 -101t-45.5 -91.5t-81.5 -68.5t-116.5 -26zM443 223h-341q-6 -24 -6 -52 q0 -50 40.5 -93t112.5 -43q46 0 84 20t60 51t34.5 60.5t15.5 56.5z" />
<glyph unicode="&#x1e02;" horiz-adv-x="584" d="M428 842l-10 -51h-51l10 51h51zM221 41q95 0 159 43.5t64 115.5q0 54 -43 90t-125 36h-99l-54 -280q27 -5 98 -5zM376 349v-4q41 -7 82.5 -42.5t41.5 -101.5q0 -94 -75 -147.5t-186 -53.5h-179l131 674h159q97 0 145.5 -46t48.5 -109q0 -46 -20.5 -81t-50.5 -52.5 t-54.5 -26.5t-42.5 -10zM264 369q100 0 163 38.5t63 105.5q0 51 -39.5 85.5t-122.5 34.5q-23 0 -55.5 -1t-35.5 -1l-51 -262h78z" />
<glyph unicode="&#x1e03;" horiz-adv-x="550" d="M311 460q-59 0 -108.5 -57.5t-72.5 -174.5l-35 -182q28 -12 86 -12q114 0 192 84.5t78 181.5q0 65 -36.5 112.5t-103.5 47.5zM167 423h4q5 8 13.5 18t27 26t47.5 26.5t62 10.5q81 0 132.5 -60.5t51.5 -139.5q0 -51 -20.5 -104.5t-59 -101t-104.5 -78t-148 -30.5 q-78 0 -138 16l137 711h53zM372 642l9 51h-50l-10 -51h51z" />
<glyph unicode="&#x1e0a;" horiz-adv-x="725" d="M450 842l-10 -51h-51l10 51h51zM345 684q81 0 144 -25t100.5 -68t56.5 -96t19 -113q0 -186 -120 -289t-314 -103q-111 0 -171 7l130 679q72 8 155 8zM225 35q108 0 193.5 36t139.5 116t54 195q0 111 -74 184t-211 73q-25 0 -92 -9l-112 -587q44 -8 102 -8z" />
<glyph unicode="&#x1e0b;" horiz-adv-x="546" d="M459 488l45 229h52q-102 -528 -109 -564q-20 -99 -25 -153h-41q-13 0 -13 11q0 13 3 22l8 41h-4q-4 -8 -13 -19t-26.5 -27t-46.5 -27t-63 -11q-81 0 -131 62t-50 140q0 139 93 225.5t221 86.5q57 0 100 -16zM355 460q-102 0 -178.5 -73.5t-76.5 -182.5q0 -72 36.5 -121 t100.5 -49q65 0 111.5 64t69.5 176l33 169q-8 4 -37 10.5t-59 6.5zM368 693l-10 -51h-51l10 51h51z" />
<glyph unicode="&#x1e1e;" horiz-adv-x="499" d="M430 843l-10 -51h-50l10 51h50zM510 631h-274l-51 -261h259l-8 -43h-259l-63 -327h-54l131 674h328z" />
<glyph unicode="&#x1e1f;" horiz-adv-x="300" d="M443 727q-27 9 -78 9q-84 0 -134.5 -42.5t-67.5 -141.5l-12 -58h-86l-8 -42h86l-88 -452h53q56 287 88 452h146l8 42h-146q11 58 13 69q12 67 46 98t93 31q19 0 42 -4.5t25 -4.5q11 0 15 16q4 21 5 28zM400 835l-10 -51h-50l10 51h50z" />
<glyph unicode="&#x1e40;" horiz-adv-x="868" d="M565 844l-10 -51h-50l10 51h50zM-10 0h53l191 626h4l88 -626h75l329 626h4l-36 -626h56l34 674h-83l-330 -627h-4l-90 627h-76z" />
<glyph unicode="&#x1e41;" horiz-adv-x="839" d="M549 692l-10 -51h-50l10 51h50zM126 494q-4 -48 -24 -149l-67 -345h53q44 230 51 266q18 89 61.5 141.5t107.5 52.5q50 0 79.5 -31.5t29.5 -79.5q0 -26 -8 -66l-55 -283h52q42 215 54 277q16 83 61.5 133t101.5 50t84 -33t28 -78q0 -31 -9 -76l-54 -273h53q43 221 53 270 q11 57 11 91q0 59 -44 101t-112 42q-105 0 -172 -103q-4 14 -12 27.5t-24.5 32.5t-45.5 31t-67 12q-86 0 -138 -75h-4q10 50 10 55q0 10 -12 10h-42z" />
<glyph unicode="&#x1e56;" horiz-adv-x="558" d="M414 844l-10 -51h-50l10 51h50zM171 294q36 -4 83 -4q101 0 164.5 54.5t63.5 137.5q0 63 -42.5 106t-124.5 43q-61 0 -79 -3zM250 247q-60 0 -87 6l-49 -253h-54l131 674h127q106 0 163 -54t57 -138q0 -105 -78.5 -170t-209.5 -65z" />
<glyph unicode="&#x1e57;" horiz-adv-x="528" d="M372 693l-10 -51h-51l10 51h51zM69 7q10 -4 46.5 -10.5t64.5 -6.5q130 0 216.5 88.5t86.5 231.5q0 77 -47 135.5t-137 58.5q-94 0 -146 -85h-4q5 29 7 41q4 8 4 25q0 9 -10 9h-44q-9 -72 -25 -152l-111 -573h53zM174 34q-38 0 -97 17q28 140 33 170q20 112 72.5 175 t114.5 63t97 -42.5t35 -100.5q0 -122 -75.5 -202t-179.5 -80z" />
<glyph unicode="&#x1e60;" horiz-adv-x="451" d="M391 832l-10 -51h-51l10 51h51zM442 617l9 48q-67 20 -145 20q-103 0 -171.5 -52.5t-68.5 -132.5q0 -59 32 -97.5t90 -69.5l37 -20q101 -55 101 -133q0 -66 -55.5 -106t-148.5 -40q-73 0 -142 30l-10 -51q55 -23 156 -23q118 0 186.5 51.5t68.5 139.5q0 107 -122 172 l-34 19q-50 26 -76.5 55.5t-26.5 74.5q0 57 49 97.5t133 40.5q87 0 138 -23z" />
<glyph unicode="&#x1e61;" horiz-adv-x="363" d="M299 693l-10 -51h-51l10 51h51zM238 502q-84 0 -132.5 -40.5t-48.5 -100.5q0 -83 93 -123l31 -12q80 -35 80 -92q0 -41 -39 -68.5t-97 -27.5q-40 0 -75.5 5.5t-38.5 5.5q-12 0 -15 -14q-5 -21 -6 -29q39 -13 126 -13q97 0 148.5 41t51.5 110q0 40 -24 71.5t-65 49.5 l-44 19q-70 29 -70 86q0 39 34 63.5t86 24.5q37 0 70.5 -6.5t39.5 -6.5q11 0 15 17l5 25q-53 15 -125 15z" />
<glyph unicode="&#x1e6a;" horiz-adv-x="404" d="M29 674h475l-9 -43h-211l-122 -631h-54l122 631h-210zM325 842l-10 -51h-51l10 51h51z" />
<glyph unicode="&#x1e6b;" horiz-adv-x="293" d="M221 692l-10 -51h-50l10 51h50zM181 -10q31 0 63 9q3 25 3 33q0 10 -9 10q-1 0 -17.5 -3.5t-28.5 -3.5q-39 0 -60.5 18.5t-21.5 50.5q0 7 1 15.5t2.5 18t1.5 11.5l59 303h151l8 42h-151l21 109h-52l-21 -109h-92l-8 -42h92q-50 -256 -56 -285q-10 -57 -10 -69 q0 -50 34.5 -79t90.5 -29z" />
<glyph unicode="&#x1e80;" horiz-adv-x="844" d="M504 736h-27l-92 147h66zM70 674l33 -674h78l278 612h4l45 -612h80l296 674h-59l-264 -612h-5l-45 612h-75l-280 -612h-5l-26 612h-55z" />
<glyph unicode="&#x1e81;" horiz-adv-x="669" d="M434 595h-26l-91 147h66zM50 494l31 -494h66l211 421h6l29 -421h66l250 494h-52l-214 -425h-4l-32 425h-63l-213 -425h-4l-27 425h-50z" />
<glyph unicode="&#x1e82;" horiz-adv-x="844" d="M498 736h-26l108 147h66zM70 674l33 -674h78l278 612h4l45 -612h80l296 674h-59l-264 -612h-5l-45 612h-75l-280 -612h-5l-26 612h-55z" />
<glyph unicode="&#x1e83;" horiz-adv-x="669" d="M335 595h-26l109 147h66zM50 494l31 -494h66l211 421h6l29 -421h66l250 494h-52l-214 -425h-4l-32 425h-63l-213 -425h-4l-27 425h-50z" />
<glyph unicode="&#x1e84;" horiz-adv-x="844" d="M429 835l-10 -51h-50l10 51h50zM615 784l10 51h-51l-10 -51h51zM70 674l33 -674h78l278 612h4l45 -612h80l296 674h-59l-264 -612h-5l-45 612h-75l-280 -612h-5l-26 612h-55z" />
<glyph unicode="&#x1e85;" horiz-adv-x="669" d="M338 692l-10 -51h-51l10 51h51zM519 692l-10 -51h-50l10 51h50zM50 494l31 -494h66l211 421h6l29 -421h66l250 494h-52l-214 -425h-4l-32 425h-63l-213 -425h-4l-27 425h-50z" />
<glyph unicode="&#x1ef2;" horiz-adv-x="458" d="M309 736h-26l-92 147h66zM173 247l-48 -247h54l48 247l301 427h-61l-256 -370l-107 370h-54z" />
<glyph unicode="&#x1ef3;" horiz-adv-x="422" d="M289 595h-26l-91 147h66zM37 494l102 -495q-22 -41 -43 -78q-34 -63 -70.5 -93t-88.5 -30q-17 0 -29.5 1t-19 2.5t-8.5 1.5q-8 0 -13 -12l-7 -29q45 -9 70 -9q45 0 77.5 10.5t59.5 37t46 54t47 78.5l312 561h-59l-233 -423h-2l-82 423h-59z" />
<glyph unicode="&#x2013;" horiz-adv-x="606" d="M69 269h437l-9 -43h-437z" />
<glyph unicode="&#x2014;" horiz-adv-x="783" d="M69 269h614l-9 -43h-614z" />
<glyph unicode="&#x2018;" horiz-adv-x="175" d="M90 568q7 40 27.5 65t67.5 54l10 -17q-61 -38 -68 -82h33l-13 -67h-67q5 23 10 47z" />
<glyph unicode="&#x2019;" horiz-adv-x="174" d="M185 628q-8 -40 -28.5 -64.5t-67.5 -54.5l-9 17q60 38 67 83h-33l13 66h67q-5 -23 -9 -47z" />
<glyph unicode="&#x201a;" horiz-adv-x="197" d="M4 0l15 78h78l-15 -78q-7 -34 -35.5 -60.5t-57.5 -38.5l-9 18q51 31 62 81h-38z" />
<glyph unicode="&#x201c;" horiz-adv-x="292" d="M207 568q7 40 27.5 65t67.5 54l10 -17q-59 -37 -68 -82h33l-13 -67h-66q4 23 9 47zM80 521q5 23 10 47q7 40 27.5 65t67.5 54l10 -17q-61 -38 -68 -82h33l-13 -67h-67z" />
<glyph unicode="&#x201d;" horiz-adv-x="291" d="M184 628q-7 -40 -27.5 -64.5t-67.5 -54.5l-9 17q58 36 67 83h-33l13 66h66q-4 -23 -9 -47zM311 675q-5 -23 -10 -47q-7 -40 -27.5 -64.5t-67.5 -54.5l-9 17q60 38 67 83h-33l13 66h67z" />
<glyph unicode="&#x201e;" horiz-adv-x="322" d="M4 0l15 78h78l-15 -78q-7 -34 -35.5 -60.5t-57.5 -38.5l-9 18q51 31 62 81h-38zM129 0l15 78h78l-15 -78q-7 -34 -35.5 -60.5t-57.5 -38.5l-9 18q51 31 62 81h-38z" />
<glyph unicode="&#x2020;" horiz-adv-x="541" d="M173 -247h-13l78 514l40 154h-178l10 49h179l26 204h62l-54 -204h178l-10 -49h-178l-18 -154z" />
<glyph unicode="&#x2021;" horiz-adv-x="571" d="M502 316l-10 -49h-168l-122 -514h-13l78 514h-167l10 49h170l27 105h-178l10 49h180l25 204h62l-54 -204h179l-10 -49h-179l-11 -105h171z" />
<glyph unicode="&#x2022;" horiz-adv-x="266" d="M186 291l-17 -89h-89l17 89h89z" />
<glyph unicode="&#x2026;" horiz-adv-x="694" d="M594 67l-13 -67h-67l13 67h67zM337 67l-13 -67h-67l13 67h67zM80 67l-13 -67h-67l13 67h67z" />
<glyph unicode="&#x2030;" horiz-adv-x="1032" d="M187 337q-47 0 -75 38t-28 90q0 86 40.5 152.5t117.5 66.5q48 0 75.5 -37.5t27.5 -90.5q0 -90 -42 -154.5t-116 -64.5zM311 559q0 39 -20 65.5t-55 26.5q-41 0 -69.5 -34.5t-38.5 -74t-10 -76.5q0 -43 19.5 -70t53.5 -27q55 0 87.5 58.5t32.5 131.5zM508 -10 q-48 0 -76 36.5t-28 89.5q0 54 15.5 102.5t53 83.5t90.5 35q48 0 75 -38.5t27 -91.5q0 -90 -41.5 -153.5t-115.5 -63.5zM631 209q0 40 -19.5 67.5t-54.5 27.5q-32 0 -56.5 -20t-37 -50.5t-19 -60.5t-6.5 -56q0 -43 20 -69t54 -26q55 0 87 57t32 130zM815 -10q-48 0 -76 36.5 t-28 89.5q0 54 15.5 102.5t53 83.5t90.5 35q48 0 75 -38.5t27 -91.5q0 -90 -41.5 -153.5t-115.5 -63.5zM938 209q0 40 -19.5 67.5t-54.5 27.5q-32 0 -56.5 -20t-37 -50.5t-19 -60.5t-6.5 -56q0 -43 20 -69t54 -26q55 0 87 57t32 130zM80 0l534 674h41l-534 -674h-41z" />
<glyph unicode="&#x2039;" horiz-adv-x="313" d="M50 236l206 201l27 -28l-177 -175l110 -172l-35 -25z" />
<glyph unicode="&#x203a;" horiz-adv-x="384" d="M154 433l135 -197l-209 -201l-25 27l177 176l-115 167z" />
<glyph unicode="&#x2044;" horiz-adv-x="95" d="M-240 0l534 674h41l-534 -674h-41z" />
<glyph unicode="&#x2070;" horiz-adv-x="342" d="M144 332q-48 0 -76 37.5t-28 90.5q0 87 41 155.5t118 68.5q48 0 75.5 -40t27.5 -93q0 -90 -42 -154.5t-116 -64.5zM267 553q0 41 -19.5 70t-54.5 29q-32 0 -56.5 -20.5t-37 -52t-19 -62t-6.5 -56.5q0 -43 19.5 -69.5t54.5 -26.5q55 0 87 57.5t32 130.5z" />
<glyph unicode="&#x2074;" horiz-adv-x="304" d="M177 451l36 187h-4l-151 -187h119zM172 423h-147l-5 29l183 222h52l-43 -223h52l-5 -28h-52l-17 -86h-36z" />
<glyph unicode="&#x2075;" horiz-adv-x="268" d="M120 645l-20 -106l7 1h10q49 0 77 -28t28 -65q0 -54 -38.5 -84.5t-102.5 -30.5q-55 0 -71 8l6 31q14 -9 59 -9q49 0 80 22.5t31 58.5q0 29 -21 48t-66 19q-18 0 -42 -6l34 170h157l-5 -29h-123z" />
<glyph unicode="&#x2076;" horiz-adv-x="321" d="M165 521q-35 0 -61.5 -23.5t-26.5 -59.5q0 -30 20 -53t55 -23q38 0 63 25.5t25 62.5q0 31 -21 51t-54 20zM163 551q50 0 81 -29.5t31 -71.5q0 -51 -34.5 -84.5t-93.5 -33.5q-55 0 -81 35t-26 85q0 118 54 175t133 57q39 0 64 -10l-11 -29q-36 9 -56 9q-35 0 -62.5 -13.5 t-43 -35.5t-23.5 -42t-11 -41l3 -2q8 10 29 20.5t47 10.5z" />
<glyph unicode="&#x2077;" horiz-adv-x="247" d="M59 337h-39q42 117 183 308h-165l6 29h203l-4 -23q-129 -165 -184 -314z" />
<glyph unicode="&#x2078;" horiz-adv-x="268" d="M141 534q27 15 40 23.5t24 22t11 29.5t-14.5 31t-44.5 15q-26 0 -44 -15.5t-18 -38.5q0 -35 46 -67zM117 360q33 0 55.5 20.5t22.5 45.5q0 36 -56 72q-86 -38 -86 -82q0 -22 17 -39t47 -17zM20 413q0 19 8.5 35t26 29.5t28 20t30.5 17.5v4q-50 37 -50 81q0 42 27.5 63 t69.5 21q47 0 67.5 -23t20.5 -52q0 -21 -11.5 -37.5t-25.5 -26t-44 -26.5v-4q61 -41 61 -88q0 -39 -33.5 -67t-81.5 -28q-43 0 -68 23.5t-25 57.5z" />
<glyph unicode="&#x2079;" horiz-adv-x="310" d="M145 495q35 0 61.5 24t26.5 60q0 30 -19.5 52t-55.5 22q-37 0 -62.5 -25.5t-25.5 -61.5q0 -31 21 -51t54 -20zM148 466q-50 0 -81 29.5t-31 70.5q0 51 34.5 84.5t92.5 33.5q55 0 81 -35t26 -85q0 -118 -54 -175t-132 -57q-28 0 -64 9l10 30q20 -10 56 -10q35 0 62.5 14 t43 36t23.5 42.5t11 40.5l-3 1q-29 -29 -75 -29z" />
<glyph unicode="&#x2080;" horiz-adv-x="342" d="M144 -4q-48 0 -76 37t-28 90q0 54 15.5 102t53 82.5t90.5 34.5q48 0 75.5 -38t27.5 -90q0 -90 -42 -154t-116 -64zM267 216q0 40 -19.5 67t-54.5 27q-32 0 -56.5 -20t-37 -50.5t-19 -60t-6.5 -55.5q0 -43 19.5 -69t54.5 -26q55 0 87 57t32 130z" />
<glyph unicode="&#x2081;" horiz-adv-x="190" d="M83 0h-35l58 298q-43 -25 -83 -27l-3 29q27 3 55.5 15.5t40.5 26.5h34z" />
<glyph unicode="&#x2082;" horiz-adv-x="261" d="M-5 25q92 88 106 101q33 32 47.5 48t26.5 37t12 41q0 23 -18.5 42.5t-49.5 19.5q-29 0 -61 -19l-12 25q28 22 73 22q50 0 76 -28t26 -64q0 -11 -2.5 -22t-8 -22t-10 -18.5t-15 -19t-15 -16.5t-18 -18t-16.5 -16l-92 -90h144l-6 -28h-192z" />
<glyph unicode="&#x2083;" horiz-adv-x="269" d="M72 301l-11 25q24 16 72 16q44 0 70 -25t26 -57q0 -36 -24.5 -57.5t-50.5 -29.5v-4q19 -7 33.5 -26t14.5 -47q0 -44 -36 -72.5t-92 -28.5q-32 0 -64 7l4 31q21 -7 51 -7q44 0 73 20.5t29 53.5q0 26 -18 43.5t-55 17.5h-32l7 29h34q38 0 64 18.5t26 50.5q0 22 -17 38.5 t-50 16.5q-28 0 -54 -13z" />
<glyph unicode="&#x2084;" horiz-adv-x="304" d="M177 114l36 187h-4l-151 -187h119zM172 86h-147l-5 29l183 222h52l-43 -223h52l-5 -28h-52l-17 -86h-36z" />
<glyph unicode="&#x2085;" horiz-adv-x="268" d="M120 308l-20 -105l7 1h10q49 0 77 -28t28 -65q0 -54 -38.5 -85t-102.5 -31q-55 0 -71 8l6 31q13 -9 59 -9q49 0 80 23t31 59q0 29 -21 48t-66 19q-18 0 -42 -6l34 169h157l-5 -29h-123z" />
<glyph unicode="&#x2086;" horiz-adv-x="321" d="M165 183q-35 0 -61.5 -23.5t-26.5 -59.5q0 -30 20 -52.5t55 -22.5q38 0 63 25.5t25 61.5q0 31 -21 51t-54 20zM163 213q50 0 81 -29.5t31 -71.5q0 -51 -34.5 -84t-93.5 -33q-55 0 -81 34.5t-26 84.5q0 118 53.5 173t133.5 55q39 0 64 -10l-11 -29q-36 9 -56 9 q-66 0 -99.5 -40t-40.5 -88l3 -2q8 10 29 20.5t47 10.5z" />
<glyph unicode="&#x2087;" horiz-adv-x="247" d="M59 0h-39q42 117 183 308h-165l6 29h203l-4 -23q-129 -165 -184 -314z" />
<glyph unicode="&#x2088;" horiz-adv-x="268" d="M141 192q27 15 40 23.5t24 22t11 29.5t-14.5 31t-44.5 15q-26 0 -44 -15.5t-18 -38.5q0 -35 46 -67zM117 23q33 0 55.5 18t22.5 43q0 36 -56 72q-86 -38 -86 -82q0 -21 16.5 -36t47.5 -15zM20 71q0 19 8.5 35t26 29.5t28 20t30.5 17.5v4q-50 37 -50 81q0 42 27.5 63 t69.5 21q47 0 67.5 -23t20.5 -52q0 -21 -11.5 -37.5t-25.5 -26t-44 -26.5v-4q61 -41 61 -88q0 -39 -33 -64.5t-82 -25.5q-44 0 -68.5 21.5t-24.5 54.5z" />
<glyph unicode="&#x2089;" horiz-adv-x="330" d="M165 151q35 0 61.5 24t26.5 60q0 30 -19.5 53t-55.5 23q-37 0 -62.5 -26.5t-25.5 -62.5q0 -31 21 -51t54 -20zM168 122q-50 0 -81 29.5t-31 70.5q0 51 34.5 85.5t92.5 34.5q55 0 81 -35.5t26 -86.5q0 -117 -53.5 -171t-132.5 -54q-28 0 -64 9l10 30q20 -10 56 -10 q66 0 99.5 39.5t40.5 86.5l-3 1q-29 -29 -75 -29z" />
<glyph unicode="&#x20ac;" horiz-adv-x="680" d="M670 662l-20 -45q-62 22 -133 22q-98 0 -177.5 -52.5t-118.5 -145.5h351l-20 -43h-345q-13 -49 -14 -101h314l-19 -43h-293q11 -95 76 -157.5t162 -62.5q65 0 140 32l-11 -54q-5 -3 -18 -7.5t-45.5 -9.5t-68.5 -5q-124 0 -202 75.5t-91 188.5h-97l31 43h64q0 53 12 101 h-79l31 43h61q40 111 135 177t227 66q89 0 148 -22z" />
<glyph unicode="&#x2122;" horiz-adv-x="409" d="M105 675h122l-4 -23h-49l-30 -156h-26l31 156h-49zM210 496l63 179h25l15 -130h4l64 130h28l-8 -179h-25l8 132h-4l-66 -132h-21l-12 131h-4l-43 -131h-24z" />
<glyph unicode="&#x2153;" horiz-adv-x="599" d="M158 337h-36l58 298q-38 -23 -82 -27l-3 29q27 3 55 15.5t41 26.5h33zM0 0l533 674h41l-533 -674h-41zM422 301l-11 25q24 16 72 16q44 0 70 -25t26 -57q0 -36 -24.5 -57.5t-50.5 -29.5v-4q19 -7 33.5 -26t14.5 -47q0 -44 -36 -72.5t-92 -28.5q-32 0 -64 7l4 31 q21 -7 51 -7q44 0 73 20.5t29 53.5q0 26 -18 43.5t-55 17.5h-32l7 29h34q38 0 64 18.5t26 50.5q0 22 -17 38.5t-50 16.5q-28 0 -54 -13z" />
<glyph unicode="&#x2154;" horiz-adv-x="681" d="M82 0l533 674h41l-533 -674h-41zM493 326l11 -25q26 13 54 13q33 0 50 -16.5t17 -38.5q0 -32 -26 -50.5t-64 -18.5h-34l-7 -29h32q37 0 55 -17.5t18 -43.5q0 -33 -29 -53.5t-73 -20.5q-30 0 -51 7l-4 -31q32 -7 64 -7q56 0 92 28.5t36 72.5q0 28 -14.5 47t-33.5 26v4 q26 8 50.5 29.5t24.5 57.5q0 32 -26 57t-70 25q-48 0 -72 -16zM85 362q92 88 106 101q44 44 65 73.5t21 58.5q0 23 -18.5 42t-49.5 19q-29 0 -61 -19l-12 25q27 22 73 22q50 0 76 -28t26 -63q0 -25 -15.5 -53t-28.5 -42.5t-41 -42.5l-92 -90h144l-6 -28h-192z" />
<glyph unicode="&#x215b;" horiz-adv-x="594" d="M158 337h-36l58 298q-38 -23 -82 -27l-3 29q27 3 55 15.5t41 26.5h33zM0 0l533 674h41l-533 -674h-41zM542 267q0 16 -15 31.5t-45 15.5q-25 0 -43 -16t-18 -39q0 -35 46 -67q26 14 39.5 23t24.5 22.5t11 29.5zM520 85q0 35 -55 71q-86 -36 -86 -82q0 -21 16.5 -35.5 t47.5 -14.5q33 0 55 18t22 43zM439 174v4q-50 36 -50 80q0 42 27.5 63t68.5 21q47 0 68 -23t21 -51q0 -31 -19.5 -50t-62.5 -41v-4q33 -24 47 -42.5t14 -44.5q0 -39 -33 -65t-81 -26q-44 0 -68.5 21.5t-24.5 55.5q0 56 93 102z" />
<glyph unicode="&#x215c;" horiz-adv-x="664" d="M70 0l533 675h41l-533 -675h-41zM612 268q0 16 -15 31t-45 15q-25 0 -43 -15.5t-18 -38.5q0 -35 46 -67q26 14 39.5 23t24.5 22.5t11 29.5zM590 86q0 35 -55 71q-86 -36 -86 -82q0 -21 16.5 -36t47.5 -15q33 0 55 18.5t22 43.5zM509 175v4q-50 36 -50 80q0 42 27.5 62.5 t68.5 20.5q47 0 68 -22.5t21 -50.5q0 -31 -19.5 -50t-62.5 -41v-4q33 -24 47 -42.5t14 -44.5q0 -39 -33 -65.5t-81 -26.5q-44 0 -68.5 22t-24.5 56q0 19 9 35.5t25.5 30t28.5 20.5t30 16zM150 643l-11 25q24 16 72 16q44 0 70 -27t26 -59q0 -36 -24.5 -57.5t-50.5 -29.5v-4 q19 -7 33.5 -26t14.5 -47q0 -44 -36 -72.5t-92 -28.5q-32 0 -64 7l4 31q21 -7 51 -7q44 0 73 20.5t29 53.5q0 26 -18 43.5t-55 17.5h-32l7 29h34q38 0 64 18.5t26 50.5q0 23 -17 41t-50 18q-28 0 -54 -13z" />
<glyph unicode="&#x215d;" horiz-adv-x="654" d="M60 0l533 674h41l-533 -674h-41zM602 268q0 -22 -18 -38t-57 -37q-46 32 -46 67q0 23 18 38.5t43 15.5q30 0 45 -15t15 -31zM580 86q0 -25 -22 -43.5t-55 -18.5q-31 0 -47.5 15t-16.5 36q0 46 86 82q55 -36 55 -71zM499 179v-4q-18 -9 -30 -16t-28.5 -20.5t-25.5 -30 t-9 -35.5q0 -34 24.5 -56t68.5 -22q48 0 81 26.5t33 65.5q0 26 -14 44.5t-47 42.5v4q43 22 62.5 41t19.5 50q0 28 -21 50.5t-68 22.5q-41 0 -68.5 -20.5t-27.5 -62.5q0 -44 50 -80zM184 645l-20 -105h7q7 1 10 1q49 0 77 -28t28 -65q0 -54 -38.5 -85t-102.5 -31q-55 0 -71 8 l6 31q13 -9 59 -9q49 0 80 23t31 59q0 29 -21 48t-66 19q-18 0 -42 -6l34 169h157l-5 -29h-123z" />
<glyph unicode="&#x215e;" horiz-adv-x="614" d="M20 0l533 674h41l-533 -674h-41zM562 268q0 -22 -18 -38t-57 -37q-46 32 -46 67q0 23 18 38.5t43 15.5q30 0 45 -15t15 -31zM540 86q0 -25 -22 -43.5t-55 -18.5q-31 0 -47.5 15t-16.5 36q0 46 86 82q55 -36 55 -71zM459 179v-4q-18 -9 -30 -16t-28.5 -20.5t-25.5 -30 t-9 -35.5q0 -34 24.5 -56t68.5 -22q48 0 81 26.5t33 65.5q0 26 -14 44.5t-47 42.5v4q43 22 62.5 41t19.5 50q0 28 -21 50.5t-68 22.5q-41 0 -68.5 -20.5t-27.5 -62.5q0 -44 50 -80zM79 337h39q55 149 184 314l4 23h-203l-6 -29h165q-141 -191 -183 -308z" />
<glyph unicode="&#x2212;" horiz-adv-x="639" d="M68 323h511l-8 -43h-511z" />
<glyph unicode="&#x2260;" horiz-adv-x="654" d="M596 369h-202l-83 -143h257l-8 -43h-275l-77 -132h-54l77 132h-181l8 43h198l84 143h-254l9 43h270l87 150h55l-88 -150h185z" />
<glyph unicode="&#x2264;" horiz-adv-x="547" d="M9 43l-9 -43h444l8 43h-443zM401 133l-33 -34l-259 243l353 243l25 -37l-302 -210z" />
<glyph unicode="&#x2265;" horiz-adv-x="526" d="M93 95l-23 38l297 205l-217 206l37 37l259 -243zM423 0l8 43h-443l-8 -43h443z" />
<glyph unicode="&#x25fc;" horiz-adv-x="495" d="M0 495h495v-495h-495v495z" />
<glyph unicode="&#xf6e1;" horiz-adv-x="194" d="M85 19q-8 -40 -28.5 -64.5t-67.5 -54.5l-9 17q60 38 67 83h-33l13 66h67q-5 -23 -9 -47z" />
<glyph unicode="&#xf6e3;" horiz-adv-x="622" />
<glyph unicode="&#xf6e7;" horiz-adv-x="193" d="M0 0l15 78h78l-15 -78h-78z" />
<glyph unicode="&#xf6f9;" horiz-adv-x="328" d="M129 43h214l-8 -43h-268l34 176l-51 -19l9 46l51 19l60 310h54l-56 -287l125 47l-9 -46l-125 -48z" />
<glyph unicode="&#xf6fa;" horiz-adv-x="848" d="M839 489h-252l-39 -195h235l-9 -43h-234l-40 -208h259l-9 -43h-313l12 59q-75 -69 -176 -69q-103 0 -163 66t-60 170q0 136 76.5 226t200.5 90q66 0 116 -31.5t77 -84.5l21 106h307zM273 36q95 0 156.5 77t61.5 200q0 76 -44 129t-125 53q-93 0 -155 -75.5t-62 -201.5 q0 -79 47 -130.5t121 -51.5z" />
<glyph unicode="&#xf6fd;" horiz-adv-x="433" d="M412 742h26l-118 -147h-78l-60 147h26l79 -115zM413 517l-10 -51q-68 29 -133 29q-58 0 -95 -28.5t-37 -73.5q0 -19 5.5 -33.5t19 -25.5t24 -17t32.5 -16l35 -17q106 -50 106 -135q0 -72 -60 -115.5t-163 -43.5q-77 0 -137 22l10 52q50 -28 135 -28q73 0 114.5 32.5 t41.5 74.5q0 37 -23.5 59.5t-65.5 41.5l-31 14q-101 46 -101 131q0 68 51.5 110t136.5 42q92 0 145 -24z" />
<glyph unicode="&#xf6ff;" horiz-adv-x="430" d="M186 742h26l79 -116l125 116h26l-118 -147h-78zM-20 0l9 48l390 441h-298l8 43h361l-9 -46l-391 -443h312l-8 -43h-374z" />
<glyph unicode="&#xf721;" horiz-adv-x="265" d="M134 155h-40l66 377h55zM130 68l-13 -67h-67l13 67h67z" />
<glyph unicode="&#xf726;" horiz-adv-x="570" d="M462 301h48q-7 -53 -35.5 -115t-68.5 -106q6 -6 72 -69l-38 -33q-46 43 -71 72q-76 -61 -153 -61q-76 0 -126 43t-50 111q0 28 12.5 53t38 45.5t40.5 30t41 24.5q-40 63 -40 111q0 62 38.5 98t99.5 36q58 0 89.5 -30t31.5 -70q0 -18 -4.5 -34.5t-16 -31t-20.5 -24.5 t-28 -22.5t-27 -17.5t-29.5 -16.5t-25.5 -13.5q44 -76 134 -168q32 33 57 88.5t31 99.5zM185 416q0 -41 33 -98q32 15 47.5 24t36 24t29.5 32.5t9 38.5q0 23 -17.5 40.5t-53.5 17.5q-39 0 -61.5 -22t-22.5 -57zM224 33q56 0 116 48q-90 93 -145 177q-21 -11 -34 -19.5 t-31 -24t-27.5 -34t-9.5 -39.5q0 -48 34 -78t97 -30z" />
<glyph unicode="&#xf73f;" horiz-adv-x="369" d="M127 0l13 67h-67l-13 -67h67zM73 478l12 48q48 15 93 15q72 0 111.5 -37.5t39.5 -83.5q0 -24 -9 -45.5t-28.5 -42t-30.5 -30.5t-33 -27q-64 -49 -75 -100l-4 -21h-52q3 16 5 28q6 28 22 53t28.5 37t35.5 32q4 3 21.5 17.5t24.5 21.5t19 20t16.5 25.5t4.5 25.5 q0 32 -26 56t-78 24q-49 0 -97 -16z" />
<glyph unicode="&#xf760;" horiz-adv-x="376" d="M351 554h-26l-91 147h66z" />
<glyph unicode="&#xf761;" horiz-adv-x="459" d="M19 0h-59l297 532h74l88 -532h-54l-21 132h-254zM337 175l-50 312h-4l-169 -312h223z" />
<glyph unicode="&#xf762;" horiz-adv-x="487" d="M50 0l104 532h140q87 0 130 -38.5t43 -91.5q0 -60 -36.5 -92t-72.5 -39l-1 -3q13 -6 27.5 -15.5t31.5 -35.5t17 -57q0 -71 -55 -115.5t-163 -44.5h-165zM199 488l-38 -194h96q69 0 112 31t43 78q0 39 -35 63.5t-102 24.5q-15 0 -44 -1.5t-32 -1.5zM153 251l-40 -206 q42 -3 90 -3q75 0 124 33t49 86q0 37 -31.5 63.5t-97.5 26.5h-94z" />
<glyph unicode="&#xf763;" horiz-adv-x="479" d="M50 232q1 131 89.5 220t221.5 89q86 0 138 -28l-10 -52q-44 33 -131 33q-102 0 -176.5 -76.5t-74.5 -183.5q0 -82 49.5 -139.5t141.5 -57.5q64 0 114 31l-10 -53q-56 -24 -114 -24q-109 0 -173.5 71t-64.5 170z" />
<glyph unicode="&#xf764;" horiz-adv-x="588" d="M199 485l-85 -438q27 -5 85 -5q134 0 208 74.5t74 186.5q0 77 -52 132t-160 55q-35 0 -70 -5zM50 0l104 532h120q70 0 123 -20.5t83 -55t44 -73.5t14 -83q0 -140 -95.5 -220t-246.5 -80h-146z" />
<glyph unicode="&#xf765;" horiz-adv-x="460" d="M371 43l-8 -43h-313l103 532h307l-8 -43h-253l-39 -196h234l-8 -43h-234l-40 -207h259z" />
<glyph unicode="&#xf766;" horiz-adv-x="439" d="M152 250l-48 -250h-54l103 532h306l-8 -43h-252l-39 -196h233l-8 -43h-233z" />
<glyph unicode="&#xf767;" d="M442 28q-74 -37 -151 -37q-114 0 -177.5 69.5t-63.5 171.5q0 134 88.5 221.5t223.5 87.5q81 0 146 -35l-11 -55q-7 6 -20.5 14t-49 18.5t-74.5 10.5q-60 0 -115.5 -29t-93.5 -89t-38 -139q0 -87 52 -143.5t138 -56.5q59 0 98 22l38 193h-126l8 43h180z" />
<glyph unicode="&#xf768;" horiz-adv-x="599" d="M495 532h54l-103 -532h-54l48 250h-288l-48 -250h-54l103 532h54l-47 -239h288z" />
<glyph unicode="&#xf769;" horiz-adv-x="256" d="M206 532l-103 -532h-53l103 532h53z" />
<glyph unicode="&#xf76a;" horiz-adv-x="315" d="M134 132l77 400h54q-66 -338 -76 -398q-11 -68 -57.5 -106t-114.5 -38q-48 0 -67 8l9 47q18 -9 63 -9q42 0 72.5 25t39.5 71z" />
<glyph unicode="&#xf76b;" horiz-adv-x="417" d="M383 0h-63l-164 265l-52 -265h-54l104 532h54l-51 -260l238 260h62l-241 -261z" />
<glyph unicode="&#xf76c;" horiz-adv-x="346" d="M207 532l-95 -489h214l-8 -43h-268l103 532h54z" />
<glyph unicode="&#xf76d;" horiz-adv-x="679" d="M20 0l173 532h79l34 -467l210 467h83l-34 -532h-52l32 478h-4l-211 -478h-71l-34 476h-4l-146 -476h-55z" />
<glyph unicode="&#xf76e;" horiz-adv-x="622" d="M104 0h-54l103 532h65l210 -443h4l86 443h54l-103 -532h-62l-212 451h-4z" />
<glyph unicode="&#xf76f;" horiz-adv-x="597" d="M322 494q-93 0 -155 -74.5t-62 -199.5q0 -79 47 -131t121 -52q95 0 156.5 77t61.5 200q0 76 -44 128t-125 52zM273 -9q-103 0 -163 66t-60 170q0 136 76 225t201 89q99 0 159.5 -65t60.5 -165q0 -143 -78.5 -231.5t-195.5 -88.5z" />
<glyph unicode="&#xf770;" horiz-adv-x="494" d="M268 490q-36 0 -70 -6l-50 -260q28 -7 79 -7q81 0 135 43t54 112q0 52 -38.5 85t-109.5 33zM239 173q-67 0 -100 9l-35 -182h-54l104 532h130q95 0 142.5 -49t47.5 -110q0 -87 -65 -143.5t-170 -56.5z" />
<glyph unicode="&#xf771;" horiz-adv-x="597" d="M547 309q0 -134 -68.5 -220t-175.5 -97l8 -85h-48l-9 84q-95 6 -149.5 71t-54.5 163q0 136 76.5 226t200.5 90q100 0 160 -66t60 -166zM298 37q86 11 140 85.5t54 189.5q0 76 -44.5 129t-125.5 53q-92 0 -154 -75t-62 -201q0 -73 39 -122.5t104 -57.5l-10 104h49z" />
<glyph unicode="&#xf772;" horiz-adv-x="509" d="M273 490q-39 0 -75 -6l-42 -217q54 -6 90 -6q82 0 129 35t47 89q0 45 -36 75t-113 30zM288 220h-141l-43 -220h-54l104 532h131q93 0 143.5 -41.5t50.5 -105.5q0 -35 -13 -63.5t-29 -44.5t-38.5 -28.5t-33.5 -16t-22 -6.5l76 -226h-56z" />
<glyph unicode="&#xf773;" horiz-adv-x="433" d="M413 517l-10 -51q-68 29 -133 29q-58 0 -95 -28.5t-37 -73.5q0 -19 5.5 -33.5t19 -25.5t24 -17t32.5 -16l35 -17q106 -50 106 -135q0 -72 -60 -115.5t-163 -43.5q-77 0 -137 22l10 52q50 -28 135 -28q73 0 114.5 32.5t41.5 74.5q0 37 -23.5 59.5t-65.5 41.5l-31 14 q-101 46 -101 131q0 68 51.5 110t136.5 42q92 0 145 -24z" />
<glyph unicode="&#xf774;" horiz-adv-x="368" d="M157 0h-54l95 489h-168l8 43h390l-8 -43h-168z" />
<glyph unicode="&#xf775;" horiz-adv-x="587" d="M256 -10q-84 0 -130 43.5t-46 106.5q0 25 9 66l63 326h54l-65 -333q-8 -38 -8 -57q0 -50 32 -78t96 -28t103.5 42.5t51.5 107.5l67 346h54l-64 -333q-39 -209 -217 -209z" />
<glyph unicode="&#xf776;" horiz-adv-x="503" d="M60 532h58l88 -470h4l272 470h61l-311 -532h-69z" />
<glyph unicode="&#xf777;" horiz-adv-x="684" d="M97 0l-27 532h59l20 -467h6l193 467h83l19 -467h6l189 467h59l-219 -532h-86l-22 460h-6l-190 -460h-84z" />
<glyph unicode="&#xf778;" horiz-adv-x="399" d="M178 280l-106 252h59l83 -203h4l158 203h63l-200 -250l118 -282h-60l-95 230h-4l-181 -230h-67z" />
<glyph unicode="&#xf779;" horiz-adv-x="372" d="M189 169l-33 -169h-54l33 169l-95 363h56l75 -301h4l189 301h58z" />
<glyph unicode="&#xf77a;" horiz-adv-x="430" d="M-20 0l9 48l390 441h-298l8 43h361l-9 -46l-391 -443h312l-8 -43h-374z" />
<glyph unicode="&#xf7a1;" horiz-adv-x="205" d="M120 222h-40l-80 -377h54zM85 310l13 66h67l-13 -66h-67z" />
<glyph unicode="&#xf7bf;" horiz-adv-x="309" d="M257 -102l-13 -47q-53 -14 -93 -14q-72 0 -111.5 37t-39.5 82q0 33 18 63.5t36 46t47 36.5q63 44 75 100l4 21h52q-3 -16 -5 -29q-13 -64 -86 -121q-1 -1 -17.5 -14t-21 -17t-17 -16t-17 -20t-9 -20t-4.5 -24q0 -31 26.5 -55t77.5 -24q53 0 98 15zM189 310l13 67h67 l-13 -67h-67z" />
<glyph unicode="&#xf7e0;" horiz-adv-x="459" d="M313 595h-26l-91 147h66zM-40 0h59l71 132h254l21 -132h53l-88 532h-73zM286 487l51 -312h-223l168 312h4z" />
<glyph unicode="&#xf7e1;" horiz-adv-x="459" d="M-40 0h59l71 132h254l21 -132h53l-88 532h-73zM286 487l51 -312h-223l168 312h4zM308 595h-30l104 147h74z" />
<glyph unicode="&#xf7e2;" horiz-adv-x="459" d="M429 595h-27l-78 116l-125 -116h-26l118 147h77zM-40 0h59l71 132h254l21 -132h53l-88 532h-73zM286 487l51 -312h-223l168 312h4z" />
<glyph unicode="&#xf7e3;" horiz-adv-x="459" d="M-40 0h59l71 132h254l21 -132h53l-88 532h-73zM286 487l51 -312h-223l168 312h4zM169 634l-17 24q7 8 18.5 17t36 19.5t48.5 10.5q31 0 68 -16t57 -16q50 0 82 28l17 -23q-45 -47 -102 -47q-32 0 -69 15.5t-58 15.5q-50 0 -81 -28z" />
<glyph unicode="&#xf7e4;" horiz-adv-x="459" d="M231 686l-10 -51h-51l10 51h51zM451 686l-10 -51h-50l10 51h50zM-40 0h59l71 132h254l21 -132h53l-88 532h-73zM286 487l51 -312h-223l168 312h4z" />
<glyph unicode="&#xf7e5;" horiz-adv-x="459" d="M19 0h-59l297 532h73l88 -532h-53l-21 132h-254zM337 175l-51 312h-4l-168 -312h223zM303 549q-40 0 -66.5 25t-26.5 66q0 44 31 73.5t76 29.5q43 0 68.5 -26t25.5 -64q0 -46 -31.5 -75t-76.5 -29zM315 713q-28 0 -50.5 -21t-22.5 -52q0 -27 18 -44t45 -17q29 0 51.5 21 t22.5 53q0 25 -17.5 42.5t-46.5 17.5z" />
<glyph unicode="&#xf7e6;" horiz-adv-x="710" d="M613 0h-313l25 131h-217l-105 -131h-63l430 532h340l-8 -43h-253l-38 -195h234l-9 -43h-234l-40 -208h259zM334 174l60 313h-4l-248 -313h192z" />
<glyph unicode="&#xf7e7;" horiz-adv-x="479" d="M358 495q-101 0 -176 -78t-75 -184q0 -82 49.5 -139.5t141.5 -57.5q58 0 114 31l-10 -54q-52 -20 -100 -23l-38 -52q6 2 19 2q29 0 49.5 -17.5t20.5 -49.5q0 -54 -49 -85t-110 -34l-11 19q127 26 127 94q0 21 -16.5 35t-44.5 14q-12 0 -20 -2l35 77q-98 8 -156 77.5 t-58 162.5q1 131 89.5 220.5t221.5 89.5q89 0 137 -28l-9 -51q-49 33 -131 33z" />
<glyph unicode="&#xf7e8;" horiz-adv-x="460" d="M363 0l8 43h-259l40 208h234l9 43h-234l38 195h253l8 43h-307l-103 -532h313zM334 589h-26l-91 147h66z" />
<glyph unicode="&#xf7e9;" horiz-adv-x="484" d="M363 0l8 43h-259l40 208h234l9 43h-234l38 195h253l8 43h-307l-103 -532h313zM336 589h-27l109 147h66z" />
<glyph unicode="&#xf7ea;" horiz-adv-x="460" d="M363 0l8 43h-259l40 208h234l9 43h-234l38 195h253l8 43h-307l-103 -532h313zM450 589h-26l-79 116l-125 -116h-26l118 147h78z" />
<glyph unicode="&#xf7eb;" horiz-adv-x="460" d="M363 0l8 43h-259l40 208h234l9 43h-234l38 195h253l8 43h-307l-103 -532h313zM252 686l-10 -51h-51l10 51h51zM459 686l-10 -51h-50l10 51h50z" />
<glyph unicode="&#xf7ec;" horiz-adv-x="256" d="M104 0l103 532h-54l-103 -532h54zM204 589h-27l-91 147h66z" />
<glyph unicode="&#xf7ed;" horiz-adv-x="256" d="M103 0l103 532h-53l-103 -532h53zM203 589h-26l109 147h66z" />
<glyph unicode="&#xf7ee;" horiz-adv-x="256" d="M104 0l103 532h-54l-103 -532h54zM319 589h-26l-79 116l-124 -116h-27l119 147h77z" />
<glyph unicode="&#xf7ef;" horiz-adv-x="256" d="M104 0l103 532h-54l-103 -532h54zM142 686l-10 -51h-51l10 51h51zM328 686l-10 -51h-51l10 51h51z" />
<glyph unicode="&#xf7f0;" horiz-adv-x="590" d="M276 532q57 0 102.5 -14t75 -36.5t49.5 -53.5t28.5 -63.5t8.5 -66.5q0 -140 -95.5 -219t-246.5 -79h-146l49 251h-51l8 43h51l47 238h120zM201 41q134 0 208 74.5t74 186.5q0 77 -52 132.5t-160 55.5q-42 0 -70 -6l-38 -190h176l-8 -43h-176l-40 -204q36 -6 86 -6z" />
<glyph unicode="&#xf7f1;" horiz-adv-x="623" d="M50 0h54l88 451h4l212 -451h62l103 532h-54l-86 -443h-4l-211 443h-64zM240 634l-17 24q7 8 18.5 17t36 19.5t48.5 10.5q31 0 68 -16t57 -16q51 0 82 28l17 -23q-45 -47 -102 -47q-32 0 -69 15.5t-58 15.5q-50 0 -81 -28z" />
<glyph unicode="&#xf7f2;" horiz-adv-x="596" d="M321 495q-92 0 -154 -75t-62 -201q0 -80 46.5 -131.5t120.5 -51.5q95 0 156.5 77t61.5 200q0 77 -44 129.5t-125 52.5zM272 -10q-103 0 -162.5 66.5t-59.5 170.5q0 135 76 224.5t200 89.5q99 0 159.5 -65.5t60.5 -165.5q0 -143 -78 -231.5t-196 -88.5zM341 595h-23 l-99 147h70z" />
<glyph unicode="&#xf7f3;" horiz-adv-x="596" d="M322 495q-93 0 -155 -75t-62 -201q0 -79 47 -131t121 -52q95 0 156.5 77t61.5 200q0 77 -44.5 129.5t-124.5 52.5zM273 -10q-103 0 -163 66.5t-60 170.5q0 135 76 224.5t201 89.5q99 0 159 -65.5t60 -165.5q0 -143 -78 -231.5t-195 -88.5zM351 595h-29l103 147h75z" />
<glyph unicode="&#xf7f4;" horiz-adv-x="596" d="M322 495q-93 0 -155 -75t-62 -201q0 -79 47 -131t121 -52q95 0 156.5 77t61.5 200q0 77 -44.5 129.5t-124.5 52.5zM273 -10q-103 0 -163 66.5t-60 170.5q0 135 76 224.5t201 89.5q99 0 159 -65.5t60 -165.5q0 -143 -78 -231.5t-195 -88.5zM446 595h-24l-79 115l-124 -115 h-29l115 147h77z" />
<glyph unicode="&#xf7f5;" horiz-adv-x="609" d="M399 495q-93 0 -154.5 -75t-61.5 -201q0 -79 46.5 -131t120.5 -52q95 0 156.5 77.5t61.5 200.5q0 76 -44.5 128.5t-124.5 52.5zM350 -10q-103 0 -163 66.5t-60 170.5q0 136 76 225t201 89q99 0 159 -65.5t60 -164.5q0 -144 -78 -232.5t-195 -88.5zM295 629l-16 24 q12 14 40 30.5t63 16.5q31 0 67.5 -16t57.5 -16q49 0 82 29l16 -24q-45 -47 -102 -47q-32 0 -69 16t-57 16q-50 0 -82 -29z" />
<glyph unicode="&#xf7f6;" horiz-adv-x="596" d="M268 684l-9 -51h-51l9 51h51zM489 684l-9 -51h-51l9 51h51zM322 495q-93 0 -154.5 -75t-61.5 -201q0 -80 46.5 -131.5t120.5 -51.5q95 0 156.5 77t61.5 200q0 77 -44 129.5t-125 52.5zM273 -10q-103 0 -163 66.5t-60 170.5q0 135 76.5 224.5t200.5 89.5q99 0 159 -65.5 t60 -165.5q0 -143 -78 -231.5t-195 -88.5z" />
<glyph unicode="&#xf7f8;" horiz-adv-x="596" d="M546 310q0 -143 -78 -231.5t-195 -88.5q-56 0 -101 20l-36 -61l-37 16l39 65q-42 30 -65 82t-23 115q0 135 76.5 225t200.5 90q57 0 101 -23l38 63l37 -16l-41 -68q84 -64 84 -188zM166 73l239 403q-35 20 -83 20q-93 0 -154.5 -75.5t-61.5 -201.5q0 -95 60 -146z M434 456l-238 -403q34 -17 77 -17q95 0 156.5 77t61.5 200q0 92 -57 143z" />
<glyph unicode="&#xf7f9;" horiz-adv-x="587" d="M367 595h-27l-90 147h66zM80 140q0 -63 46 -106.5t130 -43.5q176 0 216 209l64 333h-54l-66 -346q-12 -64 -52 -106.5t-104 -42.5q-127 0 -127 106q0 18 8 56l64 333h-54l-63 -325q-8 -46 -8 -67z" />
<glyph unicode="&#xf7fa;" horiz-adv-x="587" d="M80 140q0 -63 46 -106.5t130 -43.5q176 0 216 209l64 333h-54l-66 -346q-12 -64 -52 -106.5t-104 -42.5q-127 0 -127 106q0 18 8 56l64 333h-54l-63 -325q-8 -46 -8 -67zM338 595h-30l104 147h74z" />
<glyph unicode="&#xf7fb;" horiz-adv-x="587" d="M484 590h-27l-79 115l-124 -115h-27l119 146h77zM256 -10q-84 0 -130 43.5t-46 106.5q0 25 9 66l63 326h54l-65 -333q-8 -38 -8 -57q0 -50 32 -78t96 -28t103.5 42.5t51.5 107.5l67 346h54l-64 -333q-39 -209 -217 -209z" />
<glyph unicode="&#xf7fc;" horiz-adv-x="587" d="M284 684l-9 -51h-50l9 51h50zM505 684l-9 -51h-51l9 51h51zM256 -10q-84 0 -130 43.5t-46 106.5q0 25 9 66l63 326h54l-65 -333q-8 -38 -8 -57q0 -50 32 -78t96 -28t103.5 42.5t51.5 107.5l67 346h54l-64 -333q-39 -209 -217 -209z" />
<glyph unicode="&#xf7fd;" horiz-adv-x="382" d="M256 589h-26l109 147h66zM156 0l33 169l233 363h-58l-189 -301h-4l-75 301h-56l95 -363l-33 -169h54z" />
<glyph unicode="&#xf7fe;" horiz-adv-x="493" d="M247 384q-40 0 -70 -7l-50 -261q24 -6 79 -6q81 0 135 43t54 112q0 52 -38.5 85.5t-109.5 33.5zM218 66q-71 0 -100 8l-14 -74h-54l103 532h54l-20 -107h76q95 0 142.5 -49t47.5 -110q0 -86 -65.5 -143t-169.5 -57z" />
<glyph unicode="&#xf7ff;" horiz-adv-x="382" d="M175 686l-10 -51h-51l10 51h51zM396 686l-10 -51h-51l10 51h51zM156 0l33 169l233 363h-58l-189 -301h-4l-75 301h-56l95 -363l-33 -169h54z" />
<glyph unicode="&#xfe6b;" horiz-adv-x="694" d="M407 541q66 0 116 -18t77.5 -48t40.5 -63t13 -68q0 -94 -55 -148.5t-134 -54.5q-39 0 -60 16.5t-23 38.5h-4q-40 -54 -92 -54q-80 0 -80 89q0 68 60.5 127.5t142.5 59.5q53 0 88 -13q-54 -141 -62 -162q-15 -40 -15 -49q0 -16 14 -26t37 -10q52 0 96 54.5t44 133.5 q0 70 -54 123.5t-157 53.5q-131 0 -213.5 -91t-82.5 -209q0 -94 54 -153t155 -59q47 0 110 26l-8 -27q-45 -20 -119 -20q-108 0 -172 63.5t-64 164.5q0 52 22.5 107t64 104t110 80.5t150.5 31.5zM404 399q-55 0 -104.5 -57.5t-49.5 -114.5q0 -25 12 -41.5t35 -16.5 q32 0 61 28t47 76l45 118q-16 8 -46 8z" />
<glyph horiz-adv-x="516" d="M206 532l-103 -532h-53l103 532h53zM335 132l77 400h54q-66 -338 -76 -398q-11 -69 -57 -106.5t-115 -37.5q-48 0 -67 8l9 47q18 -9 63 -9q42 0 72.5 25t39.5 71z" />
<glyph horiz-adv-x="256" d="M104 0l103 532h-54l-103 -532h54zM236 686l-10 -51h-51l10 51h51z" />
<glyph horiz-adv-x="256" d="M104 0l103 532h-54l-103 -532h54zM311 707h29q-11 -70 -77 -96q-28 -10 -60 -10q-34 0 -58.5 11t-36.5 28.5t-17.5 34t-5.5 32.5h36q0 -14 4.5 -28t25 -29t54.5 -15q46 0 73 24t33 48z" />
<glyph horiz-adv-x="256" d="M104 0l103 532h-54l-103 -532h54zM317 667l-8 -41h-221l8 41h221z" />
<glyph horiz-adv-x="256" d="M75 0h-22l103 532h54l-104 -532q-1 -1 -11.5 -12t-19 -20.5t-20 -25.5t-20 -30.5t-14.5 -32.5t-6 -34q0 -25 16 -41t43 -16q16 0 33 7l-7 -32q-15 -9 -45 -9q-36 0 -60.5 24.5t-24.5 62.5q0 27 12 54t31 48t33.5 34t28.5 23z" />
<glyph horiz-adv-x="256" d="M99 0l103 532h-54l-103 -532h54zM47 630l-17 24q12 14 40.5 30.5t62.5 16.5q31 0 68 -16t58 -16q48 0 81 29l17 -24q-47 -47 -102 -47q-32 0 -69 16t-57 16q-50 0 -82 -29z" />
<glyph horiz-adv-x="452" d="M226 -116l9 47h-67l-13 -66h33q-8 -50 -66 -87l9 -13q46 29 66.5 53.5t28.5 65.5zM93 0h-53l140 717h52l-86 -441l247 218h72l-258 -228l199 -266h-66l-197 260z" />
<glyph horiz-adv-x="710" d="M452 595h-26l109 147h66zM613 0h-313l25 131h-217l-105 -131h-63l430 532h340l-8 -43h-253l-38 -195h234l-9 -43h-234l-40 -208h259zM334 174l60 313h-4l-248 -313h192z" />
<glyph horiz-adv-x="479" d="M350 595h-26l109 147h66zM50 232q1 132 89.5 221t221.5 89q84 0 138 -29l-10 -51q-51 34 -131 34q-102 0 -176.5 -77.5t-74.5 -184.5q0 -82 50 -140t141 -58q64 0 114 31l-10 -53q-56 -24 -114 -24q-109 0 -173.5 71t-64.5 171z" />
<glyph horiz-adv-x="479" d="M258 742h26l79 -116l125 116h26l-118 -147h-78zM50 232q1 132 89.5 221t221.5 89q84 0 138 -29l-10 -51q-51 34 -131 34q-102 0 -176.5 -77.5t-74.5 -184.5q0 -82 50 -140t141 -58q64 0 114 31l-10 -53q-56 -24 -114 -24q-109 0 -173.5 71t-64.5 171z" />
<glyph horiz-adv-x="479" d="M488 595h-27l-78 116l-125 -116h-26l118 147h77zM50 232q1 132 89.5 221t221.5 89q84 0 138 -29l-10 -51q-51 34 -131 34q-102 0 -176.5 -77.5t-74.5 -184.5q0 -82 50 -140t141 -58q64 0 114 31l-10 -53q-56 -24 -114 -24q-109 0 -173.5 71t-64.5 171z" />
<glyph horiz-adv-x="479" d="M413 684l-9 -51h-50l9 51h50zM50 232q1 132 89.5 221t221.5 89q84 0 138 -29l-10 -52q-51 34 -131 34q-102 0 -176.5 -77t-74.5 -184q0 -82 50 -140t141 -58q64 0 114 31l-10 -53q-56 -24 -114 -24q-109 0 -173.5 71t-64.5 171z" />
<glyph horiz-adv-x="588" d="M253 742h26l79 -116l125 116h26l-118 -147h-78zM198 485l-85 -437q36 -6 85 -6q135 0 208.5 74t73.5 187q0 77 -52 132.5t-160 55.5q-42 0 -70 -6zM50 0l103 532h121q70 0 123 -20.5t82.5 -55t43.5 -74t14 -83.5q0 -140 -95 -219.5t-247 -79.5h-145z" />
<glyph horiz-adv-x="588" d="M274 532q57 0 102.5 -14t75 -36.5t49.5 -53.5t28.5 -63.5t8.5 -66.5q0 -140 -95.5 -219t-246.5 -79h-146l49 251h-51l8 43h51l47 238h120zM199 41q134 0 208 74.5t74 186.5q0 77 -52 132.5t-160 55.5q-42 0 -70 -6l-38 -190h176l-8 -43h-176l-40 -204q36 -6 86 -6z" />
<glyph horiz-adv-x="460" d="M363 0l8 43h-259l40 208h234l9 43h-234l38 195h252l8 43h-306l-103 -532h313zM430 707h30q-7 -41 -40 -73.5t-97 -32.5t-91 34t-27 72h36q0 -14 4.5 -28t25 -29t54.5 -15q46 0 73 24t32 48z" />
<glyph horiz-adv-x="460" d="M219 742h26l79 -116l125 116h26l-118 -147h-78zM371 43l-8 -43h-313l103 532h306l-8 -43h-252l-38 -195h234l-9 -43h-234l-40 -208h259z" />
<glyph horiz-adv-x="460" d="M363 0l8 43h-259l40 208h234l9 43h-234l38 195h252l8 43h-306l-103 -532h313zM365 686l-10 -51h-51l10 51h51z" />
<glyph horiz-adv-x="460" d="M363 0l8 43h-259l40 208h234l9 43h-234l38 195h252l8 43h-306l-103 -532h313zM446 667l-8 -42h-221l8 42h221z" />
<glyph horiz-adv-x="460" d="M331 0h-281l103 532h307l-9 -43h-252l-38 -196h234l-9 -43h-234l-40 -207h259l-9 -43q-1 -1 -11.5 -12.5t-18.5 -20.5t-20.5 -25.5t-20.5 -31t-14 -32.5t-6 -34q0 -25 16 -41.5t43 -16.5q13 0 33 8l-7 -33q-16 -8 -45 -8q-36 0 -61 24.5t-25 62.5q0 77 106 160z" />
<glyph d="M291 -10q79 0 151 36l53 269h-181l-8 -43h126l-38 -195q-44 -22 -98 -22q-85 0 -137 57.5t-52 144.5q0 117 76 188.5t170 71.5q89 0 144 -44l11 54q-65 35 -146 35q-135 0 -223.5 -88t-88.5 -223q0 -102 63.5 -171.5t177.5 -69.5zM478 715h30q-8 -41 -41 -73.5t-97 -32.5 t-91 34t-27 72h36q0 -13 5 -27.5t25.5 -29.5t54.5 -15q46 0 73 24t32 48z" />
<glyph d="M502 595h-27l-78 116l-125 -116h-26l118 147h77zM291 -10q79 0 151 36l53 269h-181l-8 -43h126l-38 -195q-44 -22 -98 -22q-85 0 -137 57.5t-52 144.5q0 117 76 188.5t170 71.5q89 0 144 -44l11 54q-65 35 -146 35q-135 0 -223.5 -88t-88.5 -223q0 -102 63.5 -171.5 t177.5 -69.5z" />
<glyph d="M277 -116q-8 -41 -28.5 -65.5t-66.5 -53.5l-9 13q58 37 66 87h-33l13 66h67q-4 -23 -9 -47zM291 -10q-114 0 -177.5 69.5t-63.5 171.5q0 135 88.5 223t223.5 88q81 0 146 -35l-11 -54q-55 44 -144 44q-94 0 -170 -71.5t-76 -188.5q0 -87 52 -144.5t137 -57.5q54 0 98 22 l38 195h-126l8 43h181l-53 -269q-72 -36 -151 -36z" />
<glyph d="M424 686l-10 -51h-51l10 51h51zM291 -10q79 0 151 36l53 269h-181l-8 -43h126l-38 -195q-44 -22 -98 -22q-85 0 -137 57.5t-52 144.5q0 117 76 188.5t170 71.5q89 0 144 -44l11 54q-65 35 -146 35q-135 0 -223.5 -88t-88.5 -223q0 -102 63.5 -171.5t177.5 -69.5z" />
<glyph horiz-adv-x="599" d="M567 450l-8 -43h-34l-79 -407h-54l48 251h-288l-48 -251h-54l79 407h-36l8 43h36l16 82h54l-16 -82h288l16 82h54l-16 -82h34zM449 294l22 113h-288l-22 -113h288z" />
<glyph horiz-adv-x="599" d="M488 595h-27l-78 116l-125 -116h-26l118 147h77zM495 532h54l-103 -532h-54l48 250h-288l-48 -250h-54l103 532h54l-47 -239h288z" />
<glyph horiz-adv-x="315" d="M376 595h-27l-78 116l-125 -116h-26l118 147h77zM134 128l79 404h54q-68 -342 -78 -402q-11 -67 -57 -103.5t-114 -36.5q-36 0 -68 8l9 46q45 -9 63 -9q42 0 72.5 23.5t39.5 69.5z" />
<glyph horiz-adv-x="417" d="M222 -116l9 47h-67l-13 -66h33q-8 -50 -66 -87l9 -13q46 29 66.5 53.5t28.5 65.5zM383 0h-63l-164 265l-52 -265h-54l104 532h54l-51 -260l238 260h62l-241 -261z" />
<glyph horiz-adv-x="417" d="M383 0h-63l-164 265l-52 -265h-54l104 532h54l-51 -260l238 260h62l-241 -261z" />
<glyph horiz-adv-x="346" d="M258 595h-26l109 147h66zM112 43l95 489h-54l-103 -532h268l8 43h-214z" />
<glyph horiz-adv-x="346" d="M207 532l-95 -489h214l-8 -43h-268l103 532h54zM401 485q-8 -40 -28.5 -64.5t-67.5 -54.5l-9 17q60 38 67 83h-33l13 66h67q-5 -23 -9 -47z" />
<glyph horiz-adv-x="346" d="M207 532l-95 -489h214l-8 -43h-268l103 532h54zM208 -116q-8 -40 -28.5 -64.5t-67.5 -54.5l-9 17q60 38 67 83h-33l13 66h67q-5 -23 -9 -47z" />
<glyph horiz-adv-x="346" d="M362 328l-10 -51h-50l10 51h50zM207 532l-95 -489h214l-8 -43h-268l103 532h54z" />
<glyph horiz-adv-x="560" d="M517 0h-68l-258 341l-67 -341h-54l131 674h54l-63 -327l359 327h69l-362 -332zM264 -116l9 47h-67l-13 -66h33q-7 -45 -67 -83l9 -17q47 30 67.5 54.5t28.5 64.5z" />
<glyph horiz-adv-x="623" d="M387 595h-26l109 147h66zM50 0h54l88 451h4l212 -451h62l103 532h-54l-86 -443h-4l-211 443h-64z" />
<glyph horiz-adv-x="623" d="M292 742h26l79 -116l125 116h26l-118 -147h-78zM104 0h-54l104 532h64l211 -443h4l86 443h54l-103 -532h-62l-212 451h-4z" />
<glyph horiz-adv-x="623" d="M104 0h-54l104 532h64l211 -443h4l86 443h54l-103 -532h-62l-212 451h-4zM266 -116q-8 -40 -28.5 -64.5t-67.5 -54.5l-9 17q60 38 67 83h-33l13 66h67q-5 -23 -9 -47z" />
<glyph horiz-adv-x="596" d="M322 496q-93 0 -154.5 -75.5t-61.5 -201.5q0 -80 46.5 -131.5t120.5 -51.5q95 0 156.5 77t61.5 200q0 77 -44 130t-125 53zM273 -10q-103 0 -163 66.5t-60 170.5q0 135 76.5 225t200.5 90q99 0 159 -66t60 -166q0 -143 -78 -231.5t-195 -88.5zM444 714h29 q-7 -41 -40 -73.5t-97 -32.5q-34 0 -58.5 11t-36.5 28.5t-17.5 34t-5.5 32.5h36q0 -14 4.5 -28t25 -29t54.5 -15q46 0 73.5 24t32.5 48z" />
<glyph horiz-adv-x="605" d="M406 595h-27l109 147h67zM284 595h-26l109 147h66zM321 496q-92 0 -154 -75.5t-62 -201.5q0 -79 46.5 -131t121.5 -52q95 0 156.5 77.5t61.5 200.5q0 76 -44.5 129t-125.5 53zM273 -10q-103 0 -163 66.5t-60 170.5q0 136 76 225.5t201 89.5q99 0 159 -66t60 -165 q0 -144 -78 -232.5t-195 -88.5z" />
<glyph horiz-adv-x="596" d="M322 496q-93 0 -154.5 -75.5t-61.5 -201.5q0 -79 46.5 -131t120.5 -52q95 0 156.5 77.5t61.5 200.5q0 76 -44 129t-125 53zM273 -10q-103 0 -163 66.5t-60 170.5q0 136 76 225.5t201 89.5q99 0 159 -66t60 -165q0 -144 -78 -232.5t-195 -88.5zM449 685l-8 -41h-221l8 41 h221z" />
<glyph horiz-adv-x="596" d="M546 310q0 124 -84 188l41 68l-37 16l-38 -63q-44 23 -101 23q-124 0 -200.5 -90t-76.5 -225q0 -63 23 -115t65 -82l-39 -62l37 -16l36 58q45 -20 101 -20q117 0 195 88.5t78 231.5zM166 73q-60 51 -60 146q0 126 61.5 201.5t154.5 75.5q48 0 83 -20zM434 456 q57 -51 57 -143q0 -123 -61.5 -200t-156.5 -77q-43 0 -77 17zM345 595h-30l104 146h74z" />
<glyph horiz-adv-x="509" d="M301 595h-26l109 147h66zM273 490q-39 0 -75 -6l-42 -217q54 -6 90 -6q82 0 129 35t47 89q0 45 -36 75t-113 30zM288 220h-141l-43 -220h-54l104 532h131q93 0 143.5 -41.5t50.5 -105.5q0 -35 -13 -63.5t-29 -44.5t-38.5 -28.5t-33.5 -16t-22 -6.5l76 -226h-56z" />
<glyph horiz-adv-x="509" d="M208 742h26l79 -116l125 116h26l-118 -147h-78zM273 490q-39 0 -75 -6l-42 -217q54 -6 90 -6q82 0 129 35t47 89q0 45 -36 75t-113 30zM288 220h-141l-43 -220h-54l104 532h131q93 0 143.5 -41.5t50.5 -105.5q0 -35 -13 -63.5t-29 -44.5t-38.5 -28.5t-33.5 -16t-22 -6.5 l76 -226h-56z" />
<glyph horiz-adv-x="509" d="M238 -116l9 47h-67l-13 -66h33q-7 -45 -67 -83l9 -17q47 30 67.5 54.5t28.5 64.5zM273 490q-39 0 -75 -6l-42 -217q54 -6 90 -6q82 0 129 35t47 89q0 45 -36 75t-113 30zM288 220h-141l-43 -220h-54l104 532h131q93 0 143.5 -41.5t50.5 -105.5q0 -35 -13 -63.5t-29 -44.5 t-38.5 -28.5t-33.5 -16t-22 -6.5l76 -226h-56z" />
<glyph horiz-adv-x="509" d="M273 490q-39 0 -75 -6l-42 -217q54 -6 90 -6q82 0 129 35t47 89q0 45 -36 75t-113 30zM288 220h-141l-43 -220h-54l104 532h131q93 0 143.5 -41.5t50.5 -105.5q0 -35 -13 -63.5t-29 -44.5t-38.5 -28.5t-33.5 -16t-22 -6.5l76 -226h-56z" />
<glyph horiz-adv-x="509" d="M283 595h-26l109 147h66zM273 490q-39 0 -75 -6l-42 -217q54 -6 90 -6q82 0 129 35t47 89q0 45 -36 75t-113 30zM288 220h-141l-43 -220h-54l104 532h131q93 0 143.5 -41.5t50.5 -105.5q0 -35 -13 -63.5t-29 -44.5t-38.5 -28.5t-33.5 -16t-22 -6.5l76 -226h-56z" />
<glyph horiz-adv-x="509" d="M207 742h26l79 -116l125 116h26l-118 -147h-78zM273 490q-39 0 -75 -6l-42 -217q54 -6 90 -6q82 0 129 35t47 89q0 45 -36 75t-113 30zM288 220h-141l-43 -220h-54l104 532h131q93 0 143.5 -41.5t50.5 -105.5q0 -35 -13 -63.5t-29 -44.5t-38.5 -28.5t-33.5 -16t-22 -6.5 l76 -226h-56z" />
<glyph horiz-adv-x="509" d="M231 -116l9 47h-67l-13 -66h33q-7 -45 -67 -83l9 -17q47 30 67.5 54.5t28.5 64.5zM273 490q-39 0 -75 -6l-42 -217q54 -6 90 -6q82 0 129 35t47 89q0 45 -36 75t-113 30zM288 220h-141l-43 -220h-54l104 532h131q93 0 143.5 -41.5t50.5 -105.5q0 -35 -13 -63.5t-29 -44.5 t-38.5 -28.5t-33.5 -16t-22 -6.5l76 -226h-56z" />
<glyph horiz-adv-x="433" d="M263 595h-26l109 147h66zM413 517l-10 -51q-68 29 -133 29q-58 0 -95 -28.5t-37 -73.5q0 -19 5.5 -33.5t19 -25.5t24 -17t32.5 -16l35 -17q106 -50 106 -135q0 -72 -60 -115.5t-163 -43.5q-77 0 -137 22l10 52q50 -28 135 -28q73 0 114.5 32.5t41.5 74.5q0 37 -23.5 59.5 t-65.5 41.5l-31 14q-101 46 -101 131q0 68 51.5 110t136.5 42q92 0 145 -24z" />
<glyph horiz-adv-x="433" d="M269 495q-57 0 -94 -28.5t-37 -73.5q0 -19 5.5 -33.5t19 -25.5t24 -17t32.5 -16l35 -17q106 -50 106 -135q0 -69 -55 -112t-149 -47l-38 -51q6 2 19 2q29 0 49.5 -17.5t20.5 -49.5q0 -54 -49 -86t-110 -35l-12 19q127 25 127 96q0 22 -16 35.5t-44 13.5q-12 0 -20 -2 l34 75q-70 3 -117 22l10 52q50 -28 135 -28q72 0 114 32.5t42 73.5q0 37 -23.5 60t-66.5 42l-31 14q-100 46 -100 131q0 67 51.5 109.5t135.5 42.5q93 0 146 -24l-10 -52q-60 30 -134 30z" />
<glyph horiz-adv-x="433" d="M423 589h-26l-79 116l-124 -116h-27l119 147h77zM413 517l-10 -51q-68 29 -133 29q-58 0 -95 -28.5t-37 -73.5q0 -19 5.5 -33.5t19 -25.5t24 -17t32.5 -16l35 -17q106 -50 106 -135q0 -72 -60 -115.5t-163 -43.5q-77 0 -137 22l10 52q50 -28 135 -28q73 0 114.5 32.5 t41.5 74.5q0 37 -23.5 59.5t-65.5 41.5l-31 14q-101 46 -101 131q0 68 51.5 110t136.5 42q92 0 145 -24z" />
<glyph horiz-adv-x="433" d="M413 517l-10 -51q-68 29 -133 29q-58 0 -95 -28.5t-37 -73.5q0 -19 5.5 -33.5t19 -25.5t24 -17t32.5 -16l35 -17q106 -50 106 -135q0 -72 -60 -115.5t-163 -43.5q-77 0 -137 22l10 52q50 -28 135 -28q73 0 114.5 32.5t41.5 74.5q0 37 -23.5 59.5t-65.5 41.5l-31 14 q-101 46 -101 131q0 68 51.5 110t136.5 42q92 0 145 -24zM167 -116l9 47h-67l-13 -66h33q-7 -45 -67 -83l9 -17q47 30 67.5 54.5t28.5 64.5z" />
<glyph horiz-adv-x="397" d="M171 742h26l79 -116l125 116h26l-118 -147h-78zM177 0h-54l95 489h-168l8 43h390l-8 -43h-168z" />
<glyph horiz-adv-x="397" d="M473 489h-161l-38 -195h161l-9 -43h-161l-48 -251h-54l48 251h-161l9 43h161l38 195h-162l8 43h377z" />
<glyph horiz-adv-x="397" d="M177 0h-54l95 489h-168l8 43h390l-8 -43h-168zM166 -116q-8 -40 -28.5 -64.5t-67.5 -54.5l-9 17q60 38 67 83h-33l13 66h67q-5 -23 -9 -47z" />
<glyph horiz-adv-x="587" d="M80 143q0 -63 46 -108t130 -45q176 0 216 212l64 330h-54l-66 -343q-12 -65 -52 -108.5t-104 -43.5t-95.5 29t-31.5 80q0 18 8 56l64 330h-54l-63 -322q-8 -46 -8 -67zM473 707h30q-7 -41 -40 -73.5t-97 -32.5t-91 34t-27 72h36q0 -14 4.5 -28t25 -29t54.5 -15 q46 0 73 24t32 48z" />
<glyph horiz-adv-x="587" d="M420 595h-26l109 147h66zM294 595h-26l109 147h66zM80 143q0 -63 46 -108t130 -45q176 0 216 212l64 330h-54l-66 -343q-12 -65 -52 -108.5t-104 -43.5t-95.5 29t-31.5 80q0 18 8 56l64 330h-54l-63 -322q-8 -46 -8 -67z" />
<glyph horiz-adv-x="587" d="M480 665l-8 -41h-221l8 41h221zM80 143q0 -63 46 -108t130 -45q176 0 216 212l64 330h-54l-66 -343q-12 -65 -52 -108.5t-104 -43.5t-95.5 29t-31.5 80q0 18 8 56l64 330h-54l-63 -322q-8 -46 -8 -67z" />
<glyph horiz-adv-x="587" d="M482 532h54l-64 -332q-38 -201 -200 -210q-84 -88 -84 -146q0 -25 16 -41t43 -16q18 0 32 7l-6 -32q-18 -9 -45 -9q-36 0 -61 25t-25 63q0 70 97 149q-76 4 -117.5 47.5t-41.5 103.5q0 20 8 66l63 325h54l-64 -332q-8 -38 -8 -57q0 -50 31.5 -78.5t95.5 -28.5t104 43.5 t52 107.5z" />
<glyph horiz-adv-x="587" d="M80 143q0 21 8 67l63 322h54l-64 -330q-8 -38 -8 -56q0 -51 31.5 -80t95.5 -29t104 43.5t52 108.5l66 343h54l-64 -330q-40 -212 -216 -212q-84 0 -130 45t-46 108zM353 549q-40 0 -66.5 25t-26.5 66q0 44 31 73.5t76 29.5q43 0 68.5 -26t25.5 -64q0 -46 -31.5 -75 t-76.5 -29zM365 713q-28 0 -50.5 -21t-22.5 -52q0 -27 18 -44t45 -17q29 0 51.5 21t22.5 53q0 25 -17.5 42.5t-46.5 17.5z" />
<glyph horiz-adv-x="587" d="M80 143q0 -63 46 -108t130 -45q176 0 216 212l64 330h-54l-66 -343q-12 -65 -52 -108.5t-104 -43.5t-95.5 29t-31.5 80q0 18 8 56l64 330h-54l-63 -322q-8 -46 -8 -67zM239 634l-17 24q7 8 18.5 17t36 19.5t48.5 10.5q31 0 68 -16t57 -16q50 0 82 28l17 -23 q-45 -47 -102 -47q-32 0 -69 15.5t-58 15.5q-50 0 -81 -28z" />
<glyph horiz-adv-x="684" d="M413 595h-26l109 147h66zM70 532l27 -532h84l190 460h6l22 -460h86l219 532h-59l-189 -467h-6l-19 467h-83l-193 -467h-6l-20 467h-59z" />
<glyph horiz-adv-x="684" d="M530 595h-27l-78 116l-125 -116h-26l118 147h77zM97 0l-27 532h59l20 -467h6l193 467h83l19 -467h6l189 467h59l-219 -532h-86l-22 460h-6l-190 -460h-84z" />
<glyph horiz-adv-x="684" d="M341 686l-10 -51h-51l10 51h51zM561 686l-10 -51h-50l10 51h50zM70 532l27 -532h84l190 460h6l22 -460h86l219 532h-59l-189 -467h-6l-19 467h-83l-193 -467h-6l-20 467h-59z" />
<glyph horiz-adv-x="684" d="M437 595h-27l-91 147h66zM70 532l27 -532h84l190 460h6l22 -460h86l219 532h-59l-189 -467h-6l-19 467h-83l-193 -467h-6l-20 467h-59z" />
<glyph horiz-adv-x="382" d="M373 595h-27l-78 116l-125 -116h-26l118 147h77zM189 169l-33 -169h-54l33 169l-95 363h56l75 -301h4l189 301h58z" />
<glyph horiz-adv-x="382" d="M283 595h-26l-91 147h66zM156 0l33 169l233 363h-58l-189 -301h-4l-75 301h-56l95 -363l-33 -169h54z" />
<glyph horiz-adv-x="430" d="M277 595h-26l109 147h66zM-20 0l9 48l390 441h-298l8 43h361l-9 -46l-391 -443h312l-8 -43h-374z" />
<glyph horiz-adv-x="430" d="M-11 48l-9 -48h375l8 43h-312l391 443l9 46h-362l-8 -43h299zM327 686l-10 -51h-50l10 51h50z" />
<glyph horiz-adv-x="459" d="M-40 0h59l71 132h254l21 -132h53l-88 532h-73zM286 487l51 -312h-223l168 312h4zM419 707h30q-7 -41 -40 -73.5t-97 -32.5t-91 34t-27 72h36q0 -14 4.5 -28t25 -29t54.5 -15q46 0 73 24t32 48z" />
<glyph horiz-adv-x="459" d="M330 532l88 -532q-1 -1 -11.5 -12t-18.5 -20.5t-20.5 -26t-20.5 -31t-14 -32.5t-6 -34q0 -25 16 -41t43 -16q16 0 33 7l-7 -32q-18 -9 -45 -9q-36 0 -61 24.5t-25 62.5q0 77 106 160h-22l-21 131h-254l-71 -131h-59l297 532h73zM337 174l-51 313h-4l-168 -313h223z" />
<glyph horiz-adv-x="459" d="M426 667l-8 -42h-221l8 42h221zM-40 0h59l71 132h254l21 -132h53l-88 532h-73zM286 487l51 -312h-223l168 312h4z" />
<glyph horiz-adv-x="273" d="M8 0h-48l305 532h48z" />
<glyph horiz-adv-x="705" d="M144 485q-8 -41 -28.5 -65.5t-66.5 -53.5l-9 13q58 37 66 87h-33l13 66h67q-5 -23 -9 -47zM186 0h-54l104 532h64l211 -443h4l86 443h54l-103 -532h-62l-212 451h-4z" />
<glyph horiz-adv-x="270" d="M187 422q7 41 27.5 65.5t67.5 53.5l8 -13q-58 -38 -66 -87h33l-13 -66h-67q5 23 10 47zM60 375q5 23 10 47q7 41 27.5 65.5t67.5 53.5l8 -13q-58 -38 -66 -87h33l-13 -66h-67z" />
<glyph horiz-adv-x="250" d="M144 485q-8 -41 -28.5 -65.5t-66.5 -53.5l-9 13q58 37 66 87h-33l13 66h67q-5 -23 -9 -47zM270 532q-5 -23 -9 -47q-8 -41 -28.5 -65.5t-66.5 -53.5l-9 13q58 37 66 87h-33l13 66h67z" />
<glyph horiz-adv-x="152" d="M69 423q8 41 28.5 65.5t66.5 53.5l8 -13q-58 -38 -66 -87h33l-12 -66h-67q4 23 9 47z" />
<glyph horiz-adv-x="133" d="M153 532q-5 -23 -9 -47q-8 -41 -28.5 -65.5t-66.5 -53.5l-9 13q58 37 66 87h-33l13 66h67z" />
<glyph horiz-adv-x="113" d="M60 363l21 169h52l-48 -169h-25z" />
<glyph horiz-adv-x="239" d="M60 363l21 169h52l-48 -169h-25zM186 363l21 169h52l-48 -169h-25z" />
</font>
</defs>
</svg>
