<?xml version="1.0" standalone="no"?>
<!DOCTYPE svg PUBLIC "-//W3C//DTD SVG 1.1//EN" "http://www.w3.org/Graphics/SVG/1.1/DTD/svg11.dtd" >
<svg xmlns="http://www.w3.org/2000/svg">
<metadata></metadata>
<defs>
<font id="americansans_mediumitalic" horiz-adv-x="555" >
<font-face units-per-em="1000" ascent="750" descent="-250" />
<missing-glyph horiz-adv-x="250" />
<glyph unicode="ff" horiz-adv-x="649" d="M434 409h-208l-79 -409h-112q46 241 79 409h-69l17 85h69l5 29q40 204 241 204q47 0 77 -11l-18 -73q-3 -14 -15 -14l-19 4q-18 4 -39 4q-92 0 -113 -105l-7 -38h208l5 29q40 204 241 204q47 0 77 -11l-18 -73q-4 -14 -15 -14l-19 4q-18 4 -39 4q-92 0 -113 -105l-7 -38 h119l-17 -85h-119l-79 -409h-112q46 241 79 409z" />
<glyph unicode="fi" d="M243 494h292l-96 -494h-112l79 409h-180l-79 -409h-112q46 241 79 409h-69l17 85h69q2 12 4 23q18 109 86.5 159.5t187.5 50.5q30 0 68 -7t49 -11l-21 -73q-3 -13 -14 -13q-3 0 -38 7t-62 7q-70 0 -102 -31t-42 -89z" />
<glyph unicode="fl" d="M575 696l-136 -696h-112l122 628q-25 10 -65 10q-53 0 -88.5 -26t-43.5 -71l-9 -47h101l-17 -85h-101l-79 -409h-112q46 241 79 409h-70l17 85h70l7 38q38 196 269 196q83 0 168 -32z" />
<glyph unicode="ffi" horiz-adv-x="876" d="M564 494h292l-96 -494h-112l80 409h-181l-79 -409h-113q47 241 80 409h-208l-80 -409h-112q47 241 80 409h-69l17 85h69q0 2 1.5 10t2.5 14q4 27 12 51.5t25.5 54.5t42 51.5t66 36.5t92.5 15q41 0 81 -11l-17 -70q-4 -17 -16 -17l-19 4q-19 4 -39 4q-94 0 -113 -106 q-1 -3 -3 -14.5t-4 -22.5h208l6 33q20 105 88 152.5t184 47.5q30 0 68.5 -6.5t48.5 -11.5l-21 -73q-3 -13 -13 -13q-6 0 -40 7t-60 7q-68 0 -100.5 -29t-42.5 -80q0 -2 -2 -12.5t-4 -21.5z" />
<glyph unicode="ffl" horiz-adv-x="876" d="M722 727q37 0 79.5 -7.5t65 -14t29.5 -9.5l-136 -696h-112l122 628q-32 9 -62 9q-56 0 -90.5 -25t-44.5 -71q-1 -7 -4 -22l-5 -25h101l-17 -85h-101l-79 -409h-113l80 409h-208l-80 -409h-112q47 241 80 409h-69l17 85h69q0 2 1.5 10.5t2.5 14.5q40 208 242 208 q47 0 77 -11l-18 -74q-4 -13 -13 -13q-2 0 -21 4t-39 4q-97 0 -113 -106q-1 -3 -3 -14.5t-4 -22.5h208q2 8 4 21t3 17q38 195 263 195z" />
<glyph unicode="&#xd;" horiz-adv-x="360" />
<glyph unicode=" "  horiz-adv-x="250" />
<glyph unicode="&#x09;" horiz-adv-x="250" />
<glyph unicode="&#xa0;" horiz-adv-x="250" />
<glyph unicode="!" horiz-adv-x="306" d="M183 197h-92l83 477h112zM40 0l22 114h116l-22 -114h-116z" />
<glyph unicode="&#x22;" horiz-adv-x="336" d="M229 461l16 213h111l-68 -213h-59zM80 461l16 213h111l-68 -213h-59z" />
<glyph unicode="#" horiz-adv-x="651" d="M615 431h-119l-50 -168h110l-16 -79h-119l-54 -184h-92l55 184h-105l-55 -184h-91l54 184h-113l16 79h122l50 168h-111l16 79h119l50 164h91l-49 -164h105l49 164h92l-50 -164h111zM354 263l50 168h-105l-49 -168h104z" />
<glyph unicode="$" horiz-adv-x="564" d="M378 587q-64 0 -103.5 -28t-39.5 -71q0 -50 62 -78l45 -21q139 -63 139 -186q0 -66 -49 -125t-148 -79l-20 -105h-93l18 96q-104 0 -149 15l27 105q54 -25 134 -25q68 0 111.5 31t43.5 72q0 55 -80 91l-36 17q-131 58 -131 173q0 84 58 139t157 70l15 84h94l-15 -79 q65 -1 106 -13l-25 -100q-51 17 -121 17z" />
<glyph unicode="%" horiz-adv-x="833" d="M629 674l-534 -675h93l534 675h-93zM80 492q0 93 52 147t135 54q67 0 106.5 -39t39.5 -100q0 -89 -50.5 -144t-136.5 -55q-66 0 -106 38.5t-40 98.5zM260 617q-37 0 -62 -33.5t-25 -84.5q0 -30 16 -49t43 -19q38 0 62.5 34t24.5 84q0 30 -15.5 49t-43.5 19zM420 126 q0 93 52 147t136 54q66 0 105.5 -39t39.5 -99q0 -89 -50.5 -144t-136.5 -55q-65 0 -105.5 38t-40.5 98zM600 252q-36 0 -61 -33.5t-25 -85.5q0 -31 15.5 -49.5t42.5 -18.5q38 0 63 34t25 84q0 30 -16 49.5t-44 19.5z" />
<glyph unicode="&#x26;" horiz-adv-x="726" d="M319 684q76 0 117.5 -40t41.5 -88q0 -107 -144 -189q19 -26 66 -77t77 -79q23 29 35.5 46.5t31 56t25.5 77.5h107q-15 -76 -50.5 -141t-75.5 -108l97 -83l-93 -71q-68 61 -91 81q-101 -79 -247 -79q-90 0 -143 47t-53 125q0 34 14 66.5t31 53t45.5 43t41.5 30.5t34 20 q-51 77 -51 148q0 70 49.5 115.5t134.5 45.5zM374 542q0 22 -14 39t-43 17q-30 0 -51 -19.5t-21 -53.5q0 -39 36 -89q3 2 18.5 12.5t21.5 15t19 15t18.5 19t10.5 20.5t5 24zM242 302q-107 -54 -107 -126q0 -40 29 -68.5t80 -28.5q75 0 145 55q-31 30 -80 85t-67 83z" />
<glyph unicode="'" horiz-adv-x="186" d="M80 461l16 213h110l-68 -213h-58z" />
<glyph unicode="(" horiz-adv-x="345" d="M273 674h92q-46 -66 -87 -145t-77.5 -203t-36.5 -239q0 -102 17 -189t38 -129h-87q-27 49 -49.5 133.5t-22.5 189.5q0 94 21 186.5t56 167.5t67.5 128.5t68.5 99.5z" />
<glyph unicode=")" horiz-adv-x="365" d="M51 -231h-91q33 47 64 104.5t63.5 135t52.5 170t20 182.5q0 101 -17 186t-37 127h86q73 -135 73 -316q0 -97 -21 -191t-56 -169.5t-68 -129t-69 -99.5z" />
<glyph unicode="*" horiz-adv-x="374" d="M374 548l-104 -20l55 -74l-65 -41l-34 89l-65 -89l-49 42l84 75l-96 19l34 67l86 -42l7 100h70l-31 -102l100 44z" />
<glyph unicode="+" horiz-adv-x="659" d="M388 288h201l-17 -88h-201l-39 -203h-109l39 203h-202l17 88h202l40 203h109z" />
<glyph unicode="," horiz-adv-x="246" d="M28 0l22 114h116l-19 -96q-10 -53 -44.5 -90.5t-77.5 -56.5l-15 22q62 36 73 107h-55z" />
<glyph unicode="-" horiz-adv-x="436" d="M336 288l-16 -87h-240l16 87h240z" />
<glyph unicode="." horiz-adv-x="228" d="M10 0l22 114h116l-22 -114h-116z" />
<glyph unicode="/" horiz-adv-x="393" d="M65 0h-105l388 674h105z" />
<glyph unicode="0" horiz-adv-x="625" d="M358 685q62 0 107 -23t67.5 -62t32.5 -81t10 -90q0 -122 -32.5 -219.5t-103.5 -158.5t-171 -61q-61 0 -105 21t-68 58.5t-34.5 82t-10.5 97.5q0 123 34 220t105 156.5t169 59.5zM269 87q79 0 135.5 101.5t56.5 254.5q0 60 -26.5 102.5t-81.5 42.5q-80 0 -135 -103.5 t-55 -248.5q0 -65 27 -107t79 -42z" />
<glyph unicode="1" horiz-adv-x="342" d="M180 0h-113l107 553q-23 -13 -62.5 -25t-71.5 -15v88q54 6 107 30t78 53h87z" />
<glyph unicode="2" horiz-adv-x="456" d="M-33 89q148 139 174 164q163 157 163 244q0 40 -28 65.5t-77 25.5q-47 0 -120 -40l1 97q93 40 159 40q92 0 139.5 -49.5t47.5 -120.5q0 -72 -44 -136.5t-124 -141.5l-146 -145h255l-18 -92h-399z" />
<glyph unicode="3" horiz-adv-x="439" d="M84 655q79 30 147 30q85 0 131.5 -45t46.5 -113q0 -36 -13.5 -66.5t-31.5 -48.5t-41 -32t-37.5 -19t-25.5 -8v-4q9 -3 23.5 -13t33 -28t31.5 -48.5t13 -65.5q0 -98 -80 -151t-209 -53q-30 0 -102 9l13 97q42 -9 87 -9q72 0 124 29.5t52 88.5q0 45 -35 73.5t-102 28.5h-35 l16 81h31q68 0 119.5 32.5t51.5 86.5q0 36 -25.5 62t-80.5 26q-49 0 -101 -26z" />
<glyph unicode="4" horiz-adv-x="596" d="M337 261l61 312h-5l-245 -312h189zM319 169h-279v96l334 409h156l-81 -413h107l-18 -92h-106l-33 -169h-113z" />
<glyph unicode="5" horiz-adv-x="496" d="M232 582l-33 -167q24 4 40 4q87 0 137 -53t50 -130q0 -111 -85.5 -179t-221.5 -68q-65 0 -109 11l15 95q45 -9 101 -9q76 0 129.5 40t53.5 100q0 48 -38 79.5t-113 31.5q-41 0 -88 -10l67 347h349l-18 -92h-236z" />
<glyph unicode="6" horiz-adv-x="593" d="M310 335q-67 0 -104 -45.5t-37 -99.5q0 -48 30 -79.5t81 -31.5q61 0 99.5 44t38.5 99q0 48 -29.5 80.5t-78.5 32.5zM331 429q95 0 148 -60t53 -133q0 -97 -67 -171.5t-186 -74.5q-112 0 -170.5 67t-58.5 166q0 94 24 172t64.5 131t94.5 89.5t112.5 53t119.5 16.5 q50 0 98 -13l-29 -94q-37 10 -71 10q-54 0 -99.5 -17t-73.5 -40t-50 -54.5t-31.5 -51.5t-15.5 -39l3 -1q59 44 135 44z" />
<glyph unicode="7" horiz-adv-x="422" d="M10 0q39 101 132 277t176 305h-291l18 92h407l-18 -91q-73 -110 -165.5 -288t-138.5 -295h-120z" />
<glyph unicode="8" horiz-adv-x="597" d="M312 403q16 6 32.5 14t41.5 24t40.5 38t15.5 46q0 29 -26.5 49.5t-69.5 20.5q-49 0 -81.5 -24t-32.5 -64q0 -53 80 -104zM271 86q51 0 84 26t33 64q0 64 -95 120q-1 -1 -15.5 -7.5t-21 -10t-22 -12t-24 -15t-20 -17t-18 -20t-11.5 -22t-5 -25.5q0 -35 34 -58t81 -23z M40 153q0 36 13.5 67.5t32 51.5t44 37t41 24t32.5 13q-15 13 -20 17t-20.5 20.5t-22 29.5t-13.5 34.5t-7 45.5q0 82 60 137t174 55q106 0 154.5 -45t48.5 -103q0 -117 -154 -184q99 -64 99 -153q0 -91 -71 -150.5t-183 -59.5q-98 0 -153 45.5t-55 117.5z" />
<glyph unicode="9" horiz-adv-x="602" d="M292 340q68 0 104.5 45.5t36.5 99.5q0 49 -30 80t-81 31q-61 0 -99.5 -44t-38.5 -99q0 -47 29.5 -80t78.5 -33zM272 246q-96 0 -148.5 60t-52.5 133q0 61 26.5 115.5t86 92.5t139.5 38q113 0 171 -66.5t58 -166.5q0 -94 -24 -172t-64.5 -131t-94.5 -89.5t-112 -53 t-119 -16.5q-55 0 -98 13l29 94q33 -10 70 -10q54 0 99.5 17t73.5 40.5t50.5 54t31.5 51.5t15 39l-2 1q-64 -44 -135 -44z" />
<glyph unicode=":" horiz-adv-x="303" d="M85 284l22 114h116l-22 -114h-116zM30 0l22 114h116l-22 -114h-116z" />
<glyph unicode=";" horiz-adv-x="321" d="M103 284l22 114h116l-22 -114h-116zM48 0l22 114h116l-19 -96q-10 -53 -45 -90.5t-78 -56.5l-14 22q62 36 73 107h-55z" />
<glyph unicode="&#x3c;" horiz-adv-x="527" d="M487 462l-291 -216l205 -221l-82 -70l-259 292l371 288z" />
<glyph unicode="=" horiz-adv-x="635" d="M585 380l-17 -87h-494l17 87h494zM551 201l-17 -87h-494l17 87h494z" />
<glyph unicode="&#x3e;" horiz-adv-x="509" d="M311 246l-207 216l83 73l262 -288l-374 -292l-55 70z" />
<glyph unicode="?" horiz-adv-x="394" d="M62 567l28 99q48 19 115 19q92 0 140.5 -45.5t48.5 -100.5q0 -20 -3.5 -37.5t-12.5 -34t-14.5 -27t-22 -26.5t-21.5 -21t-24.5 -21.5t-21.5 -18.5q-39 -33 -58 -62t-26 -66l-5 -26h-111q3 16 6 31q10 49 30 87t33.5 52t36.5 33q5 4 22 17t25.5 21t20.5 21t17.5 26t5.5 28 q0 26 -27.5 49.5t-82.5 23.5q-52 0 -99 -21zM40 0l22 114h116l-22 -114h-116z" />
<glyph unicode="@" horiz-adv-x="836" d="M503 685q139 0 216 -70t77 -170q0 -116 -72 -192t-168 -76q-43 0 -63 18t-20 45q0 6 2 16h-3q-46 -78 -121 -78q-45 0 -74.5 29t-29.5 77q0 54 28.5 108.5t89.5 95t139 40.5q74 0 116 -14q-69 -182 -79 -209q-16 -42 -16 -57q0 -31 34 -31q49 0 97 68.5t48 165.5 q0 82 -50.5 138.5t-150.5 56.5q-158 0 -255 -112t-97 -265q0 -101 65 -168t172 -67q56 0 135 43l-22 -59q-61 -28 -138 -28q-121 0 -212 77.5t-91 199.5q0 98 37 179t99 132.5t141 79t166 27.5zM483 458q-62 0 -105 -55t-43 -107q0 -24 14.5 -41t35.5 -17q53 0 93 106 l41 107q-14 7 -36 7z" />
<glyph unicode="A" horiz-adv-x="623" d="M-70 0l387 674h136l120 -674h-124l-24 152h-285l-83 -152h-127zM362 551h-4l-168 -308h220z" />
<glyph unicode="B" horiz-adv-x="592" d="M161 674h226q103 0 149 -47t46 -110q0 -41 -19 -74t-46 -50.5t-47.5 -27t-32.5 -11.5l-1 -4q32 -7 66.5 -41.5t34.5 -97.5q0 -87 -78.5 -149t-205.5 -62h-223zM225 391h74q71 0 115 34t44 84q0 37 -30.5 60.5t-89.5 23.5q-43 0 -75 -4zM166 92q33 -7 75 -7q76 0 124.5 38 t48.5 89q0 42 -34 69t-102 27h-70z" />
<glyph unicode="C" horiz-adv-x="576" d="M616 656l-33 -101q-68 32 -143 32q-105 0 -188 -84t-83 -211q0 -84 55.5 -145t141.5 -61q64 0 132 34l-6 -101q-62 -29 -136 -29q-134 0 -225 80t-91 212q0 184 113.5 293t300.5 109q99 0 162 -28z" />
<glyph unicode="D" horiz-adv-x="703" d="M161 674h198q147 0 225.5 -80t78.5 -208q0 -75 -25.5 -143t-74 -123t-127 -87.5t-176.5 -32.5h-230zM167 91q20 -4 75 -4q123 0 210 80.5t87 221.5q0 90 -54.5 144t-145.5 54q-47 0 -77 -6z" />
<glyph unicode="E" horiz-adv-x="505" d="M30 0l131 674h364l-18 -92h-245l-37 -190h232l-18 -92h-232l-41 -208h247l-17 -92h-366z" />
<glyph unicode="F" horiz-adv-x="495" d="M30 0l131 674h364l-18 -92h-245l-37 -190h231l-18 -92h-231l-58 -300h-119z" />
<glyph unicode="G" horiz-adv-x="686" d="M656 656l-34 -102q-6 4 -27 11t-62.5 14.5t-83.5 7.5q-67 0 -130 -32.5t-107 -101.5t-44 -160q0 -87 55 -146.5t141 -59.5q49 0 92 13l30 156h-119l18 92h238l-62 -319q-22 -12 -75.5 -25.5t-118.5 -13.5q-156 0 -241.5 85.5t-85.5 217.5q0 164 119 277.5t296 113.5 q129 0 201 -28z" />
<glyph unicode="H" horiz-adv-x="727" d="M578 674h119l-131 -674h-119l58 300h-298l-58 -300h-119l131 674h119l-55 -282h298z" />
<glyph unicode="I" horiz-adv-x="310" d="M30 0l131 674h119l-131 -674h-119z" />
<glyph unicode="J" horiz-adv-x="367" d="M122 178l96 496h119q-80 -409 -95 -485q-18 -94 -68 -146.5t-148 -52.5q-41 0 -86 10l19 98q27 -11 60 -11q84 0 103 91z" />
<glyph unicode="K" horiz-adv-x="589" d="M538 0h-145l-181 330l-64 -330h-118l131 674h118l-61 -312l306 312h135l-321 -325z" />
<glyph unicode="L" horiz-adv-x="461" d="M280 674l-114 -582h245l-17 -92h-364l131 674h119z" />
<glyph unicode="M" horiz-adv-x="859" d="M76 0h-106l221 674h134l63 -526l270 526h141l-30 -674h-110l29 522h-4l-263 -522h-118l-60 522h-4z" />
<glyph unicode="N" horiz-adv-x="736" d="M136 0h-106l131 674h151l183 -516h4l101 516h106l-131 -674h-147l-186 525h-4z" />
<glyph unicode="O" horiz-adv-x="745" d="M417 684q128 0 208 -80.5t80 -199.5q0 -188 -105 -301t-273 -113q-127 0 -207 80t-80 203q0 184 107.5 297.5t269.5 113.5zM167 277q0 -83 46 -136.5t126 -53.5q101 0 170 86.5t69 223.5q0 85 -46.5 137.5t-127.5 52.5q-100 0 -168.5 -87.5t-68.5 -222.5z" />
<glyph unicode="P" horiz-adv-x="574" d="M214 338q14 -2 50 -2q86 0 131 44.5t45 102.5q0 48 -32.5 77t-94.5 29q-41 0 -51 -2zM270 247q-55 0 -73 4l-49 -251h-118l131 674h159q116 0 180 -53.5t64 -134.5q0 -102 -75.5 -170.5t-218.5 -68.5z" />
<glyph unicode="Q" horiz-adv-x="745" d="M705 404q0 -160 -77 -266.5t-206 -136.5l12 -116h-119l-10 106q-119 7 -192 86t-73 196q0 184 107.5 297.5t269.5 113.5q128 0 208 -80.5t80 -199.5zM412 100q74 29 120 108t46 189q0 85 -46.5 137.5t-127.5 52.5q-100 0 -168.5 -87.5t-68.5 -222.5q0 -71 33.5 -121 t93.5 -64l-8 83h118z" />
<glyph unicode="R" horiz-adv-x="602" d="M291 267h-91l-51 -267h-119l131 674h206q115 0 167.5 -51t52.5 -130q0 -52 -20 -93.5t-51.5 -64.5t-57.5 -35t-49 -17l111 -283h-130zM287 353q76 0 126 36.5t50 96.5q0 45 -31.5 74.5t-99.5 29.5q-49 0 -69 -2l-46 -233q2 0 13 -0.5t27 -1t30 -0.5z" />
<glyph unicode="S" horiz-adv-x="494" d="M474 670l-26 -100q-51 17 -120 17q-64 0 -104 -28t-40 -71q0 -50 62 -78l45 -21q140 -61 140 -185q0 -37 -16 -72.5t-48 -68.5t-91 -53t-135 -20q-109 0 -151 16l27 104q54 -25 134 -25q68 0 111 30.5t43 72.5q0 57 -79 91l-36 17q-131 58 -131 174q0 98 79.5 156 t206.5 58q84 0 129 -14z" />
<glyph unicode="T" horiz-adv-x="488" d="M349 582l-113 -582h-118l113 582h-181l18 92h480l-18 -92h-181z" />
<glyph unicode="U" horiz-adv-x="711" d="M596 241q-22 -114 -95.5 -182.5t-203.5 -68.5q-113 0 -175 57t-62 145q0 23 11 76l79 406h118l-80 -413q-8 -43 -8 -56q0 -51 35.5 -85t99.5 -34q70 0 110 45t53 113l84 430h119z" />
<glyph unicode="V" horiz-adv-x="611" d="M60 674h123l76 -552h4l291 552h127l-373 -674h-141z" />
<glyph unicode="W" horiz-adv-x="914" d="M115 0l-45 674h118l22 -521h4l237 521h137l37 -521h4l225 521h120l-304 -674h-142l-33 546h-4l-242 -546h-134z" />
<glyph unicode="X" horiz-adv-x="560" d="M208 342l-144 332h130l100 -232l192 232h134l-270 -319l159 -355h-137l-109 252l-205 -252h-138z" />
<glyph unicode="Y" horiz-adv-x="512" d="M126 0l45 233l-131 441h123l87 -322l209 322h123l-292 -441l-45 -233h-119z" />
<glyph unicode="Z" horiz-adv-x="496" d="M-40 0l17 92l401 490h-297l18 92h437l-18 -92l-401 -490h315l-17 -92h-455z" />
<glyph unicode="[" horiz-adv-x="385" d="M405 674l-18 -88h-110l-142 -729h110l-17 -88h-218l177 905h218z" />
<glyph unicode="\" horiz-adv-x="401" d="M219 0l-129 674h109l132 -674h-112z" />
<glyph unicode="]" horiz-adv-x="364" d="M88 586l18 88h218l-177 -905h-217l17 88h110l142 729h-111z" />
<glyph unicode="^" horiz-adv-x="460" d="M196 391h-100l211 283h99l110 -283h-106l-71 204z" />
<glyph unicode="_" horiz-adv-x="501" d="M0 -177h511l-10 -54h-511z" />
<glyph unicode="`" horiz-adv-x="239" d="M199 527h-60l-99 147h108z" />
<glyph unicode="a" horiz-adv-x="572" d="M488 151q-10 -58 -20 -151h-79q-23 0 -23 20l7 47h-2q-56 -77 -144 -77t-135 56t-47 144q0 143 91.5 228.5t229.5 85.5q109 0 186 -23q-57 -295 -64 -330zM164 187q0 -46 23 -78t64 -32q49 0 88.5 42t55.5 126l31 163q-27 9 -68 9q-82 0 -138 -63t-56 -167z" />
<glyph unicode="b" horiz-adv-x="573" d="M323 415q-55 0 -92 -45t-53 -123l-32 -162q37 -10 68 -10q83 0 138.5 66t55.5 176q0 39 -21 68.5t-64 29.5zM217 450h5q48 54 132 54t129 -54t45 -134q0 -58 -18 -113t-54 -104t-99.5 -79t-144.5 -30q-120 0 -192 23l137 704h112z" />
<glyph unicode="c" horiz-adv-x="458" d="M334 504q81 0 134 -34q-6 -30 -16 -69q-4 -15 -12 -15q-3 0 -11 4q-44 25 -92 25q-82 0 -128 -59t-46 -143q0 -57 33 -95.5t91 -38.5q27 0 81 18q16 8 23 8q6 0 6 -7q0 -27 -12 -82q-13 -8 -48 -17t-71 -9q-105 0 -163 63.5t-58 161.5q0 138 83 213.5t206 75.5z" />
<glyph unicode="d" horiz-adv-x="578" d="M443 494l43 223h112q-103 -531 -110 -566q-18 -100 -23 -151h-91q-11 0 -11 9q0 2 1 7.5t1 6.5l8 44h-2q-18 -28 -55 -52.5t-85 -24.5q-90 0 -138 61.5t-48 140.5q0 144 87 228t224 84q60 0 87 -10zM344 417q-73 0 -126.5 -63.5t-53.5 -166.5q0 -49 22 -79.5t69 -30.5 q107 0 140 168l31 162q-30 10 -82 10z" />
<glyph unicode="e" horiz-adv-x="550" d="M315 504q96 0 143 -50.5t47 -116.5q0 -53 -25 -115h-317q-3 -12 -3 -30q0 -50 36.5 -82.5t101.5 -32.5q47 0 100 24q18 7 21 7q7 0 7 -8q0 -19 -13 -84q-69 -26 -129 -26q-112 0 -175.5 59.5t-63.5 153.5q0 119 74.5 210t195.5 91zM179 298h208q6 30 6 40q0 34 -22.5 59 t-65.5 25q-32 0 -56.5 -14t-38.5 -36t-20.5 -39.5t-10.5 -34.5z" />
<glyph unicode="f" horiz-adv-x="329" d="M377 727q47 0 77 -11l-19 -73q-3 -14 -14 -14l-19 4q-18 4 -39 4q-92 0 -113 -105l-7 -38h119l-17 -85h-119l-79 -409h-112q46 241 79 409h-69l17 85h69l5 29q40 204 241 204z" />
<glyph unicode="g" horiz-adv-x="569" d="M347 44q-48 -54 -128 -54q-85 0 -131.5 53t-46.5 132q0 57 19 113.5t55.5 105.5t99.5 79.5t142 30.5q120 0 192 -23q-72 -365 -101 -519q-20 -108 -78.5 -158t-179.5 -50q-26 0 -50.5 1.5t-43 4t-31 4.5t-23.5 4.5t-12 2.5q6 43 9 61q3 23 23 23q5 0 43.5 -6t81.5 -6 q51 0 93.5 27t53.5 85l18 89h-5zM391 247l32 162q-37 10 -68 10q-83 0 -138.5 -64t-55.5 -174q0 -40 22 -71t68 -31q53 0 88.5 45t51.5 123z" />
<glyph unicode="h" d="M20 0l140 717h112l-51 -265h2q46 53 127 53q70 0 112.5 -42t42.5 -95q0 -42 -9 -78l-56 -290h-112q51 264 57 295q6 42 6 50q0 32 -21 52.5t-55 20.5q-48 0 -83 -44t-52 -130l-47 -244h-113z" />
<glyph unicode="i" horiz-adv-x="253" d="M20 0h112l96 494h-112zM135 606l22 114h116l-22 -114h-116z" />
<glyph unicode="j" horiz-adv-x="260" d="M17 -81q-8 -40 -33 -58t-53 -18q-17 0 -31.5 4t-15.5 4q-10 0 -13 -14q-16 -55 -21 -73q22 -11 67 -11q83 0 139.5 43t74.5 132l110 566h-112q-95 -487 -112 -575zM142 606l22 114h116l-22 -114h-116z" />
<glyph unicode="k" horiz-adv-x="480" d="M132 0h-112l139 717h112l-84 -432l201 209h132l-227 -226l149 -268h-140l-122 250z" />
<glyph unicode="l" horiz-adv-x="251" d="M132 0h-112l139 717h112z" />
<glyph unicode="m" horiz-adv-x="844" d="M20 0q57 289 67 345q8 42 24 149h89q12 0 12 -9q0 -2 -0.5 -6t-0.5 -5l-9 -50h2q4 8 12 18.5t24 26t44 25.5t62 10q32 0 57.5 -10.5t40 -27.5t21 -28.5t10.5 -23.5q9 18 24.5 35.5t52 36t81.5 18.5q80 0 120.5 -40t40.5 -102q0 -23 -13 -88l-53 -274h-113q45 227 54 277 q10 42 10 69q0 69 -73 69q-43 0 -77.5 -41.5t-46.5 -105.5l-52 -268h-112q44 227 54 277q10 57 10 69q0 69 -73 69q-43 0 -77.5 -41.5t-46.5 -105.5l-52 -268h-113z" />
<glyph unicode="n" d="M20 0q60 307 67 343q13 68 24 151h90q11 0 11 -8q0 -2 -0.5 -6t-0.5 -5l-9 -51h2q2 6 10.5 17t24.5 26t45.5 26t64.5 11q72 0 114 -42t42 -95q0 -29 -6 -62l-59 -305h-113q53 270 59 301q5 32 5 43q0 32 -20.5 52.5t-55.5 20.5q-48 0 -83.5 -44t-51.5 -130l-48 -243h-112 z" />
<glyph unicode="o" horiz-adv-x="584" d="M317 415q-64 0 -109 -56.5t-45 -152.5q0 -51 26 -89t78 -38q66 0 110 60t44 154q0 53 -28 87.5t-76 34.5zM45 207q0 131 73.5 214t206.5 83q105 0 159.5 -61t54.5 -145q0 -138 -73 -223t-208 -85q-100 0 -156.5 59t-56.5 158z" />
<glyph unicode="p" horiz-adv-x="580" d="M137 0l-45 -231h-112q105 538 112 574q13 68 24 151h90q11 0 11 -9v-4l-10 -56h2q45 79 145 79q88 0 134.5 -59t46.5 -131q0 -61 -18 -117.5t-53.5 -103.5t-96.5 -75t-138 -28q-65 0 -92 10zM221 77q88 0 142 68.5t54 163.5q0 49 -25.5 78.5t-67.5 29.5q-45 0 -84 -42 t-54 -126l-32 -162q25 -10 67 -10z" />
<glyph unicode="q" horiz-adv-x="573" d="M265 79q47 0 81 44t50 124l31 162q-27 10 -67 10q-59 0 -104.5 -38t-67.5 -91.5t-22 -107.5q0 -42 26 -72.5t73 -30.5zM357 48h-5q-52 -58 -128 -58q-79 0 -129 53.5t-50 132.5q0 62 21.5 119.5t61.5 104.5t105 75.5t144 28.5q107 0 176 -23l-138 -712h-112z" />
<glyph unicode="r" horiz-adv-x="370" d="M111 494h90q11 0 11 -8q0 -2 -0.5 -5.5t-0.5 -4.5q-6 -36 -8 -47h2q47 75 149 75q28 0 56 -11q-5 -23 -19 -80q-4 -11 -11 -11q-6 0 -18 4q-15 5 -33 5q-116 0 -149 -166l-47 -245h-113q60 309 69 355q3 15 22 139z" />
<glyph unicode="s" horiz-adv-x="387" d="M260 504q90 0 127 -14q-1 -2 -7 -27t-10 -39q-6 -20 -15 -20q-7 0 -11 3q-53 16 -79 16q-42 0 -67 -17.5t-25 -44.5q0 -40 59 -64l30 -12q89 -37 89 -126q0 -72 -57 -120.5t-151 -48.5q-92 0 -143 14q1 6 8.5 37.5t9.5 40.5q3 13 15 13q2 0 4.5 -0.5t5.5 -1.5t5 -1 q39 -13 79 -13q50 0 77.5 18.5t27.5 45.5q0 36 -50 57l-37 15q-88 35 -88 129q0 66 54.5 113t148.5 47z" />
<glyph unicode="t" horiz-adv-x="311" d="M185 -10q-140 0 -140 118q0 23 7 56q31 169 47 245h-69l16 85h70l21 109h112l-21 -109h118l-17 -85h-118q-2 -11 -24 -126t-23 -119q-6 -24 -6 -40q0 -44 51 -44q18 0 36.5 4t20.5 4q9 0 9 -9q0 -7 -1 -12q-6 -48 -7 -66q-33 -11 -82 -11z" />
<glyph unicode="u" d="M535 494q-60 -307 -67 -343q-13 -68 -24 -151h-91q-10 0 -10 8q0 2 0.5 6t0.5 5l9 51h-2q-3 -7 -11 -17t-24.5 -26t-45.5 -26.5t-64 -10.5q-72 0 -114 42t-42 95q0 29 6 62l59 305h112q-52 -270 -58 -301q-5 -22 -5 -43q0 -31 20.5 -52t54.5 -21q48 0 83.5 44t52.5 130 l47 243h113z" />
<glyph unicode="v" horiz-adv-x="482" d="M130 0l-90 494h119l53 -362h4l191 362h125l-283 -494h-119z" />
<glyph unicode="w" horiz-adv-x="779" d="M102 0l-52 494h110l27 -366h7l178 366h122l34 -366h7l172 366h112l-249 -494h-127l-34 364h-4l-174 -364h-129z" />
<glyph unicode="x" horiz-adv-x="490" d="M186 248l-122 246h125l69 -165l140 165h132l-214 -238l131 -256h-134l-73 169l-151 -169h-139z" />
<glyph unicode="y" horiz-adv-x="471" d="M129 1l-88 493h121l52 -344h4l179 344h124q-228 -405 -296 -524q-24 -42 -34 -57.5t-32 -48.5t-38.5 -47t-41.5 -32t-53 -25t-62 -7q-62 0 -84 11q10 40 20 74q5 13 13 13l15 -4q15 -4 31 -4q23 0 39.5 4t41 23.5t45.5 55.5z" />
<glyph unicode="z" horiz-adv-x="413" d="M74 409l17 85h342l-14 -71l-283 -338h221l-16 -85h-361l14 76l280 333h-200z" />
<glyph unicode="{" horiz-adv-x="375" d="M129 225l-1 -6q69 -14 69 -88q0 -23 -7 -63l-10 -50t-15 -74q-2 -16 -2 -22q0 -66 73 -66l-17 -87h-25q-132 0 -132 121q0 33 6 61q5 30 26 132q3 18 3 33q0 63 -87 66l16 80q60 2 86.5 28t35.5 71q16 76 25 132q35 181 197 181h25l-16 -87q-88 0 -105 -87 q-6 -34 -13.5 -70.5t-10.5 -53.5q-5 -24 -10.5 -41.5t-18.5 -43t-36.5 -43t-55.5 -23.5z" />
<glyph unicode="|" horiz-adv-x="300" d="M-20 -231l177 905h113l-177 -905h-113z" />
<glyph unicode="}" horiz-adv-x="385" d="M207 219l1 6q-69 15 -69 91q0 30 7 60q14 78 23 124q3 15 3 26q0 61 -73 61l17 87h25q132 0 132 -124q0 -26 -6 -57q-1 -5 -11.5 -59t-13.5 -73q-4 -16 -4 -34q0 -62 87 -65l-15 -80q-60 -2 -86.5 -28t-35.5 -71q-3 -14 -9 -45t-11 -56.5t-6 -30.5q-36 -182 -197 -182 h-25l17 87q88 0 105 88q22 113 24 124q5 24 10.5 41.5t18 43t36 43t56.5 23.5z" />
<glyph unicode="~" horiz-adv-x="609" d="M87 225l-17 79q76 56 147 56q54 0 108 -30t92 -30q49 0 112 47l20 -76q-77 -64 -154 -64q-51 0 -110 30t-93 30q-47 0 -105 -42z" />
<glyph unicode="&#xa1;" horiz-adv-x="294" d="M195 263h-93l-102 -476h112zM106 343l22 114h116l-22 -114h-116z" />
<glyph unicode="&#xa2;" horiz-adv-x="543" d="M402 528q51 -10 81 -28q-8 -42 -17 -70q-4 -15 -12 -15q-4 0 -10 4q-44 25 -93 25q-81 0 -127 -59t-46 -142q0 -57 33 -96t91 -39q35 0 81 19q21 7 22 7q7 0 7 -7q0 -27 -12 -82q-36 -20 -97 -25l-15 -75h-96l16 84q-72 20 -110 78t-38 137q0 125 69 199.5t177 87.5 l15 81h97z" />
<glyph unicode="&#xa3;" horiz-adv-x="530" d="M530 673l-27 -96q-27 11 -77 11q-118 0 -118 -146q0 -26 3 -50h127l-18 -92h-112q-14 -72 -41.5 -119.5t-72.5 -88.5h248l-18 -92h-384l14 74q62 34 97 87t41 139h-91l18 92h73q-3 33 -3 54q0 116 61.5 177t182.5 61q57 0 97 -11z" />
<glyph unicode="&#xa4;" horiz-adv-x="622" d="M521 294q0 -80 -56 -144l43 -58l-83 -70l-45 61q-47 -22 -93 -22q-62 0 -109 29l-77 -68l-56 70l75 65q-17 37 -17 79q0 81 54 146l-44 58l83 70l46 -62q48 23 96 23q62 0 106 -28l76 67l56 -70l-73 -64q18 -38 18 -82zM198 250q0 -41 26.5 -68.5t73.5 -27.5 q48 0 87.5 38t39.5 89q0 41 -26 69t-73 28q-49 0 -88.5 -37t-39.5 -91z" />
<glyph unicode="&#xa5;" horiz-adv-x="581" d="M621 674l-233 -350h81l-17 -91h-124v-1l-10 -48h124l-18 -92h-124l-17 -92h-118l17 92h-122l18 92h122l10 48v1h-122l17 91h77l-103 350h123l87 -322l209 322h123z" />
<glyph unicode="&#xa6;" horiz-adv-x="298" d="M78 276l77 398h113l-77 -398h-113zM-20 -231l75 391h113l-76 -391h-112z" />
<glyph unicode="&#xa7;" horiz-adv-x="482" d="M347 603q-53 0 -80 -24t-27 -58q0 -38 58 -94q28 -25 46 -45q72 -68 72 -155q0 -45 -24 -86.5t-51 -65t-58 -41.5q35 -44 35 -100q0 -83 -60 -131.5t-148 -48.5q-82 0 -140 23l27 83q56 -24 107 -24q52 0 80 24t28 58q0 37 -59 94q-5 5 -22 21.5t-24 23.5q-71 69 -71 155 q0 65 40.5 114t91.5 78q-35 49 -35 101q0 83 60 131.5t148 48.5q83 0 141 -23l-27 -84q-50 25 -108 25zM246 326l-19 19q-77 -51 -77 -119q0 -59 56 -113l19 -19q77 51 77 119q0 59 -56 113z" />
<glyph unicode="&#xa8;" horiz-adv-x="399" d="M235 612l20 103h104l-20 -103h-104zM40 612l20 103h104l-20 -103h-104z" />
<glyph unicode="&#xa9;" horiz-adv-x="868" d="M461 684q81 0 145.5 -29t103 -76t58.5 -102.5t20 -112.5q0 -156 -106.5 -265t-273.5 -109q-154 0 -241 95t-87 225q0 69 25 134.5t71 119.5t120.5 87t164.5 33zM548 439l17 54q-34 19 -91 19q-88 0 -147 -57t-59 -145q0 -60 40.5 -107.5t113.5 -47.5q60 0 80 14l5 52 q-30 -12 -68 -12q-53 0 -77 32.5t-24 72.5q0 62 37.5 102.5t92.5 40.5q49 0 80 -18zM457 627q-146 0 -232.5 -95t-86.5 -220q0 -107 73 -187t196 -80q82 0 147 30.5t101.5 79t55.5 101t19 104.5q0 109 -75 188t-198 79z" />
<glyph unicode="&#xaa;" horiz-adv-x="473" d="M208 663q49 21 102 21q61 0 92 -25t31 -65q0 -12 -7 -50q-1 -5 -5.5 -29t-8.5 -44.5t-6 -31.5q-6 -28 -11 -83h-61q-9 0 -9 15l4 26h-2q-38 -47 -95 -47q-46 0 -70 26t-24 65q0 49 46 87t146 38h28q2 10 2 11q1 4 1 12q0 20 -18 30.5t-46 10.5q-42 0 -80 -19 q-1 0 -3.5 -1.5t-5 -2t-3.5 -0.5q-5 0 -5 5v2l1 2q2 22 7 47zM327 519q-54 0 -84 -18.5t-30 -51.5q0 -18 13 -32t34 -14q33 0 54.5 26t29.5 67l5 23h-22zM398 300l-15 -75h-283l15 75h283z" />
<glyph unicode="&#xab;" horiz-adv-x="470" d="M0 237l211 210l51 -48l-170 -167l105 -168l-67 -37zM188 237l211 210l51 -48l-169 -167l104 -168l-67 -37z" />
<glyph unicode="&#xac;" horiz-adv-x="669" d="M77 291h512l-56 -291h-104l39 203h-408z" />
<glyph unicode="&#xad;" horiz-adv-x="436" d="M336 288l-16 -87h-240l16 87h240z" />
<glyph unicode="&#xae;" horiz-adv-x="392" d="M219 541h11q16 0 27.5 7.5t11.5 20.5q0 22 -28 22h-13zM253 459l-22 62h-16l-12 -62h-27l30 151h41q24 0 37 -11t13 -28q0 -37 -40 -46l25 -66h-29zM254 684q64 0 101 -40.5t37 -95.5q0 -76 -48 -123t-127 -47q-64 0 -100.5 40t-36.5 96q0 80 49 125t125 45zM361 551 q0 43 -31 73t-83 30q-60 0 -98.5 -40.5t-38.5 -101.5q0 -43 31 -73.5t83 -30.5q61 0 99 41.5t38 101.5z" />
<glyph unicode="&#xaf;" horiz-adv-x="318" d="M278 709l-17 -85h-221l17 85h221z" />
<glyph unicode="&#xb0;" horiz-adv-x="414" d="M220 415q-54 0 -87 36.5t-33 85.5q0 63 44 105t105 42q59 0 92 -36t33 -86q0 -65 -45 -106t-109 -41zM245 618q-30 0 -53.5 -22.5t-23.5 -55.5q0 -24 16.5 -41t44.5 -17q29 0 53 22t24 56q0 24 -16.5 41t-44.5 17z" />
<glyph unicode="&#xb1;" horiz-adv-x="687" d="M40 0l16 85h513l-16 -85h-513zM425 388h202l-17 -87h-202l-33 -170h-109l33 170h-202l17 87h202l32 163h109z" />
<glyph unicode="&#xb2;" horiz-adv-x="277" d="M8 381q74 69 87 82q81 78 81 122q0 19 -14 32t-38 13q-27 0 -60 -20l1 49l5 3q6 2 13 4.5t17 5.5t21.5 5t22.5 2q46 0 69.5 -25t23.5 -60q0 -36 -22 -68.5t-62 -70.5l-73 -72h128l-9 -46h-199z" />
<glyph unicode="&#xb3;" horiz-adv-x="269" d="M67 664q45 15 73 15q43 0 66 -22.5t23 -56.5q0 -29 -17 -50.5t-31 -27.5t-26 -9v-2q7 -2 17 -9.5t21.5 -26t11.5 -41.5q0 -49 -39.5 -75.5t-104.5 -26.5q-12 0 -23.5 1t-19 2t-8.5 1l7 49q15 -5 43 -5q36 0 62 15t26 44q0 22 -17.5 36.5t-51.5 14.5h-17l8 41h15 q35 0 60.5 16t25.5 43q0 18 -12.5 31t-40.5 13q-12 0 -51 -13v43z" />
<glyph unicode="&#xb4;" horiz-adv-x="228" d="M182 594h-60l109 147h108z" />
<glyph unicode="&#xb5;" horiz-adv-x="634" d="M564 494q-60 -308 -67 -343q-13 -64 -24 -151h-90q-11 0 -11 8q0 2 0.5 5.5t0.5 4.5l9 51h-2q-6 -11 -17 -25.5t-47 -34.5t-81 -20q-40 0 -74 16l-49 -253h-112l144 742h112q-52 -270 -58 -301q-5 -22 -5 -44q0 -31 21 -52t55 -21q47 0 82.5 44.5t52.5 129.5l47 244h113z " />
<glyph unicode="&#xb6;" horiz-adv-x="558" d="M311 -246h-91l161 828h-76l-161 -828h-92l102 524q-60 15 -107 58t-47 122q0 41 13 77t43 68.5t88 51.5t138 19h276l-18 -92h-68z" />
<glyph unicode="&#xb7;" horiz-adv-x="298" d="M80 187l22 114h116l-22 -114h-116z" />
<glyph unicode="&#xb8;" horiz-adv-x="266" d="M121 0h61l-43 -58q10 4 28 4q27 0 43 -18t16 -44q0 -52 -53.5 -93t-111.5 -49l-21 38q42 7 76.5 33t34.5 58t-45 32h-32z" />
<glyph unicode="&#xb9;" horiz-adv-x="215" d="M109 337h-56l54 277q-29 -16 -67 -20v44q26 3 53 15t39 26h43z" />
<glyph unicode="&#xba;" horiz-adv-x="498" d="M314 627q-42 0 -71 -37t-29 -99q0 -33 17 -57.5t51 -24.5q43 0 71.5 39t28.5 100q0 34 -18.5 56.5t-49.5 22.5zM137 492q0 85 48 139t134 54q68 0 103.5 -40t35.5 -94q0 -90 -47.5 -145t-134.5 -55q-65 0 -102 38t-37 103zM398 300l-15 -75h-283l15 75h283z" />
<glyph unicode="&#xbb;" horiz-adv-x="501" d="M320 447l131 -210l-212 -210l-51 47l171 168l-106 167zM132 447l131 -210l-212 -210l-51 47l170 168l-105 167z" />
<glyph unicode="&#xbc;" horiz-adv-x="711" d="M524 130l30 156h-4l-120 -156h94zM194 337h-56l54 277q-29 -16 -67 -20v44q27 3 53.5 15t38.5 26h43zM584 674l-534 -674h77l534 674h-77zM515 85h-139v48l167 205h77l-40 -207h53l-9 -46h-53l-16 -85h-56z" />
<glyph unicode="&#xbd;" horiz-adv-x="711" d="M195 338h-56l53 276q-27 -16 -67 -20v44q27 3 53.5 15t39.5 26h43zM50 0l534 675h77l-534 -675h-77zM423 45q74 69 87 82q81 78 81 122q0 19 -14 32t-38 13q-27 0 -60 -20l1 49l6 3q5 2 12 4.5t17 5.5t21.5 5t22.5 2q46 0 69.5 -25t23.5 -60q0 -36 -22 -68.5t-62 -70.5 l-73 -73h128l-9 -46h-199z" />
<glyph unicode="&#xbe;" horiz-adv-x="761" d="M100 0l534 674h77l-534 -674h-77zM525 130l30 156h-4l-120 -156h94zM516 85h-139v48l167 205h77l-40 -207h53l-9 -46h-53l-16 -85h-56zM171 664q45 15 73 15q43 0 66 -22.5t23 -56.5q0 -29 -17 -50.5t-31 -27.5t-26 -9v-2q7 -2 17 -9.5t21.5 -26t11.5 -41.5 q0 -49 -39.5 -75.5t-104.5 -26.5q-12 0 -23.5 1t-19 2t-8.5 1l6 49q17 -5 44 -5q36 0 62 15t26 44q0 22 -17.5 36.5t-51.5 14.5h-17l8 40h15q34 0 60 16.5t26 43.5q0 18 -12.5 30.5t-40.5 12.5q-21 0 -51 -12v43z" />
<glyph unicode="&#xbf;" horiz-adv-x="406" d="M331 -104l-28 -99q-47 -19 -115 -19q-91 0 -139.5 46t-48.5 100q0 30 10 57.5t31.5 52.5t33 36.5t36.5 32.5q6 5 8 7q70 59 85 127l5 26h110q-3 -15 -6 -31q-10 -49 -30 -86.5t-33.5 -51.5t-36.5 -33q-5 -5 -21.5 -17.5t-25.5 -20.5t-20.5 -20.5t-17 -26t-5.5 -28.5 q0 -26 27.5 -49.5t81.5 -23.5q28 0 58.5 7.5t40.5 13.5zM218 342l22 114h116l-22 -114h-116z" />
<glyph unicode="&#xc0;" horiz-adv-x="623" d="M423 736h-61l-99 147h108zM-70 0l387 674h136l120 -674h-124l-25 152h-284l-83 -152h-127zM361 551h-4l-167 -308h220z" />
<glyph unicode="&#xc1;" horiz-adv-x="623" d="M406 736h-60l108 147h107zM-70 0l387 674h136l120 -674h-124l-25 152h-284l-83 -152h-127zM361 551h-4l-167 -308h220z" />
<glyph unicode="&#xc2;" horiz-adv-x="623" d="M533 736h-74l-51 88l-87 -88h-69l119 147h99zM-70 0l387 674h136l120 -674h-124l-25 152h-284l-83 -152h-127zM361 551h-4l-167 -308h220z" />
<glyph unicode="&#xc3;" horiz-adv-x="623" d="M234 754l-22 51q63 63 120 63q40 0 77.5 -24t65.5 -24q38 0 74 34l23 -51q-64 -64 -121 -64q-41 0 -78 24t-67 24q-36 0 -72 -33zM-70 0l387 674h136l120 -674h-124l-24 152h-286l-82 -152h-127zM361 551h-4l-167 -308h220z" />
<glyph unicode="&#xc4;" horiz-adv-x="623" d="M-70 0l387 674h136l120 -674h-124l-24 152h-285l-83 -152h-127zM362 551h-4l-168 -308h220zM445 768l20 103h104l-20 -103h-104zM250 768l20 103h104l-20 -103h-104z" />
<glyph unicode="&#xc5;" horiz-adv-x="623" d="M-70 0l387 674h136l120 -674h-124l-24 152h-285l-83 -152h-127zM362 551h-4l-168 -308h220zM390 694q-51 0 -74.5 26.5t-23.5 64.5q0 41 30.5 72t73.5 31q50 0 74 -26t24 -64q0 -43 -31 -73.5t-73 -30.5zM396 834q-20 0 -33 -14t-13 -32q0 -16 10 -27.5t31 -11.5 q19 0 32 14t13 31q0 40 -40 40z" />
<glyph unicode="&#xc6;" horiz-adv-x="875" d="M766 0h-340l29 152h-230l-128 -152h-147l543 674h402l-18 -92h-220l-37 -190h207l-18 -92h-207l-41 -208h222zM530 537h-7l-225 -294h175z" />
<glyph unicode="&#xc7;" horiz-adv-x="576" d="M439 587q-105 0 -187.5 -84t-82.5 -211q0 -84 55 -145t142 -61q64 0 132 34l-6 -101q-56 -24 -112 -28l-21 -28q12 4 28 4q28 0 43.5 -15.5t15.5 -41.5q0 -49 -54 -95t-110 -52l-21 38q41 7 76 33t35 57q0 33 -46 33h-31l32 67q-124 9 -205.5 88t-81.5 203 q0 184 113.5 293t300.5 109q103 0 162 -28l-34 -101q-68 32 -143 32z" />
<glyph unicode="&#xc8;" horiz-adv-x="504" d="M161 674l-131 -674h365l17 92h-247l41 208h232l18 92h-232l37 190h245l18 92h-363zM427 736h-60l-100 147h108z" />
<glyph unicode="&#xc9;" horiz-adv-x="504" d="M161 664l-131 -674h365l17 92h-246l41 208h231l18 92h-231l37 190h244l18 92h-363zM361 736h-61l109 147h107z" />
<glyph unicode="&#xca;" horiz-adv-x="504" d="M161 674l-131 -674h365l17 92h-246l41 208h231l18 92h-231l37 190h244l18 92h-363zM491 736h-68l-51 88l-87 -88h-74l118 147h100z" />
<glyph unicode="&#xcb;" horiz-adv-x="513" d="M161 674l-131 -674h365l17 92h-246l41 208h231l18 92h-231l37 190h244l18 92h-363zM409 760l20 103h104l-20 -103h-104zM214 760l20 103h104l-20 -103h-104z" />
<glyph unicode="&#xcc;" horiz-adv-x="310" d="M161 674l-131 -674h118l131 674h-118zM264 736h-61l-99 147h108z" />
<glyph unicode="&#xcd;" horiz-adv-x="310" d="M161 674l-131 -674h119l131 674h-119zM262 736h-60l108 147h108z" />
<glyph unicode="&#xce;" horiz-adv-x="310" d="M161 674l-131 -674h118l131 674h-118zM375 736h-73l-52 88l-86 -88h-70l119 147h99z" />
<glyph unicode="&#xcf;" horiz-adv-x="310" d="M161 674l-131 -674h119l131 674h-119zM281 760l20 103h104l-20 -103h-104zM86 760l20 103h104l-20 -103h-104z" />
<glyph unicode="&#xd0;" horiz-adv-x="696" d="M352 674q147 0 225.5 -80.5t78.5 -208.5q0 -74 -25.5 -142t-74 -123t-127 -87.5t-176.5 -32.5h-230l57 292h-70l18 92h70l56 290h198zM235 87q123 0 210 80.5t87 221.5q0 90 -54.5 144t-145.5 54q-47 0 -77 -6l-38 -197h175l-17 -92h-176l-40 -201q24 -4 76 -4z" />
<glyph unicode="&#xd1;" horiz-adv-x="735" d="M30 0h105l102 526h4l187 -526h146l131 674h-105l-101 -516h-5l-183 516h-150zM291 760l-22 51q63 63 120 63q40 0 77.5 -24t65.5 -24q38 0 74 34l23 -51q-64 -64 -121 -64q-41 0 -77.5 24t-66.5 24q-37 0 -73 -33z" />
<glyph unicode="&#xd2;" horiz-adv-x="745" d="M481 736h-60l-100 147h108zM417 684q-162 0 -269.5 -113.5t-107.5 -297.5q0 -123 80 -203t207 -80q168 0 273 113t105 301q0 119 -80 199.5t-208 80.5zM167 277q0 135 68.5 222.5t168.5 87.5q81 0 127.5 -52.5t46.5 -137.5q0 -137 -69 -223.5t-170 -86.5q-80 0 -126 53.5 t-46 136.5z" />
<glyph unicode="&#xd3;" horiz-adv-x="745" d="M480 736h-61l108 147h108zM417 684q-162 0 -269.5 -113.5t-107.5 -297.5q0 -123 80 -203t207 -80q168 0 273 113t105 301q0 119 -80 199.5t-208 80.5zM167 277q0 135 68.5 222.5t168.5 87.5q81 0 127.5 -52.5t46.5 -137.5q0 -137 -69 -223.5t-170 -86.5q-80 0 -126 53.5 t-46 136.5z" />
<glyph unicode="&#xd4;" horiz-adv-x="745" d="M568 736h-68l-52 88l-86 -88h-74l118 147h100zM417 684q-162 0 -269.5 -113.5t-107.5 -297.5q0 -123 80 -203t207 -80q168 0 273 113t105 301q0 119 -80 199.5t-208 80.5zM167 277q0 135 68.5 222.5t168.5 87.5q81 0 127.5 -52.5t46.5 -137.5q0 -137 -69 -223.5 t-170 -86.5q-80 0 -126 53.5t-46 136.5z" />
<glyph unicode="&#xd5;" horiz-adv-x="745" d="M304 754l-22 51q63 63 119 63q40 0 77.5 -24t66.5 -24q36 0 74 34l22 -51q-64 -64 -120 -64q-41 0 -78 24t-68 24q-37 0 -71 -33zM417 684q-162 0 -269.5 -113.5t-107.5 -297.5q0 -123 80 -203t207 -80q168 0 273 113t105 301q0 119 -80 199.5t-208 80.5zM167 277 q0 135 68.5 222.5t168.5 87.5q81 0 127.5 -52.5t46.5 -137.5q0 -137 -69 -223.5t-170 -86.5q-80 0 -126 53.5t-46 136.5z" />
<glyph unicode="&#xd6;" horiz-adv-x="745" d="M417 684q-162 0 -269.5 -113.5t-107.5 -297.5q0 -123 80 -203t207 -80q168 0 273 113t105 301q0 119 -80 199.5t-208 80.5zM167 277q0 135 68.5 222.5t168.5 87.5q81 0 127.5 -52.5t46.5 -137.5q0 -137 -69 -223.5t-170 -86.5q-80 0 -126 53.5t-46 136.5zM479 760l20 103 h104l-20 -103h-104zM284 760l20 103h104l-20 -103h-104z" />
<glyph unicode="&#xd7;" horiz-adv-x="569" d="M299 321l174 146l56 -70l-174 -145l121 -148l-84 -70l-121 148l-175 -147l-56 69l175 147l-114 142l84 70z" />
<glyph unicode="&#xd8;" horiz-adv-x="746" d="M582 640q59 -38 91.5 -99.5t32.5 -135.5q0 -188 -105 -301.5t-273 -113.5q-50 0 -95 14l-55 -100l-72 24l59 107q-59 38 -92 100t-33 139q0 184 108 297.5t270 113.5q51 0 96 -14l61 112l73 -24zM405 588q-100 0 -169 -87.5t-69 -222.5q0 -92 55 -147l245 448 q-27 9 -62 9zM340 87q100 0 169.5 87t69.5 224q0 93 -54 145l-245 -446q30 -10 60 -10z" />
<glyph unicode="&#xd9;" horiz-adv-x="731" d="M468 736h-60l-100 147h108zM606 241q-22 -114 -95.5 -182.5t-203.5 -68.5q-113 0 -175 57t-62 145q0 23 11 76l79 406h118l-80 -413q-8 -43 -8 -56q0 -51 35.5 -85t99.5 -34q70 0 110 45t53 113l84 430h119z" />
<glyph unicode="&#xda;" horiz-adv-x="731" d="M467 736h-61l108 147h108zM606 241q-22 -114 -95.5 -182.5t-203.5 -68.5q-113 0 -175 57t-62 145q0 23 11 76l79 406h118l-80 -413q-8 -43 -8 -56q0 -51 35.5 -85t99.5 -34q70 0 110 45t53 113l84 430h119z" />
<glyph unicode="&#xdb;" horiz-adv-x="731" d="M579 736h-68l-52 88l-86 -88h-74l118 147h100zM606 241q-22 -114 -95.5 -182.5t-203.5 -68.5q-113 0 -175 57t-62 145q0 23 11 76l79 406h118l-80 -413q-8 -43 -8 -56q0 -51 35.5 -85t99.5 -34q70 0 110 45t53 113l84 430h119z" />
<glyph unicode="&#xdc;" horiz-adv-x="731" d="M606 241q-22 -114 -95.5 -182.5t-203.5 -68.5q-113 0 -175 57t-62 145q0 23 11 76l79 406h118l-80 -413q-8 -43 -8 -56q0 -51 35.5 -85t99.5 -34q70 0 110 45t53 113l84 430h119zM489 760l20 103h104l-20 -103h-104zM294 760l20 103h104l-20 -103h-104z" />
<glyph unicode="&#xdd;" horiz-adv-x="512" d="M171 233l-45 -233h118l45 233l293 441h-123l-209 -322l-87 322h-123zM333 736h-61l109 147h107z" />
<glyph unicode="&#xde;" horiz-adv-x="550" d="M190 216q14 -2 50 -2q86 0 131 44.5t45 102.5q0 48 -32.5 77t-94.5 29q-42 0 -50 -2zM246 125q-55 0 -73 4l-25 -129h-118l131 674h118l-23 -122h40q117 0 180.5 -53.5t63.5 -134.5q0 -102 -75.5 -170.5t-218.5 -68.5z" />
<glyph unicode="&#xdf;" horiz-adv-x="589" d="M114 484q14 72 41 122.5t64.5 78t80 39.5t94.5 12q80 0 127.5 -44t47.5 -96q0 -44 -20.5 -71t-61.5 -54q-33 -21 -38 -24q-51 -33 -51 -73q0 -30 34 -56l29 -23q84 -63 84 -135q0 -73 -59 -121.5t-167 -48.5q-83 0 -113 12q9 55 15 77q3 12 10 12q3 0 8 -2.5l7 -3.5 q35 -11 71 -11q50 0 81 20.5t31 52.5q0 38 -46 76l-33 24q-68 53 -68 112q0 82 75 133q16 9 33 21q22 14 32 21t21 22.5t11 31.5q0 29 -20 47.5t-62 18.5q-112 0 -141 -148l-99 -506h-112z" />
<glyph unicode="&#xe0;" horiz-adv-x="572" d="M411 594h-61l-98 147h108zM488 151l64 330q-77 23 -186 23q-138 0 -229.5 -85.5t-91.5 -228.5q0 -88 47 -144t135 -56t144 77h2q-7 -32 -7 -47q0 -20 23 -20h79q10 93 20 151zM164 187q0 104 56 167t138 63q41 0 68 -9q-27 -139 -31 -163q-16 -84 -55.5 -126t-88.5 -42 q-41 0 -64 32t-23 78z" />
<glyph unicode="&#xe1;" horiz-adv-x="572" d="M393 594h-61l110 147h107zM488 151l64 330q-77 23 -186 23q-138 0 -229.5 -85.5t-91.5 -228.5q0 -88 47 -144t135 -56t144 77h2q-7 -32 -7 -47q0 -20 23 -20h79q10 93 20 151zM164 187q0 104 56 167t138 63q41 0 68 -9q-27 -139 -31 -163q-16 -84 -55.5 -126t-88.5 -42 q-41 0 -64 32t-23 78z" />
<glyph unicode="&#xe2;" horiz-adv-x="572" d="M519 594h-68l-52 88l-86 -88h-74l119 147h100zM488 151l64 330q-77 23 -186 23q-138 0 -229.5 -85.5t-91.5 -228.5q0 -88 47 -144t135 -56t144 77h2q-7 -32 -7 -47q0 -20 23 -20h79q10 93 20 151zM164 187q0 104 56 167t138 63q41 0 68 -9q-27 -139 -31 -163 q-16 -84 -55.5 -126t-88.5 -42q-41 0 -64 32t-23 78z" />
<glyph unicode="&#xe3;" horiz-adv-x="572" d="M214 604l-24 55q50 59 109 59q40 0 82 -27t68 -27q41 0 79 40l24 -55q-15 -17 -25 -26.5t-34 -21.5t-51 -12q-41 0 -82 27.5t-69 27.5q-37 0 -77 -40zM488 151l64 330q-77 23 -186 23q-138 0 -229.5 -85.5t-91.5 -228.5q0 -88 47 -144t135 -56t144 77h2q-7 -32 -7 -47 q0 -20 23 -20h79q10 93 20 151zM164 187q0 104 56 167t138 63q41 0 68 -9q-27 -139 -31 -163q-16 -84 -55.5 -126t-88.5 -42q-41 0 -64 32t-23 78z" />
<glyph unicode="&#xe4;" horiz-adv-x="572" d="M427 617l20 103h104l-20 -103h-104zM232 617l20 103h104l-20 -103h-104zM488 151l64 330q-77 23 -186 23q-138 0 -229.5 -85.5t-91.5 -228.5q0 -88 47 -144t135 -56t144 77h2q-7 -32 -7 -47q0 -20 23 -20h79q10 93 20 151zM164 187q0 104 56 167t138 63q41 0 68 -9 q-27 -139 -31 -163q-16 -84 -55.5 -126t-88.5 -42q-41 0 -64 32t-23 78z" />
<glyph unicode="&#xe5;" horiz-adv-x="572" d="M381 557q-51 0 -74.5 26.5t-23.5 64.5q0 41 30.5 72t73.5 31q50 0 74 -26t24 -64q0 -43 -31 -73.5t-73 -30.5zM387 697q-20 0 -33 -14t-13 -32q0 -16 10 -27.5t31 -11.5q19 0 32 14t13 31q0 40 -40 40zM488 151q-10 -58 -20 -151h-79q-23 0 -23 20l7 47h-2 q-56 -77 -144 -77t-135 56t-47 144q0 143 91.5 228.5t229.5 85.5q109 0 186 -23q-57 -295 -64 -330zM164 187q0 -46 23 -78t64 -32q49 0 88.5 42t55.5 126l31 163q-27 9 -68 9q-82 0 -138 -63t-56 -167z" />
<glyph unicode="&#xe6;" horiz-adv-x="844" d="M288 223q-66 0 -104.5 -22t-38.5 -64q0 -28 18 -46.5t51 -18.5q51 0 85 36t47 98l3 17h-61zM457 223q-3 -12 -3 -30q0 -50 36.5 -82.5t101.5 -32.5q43 0 101 24q14 7 20 7q7 0 7 -8q0 -25 -12 -83q-66 -27 -130 -27q-145 0 -205 97h-1q-65 -98 -182 -98 q-75 0 -117.5 40.5t-42.5 99.5q0 34 12.5 62t41 53t82.5 39.5t129 14.5h68q5 26 7 34q3 24 3 25q0 28 -28 45t-71 17q-63 0 -123 -28q-15 -6 -18 -6q-7 0 -7 7v6q1 6 3.5 22.5t5 30t3.5 20.5q72 32 156 32q109 0 157 -53q68 54 158 54q96 0 143 -50.5t47 -116.5 q0 -52 -25 -115h-317zM473 299h208q6 15 6 40q0 34 -22.5 59t-65.5 25q-31 0 -56 -14t-38.5 -35.5t-21 -39.5t-10.5 -35z" />
<glyph unicode="&#xe7;" horiz-adv-x="458" d="M333 505q71 0 135 -34q-1 -6 -17 -69q-4 -15 -12 -15q-3 0 -11 4q-48 24 -92 24q-81 0 -126.5 -59t-45.5 -142q0 -57 33 -95.5t91 -38.5q27 0 81 18q17 7 22 7q7 0 7 -7q0 -10 -12 -82q-35 -18 -91 -24l-22 -29q12 4 28 4q27 0 43 -15t16 -39q0 -53 -54 -98t-111 -52 l-20 37q41 8 76 34t35 57q0 33 -46 33h-31l32 68q-94 8 -145 70.5t-51 153.5q0 138 82.5 213.5t205.5 75.5z" />
<glyph unicode="&#xe8;" horiz-adv-x="550" d="M386 594h-61l-98 147h108zM315 504q-121 0 -195.5 -91t-74.5 -210q0 -94 63.5 -153.5t175.5 -59.5q60 0 129 26q13 65 13 84q0 8 -7 8q-3 0 -21 -7q-53 -24 -100 -24q-65 0 -101.5 32.5t-36.5 82.5q0 18 3 30h317q25 62 25 115q0 66 -47 116.5t-143 50.5zM179 298 q4 17 10.5 34.5t20.5 39.5t38.5 36t56.5 14q43 0 65.5 -25t22.5 -59q0 -10 -6 -40h-208z" />
<glyph unicode="&#xe9;" horiz-adv-x="575" d="M374 594h-60l109 147h107zM315 504q-121 0 -195.5 -91t-74.5 -210q0 -94 63.5 -153.5t175.5 -59.5q60 0 129 26q13 65 13 84q0 8 -7 8q-3 0 -21 -7q-53 -24 -100 -24q-65 0 -101.5 32.5t-36.5 82.5q0 18 3 30h317q25 62 25 115q0 66 -47 116.5t-143 50.5zM179 298 q4 17 10.5 34.5t20.5 39.5t38.5 36t56.5 14q43 0 65.5 -25t22.5 -59q0 -10 -6 -40h-208z" />
<glyph unicode="&#xea;" horiz-adv-x="550" d="M491 594h-68l-52 88l-86 -88h-75l120 147h99zM315 504q-121 0 -195.5 -91t-74.5 -210q0 -94 63.5 -153.5t175.5 -59.5q60 0 129 26q13 65 13 84q0 8 -7 8q-3 0 -21 -7q-53 -24 -100 -24q-65 0 -101.5 32.5t-36.5 82.5q0 18 3 30h317q25 62 25 115q0 66 -47 116.5 t-143 50.5zM179 298q4 17 10.5 34.5t20.5 39.5t38.5 36t56.5 14q43 0 65.5 -25t22.5 -59q0 -10 -6 -40h-208z" />
<glyph unicode="&#xeb;" horiz-adv-x="567" d="M315 504q-121 0 -195.5 -91t-74.5 -210q0 -94 63.5 -153.5t175.5 -59.5q60 0 129 26q13 65 13 84q0 8 -7 8q-3 0 -21 -7q-53 -24 -100 -24q-65 0 -101.5 32.5t-36.5 82.5q0 18 3 30h317q25 62 25 115q0 66 -47 116.5t-143 50.5zM179 298q4 17 10.5 34.5t20.5 39.5 t38.5 36t56.5 14q43 0 65.5 -25t22.5 -59q0 -10 -6 -40h-208zM398 617l20 103h104l-20 -103h-104zM203 617l20 103h104l-20 -103h-104z" />
<glyph unicode="&#xec;" horiz-adv-x="253" d="M20 0h112l96 494h-112zM230 594h-61l-98 147h108z" />
<glyph unicode="&#xed;" horiz-adv-x="253" d="M20 0h112l96 494h-112zM217 594h-60l109 147h108z" />
<glyph unicode="&#xee;" horiz-adv-x="253" d="M20 0h112l96 494h-112zM333 594h-73l-52 88l-86 -88h-70l120 147h99z" />
<glyph unicode="&#xef;" horiz-adv-x="253" d="M132 0h-112l96 494h112zM242 617l20 103h104l-20 -103h-104zM47 617l20 103h104l-20 -103h-104z" />
<glyph unicode="&#xf0;" horiz-adv-x="592" d="M495 597q52 -93 52 -217q0 -58 -9.5 -111.5t-32 -105t-56.5 -89.5t-87 -61t-119 -23q-87 0 -142.5 54t-55.5 152q0 120 68 201t199 81q76 0 129 -45h3q-11 66 -41 123l-98 -41l-25 70l77 34q-3 2 -12 10t-11 10q-11 9 -11 16t12 21q36 41 42 48q42 -27 74 -64l105 45 l26 -70zM261 79q57 0 97.5 55.5t40.5 142.5q0 46 -24.5 79t-71.5 33q-63 0 -102.5 -54t-39.5 -137q0 -50 24.5 -84.5t75.5 -34.5z" />
<glyph unicode="&#xf1;" d="M169 604l-22 51q60 64 120 64q39 0 76.5 -24t66.5 -24q38 0 73 33l22 -51q-60 -63 -119 -63q-41 0 -77.5 24t-66.5 24q-38 0 -73 -34zM20 0h112q34 171 48 243q16 86 51.5 130t83.5 44q35 0 55.5 -20.5t20.5 -52.5q0 -10 -5 -43l-59 -301h113q42 220 59 305q6 33 6 62 q0 53 -42 95t-114 42q-35 0 -64.5 -11t-45.5 -26t-24.5 -26t-10.5 -17h-2q7 40 9 51q0 1 0.5 5t0.5 6q0 8 -11 8h-90q-11 -83 -24 -151z" />
<glyph unicode="&#xf2;" horiz-adv-x="584" d="M395 594h-61l-98 147h107zM317 415q-64 0 -109 -56.5t-45 -152.5q0 -51 26 -89t78 -38q66 0 110 60t44 154q0 53 -28 87.5t-76 34.5zM45 207q0 131 73.5 214t206.5 83q105 0 159.5 -61t54.5 -145q0 -138 -73 -223t-208 -85q-100 0 -156.5 59t-56.5 158z" />
<glyph unicode="&#xf3;" horiz-adv-x="585" d="M384 594h-61l110 147h107zM317 415q-64 0 -109 -56.5t-45 -152.5q0 -51 26 -89t78 -38q66 0 110 60t44 154q0 53 -28 87.5t-76 34.5zM45 207q0 131 73.5 214t206.5 83q105 0 159.5 -61t54.5 -145q0 -138 -73 -223t-208 -85q-100 0 -156.5 59t-56.5 158z" />
<glyph unicode="&#xf4;" horiz-adv-x="584" d="M500 594h-68l-51 88l-87 -88h-74l119 147h100zM317 415q-64 0 -109 -56.5t-45 -152.5q0 -51 26 -89t78 -38q66 0 110 60t44 154q0 53 -28 87.5t-76 34.5zM45 207q0 131 73.5 214t206.5 83q105 0 159.5 -61t54.5 -145q0 -138 -73 -223t-208 -85q-100 0 -156.5 59 t-56.5 158z" />
<glyph unicode="&#xf5;" horiz-adv-x="588" d="M207 604l-23 51q64 64 120 64q40 0 77.5 -24t65.5 -24q39 0 74 33l22 -51q-63 -63 -120 -63q-41 0 -77.5 24t-66.5 24q-38 0 -72 -34zM317 415q-64 0 -109 -56.5t-45 -152.5q0 -51 26 -89t78 -38q66 0 110 60t44 154q0 53 -28 87.5t-76 34.5zM45 207q0 131 73.5 214 t206.5 83q105 0 159.5 -61t54.5 -145q0 -138 -73 -223t-208 -85q-100 0 -156.5 59t-56.5 158z" />
<glyph unicode="&#xf6;" horiz-adv-x="584" d="M317 415q-64 0 -109 -56.5t-45 -152.5q0 -51 26 -89t78 -38q66 0 110 60t44 154q0 53 -28 87.5t-76 34.5zM45 207q0 131 73.5 214t206.5 83q105 0 159.5 -61t54.5 -145q0 -138 -73 -223t-208 -85q-100 0 -156.5 59t-56.5 158zM386 617l20 103h104l-20 -103h-104zM191 617 l20 103h104l-20 -103h-104z" />
<glyph unicode="&#xf7;" horiz-adv-x="659" d="M77 288h512l-17 -87h-512zM289 357l22 114h116l-22 -114h-116zM224 18l22 114h116l-22 -114h-116z" />
<glyph unicode="&#xf8;" horiz-adv-x="584" d="M460 464q79 -57 79 -166q0 -138 -73 -223t-208 -85q-35 0 -69 8l-61 -106l-72 24l66 114q-77 59 -77 176q0 132 73.5 215t206.5 83q35 0 67 -8l59 101l72 -24zM317 415q-64 0 -108.5 -56.5t-44.5 -152.5q0 -46 18 -78l164 283q-18 4 -29 4zM267 79q67 0 110.5 60 t43.5 154q0 47 -21 78l-166 -287q17 -5 33 -5z" />
<glyph unicode="&#xf9;" d="M364 594h-60l-98 147h107zM535 494h-113q-33 -171 -47 -243q-17 -86 -52.5 -130t-83.5 -44q-34 0 -54.5 21t-20.5 52q0 21 5 43l58 301h-112q-43 -220 -59 -305q-6 -33 -6 -62q0 -53 42 -95t114 -42q35 0 64 10.5t45.5 26.5t24.5 26t11 17h2q-7 -40 -9 -51q0 -1 -0.5 -5 t-0.5 -6q0 -8 10 -8h91q11 83 24 151z" />
<glyph unicode="&#xfa;" d="M354 594h-60l109 147h107zM535 494h-113q-33 -171 -47 -243q-17 -86 -52.5 -130t-83.5 -44q-34 0 -54.5 21t-20.5 52q0 21 5 43l58 301h-112q-43 -220 -59 -305q-6 -33 -6 -62q0 -53 42 -95t114 -42q35 0 64 10.5t45.5 26.5t24.5 26t11 17h2q-7 -40 -9 -51q0 -1 -0.5 -5 t-0.5 -6q0 -8 10 -8h91q11 83 24 151z" />
<glyph unicode="&#xfb;" d="M488 594h-68l-52 88l-86 -88h-75l120 147h100zM535 494h-113q-33 -171 -47 -243q-17 -86 -52.5 -130t-83.5 -44q-34 0 -54.5 21t-20.5 52q0 21 5 43l58 301h-112q-43 -220 -59 -305q-6 -33 -6 -62q0 -53 42 -95t114 -42q35 0 64 10.5t45.5 26.5t24.5 26t11 17h2 q-7 -40 -9 -51q0 -1 -0.5 -5t-0.5 -6q0 -8 10 -8h91q11 83 24 151z" />
<glyph unicode="&#xfc;" d="M535 494h-113q-33 -171 -47 -243q-17 -86 -52.5 -130t-83.5 -44q-34 0 -54.5 21t-20.5 52q0 21 5 43l58 301h-112q-43 -220 -59 -305q-6 -33 -6 -62q0 -53 42 -95t114 -42q35 0 64 10.5t45.5 26.5t24.5 26t11 17h2q-7 -40 -9 -51q0 -1 -0.5 -5t-0.5 -6q0 -8 10 -8h91 q11 83 24 151zM381 617l20 103h104l-20 -103h-104zM186 617l20 103h104l-20 -103h-104z" />
<glyph unicode="&#xfd;" horiz-adv-x="571" d="M373 594h-60l-99 147h108zM42 494l88 -492q-24 -42 -44 -76q-21 -36 -46 -55.5t-41 -23t-39 -3.5q-16 0 -31 4l-15 3q-8 0 -13 -12l-21 -75q27 -10 86 -10q29 0 55 7t44.5 15t40 28t33 32t31.5 42.5t27.5 43t28.5 49.5l295 523h-124l-179 -343h-4l-51 343h-121z" />
<glyph unicode="&#xfe;" horiz-adv-x="580" d="M138 0l-45 -230h-113l185 948h112l-52 -267h2q49 54 127 54q88 0 134.5 -59.5t46.5 -130.5q0 -61 -18 -117.5t-53.5 -103.5t-96 -75t-137.5 -28q-60 0 -92 9zM222 77q88 0 141.5 68.5t53.5 163.5q0 49 -25.5 79t-66.5 30q-46 0 -84.5 -42t-54.5 -127l-32 -162 q50 -10 68 -10z" />
<glyph unicode="&#xff;" horiz-adv-x="471" d="M41 494l88 -492q-24 -42 -44 -76q-21 -36 -46 -55.5t-41 -23t-39 -3.5q-16 0 -30.5 3.5t-15.5 3.5q-9 0 -13 -12l-20 -75q27 -10 86 -10q29 0 54.5 7t44.5 15t40 28t32.5 32t31.5 42.5t27.5 43t28.5 49.5l296 523h-124l-179 -343h-4l-52 343h-121zM338 617l20 103h104 l-20 -103h-104zM143 617l20 103h104l-20 -103h-104z" />
<glyph unicode="&#x100;" horiz-adv-x="623" d="M-70 0l387 674h136l120 -674h-124l-24 152h-285l-83 -152h-127zM362 551h-4l-168 -308h220zM548 883l-16 -85h-221l16 85h221z" />
<glyph unicode="&#x101;" horiz-adv-x="572" d="M514 711l-17 -85h-221l17 85h221zM488 151l64 330q-77 23 -186 23q-138 0 -229.5 -85.5t-91.5 -228.5q0 -88 47 -144t135 -56t144 77h2q-7 -32 -7 -47q0 -20 23 -20h79q10 93 20 151zM164 187q0 104 56 167t138 63q41 0 68 -9q-27 -139 -31 -163q-16 -84 -55.5 -126 t-88.5 -42q-41 0 -64 32t-23 78z" />
<glyph unicode="&#x102;" horiz-adv-x="623" d="M317 674l-387 -674h127l83 152h285l24 -152h124l-120 674h-136zM358 551h4l48 -308h-220zM498 883h70q-9 -49 -48.5 -88.5t-108.5 -39.5q-47 0 -73 23.5t-30.5 50.5t0.5 54h69q-4 -21 6 -41.5t43 -20.5q32 0 50 20t22 42z" />
<glyph unicode="&#x103;" horiz-adv-x="572" d="M477 741h70q-10 -49 -49.5 -88.5t-107.5 -39.5q-57 0 -81.5 30t-24.5 71q0 15 3 27h69q-1 -4 -1 -14q0 -48 49 -48q32 0 50.5 20.5t22.5 41.5zM488 151l64 330q-77 23 -186 23q-138 0 -229.5 -85.5t-91.5 -228.5q0 -88 47 -144t135 -56t144 77h2q-7 -32 -7 -47 q0 -20 23 -20h79q10 93 20 151zM164 187q0 104 56 167t138 63q41 0 68 -9q-27 -139 -31 -163q-16 -84 -55.5 -126t-88.5 -42q-41 0 -64 32t-23 78z" />
<glyph unicode="&#x104;" horiz-adv-x="623" d="M362 551h-4l-168 -308h220zM497 0h-48l-24 152h-285l-83 -152h-127l387 674h136l119 -674q-70 -91 -70 -135q0 -22 9.5 -33t34.5 -11q12 0 38 8l-12 -65q-46 -14 -80 -14q-14 0 -27 3t-27.5 11.5t-23 27.5t-8.5 46q0 10 2 20.5t6.5 21.5t8 19.5t11.5 20.5l12 18t14 18.5 t12.5 15.5t13.5 16z" />
<glyph unicode="&#x105;" horiz-adv-x="572" d="M394 0h-5q-23 0 -23 20l7 47h-2q-56 -77 -144 -77t-135 56t-47 144q0 143 91.5 228.5t229.5 85.5q109 0 186 -23q-57 -295 -64 -330q-10 -58 -20 -151q-1 -1 -8.5 -10.5t-13 -16.5t-14.5 -19t-15 -23t-12.5 -24t-9.5 -26t-3 -25q0 -23 9 -33t33 -10q11 0 39 7l-13 -65 q-39 -13 -79 -13q-85 0 -85 86q0 65 98 172zM164 187q0 -46 23 -78t64 -32q49 0 88.5 42t55.5 126l31 163q-27 9 -68 9q-82 0 -138 -63t-56 -167z" />
<glyph unicode="&#x106;" horiz-adv-x="576" d="M367 736h-60l108 147h108zM616 656l-33 -101q-68 32 -143 32q-105 0 -188 -84t-83 -211q0 -84 55.5 -145t141.5 -61q64 0 132 34l-6 -101q-62 -29 -136 -29q-134 0 -225 80t-91 212q0 184 113.5 293t300.5 109q99 0 162 -28z" />
<glyph unicode="&#x107;" horiz-adv-x="458" d="M359 594h-60l109 147h108zM334 504q-123 0 -206 -75.5t-83 -213.5q0 -98 58 -161.5t163 -63.5q36 0 71 9t48 17q12 55 12 82q0 7 -6 7q-7 0 -23 -8q-54 -18 -81 -18q-58 0 -91 38.5t-33 95.5q0 84 46 143t128 59q48 0 92 -25q8 -4 11 -4q8 0 12 15q10 39 16 69 q-53 34 -134 34z" />
<glyph unicode="&#x108;" horiz-adv-x="576" d="M613 736h-68l-51 88l-87 -88h-74l118 147h100zM616 656l-33 -101q-68 32 -143 32q-105 0 -188 -84t-83 -211q0 -84 55.5 -145t141.5 -61q64 0 132 34l-6 -101q-62 -29 -136 -29q-134 0 -225 80t-91 212q0 184 113.5 293t300.5 109q99 0 162 -28z" />
<glyph unicode="&#x109;" horiz-adv-x="458" d="M503 594h-68l-51 88l-87 -88h-74l119 147h100zM334 504q-123 0 -206 -75.5t-83 -213.5q0 -98 58 -161.5t163 -63.5q36 0 71 9t48 17q12 55 12 82q0 7 -6 7q-7 0 -23 -8q-54 -18 -81 -18q-58 0 -91 38.5t-33 95.5q0 84 46 143t128 59q48 0 92 -25q8 -4 11 -4q8 0 12 15 q10 39 16 69q-53 34 -134 34z" />
<glyph unicode="&#x10a;" horiz-adv-x="576" d="M616 656l-33 -101q-68 32 -143 32q-105 0 -188 -84t-83 -211q0 -84 55.5 -145t141.5 -61q64 0 132 34l-6 -101q-62 -29 -136 -29q-134 0 -225 80t-91 212q0 184 113.5 293t300.5 109q99 0 162 -28zM409 760l20 103h104l-20 -103h-104z" />
<glyph unicode="&#x10b;" horiz-adv-x="458" d="M334 504q-123 0 -206 -75.5t-83 -213.5q0 -98 58 -161.5t163 -63.5q36 0 71 9t48 17q12 55 12 82q0 7 -6 7q-7 0 -23 -8q-54 -18 -81 -18q-58 0 -91 38.5t-33 95.5q0 84 46 143t128 59q48 0 92 -25q8 -4 11 -4q10 0 13 14l15 70q-53 34 -134 34zM318 617l20 103h104 l-20 -103h-104z" />
<glyph unicode="&#x10c;" horiz-adv-x="576" d="M328 883h69l51 -88l87 88h74l-118 -147h-100zM616 656l-33 -101q-68 32 -143 32q-105 0 -188 -84t-83 -211q0 -84 55.5 -145t141.5 -61q64 0 132 34l-6 -101q-62 -29 -136 -29q-134 0 -225 80t-91 212q0 184 113.5 293t300.5 109q99 0 162 -28z" />
<glyph unicode="&#x10d;" horiz-adv-x="458" d="M250 741h69l50 -88l88 88h74l-119 -147h-100zM334 504q-123 0 -206 -75.5t-83 -213.5q0 -98 58 -161.5t163 -63.5q36 0 71 9t48 17q12 55 12 82q0 7 -6 7q-7 0 -23 -8q-54 -18 -81 -18q-58 0 -91 38.5t-33 95.5q0 84 46 143t128 59q48 0 92 -25q8 -4 11 -4q8 0 12 15 q10 39 16 69q-53 34 -134 34z" />
<glyph unicode="&#x10e;" horiz-adv-x="703" d="M326 883h69l51 -88l87 88h74l-118 -147h-100zM161 674l-131 -674h230q98 0 176.5 32.5t127 87.5t74 123t25.5 143q0 128 -78.5 208t-225.5 80h-198zM167 91l95 490q30 6 77 6q91 0 145.5 -54t54.5 -144q0 -141 -87 -221.5t-210 -80.5q-55 0 -75 4z" />
<glyph unicode="&#x10f;" horiz-adv-x="732" d="M443 494l43 223h112q-103 -531 -110 -566q-18 -100 -23 -151h-91q-11 0 -11 9q0 2 1 7.5t1 6.5l8 44h-4q-18 -28 -54 -52.5t-84 -24.5q-90 0 -138 61.5t-48 140.5q0 144 87 228t224 84q60 0 87 -10zM344 417q-73 0 -126.5 -63.5t-53.5 -166.5q0 -49 22 -79.5t69 -30.5 q107 0 139 168l32 162q-30 10 -82 10zM654 560l22 114h116l-19 -96q-10 -53 -44.5 -90.5t-77.5 -56.5l-15 22q62 36 73 107h-55z" />
<glyph unicode="&#x110;" horiz-adv-x="696" d="M352 674q147 0 225.5 -80.5t78.5 -208.5q0 -74 -25.5 -142t-74 -123t-127 -87.5t-176.5 -32.5h-230l57 292h-70l18 92h70l56 290h198zM235 87q123 0 210 80.5t87 221.5q0 90 -54.5 144t-145.5 54q-47 0 -77 -6l-38 -197h175l-17 -92h-176l-40 -201q24 -4 76 -4z" />
<glyph unicode="&#x111;" horiz-adv-x="592" d="M443 494l14 74h-125l17 87h125l12 62h112l-12 -62h36l-17 -87h-36q-76 -394 -81 -417q-18 -100 -23 -151h-91q-11 0 -11 9q0 2 1 7.5t1 6.5l8 44h-2q-18 -28 -55 -52.5t-85 -24.5q-90 0 -138 61.5t-48 140.5q0 144 87 228t224 84q60 0 87 -10zM344 417 q-73 0 -126.5 -63.5t-53.5 -166.5q0 -49 22 -79.5t69 -30.5q107 0 140 168l31 162q-30 10 -82 10z" />
<glyph unicode="&#x112;" horiz-adv-x="505" d="M30 0l131 674h364l-18 -92h-245l-37 -190h232l-18 -92h-232l-41 -208h247l-17 -92h-366zM508 883l-16 -85h-221l16 85h221z" />
<glyph unicode="&#x113;" horiz-adv-x="550" d="M488 741l-17 -85h-221l17 85h221zM315 504q-121 0 -195.5 -91t-74.5 -210q0 -94 63.5 -153.5t175.5 -59.5q60 0 129 26q13 65 13 84q0 8 -7 8q-3 0 -21 -7q-53 -24 -100 -24q-65 0 -101.5 32.5t-36.5 82.5q0 18 3 30h317q25 62 25 115q0 66 -47 116.5t-143 50.5zM179 298 q4 17 10.5 34.5t20.5 39.5t38.5 36t56.5 14q43 0 65.5 -25t22.5 -59q0 -10 -6 -40h-208z" />
<glyph unicode="&#x114;" horiz-adv-x="505" d="M161 674l-131 -674h366l17 92h-247l41 208h232l18 92h-232l37 190h245l18 92h-364zM424 883h70q-9 -49 -48.5 -88.5t-108.5 -39.5q-47 0 -73 23.5t-30.5 50.5t0.5 54h69q-4 -21 6 -41.5t43 -20.5q32 0 50 20t22 42z" />
<glyph unicode="&#x115;" horiz-adv-x="506" d="M444 674h70q-10 -49 -49.5 -88.5t-107.5 -39.5q-47 0 -73 23.5t-30.5 50.5t0.5 54h69q-1 -11 -0.5 -25t13 -25.5t35.5 -11.5q32 0 50.5 20.5t22.5 41.5zM342 504q-121 0 -195.5 -91t-74.5 -210q0 -94 63.5 -153.5t175.5 -59.5q60 0 129 26q13 65 13 84q0 8 -7 8 q-4 0 -21 -7q-53 -24 -100 -24q-65 0 -101.5 32.5t-36.5 82.5q0 18 3 30h317q25 62 25 115q0 66 -47 116.5t-143 50.5zM206 298q4 17 10.5 34.5t20.5 39.5t38.5 36t56.5 14q43 0 65.5 -25t22.5 -59q0 -10 -6 -40h-208z" />
<glyph unicode="&#x116;" horiz-adv-x="505" d="M161 674l-131 -674h366l17 92h-247l41 208h232l18 92h-232l37 190h245l18 92h-364zM317 760l20 103h104l-20 -103h-104z" />
<glyph unicode="&#x117;" d="M320 504q-121 0 -195.5 -91t-74.5 -210q0 -94 63.5 -153.5t175.5 -59.5q60 0 129 26q13 65 13 84q0 8 -7 8q-4 0 -21 -7q-53 -24 -100 -24q-65 0 -101.5 32.5t-36.5 82.5q0 18 3 30h317q25 62 25 115q0 66 -47 116.5t-143 50.5zM184 298q4 17 10.5 34.5t20.5 39.5 t38.5 36t56.5 14q43 0 65.5 -25t22.5 -59q0 -10 -6 -40h-208zM285 617l20 103h104l-20 -103h-104z" />
<glyph unicode="&#x118;" horiz-adv-x="505" d="M322 0h-292l131 674h364l-18 -92h-245l-37 -190h232l-18 -92h-232l-40 -208h246l-18 -92q-77 -104 -77 -154q0 -34 39 -34q19 0 43 8l-12 -65q-42 -14 -83 -14q-84 0 -84 74q0 71 101 185z" />
<glyph unicode="&#x119;" horiz-adv-x="550" d="M163 222q-3 -15 -3 -30q0 -50 36.5 -82.5t101.5 -32.5q53 0 101 24q14 7 20 7q7 0 7 -8q0 -19 -13 -84q-50 -19 -94 -24q-60 -82 -71 -137q-8 -43 43 -43q11 0 39 7l-13 -65q-39 -13 -80 -13q-15 0 -29 3t-30 11.5t-23.5 28.5t-1.5 49q13 69 91 159q-94 10 -146.5 67.5 t-52.5 142.5q0 120 74.5 211t195.5 91q96 0 143 -50.5t47 -116.5q0 -59 -25 -115h-317zM179 297h208q6 30 6 41q0 34 -22.5 59t-65.5 25q-31 0 -56 -14t-38.5 -36t-21 -40t-10.5 -35z" />
<glyph unicode="&#x11a;" horiz-adv-x="528" d="M161 674l-131 -674h366l17 92h-247l41 208h232l18 92h-232l37 190h245l18 92h-364zM267 883h74l51 -88l87 88h69l-118 -147h-100z" />
<glyph unicode="&#x11b;" horiz-adv-x="561" d="M235 741h69l50 -88l88 88h74l-119 -147h-100zM315 504q-121 0 -195.5 -91t-74.5 -210q0 -94 63.5 -153.5t175.5 -59.5q60 0 129 26q13 65 13 84q0 8 -7 8q-3 0 -21 -7q-53 -24 -100 -24q-65 0 -101.5 32.5t-36.5 82.5q0 18 3 30h317q25 62 25 115q0 66 -47 116.5 t-143 50.5zM179 298q4 17 10.5 34.5t20.5 39.5t38.5 36t56.5 14q43 0 65.5 -25t22.5 -59q0 -10 -6 -40h-208z" />
<glyph unicode="&#x11c;" horiz-adv-x="686" d="M620 736h-68l-51 88l-87 -88h-74l118 147h100zM656 656l-34 -102q-6 4 -27 11t-62.5 14.5t-83.5 7.5q-67 0 -130 -32.5t-107 -101.5t-44 -160q0 -87 55 -146.5t141 -59.5q49 0 92 13l30 156h-119l18 92h238l-62 -319q-22 -12 -75.5 -25.5t-118.5 -13.5 q-156 0 -241.5 85.5t-85.5 217.5q0 164 119 277.5t296 113.5q129 0 201 -28z" />
<glyph unicode="&#x11d;" horiz-adv-x="569" d="M507 594h-68l-51 88l-87 -88h-74l119 147h100zM347 44h5q-11 -55 -18 -89q-11 -58 -53.5 -85t-93.5 -27q-43 0 -81.5 6t-43.5 6q-20 0 -23 -23l-9 -61q1 0 12 -2.5t23.5 -4.5t31 -4.5t43 -4t50.5 -1.5q121 0 179.5 50t78.5 158l101 519q-72 23 -192 23q-79 0 -142 -30.5 t-99.5 -79.5t-55.5 -105.5t-19 -113.5q0 -79 46.5 -132t131.5 -53q80 0 128 54zM391 247q-16 -78 -51.5 -123t-88.5 -45q-46 0 -68 31t-22 71q0 110 55.5 174t138.5 64q31 0 68 -10z" />
<glyph unicode="&#x11e;" horiz-adv-x="686" d="M558 883h70q-9 -49 -48.5 -88.5t-108.5 -39.5q-47 0 -73 23.5t-30.5 50.5t0.5 54h69q-4 -21 6 -41.5t43 -20.5q32 0 50 20t22 42zM656 656l-34 -102q-6 4 -27 11t-62.5 14.5t-83.5 7.5q-67 0 -130 -32.5t-107 -101.5t-44 -160q0 -87 55 -146.5t141 -59.5q49 0 92 13 l30 156h-119l18 92h238l-62 -319q-22 -12 -75.5 -25.5t-118.5 -13.5q-156 0 -241.5 85.5t-85.5 217.5q0 164 119 277.5t296 113.5q129 0 201 -28z" />
<glyph unicode="&#x11f;" horiz-adv-x="569" d="M479 741h70q-10 -49 -49.5 -88.5t-107.5 -39.5q-47 0 -73 23.5t-30.5 50.5t0.5 54h69q-1 -11 -0.5 -25t13 -25.5t35.5 -11.5q32 0 50.5 20.5t22.5 41.5zM347 44h5q-11 -55 -18 -89q-11 -58 -53.5 -85t-93.5 -27q-43 0 -81.5 6t-43.5 6q-20 0 -23 -23l-9 -61q1 0 12 -2.5 t23.5 -4.5t31 -4.5t43 -4t50.5 -1.5q121 0 179.5 50t78.5 158l101 519q-72 23 -192 23q-79 0 -142 -30.5t-99.5 -79.5t-55.5 -105.5t-19 -113.5q0 -79 46.5 -132t131.5 -53q80 0 128 54zM391 247q-16 -78 -51.5 -123t-88.5 -45q-46 0 -68 31t-22 71q0 110 55.5 174t138.5 64 q31 0 68 -10z" />
<glyph unicode="&#x120;" horiz-adv-x="686" d="M406 760l20 103h104l-20 -103h-104zM656 656l-34 -102q-6 4 -27 11t-62.5 14.5t-83.5 7.5q-67 0 -130 -32.5t-107 -101.5t-44 -160q0 -87 55 -146.5t141 -59.5q49 0 92 13l30 156h-119l18 92h238l-62 -319q-22 -12 -75.5 -25.5t-118.5 -13.5q-156 0 -241.5 85.5 t-85.5 217.5q0 164 119 277.5t296 113.5q129 0 201 -28z" />
<glyph unicode="&#x121;" horiz-adv-x="569" d="M270 617l20 103h104l-20 -103h-104zM347 44h5q-11 -55 -18 -89q-11 -58 -53.5 -85t-93.5 -27q-43 0 -81.5 6t-43.5 6q-20 0 -23 -23l-9 -61q1 0 12 -2.5t23.5 -4.5t31 -4.5t43 -4t50.5 -1.5q121 0 179.5 50t78.5 158l101 519q-72 23 -192 23q-79 0 -142 -30.5 t-99.5 -79.5t-55.5 -105.5t-19 -113.5q0 -79 46.5 -132t131.5 -53q80 0 128 54zM391 247q-16 -78 -51.5 -123t-88.5 -45q-46 0 -68 31t-22 71q0 110 55.5 174t138.5 64q31 0 68 -10z" />
<glyph unicode="&#x122;" horiz-adv-x="686" d="M266 -169l22 114h116l-19 -96q-10 -53 -44.5 -90.5t-77.5 -56.5l-15 22q62 36 73 107h-55zM656 656l-34 -102q-6 4 -27 11t-62.5 14.5t-83.5 7.5q-67 0 -130 -32.5t-107 -101.5t-44 -160q0 -87 55 -146.5t141 -59.5q49 0 92 13l30 156h-119l18 92h238l-62 -319 q-22 -12 -75.5 -25.5t-118.5 -13.5q-156 0 -241.5 85.5t-85.5 217.5q0 164 119 277.5t296 113.5q129 0 201 -28z" />
<glyph unicode="&#x123;" horiz-adv-x="569" d="M367 594h-61l110 147h107zM347 44h5q-11 -55 -18 -89q-11 -58 -53.5 -85t-93.5 -27q-43 0 -81.5 6t-43.5 6q-20 0 -23 -23l-9 -61q1 0 12 -2.5t23.5 -4.5t31 -4.5t43 -4t50.5 -1.5q121 0 179.5 50t78.5 158l101 519q-72 23 -192 23q-79 0 -142 -30.5t-99.5 -79.5 t-55.5 -105.5t-19 -113.5q0 -79 46.5 -132t131.5 -53q80 0 128 54zM391 247q-16 -78 -51.5 -123t-88.5 -45q-46 0 -68 31t-22 71q0 110 55.5 174t138.5 64q31 0 68 -10z" />
<glyph unicode="&#x124;" horiz-adv-x="727" d="M578 674h119l-131 -674h-119l58 300h-298l-58 -300h-119l131 674h119l-55 -282h298zM583 736h-73l-51 88l-87 -88h-69l118 147h100z" />
<glyph unicode="&#x125;" horiz-adv-x="585" d="M555 736h-73l-51 88l-87 -88h-69l118 147h100zM20 0h113q33 172 47 244q17 86 52 130t83 44q34 0 55 -20.5t21 -52.5q0 -8 -6 -50l-57 -295h112q40 205 56 290q9 36 9 78q0 53 -42.5 95t-112.5 42q-81 0 -127 -53h-2l51 265h-112z" />
<glyph unicode="&#x126;" horiz-adv-x="719" d="M739 582l-18 -92h-60l-95 -490h-118l54 277h-299l-54 -277h-119l95 490h-70l18 92h70l18 93h119l-18 -93h299l18 93h118l-18 -93h60zM520 369l23 121h-299l-23 -121h299z" />
<glyph unicode="&#x127;" d="M20 0l111 571h-55l17 86h55l12 60h112l-12 -60h191l-17 -86h-190l-23 -119h2q46 53 127 53q70 0 112.5 -42t42.5 -95q0 -42 -9 -78l-56 -290h-112q51 264 57 295q6 42 6 50q0 32 -21 52.5t-55 20.5q-48 0 -83 -44t-52 -130l-47 -244h-113z" />
<glyph unicode="&#x128;" horiz-adv-x="310" d="M30 0l131 674h119l-131 -674h-119zM91 752l-23 51q59 63 120 63q40 0 77.5 -24t66.5 -24q37 0 73 34l22 -51q-61 -64 -119 -64q-41 0 -78 24t-68 24q-36 0 -71 -33z" />
<glyph unicode="&#x129;" horiz-adv-x="253" d="M132 0h-112l96 494h112zM44 627l-23 51q63 63 121 63q40 0 77 -24t66 -24q38 0 74 34l22 -51q-61 -64 -120 -64q-41 0 -77.5 24t-67.5 24q-36 0 -72 -33z" />
<glyph unicode="&#x12a;" horiz-adv-x="310" d="M30 0l131 674h119l-131 -674h-119zM374 883l-16 -85h-221l16 85h221z" />
<glyph unicode="&#x12b;" horiz-adv-x="253" d="M132 0h-112l96 494h112zM326 741l-17 -85h-221l17 85h221z" />
<glyph unicode="&#x12c;" horiz-adv-x="310" d="M30 0l131 674h119l-131 -674h-119zM321 883h70q-9 -49 -49 -88.5t-108 -39.5q-47 0 -73 23.5t-30.5 50.5t0.5 54h69q-4 -21 6 -41.5t43 -20.5q32 0 50 20t22 42z" />
<glyph unicode="&#x12d;" horiz-adv-x="253" d="M20 0h112l96 494h-112zM277 736h70q-10 -49 -49.5 -88.5t-107.5 -39.5q-47 0 -73 23.5t-30.5 50.5t0.5 54h69q-1 -11 -0.5 -25t13 -25.5t35.5 -11.5q32 0 50.5 20.5t22.5 41.5z" />
<glyph unicode="&#x12e;" horiz-adv-x="310" d="M75 0h-45l131 674h119l-131 -674q-12 -16 -27.5 -38t-33 -58t-17.5 -58q0 -34 39 -34q20 0 44 8l-13 -65q-42 -14 -83 -14q-83 0 -83 74q0 72 100 185z" />
<glyph unicode="&#x12f;" horiz-adv-x="253" d="M58 0h-38l96 494h112l-96 -494q-78 -92 -78 -149q0 -17 11 -28t33 -11q15 0 39 8l-13 -65q-42 -14 -79 -14q-30 0 -58.5 17.5t-28.5 57.5q0 78 100 184zM135 606l22 114h116l-22 -114h-116z" />
<glyph unicode="&#x130;" horiz-adv-x="310" d="M30 0l131 674h119l-131 -674h-119zM188 763l20 103h104l-20 -103h-104z" />
<glyph unicode="&#x131;" horiz-adv-x="248" d="M132 0h-112l96 494h112z" />
<glyph unicode="&#x132;" horiz-adv-x="625" d="M80 0l131 674h119l-131 -674h-119zM461 178l96 496h119q-80 -409 -95 -485q-18 -94 -68 -146.5t-148 -52.5q-41 0 -86 10l19 98q28 -11 60 -11q84 0 103 91z" />
<glyph unicode="&#x133;" horiz-adv-x="499" d="M20 0h112l96 494h-112zM251 -81q-8 -40 -33 -58t-54 -18q-17 0 -31.5 4t-15.5 4q-10 0 -13 -14q-16 -55 -21 -73q22 -11 67 -11q84 0 140.5 43t74.5 132l110 566h-112q-95 -487 -112 -575zM138 606l22 114h116l-22 -114h-116zM381 606l22 114h116l-22 -114h-116z" />
<glyph unicode="&#x134;" horiz-adv-x="367" d="M431 738h-68l-51 88l-87 -88h-74l119 147h100zM122 178l96 496h119q-80 -409 -95 -485q-18 -94 -68 -146.5t-148 -52.5q-41 0 -86 10l19 98q27 -11 60 -11q84 0 103 91z" />
<glyph unicode="&#x135;" horiz-adv-x="280" d="M17 -81q-8 -40 -33 -58t-53 -18q-17 0 -31.5 4t-15.5 4q-10 0 -13 -14q-16 -55 -21 -73q22 -11 67 -11q83 0 139.5 43t74.5 132l110 566h-112q-95 -487 -112 -575zM345 594h-73l-51 88l-87 -88h-69l119 147h100z" />
<glyph unicode="&#x136;" horiz-adv-x="589" d="M538 0h-145l-181 330l-64 -330h-118l131 674h118l-61 -312l306 312h135l-321 -325zM166 -169l22 114h116l-19 -96q-10 -53 -44.5 -90.5t-77.5 -56.5l-15 22q62 36 73 107h-55z" />
<glyph unicode="&#x137;" horiz-adv-x="480" d="M132 0h-112l139 717h112l-84 -432l201 209h132l-227 -226l149 -268h-140l-122 250zM128 -169l22 114h116l-19 -96q-10 -53 -44.5 -90.5t-77.5 -56.5l-15 22q62 36 73 107h-55z" />
<glyph unicode="&#x138;" horiz-adv-x="480" d="M132 0h-112l96 494h112l-41 -209l201 209h132l-227 -226l149 -268h-140l-122 250z" />
<glyph unicode="&#x139;" horiz-adv-x="461" d="M255 736h-60l108 147h108zM280 674l-114 -582h245l-17 -92h-364l131 674h119z" />
<glyph unicode="&#x13a;" horiz-adv-x="251" d="M239 766h-60l109 147h108zM132 0h-112l139 717h112z" />
<glyph unicode="&#x13b;" horiz-adv-x="461" d="M280 674l-114 -582h245l-17 -92h-364l131 674h119zM130 -169l22 114h116l-19 -96q-10 -53 -44.5 -90.5t-77.5 -56.5l-15 22q62 36 73 107h-55z" />
<glyph unicode="&#x13c;" horiz-adv-x="286" d="M151 0h-112l139 717h112zM8 -169l22 114h116l-19 -96q-10 -53 -44.5 -90.5t-77.5 -56.5l-15 22q62 36 73 107h-55z" />
<glyph unicode="&#x13d;" horiz-adv-x="501" d="M280 674l-114 -582h245l-17 -92h-364l131 674h119zM403 560l22 114h116l-19 -96q-10 -53 -44.5 -90.5t-77.5 -56.5l-15 22q62 36 73 107h-55z" />
<glyph unicode="&#x13e;" horiz-adv-x="412" d="M132 0h-112l139 717h112zM354 560l22 114h116l-19 -96q-10 -53 -44.5 -90.5t-77.5 -56.5l-15 22q62 36 73 107h-55z" />
<glyph unicode="&#x13f;" horiz-adv-x="491" d="M280 674l-114 -582h245l-17 -92h-364l131 674h119zM327 328l20 103h104l-20 -103h-104z" />
<glyph unicode="&#x140;" horiz-adv-x="408" d="M132 0h-112l139 717h112zM284 295l20 103h104l-20 -103h-104z" />
<glyph unicode="&#x141;" horiz-adv-x="461" d="M206 294l-40 -202h245l-17 -92h-363l48 250l-79 -28l-16 86l114 40l64 326h118l-55 -282l123 42l15 -86z" />
<glyph unicode="&#x142;" horiz-adv-x="251" d="M270 420l15 -86l-94 -33l-58 -301h-112l50 259l-60 -21l-16 86l95 33l70 360h112l-62 -318z" />
<glyph unicode="&#x143;" horiz-adv-x="736" d="M136 0h-106l131 674h151l183 -516h4l101 516h106l-131 -674h-147l-186 525h-4zM437 736h-60l108 147h108z" />
<glyph unicode="&#x144;" d="M348 594h-60l109 147h108zM20 0h112q34 171 48 243q16 86 51.5 130t83.5 44q35 0 55.5 -20.5t20.5 -52.5q0 -10 -5 -43l-59 -301h113q42 220 59 305q6 33 6 62q0 53 -42 95t-114 42q-35 0 -64.5 -11t-45.5 -26t-24.5 -26t-10.5 -17h-2q7 40 9 51q0 1 0.5 5t0.5 6 q0 8 -11 8h-90q-11 -83 -24 -151z" />
<glyph unicode="&#x145;" horiz-adv-x="736" d="M136 0h-106l131 674h151l183 -516h4l101 516h106l-131 -674h-147l-186 525h-4zM200 -184l22 114h116l-19 -96q-10 -53 -44.5 -90.5t-77.5 -56.5l-15 22q62 36 73 107h-55z" />
<glyph unicode="&#x146;" d="M132 0h-112q60 307 67 343q13 68 24 151h90q11 0 11 -8q0 -2 -0.5 -6t-0.5 -5l-9 -51h2q2 6 10.5 17t24.5 26t45.5 26t64.5 11q72 0 114 -42t42 -95q0 -29 -6 -62l-59 -305h-113q53 270 59 301q5 32 5 43q0 32 -20.5 52.5t-55.5 20.5q-48 0 -83.5 -44t-51.5 -130z M143 -169l22 114h116l-19 -96q-10 -53 -44.5 -90.5t-77.5 -56.5l-15 22q62 36 73 107h-55z" />
<glyph unicode="&#x147;" horiz-adv-x="736" d="M30 0h106l102 525h4l186 -525h147l131 674h-106l-101 -516h-4l-183 516h-151zM372 883h74l51 -88l87 88h69l-118 -147h-100z" />
<glyph unicode="&#x148;" d="M224 741h69l50 -88l88 88h74l-119 -147h-100zM20 0h112q34 171 48 243q16 86 51.5 130t83.5 44q35 0 55.5 -20.5t20.5 -52.5q0 -10 -5 -43l-59 -301h113q42 220 59 305q6 33 6 62q0 53 -42 95t-114 42q-35 0 -64.5 -11t-45.5 -26t-24.5 -26t-10.5 -17h-2q7 40 9 51 q0 1 0.5 5t0.5 6q0 8 -11 8h-90q-11 -83 -24 -151z" />
<glyph unicode="&#x149;" horiz-adv-x="678" d="M143 0h112q34 171 48 243q16 86 51.5 130t83.5 44q34 0 55 -20.5t21 -52.5q0 -10 -5 -43l-59 -301h113q42 220 59 305q6 33 6 62q0 53 -42 95t-114 42q-35 0 -64 -11t-45 -26t-24 -26t-10 -17h-4q7 40 9 51q0 1 0.5 5t0.5 6q0 8 -11 8h-90q-11 -83 -24 -151zM78 560 l22 114h116l-19 -96q-10 -53 -44.5 -90.5t-77.5 -56.5l-15 22q62 36 73 107h-55z" />
<glyph unicode="&#x14a;" horiz-adv-x="736" d="M706 674q-122 -623 -146 -747q-17 -89 -73.5 -131.5t-140.5 -42.5q-45 0 -67 11l20 73q4 13 13 13q1 0 16 -3.5t32 -3.5q28 0 53.5 18t33.5 57q1 6 6.5 34t9.5 49l-221 524h-4l-102 -525h-106l131 674h151l188 -446h13l87 446h106z" />
<glyph unicode="&#x14b;" d="M505 367q0 -29 -6 -62q-3 -15 -15.5 -81t-30 -156.5t-27.5 -139.5q-17 -89 -73.5 -132t-140.5 -43q-40 0 -68 11l21 73q3 14 13 14q1 0 16 -4t31 -4q29 0 54 18t33 58q1 3 74 382q5 32 5 44q0 31 -21 51.5t-55 20.5q-48 0 -83.5 -44t-51.5 -130l-48 -243h-112 q60 307 67 343q13 64 24 151h90q11 0 11 -8q0 -7 -2 -11l-9 -50h3q3 9 15.5 24.5t48 35t81.5 19.5q71 0 113.5 -42t42.5 -95z" />
<glyph unicode="&#x14c;" horiz-adv-x="745" d="M589 883l-16 -85h-221l16 85h221zM417 684q-162 0 -269.5 -113.5t-107.5 -297.5q0 -123 80 -203t207 -80q168 0 273 113t105 301q0 119 -80 199.5t-208 80.5zM167 277q0 135 68.5 222.5t168.5 87.5q81 0 127.5 -52.5t46.5 -137.5q0 -137 -69 -223.5t-170 -86.5 q-80 0 -126 53.5t-46 136.5z" />
<glyph unicode="&#x14d;" horiz-adv-x="584" d="M492 741l-17 -85h-221l17 85h221zM317 415q-64 0 -109 -56.5t-45 -152.5q0 -51 26 -89t78 -38q66 0 110 60t44 154q0 53 -28 87.5t-76 34.5zM45 207q0 131 73.5 214t206.5 83q105 0 159.5 -61t54.5 -145q0 -138 -73 -223t-208 -85q-100 0 -156.5 59t-56.5 158z" />
<glyph unicode="&#x14e;" horiz-adv-x="745" d="M538 883h70q-9 -49 -48.5 -88.5t-108.5 -39.5q-47 0 -73 23.5t-30.5 50.5t0.5 54h69q-4 -21 6 -41.5t43 -20.5q32 0 50 20t22 42zM417 684q-162 0 -269.5 -113.5t-107.5 -297.5q0 -123 80 -203t207 -80q168 0 273 113t105 301q0 119 -80 199.5t-208 80.5zM167 277 q0 135 68.5 222.5t168.5 87.5q81 0 127.5 -52.5t46.5 -137.5q0 -137 -69 -223.5t-170 -86.5q-80 0 -126 53.5t-46 136.5z" />
<glyph unicode="&#x14f;" horiz-adv-x="550" d="M466 674h70q-10 -49 -49.5 -88.5t-107.5 -39.5q-47 0 -73 23.5t-30.5 50.5t0.5 54h69q-1 -11 -0.5 -25t13 -25.5t35.5 -11.5q32 0 50.5 20.5t22.5 41.5zM349 415q-64 0 -109 -56.5t-45 -152.5q0 -51 26 -89t78 -38q66 0 110 60t44 154q0 53 -28 87.5t-76 34.5zM77 207 q0 131 73.5 214t206.5 83q105 0 159.5 -61t54.5 -145q0 -138 -73 -223t-208 -85q-100 0 -156.5 59t-56.5 158z" />
<glyph unicode="&#x150;" horiz-adv-x="745" d="M360 736h-61l109 147h107zM521 736h-60l108 147h108zM417 684q-162 0 -269.5 -113.5t-107.5 -297.5q0 -123 80 -203t207 -80q168 0 273 113t105 301q0 119 -80 199.5t-208 80.5zM167 277q0 135 68.5 222.5t168.5 87.5q81 0 127.5 -52.5t46.5 -137.5q0 -137 -69 -223.5 t-170 -86.5q-80 0 -126 53.5t-46 136.5z" />
<glyph unicode="&#x151;" horiz-adv-x="625" d="M262 594h-61l110 147h107zM423 594h-60l109 147h108zM317 415q-64 0 -109 -56.5t-45 -152.5q0 -51 26 -89t78 -38q66 0 110 60t44 154q0 53 -28 87.5t-76 34.5zM45 207q0 131 73.5 214t206.5 83q105 0 159.5 -61t54.5 -145q0 -138 -73 -223t-208 -85q-100 0 -156.5 59 t-56.5 158z" />
<glyph unicode="&#x152;" horiz-adv-x="985" d="M742 582l-37 -190h232l-18 -92h-232l-40 -208h247l-18 -92h-365l7 38q-85 -48 -190 -48q-127 0 -207.5 80.5t-80.5 202.5q0 184 108 297.5t270 113.5q128 0 210 -82l14 72h363l-18 -92h-245zM405 587q-100 0 -168.5 -87t-68.5 -222q0 -84 46 -137.5t126 -53.5 q100 0 169.5 87t69.5 224q0 84 -46.5 136.5t-127.5 52.5z" />
<glyph unicode="&#x153;" horiz-adv-x="919" d="M317 415q-64 0 -109 -56.5t-45 -152.5q0 -51 26 -89t78 -38q66 0 110 60t44 154q0 53 -28 87.5t-76 34.5zM849 222h-316q-4 -16 -4 -30q0 -50 36.5 -82.5t101.5 -32.5q43 0 101 24q14 7 20 7q7 0 7 -8q0 -25 -12 -83q-66 -27 -130 -27q-128 0 -193 78q-75 -78 -202 -78 q-100 0 -156.5 59t-56.5 158q0 131 73.5 214t206.5 83q116 0 174 -79q76 79 185 79q96 0 143 -50.5t47 -116.5q0 -65 -25 -115zM674 422q-31 0 -56 -14t-38.5 -36t-20.5 -40t-10 -34h207q6 15 6 40q0 34 -22.5 59t-65.5 25z" />
<glyph unicode="&#x154;" horiz-adv-x="602" d="M390 736h-60l108 147h108zM291 267l99 -267h130l-111 283q23 5 49 17t57.5 35t51.5 64.5t20 93.5q0 79 -52.5 130t-167.5 51h-206l-131 -674h119l51 267h91zM287 353q-14 0 -30 0.5t-27 1t-13 0.5l46 233q20 2 69 2q68 0 99.5 -29.5t31.5 -74.5q0 -60 -50 -96.5 t-126 -36.5z" />
<glyph unicode="&#x155;" horiz-adv-x="370" d="M253 594h-60l109 147h108zM111 494q-19 -124 -22 -139l-69 -355h113q39 202 47 245q33 166 149 166q18 0 33 -5q12 -4 18 -4q7 0 11 11q14 57 19 80q-28 11 -56 11q-102 0 -149 -75h-2q2 11 8 47q0 1 0.5 4.5t0.5 5.5q0 8 -11 8h-90z" />
<glyph unicode="&#x156;" horiz-adv-x="602" d="M176 -169l22 114h116l-19 -96q-10 -53 -44.5 -90.5t-77.5 -56.5l-15 22q62 36 73 107h-55zM390 0l-99 267h-91l-51 -267h-119l131 674h206q115 0 167.5 -51t52.5 -130q0 -52 -20 -93.5t-51.5 -64.5t-57.5 -35t-49 -17l111 -283h-130zM287 353q76 0 126 36.5t50 96.5 q0 45 -31.5 74.5t-99.5 29.5q-49 0 -69 -2l-46 -233q2 0 13 -0.5t27 -1t30 -0.5z" />
<glyph unicode="&#x157;" horiz-adv-x="370" d="M111 494h90q11 0 11 -8q0 -2 -0.5 -5.5t-0.5 -4.5l-8 -47h4q47 75 147 75q28 0 56 -11q-5 -23 -19 -80q-4 -11 -11 -11q-6 0 -18 4q-15 5 -33 5q-116 0 -149 -166l-47 -245h-113q60 309 69 355q3 15 22 139zM-13 -169l22 114h116l-19 -96q-10 -53 -44.5 -90.5 t-77.5 -56.5l-15 22q62 36 73 107h-55z" />
<glyph unicode="&#x158;" horiz-adv-x="602" d="M268 883h69l51 -88l87 88h74l-118 -147h-100zM291 267l99 -267h130l-111 283q23 5 49 17t57.5 35t51.5 64.5t20 93.5q0 79 -52.5 130t-167.5 51h-206l-131 -674h119l51 267h91zM287 353q-14 0 -30 0.5t-27 1t-13 0.5l46 233q20 2 69 2q68 0 99.5 -29.5t31.5 -74.5 q0 -60 -50 -96.5t-126 -36.5z" />
<glyph unicode="&#x159;" horiz-adv-x="370" d="M129 741h69l50 -88l88 88h74l-119 -147h-100zM111 494q-19 -124 -22 -139l-69 -355h113q39 202 47 245q33 166 149 166q18 0 33 -5q12 -4 18 -4q7 0 11 11q14 57 19 80q-28 11 -56 11q-102 0 -149 -75h-2q2 11 8 47q0 1 0.5 4.5t0.5 5.5q0 8 -11 8h-90z" />
<glyph unicode="&#x15a;" horiz-adv-x="494" d="M318 736h-60l108 147h108zM474 670l-26 -100q-51 17 -120 17q-64 0 -104 -28t-40 -71q0 -50 62 -78l45 -21q140 -61 140 -185q0 -37 -16 -72.5t-48 -68.5t-91 -53t-135 -20q-109 0 -151 16l27 104q54 -25 134 -25q68 0 111 30.5t43 72.5q0 57 -79 91l-36 17 q-131 58 -131 174q0 98 79.5 156t206.5 58q84 0 129 -14z" />
<glyph unicode="&#x15b;" horiz-adv-x="387" d="M288 594h-61l110 147h107zM260 504q-94 0 -148.5 -47t-54.5 -113q0 -94 88 -129l37 -15q50 -21 50 -57q0 -27 -27.5 -45.5t-77.5 -18.5q-40 0 -79 13q-2 0 -5 1t-5.5 1.5t-4.5 0.5q-12 0 -15 -13q-2 -9 -9.5 -40.5t-8.5 -37.5q51 -14 143 -14q94 0 151 48.5t57 120.5 q0 89 -89 126l-30 12q-59 24 -59 64q0 27 25 44.5t67 17.5q26 0 79 -16q5 -3 11 -3q9 0 15 20q4 14 10 39t7 27q-37 14 -127 14z" />
<glyph unicode="&#x15c;" horiz-adv-x="494" d="M473 736h-68l-51 88l-87 -88h-74l118 147h100zM474 670l-26 -100q-51 17 -120 17q-64 0 -104 -28t-40 -71q0 -50 62 -78l45 -21q140 -61 140 -185q0 -37 -16 -72.5t-48 -68.5t-91 -53t-135 -20q-109 0 -151 16l27 104q54 -25 134 -25q68 0 111 30.5t43 72.5q0 57 -79 91 l-36 17q-131 58 -131 174q0 98 79.5 156t206.5 58q84 0 129 -14z" />
<glyph unicode="&#x15d;" horiz-adv-x="387" d="M404 594h-68l-51 88l-87 -88h-74l119 147h100zM260 504q-94 0 -148.5 -47t-54.5 -113q0 -94 88 -129l37 -15q50 -21 50 -57q0 -27 -27.5 -45.5t-77.5 -18.5q-40 0 -79 13q-2 0 -5 1t-5.5 1.5t-4.5 0.5q-12 0 -15 -13q-2 -9 -9.5 -40.5t-8.5 -37.5q51 -14 143 -14 q94 0 151 48.5t57 120.5q0 89 -89 126l-30 12q-59 24 -59 64q0 27 25 44.5t67 17.5q26 0 79 -16q5 -3 11 -3q9 0 15 20q4 14 10 39t7 27q-37 14 -127 14z" />
<glyph unicode="&#x15e;" horiz-adv-x="494" d="M328 577q-64 0 -104 -28t-40 -70q0 -51 62 -79l46 -20q139 -63 139 -186q0 -73 -58.5 -135.5t-177.5 -75.5l-22 -30q12 4 28 4q28 0 43.5 -15.5t15.5 -41.5q0 -49 -54 -95t-111 -52l-20 38q41 6 75.5 32.5t34.5 57.5q0 33 -45 33h-31l31 66q-102 0 -150 16l27 104 q62 -24 134 -24q68 0 111.5 30.5t43.5 72.5q0 55 -80 91l-36 16q-131 58 -131 174q0 99 79.5 156.5t206.5 57.5q77 0 129 -13l-26 -100q-48 16 -120 16z" />
<glyph unicode="&#x15f;" horiz-adv-x="387" d="M261 505q86 0 126 -15q-7 -37 -17 -66q-5 -20 -15 -20q-7 0 -11 3q-48 16 -79 16q-41 0 -66 -17.5t-25 -44.5q0 -41 59 -64l30 -12q89 -37 89 -126q0 -62 -42.5 -107t-116.5 -58l-24 -31q12 4 28 4q27 0 43 -15t16 -40q0 -53 -54 -97.5t-110 -51.5l-21 37q42 8 76.5 34 t34.5 57q0 33 -46 33h-31l32 66q-90 1 -137 14q2 9 10 41.5t9 36.5q3 13 14 13q3 0 15 -3q43 -13 80 -13q49 0 77 19t28 45q0 36 -51 57l-37 15q-48 19 -67.5 50.5t-19.5 78.5q0 67 54.5 114t148.5 47z" />
<glyph unicode="&#x160;" horiz-adv-x="494" d="M395 883h78l-118 -147h-100l-62 147h64l52 -88zM474 670l-26 -100q-51 17 -120 17q-64 0 -104 -28t-40 -71q0 -50 62 -78l45 -21q140 -61 140 -185q0 -37 -16 -72.5t-48 -68.5t-91 -53t-135 -20q-109 0 -151 16l27 104q54 -25 134 -25q68 0 111 30.5t43 72.5q0 57 -79 91 l-36 17q-131 58 -131 174q0 98 79.5 156t206.5 58q84 0 129 -14z" />
<glyph unicode="&#x161;" horiz-adv-x="387" d="M362 741h75l-120 -147h-99l-62 147h68l52 -88zM260 504q-94 0 -148.5 -47t-54.5 -113q0 -94 88 -129l37 -15q50 -21 50 -57q0 -27 -27.5 -45.5t-77.5 -18.5q-40 0 -79 13q-2 0 -5 1t-5.5 1.5t-4.5 0.5q-12 0 -15 -13q-2 -9 -9.5 -40.5t-8.5 -37.5q51 -14 143 -14 q94 0 151 48.5t57 120.5q0 89 -89 126l-30 12q-59 24 -59 64q0 27 25 44.5t67 17.5q26 0 79 -16q5 -3 11 -3q9 0 15 20q4 14 10 39t7 27q-37 14 -127 14z" />
<glyph unicode="&#x162;" horiz-adv-x="488" d="M359 582l-113 -582h-118l113 582h-181l18 92h480l-18 -92h-181zM94 -169l22 114h116l-19 -96q-10 -53 -44.5 -90.5t-77.5 -56.5l-15 22q62 36 73 107h-55z" />
<glyph unicode="&#x163;" horiz-adv-x="311" d="M185 -10q-140 0 -140 118q0 23 7 56l47 245h-69l16 85h70l21 109h112l-21 -109h118l-17 -85h-118l-47 -245q-6 -24 -6 -40q0 -44 51 -44q18 0 36.5 4t20.5 4q9 0 9 -9q0 -7 -1 -12q-6 -48 -7 -66q-33 -11 -82 -11zM82 -169l22 114h116l-19 -96q-10 -53 -44.5 -90.5 t-77.5 -56.5l-15 22q62 36 73 107h-55z" />
<glyph unicode="&#x164;" horiz-adv-x="488" d="M246 0l113 582h181l18 92h-480l-18 -92h181l-113 -582h118zM426 883h74l-119 -147h-99l-63 147h69l53 -88z" />
<glyph unicode="&#x165;" horiz-adv-x="479" d="M185 -10q49 0 82 11l7 66q1 5 1 12q0 9 -9 9q-2 0 -20.5 -4t-36.5 -4q-51 0 -51 44q0 16 6 40l47 245h118l17 85h-118l21 109h-112l-21 -109h-70l-16 -85h69l-47 -245q-7 -33 -7 -56q0 -118 140 -118zM421 560l22 114h116l-19 -96q-10 -53 -44.5 -90.5t-77.5 -56.5 l-15 22q62 36 73 107h-55z" />
<glyph unicode="&#x166;" horiz-adv-x="488" d="M304 300l-58 -300h-118l58 300h-181l18 92h181l37 190h-181l18 92h480l-18 -92h-181l-37 -190h181l-18 -92h-181z" />
<glyph unicode="&#x167;" horiz-adv-x="311" d="M185 -10q-141 0 -141 119q0 25 6 55l12 61h-68l17 85h68l19 99h-68l17 85h68l21 109h113l-21 -109h118l-17 -85h-118l-19 -99h118l-17 -85h-118l-15 -79q-2 -14 -2 -21q0 -46 51 -46q18 0 37 4.5t21 4.5q8 0 8 -7q0 -8 -2 -18q-6 -44 -7 -62q-33 -11 -81 -11z" />
<glyph unicode="&#x168;" horiz-adv-x="731" d="M289 769l-23 51q59 63 120 63q40 0 77.5 -24t66.5 -24q37 0 73 34l23 -51q-64 -64 -120 -64q-41 0 -78 24t-68 24q-36 0 -71 -33zM606 241q-22 -114 -95.5 -182.5t-203.5 -68.5q-113 0 -175 57t-62 145q0 23 11 76l79 406h118l-80 -413q-8 -43 -8 -56q0 -51 35.5 -85 t99.5 -34q70 0 110 45t53 113l84 430h119z" />
<glyph unicode="&#x169;" d="M204 627l-23 51q63 63 121 63q40 0 77 -24t66 -24q38 0 74 34l22 -51q-61 -64 -120 -64q-41 0 -77.5 24t-67.5 24q-36 0 -72 -33zM535 494h-113q-33 -171 -47 -243q-17 -86 -52.5 -130t-83.5 -44q-34 0 -54.5 21t-20.5 52q0 21 5 43l58 301h-112q-43 -220 -59 -305 q-6 -33 -6 -62q0 -53 42 -95t114 -42q35 0 64 10.5t45.5 26.5t24.5 26t11 17h2q-7 -40 -9 -51q0 -1 -0.5 -5t-0.5 -6q0 -8 10 -8h91q11 83 24 151z" />
<glyph unicode="&#x16a;" horiz-adv-x="731" d="M588 883l-16 -85h-221l16 85h221zM606 241q-22 -114 -95.5 -182.5t-203.5 -68.5q-113 0 -175 57t-62 145q0 23 11 76l79 406h118l-80 -413q-8 -43 -8 -56q0 -51 35.5 -85t99.5 -34q70 0 110 45t53 113l84 430h119z" />
<glyph unicode="&#x16b;" d="M480 741l-17 -85h-221l17 85h221zM535 494h-113q-33 -171 -47 -243q-17 -86 -52.5 -130t-83.5 -44q-34 0 -54.5 21t-20.5 52q0 21 5 43l58 301h-112q-43 -220 -59 -305q-6 -33 -6 -62q0 -53 42 -95t114 -42q35 0 64 10.5t45.5 26.5t24.5 26t11 17h2q-7 -40 -9 -51 q0 -1 -0.5 -5t-0.5 -6q0 -8 10 -8h91q11 83 24 151z" />
<glyph unicode="&#x16c;" horiz-adv-x="731" d="M527 883h70q-9 -49 -49 -88.5t-108 -39.5q-47 0 -73 23.5t-30.5 50.5t0.5 54h69q-4 -21 6 -41.5t43 -20.5q32 0 50 20t22 42zM606 241q-22 -114 -95.5 -182.5t-203.5 -68.5q-113 0 -175 57t-62 145q0 23 11 76l79 406h118l-80 -413q-8 -43 -8 -56q0 -51 35.5 -85 t99.5 -34q70 0 110 45t53 113l84 430h119z" />
<glyph unicode="&#x16d;" d="M435 741h70q-10 -49 -49.5 -88.5t-107.5 -39.5q-47 0 -73 23.5t-30.5 50.5t0.5 54h69q-1 -11 -0.5 -25t13 -25.5t35.5 -11.5q32 0 50.5 20.5t22.5 41.5zM535 494h-113q-33 -171 -47 -243q-17 -86 -52.5 -130t-83.5 -44q-34 0 -54.5 21t-20.5 52q0 21 5 43l58 301h-112 q-43 -220 -59 -305q-6 -33 -6 -62q0 -53 42 -95t114 -42q35 0 64 10.5t45.5 26.5t24.5 26t11 17h2q-7 -40 -9 -51q0 -1 -0.5 -5t-0.5 -6q0 -8 10 -8h91q11 83 24 151z" />
<glyph unicode="&#x16e;" horiz-adv-x="731" d="M606 241q-22 -114 -95.5 -182.5t-203.5 -68.5q-113 0 -175 57t-62 145q0 23 11 76l79 406h118l-80 -413q-8 -43 -8 -56q0 -51 35.5 -85t99.5 -34q70 0 110 45t53 113l84 430h119zM433 686q-51 0 -74.5 26.5t-23.5 64.5q0 41 30.5 72t73.5 31q50 0 74 -26t24 -64 q0 -43 -31 -73.5t-73 -30.5zM439 826q-20 0 -33 -14t-13 -32q0 -16 10 -27.5t31 -11.5q19 0 32 14t13 31q0 40 -40 40z" />
<glyph unicode="&#x16f;" d="M346 542q-51 0 -74.5 26.5t-23.5 64.5q0 41 30.5 72t73.5 31q50 0 74 -26t24 -64q0 -43 -31 -73.5t-73 -30.5zM352 682q-20 0 -33 -14t-13 -32q0 -16 10 -27.5t31 -11.5q19 0 32 14t13 31q0 40 -40 40zM422 494h113q-60 -307 -67 -343q-13 -68 -24 -151h-91q-10 0 -10 8 q0 2 0.5 6t0.5 5l9 51h-2q-3 -7 -11 -17t-24.5 -26t-45.5 -26.5t-64 -10.5q-72 0 -114 42t-42 95q0 29 6 62l59 305h112q-52 -270 -58 -301q-5 -22 -5 -43q0 -31 20.5 -52t54.5 -21q48 0 83.5 44t52.5 130z" />
<glyph unicode="&#x170;" horiz-adv-x="748" d="M391 736h-61l109 147h107zM552 736h-60l108 147h108zM606 241q-22 -114 -95.5 -182.5t-203.5 -68.5q-113 0 -175 57t-62 145q0 23 11 76l79 406h118l-80 -413q-8 -43 -8 -56q0 -51 35.5 -85t99.5 -34q70 0 110 45t53 113l84 430h119z" />
<glyph unicode="&#x171;" d="M254 594h-61l110 147h107zM415 594h-60l109 147h108zM535 494h-113q-33 -171 -47 -243q-17 -86 -52.5 -130t-83.5 -44q-34 0 -54.5 21t-20.5 52q0 21 5 43l58 301h-112q-43 -220 -59 -305q-6 -33 -6 -62q0 -53 42 -95t114 -42q35 0 64 10.5t45.5 26.5t24.5 26t11 17h2 q-7 -40 -9 -51q0 -1 -0.5 -5t-0.5 -6q0 -8 10 -8h91q11 83 24 151z" />
<glyph unicode="&#x172;" horiz-adv-x="730" d="M572 674h118l-84 -433q-21 -110 -91.5 -178.5t-192.5 -72.5q-70 -92 -70 -144q0 -34 39 -34q19 0 43 8l-12 -65q-42 -14 -83 -14q-84 0 -84 74q0 71 96 179q-88 15 -134.5 68.5t-46.5 130.5q0 24 11 75l79 406h118l-80 -413q-8 -43 -8 -55q0 -52 35.5 -86t99.5 -34 q70 0 110 45t53 113z" />
<glyph unicode="&#x173;" d="M353 0q-10 0 -10 8q0 2 0.5 6t0.5 5l9 51h-2q-3 -7 -11 -17t-24.5 -26t-45.5 -26.5t-64 -10.5q-72 0 -114 42t-42 95q0 29 6 62l59 305h112q-52 -270 -58 -301q-5 -22 -5 -43q0 -31 20.5 -52t54.5 -21q48 0 83.5 44t52.5 130l47 243h113q-60 -307 -67 -343 q-13 -68 -24 -151q-65 -82 -77 -145q-4 -19 10 -31t33 -12q15 0 39 8l-13 -65q-34 -14 -70 -14q-31 0 -63.5 18.5t-32.5 57.5q0 89 100 183h-17z" />
<glyph unicode="&#x174;" horiz-adv-x="914" d="M70 674l45 -674h134l242 546h4l33 -546h142l304 674h-120l-225 -521h-4l-37 521h-137l-237 -521h-4l-22 521h-118zM673 736h-73l-51 88l-87 -88h-69l118 147h100z" />
<glyph unicode="&#x175;" horiz-adv-x="779" d="M50 494l52 -494h129l174 364h4l34 -364h127l249 494h-112l-172 -366h-7l-34 366h-122l-178 -366h-7l-27 366h-110zM600 594h-68l-51 88l-87 -88h-74l119 147h100z" />
<glyph unicode="&#x176;" horiz-adv-x="512" d="M126 0l45 233l-131 441h123l87 -322l209 322h123l-292 -441l-45 -233h-119zM470 736h-68l-51 88l-87 -88h-74l118 147h100z" />
<glyph unicode="&#x177;" horiz-adv-x="471" d="M41 494l88 -493q-24 -41 -44 -75q-21 -36 -45.5 -55.5t-41 -23.5t-39.5 -4q-16 0 -31 4l-15 4q-8 0 -13 -13l-20 -74q22 -11 84 -11q34 0 62 7t53 25t41.5 32t38.5 47t32 48.5t34 57.5l296 524h-124l-179 -344h-4l-52 344h-121zM446 594h-68l-51 88l-87 -88h-74l119 147 h100z" />
<glyph unicode="&#x178;" horiz-adv-x="512" d="M126 0l45 233l-131 441h123l87 -322l209 322h123l-292 -441l-45 -233h-119zM240 760q-28 0 -43 16t-15 38q0 29 19 47.5t45 18.5q28 0 43 -16t15 -38q0 -29 -18.5 -47.5t-45.5 -18.5zM435 760q-28 0 -43 16t-15 38q0 29 19 47.5t45 18.5q28 0 43 -16t15 -38 q0 -29 -18.5 -47.5t-45.5 -18.5z" />
<glyph unicode="&#x179;" horiz-adv-x="496" d="M-40 0l17 92l401 490h-297l18 92h437l-18 -92l-401 -490h315l-17 -92h-455zM329 736h-60l108 147h108z" />
<glyph unicode="&#x17a;" horiz-adv-x="413" d="M276 594h-60l109 147h108zM74 409l17 85h342l-14 -71l-283 -338h221l-16 -85h-361l14 76l280 333h-200z" />
<glyph unicode="&#x17b;" horiz-adv-x="496" d="M-40 0l17 92l401 490h-297l18 92h437l-18 -92l-401 -490h315l-17 -92h-455zM283 761l20 103h104l-20 -103h-104z" />
<glyph unicode="&#x17c;" horiz-adv-x="413" d="M91 494l-17 -85h200l-280 -333l-14 -76h361l16 85h-221l283 338l14 71h-342zM229 617l20 103h104l-20 -103h-104z" />
<glyph unicode="&#x17d;" horiz-adv-x="495" d="M-23 92l-17 -92h454l17 92h-314l400 490l18 92h-437l-18 -92h297zM432 883h74l-119 -147h-99l-63 147h69l53 -88z" />
<glyph unicode="&#x17e;" horiz-adv-x="386" d="M111 494l-17 -85h201l-280 -332l-14 -77h361l16 86h-222l284 336l14 72h-343zM383 741h74l-120 -147h-99l-62 147h69l52 -88z" />
<glyph unicode="&#x192;" horiz-adv-x="510" d="M447 586q-84 0 -114 -108q-15 -53 -24 -86h123l-25 -91h-124q-20 -71 -55 -197.5t-36 -128.5q-32 -114 -100.5 -165.5t-143.5 -51.5q-44 0 -68 8l28 95q32 -7 44 -7q90 0 119 100q18 67 98 347h-79l25 91h80q21 74 24 83q56 207 238 207q35 0 73 -7l-30 -96q-28 7 -53 7z " />
<glyph unicode="&#x1fc;" horiz-adv-x="875" d="M766 0h-340l29 152h-230l-128 -152h-147l562 674h383l-18 -92h-220l-37 -190h207l-18 -92h-207l-41 -208h222zM530 537h-8l-224 -294h175zM596 736h-60l108 147h108z" />
<glyph unicode="&#x1fd;" horiz-adv-x="849" d="M454 594h-60l109 147h108zM288 223h61q-3 -12 -3 -17q-13 -62 -47 -98t-85 -36q-33 0 -51 18.5t-18 46.5q0 42 38.5 64t104.5 22zM457 223h317q25 63 25 115q0 66 -47 116.5t-143 50.5q-90 0 -158 -54q-48 53 -157 53q-84 0 -156 -32q-1 -7 -3.5 -20.5t-5 -30t-3.5 -22.5 v-6q0 -7 7 -7q3 0 18 6q60 28 123 28q43 0 71 -17t28 -45q0 -1 -3 -25l-7 -34h-68q-75 0 -129 -14.5t-82.5 -39.5t-41 -53t-12.5 -62q0 -59 42.5 -99.5t117.5 -40.5q117 0 182 98h1q60 -97 205 -97q64 0 130 27q12 58 12 83q0 8 -7 8q-6 0 -20 -7q-58 -24 -101 -24 q-65 0 -101.5 32.5t-36.5 82.5q0 18 3 30zM473 299q3 17 10.5 35t21 39.5t38.5 35.5t56 14q43 0 65.5 -25t22.5 -59q0 -25 -6 -40h-208z" />
<glyph unicode="&#x1fe;" horiz-adv-x="746" d="M453 736h-60l108 147h108zM582 640q59 -38 91.5 -99.5t32.5 -135.5q0 -188 -105 -301.5t-273 -113.5q-50 0 -95 14l-55 -100l-72 24l59 107q-59 38 -92 100t-33 139q0 184 108 297.5t270 113.5q51 0 96 -14l61 112l73 -24zM405 588q-100 0 -169 -87.5t-69 -222.5 q0 -92 55 -147l245 448q-27 9 -62 9zM340 87q100 0 169.5 87t69.5 224q0 93 -54 145l-245 -446q30 -10 60 -10z" />
<glyph unicode="&#x1ff;" horiz-adv-x="594" d="M364 594h-60l109 147h108zM465 464q79 -57 79 -166q0 -138 -73 -223t-208 -85q-35 0 -69 8l-61 -106l-72 24l66 114q-77 59 -77 176q0 132 73.5 215t206.5 83q35 0 67 -8l59 101l72 -24zM322 415q-64 0 -108.5 -56.5t-44.5 -152.5q0 -46 18 -78l164 283q-18 4 -29 4z M272 79q67 0 110.5 60t43.5 154q0 47 -21 78l-166 -287q17 -5 33 -5z" />
<glyph unicode="&#x218;" horiz-adv-x="494" d="M474 670l-26 -100q-51 17 -120 17q-64 0 -104 -28t-40 -71q0 -50 62 -78l45 -21q140 -61 140 -185q0 -37 -16 -72.5t-48 -68.5t-91 -53t-135 -20q-109 0 -151 16l27 104q54 -25 134 -25q68 0 111 30.5t43 72.5q0 57 -79 91l-36 17q-131 58 -131 174q0 98 79.5 156 t206.5 58q84 0 129 -14zM53 -169l22 114h116l-19 -96q-10 -53 -44.5 -90.5t-77.5 -56.5l-15 22q62 36 73 107h-55z" />
<glyph unicode="&#x219;" horiz-adv-x="387" d="M260 504q90 0 127 -14q-1 -2 -7 -27t-10 -39q-6 -20 -15 -20q-7 0 -11 3q-53 16 -79 16q-42 0 -67 -17.5t-25 -44.5q0 -40 59 -64l30 -12q89 -37 89 -126q0 -72 -57 -120.5t-151 -48.5q-92 0 -143 14q1 6 8.5 37.5t9.5 40.5q3 13 15 13q2 0 4.5 -0.5t5.5 -1.5t5 -1 q39 -13 79 -13q50 0 77.5 18.5t27.5 45.5q0 36 -50 57l-37 15q-88 35 -88 129q0 66 54.5 113t148.5 47zM53 -169l22 114h116l-19 -96q-10 -53 -44.5 -90.5t-77.5 -56.5l-15 22q62 36 73 107h-55z" />
<glyph unicode="&#x21a;" horiz-adv-x="498" d="M359 582l-113 -582h-118l113 582h-181l18 92h480l-18 -92h-181zM94 -169l22 114h116l-19 -96q-10 -53 -44.5 -90.5t-77.5 -56.5l-15 22q62 36 73 107h-55z" />
<glyph unicode="&#x21b;" horiz-adv-x="311" d="M185 -10q-140 0 -140 118q0 23 7 56l47 245h-69l16 85h70l21 109h112l-21 -109h118l-17 -85h-118l-47 -245q-6 -24 -6 -40q0 -44 51 -44q18 0 36.5 4t20.5 4q9 0 9 -9q0 -7 -1 -12q-6 -48 -7 -66q-33 -11 -82 -11zM82 -169l22 114h116l-19 -96q-10 -53 -44.5 -90.5 t-77.5 -56.5l-15 22q62 36 73 107h-55z" />
<glyph unicode="&#x237;" horiz-adv-x="261" d="M17 -81l112 575h112q-87 -443 -110 -566q-18 -89 -74.5 -132t-139.5 -43q-45 0 -67 11l21 73q3 14 13 14q1 0 15.5 -4t31.5 -4q28 0 53 18t33 58z" />
<glyph unicode="&#x2c6;" horiz-adv-x="360" d="M320 594h-68l-51 88l-87 -88h-74l119 147h100z" />
<glyph unicode="&#x2c7;" horiz-adv-x="361" d="M40 741h69l50 -88l88 88h74l-119 -147h-100z" />
<glyph unicode="&#x2d8;" horiz-adv-x="343" d="M233 722h70q-10 -49 -49.5 -88.5t-107.5 -39.5q-57 0 -81.5 30t-24.5 71q0 15 3 27h69q-1 -4 -1 -14q0 -48 49 -48q32 0 50.5 20.5t22.5 41.5z" />
<glyph unicode="&#x2d9;" horiz-adv-x="204" d="M40 617l20 103h104l-20 -103h-104z" />
<glyph unicode="&#x2da;" horiz-adv-x="282" d="M138 547q-51 0 -74.5 26.5t-23.5 64.5q0 41 30.5 72t73.5 31q50 0 74 -26t24 -64q0 -43 -31 -73.5t-73 -30.5zM144 687q-20 0 -33 -14t-13 -32q0 -16 10 -27.5t31 -11.5q19 0 32 14t13 31q0 40 -40 40z" />
<glyph unicode="&#x2db;" horiz-adv-x="259" d="M214 0q-13 -13 -25 -31q-53 -73 -53 -121q0 -35 44 -35q11 0 39 7l-13 -65q-39 -13 -79 -13q-30 0 -58.5 17.5t-28.5 57.5q0 48 32.5 98.5t67.5 84.5h74z" />
<glyph unicode="&#x2dc;" horiz-adv-x="439" d="M63 616l-23 51q59 63 120 63q40 0 77 -24t66 -24q38 0 74 34l22 -51q-61 -64 -119 -64q-41 0 -78 24t-68 24q-36 0 -71 -33z" />
<glyph unicode="&#x2dd;" horiz-adv-x="390" d="M183 594h-61l110 147h107zM344 594h-60l109 147h108z" />
<glyph unicode="&#x401;" horiz-adv-x="505" d="M161 674l-131 -674h366l17 92h-247l41 208h232l18 92h-232l37 190h245l18 92h-364zM401 760l20 103h104l-20 -103h-104zM206 760l20 103h104l-20 -103h-104z" />
<glyph unicode="&#x402;" horiz-adv-x="725" d="M360 -142l-30 83q30 14 60 35.5t62 55t51.5 82t19.5 103.5q0 58 -35 96.5t-95 38.5q-41 0 -83 -21l-64 -331h-119l113 583h-180l18 92h480l-18 -92h-180l-33 -168q42 26 107 26q99 0 155 -66t56 -154q0 -71 -26 -133.5t-68.5 -107t-91 -75t-99.5 -47.5z" />
<glyph unicode="&#x403;" horiz-adv-x="464" d="M261 582l-113 -582h-118l131 674h363l-18 -92h-245zM369 736h-61l108 147h108z" />
<glyph unicode="&#x404;" horiz-adv-x="577" d="M440 588q-81 0 -153.5 -54t-101.5 -142h295l-18 -92h-293v-8q0 -84 55.5 -145t142.5 -61q64 0 132 34l-6 -101q-62 -29 -136 -29q-134 0 -225.5 80t-91.5 212q0 185 113.5 294t301.5 109q96 0 162 -28l-34 -101q-68 32 -143 32z" />
<glyph unicode="&#x405;" horiz-adv-x="494" d="M474 670l-26 -100q-51 17 -120 17q-64 0 -104 -28t-40 -71q0 -50 62 -78l45 -21q140 -61 140 -185q0 -37 -16 -72.5t-48 -68.5t-91 -53t-135 -20q-109 0 -151 16l27 104q54 -25 134 -25q68 0 111 30.5t43 72.5q0 57 -79 91l-36 17q-131 58 -131 174q0 98 79.5 156 t206.5 58q84 0 129 -14z" />
<glyph unicode="&#x406;" horiz-adv-x="310" d="M30 0l131 674h119l-131 -674h-119z" />
<glyph unicode="&#x407;" horiz-adv-x="310" d="M161 674l-131 -674h119l131 674h-119zM277 760l20 103h104l-20 -103h-104zM82 760l20 103h104l-20 -103h-104z" />
<glyph unicode="&#x408;" horiz-adv-x="367" d="M121 178l97 496h119q-78 -398 -93 -474q-41 -210 -218 -210q-56 0 -86 10l19 98q27 -11 59 -11q39 0 67 24t36 67z" />
<glyph unicode="&#x409;" horiz-adv-x="916" d="M546 -11q-86 0 -182 24l111 569h-186q-32 -161 -51 -258q-14 -74 -38.5 -131t-47 -89t-56.5 -57t-53 -34t-51 -21q-5 -2 -8 -3l-34 94q26 11 44.5 21.5t44.5 33t44.5 59.5t28.5 86l76 391h425l-50 -251q44 11 86 11q57 0 100.5 -17.5t68 -47t36.5 -63t12 -69.5 q0 -84 -47 -141.5t-117 -82t-156 -24.5zM747 231q0 50 -36 84t-105 34q-25 0 -60 -10l-49 -254q28 -10 70 -10q72 0 126 42.5t54 113.5z" />
<glyph unicode="&#x40a;" horiz-adv-x="939" d="M672 435q57 0 100.5 -18t68 -47.5t36.5 -62.5t12 -69q0 -84 -47 -141.5t-117 -82t-155 -24.5q-87 0 -183 24l57 286h-237l-58 -300h-119l131 674h119l-55 -282h237l56 282h119l-51 -251q32 12 86 12zM592 76q71 0 125 42.5t54 113.5q0 49 -36 83.5t-104 34.5 q-30 0 -60 -10l-49 -254q28 -10 70 -10z" />
<glyph unicode="&#x40b;" horiz-adv-x="730" d="M446 440q79 0 131.5 -45.5t52.5 -114.5q0 -34 -7 -66l-42 -214h-119q38 189 44 220q4 24 4 36q0 43 -29 69t-76 26q-22 0 -45.5 -7t-35 -13t-15.5 -9l-63 -322h-119l113 582h-180l18 92h479l-18 -92h-180l-33 -173q14 9 50.5 20t69.5 11z" />
<glyph unicode="&#x40c;" horiz-adv-x="589" d="M437 736h-61l108 147h108zM538 0h-145l-180 330l-64 -330h-119l131 674h119l-61 -312l305 312h135l-320 -325z" />
<glyph unicode="&#x40e;" horiz-adv-x="528" d="M429 854h70q-10 -49 -49.5 -88.5t-108.5 -39.5q-47 0 -72.5 23.5t-30 50.5t0.5 54h68q-1 -11 -0.5 -25t13.5 -26t35 -12q33 0 51 20t23 43zM142 159l46 69l-132 446h123l87 -322l209 322h123q-177 -277 -286 -441q-94 -142 -145 -192.5t-124 -50.5q-47 0 -71 8l16 83 q1 0 7.5 -1.5t15.5 -2.5t15 -1q59 0 116 83z" />
<glyph unicode="&#x40f;" horiz-adv-x="709" d="M547 0h-203l-30 -156h-98l31 156h-217l131 674h119l-114 -582h281l114 582h118z" />
<glyph unicode="&#x410;" horiz-adv-x="623" d="M-70 0l387 674h136l120 -674h-124l-24 152h-285l-83 -152h-127zM362 551h-4l-168 -308h220z" />
<glyph unicode="&#x411;" horiz-adv-x="582" d="M468 582h-208l-31 -159q32 12 86 12q57 0 100.5 -18t68 -47.5t36.5 -62.5t12 -69q0 -84 -47 -141.5t-117 -82t-156 -24.5t-182 24l129 660h327zM413 232q0 49 -36 83.5t-105 34.5q-25 0 -60 -10l-49 -254q28 -10 70 -10q72 0 126 42.5t54 113.5z" />
<glyph unicode="&#x412;" horiz-adv-x="592" d="M30 0l131 674h226q103 0 149 -47t46 -110q0 -41 -19 -74t-46 -50.5t-47.5 -27t-32.5 -11.5l-1 -4q32 -7 66.5 -41.5t34.5 -97.5q0 -87 -78.5 -149t-205.5 -62h-223zM263 589l-38 -198h74q71 0 115 34t44 84q0 37 -30.5 60.5t-89.5 23.5q-43 0 -75 -4zM208 308l-42 -216 q33 -7 75 -7q76 0 124.5 38t48.5 89q0 42 -34 69t-102 27h-70z" />
<glyph unicode="&#x413;" horiz-adv-x="464" d="M262 582l-113 -582h-119l131 674h363l-18 -92h-244z" />
<glyph unicode="&#x414;" horiz-adv-x="726" d="M562 92h69l-48 -247h-98l31 155h-438l-31 -155h-97l47 247h67q26 25 42.5 45t38.5 69t35 115l69 353h427zM443 92l96 490h-189q-22 -110 -50 -253q-11 -61 -36 -113.5t-41 -72.5t-44 -51h264z" />
<glyph unicode="&#x415;" horiz-adv-x="505" d="M30 0l131 674h364l-18 -92h-245l-37 -190h232l-18 -92h-232l-41 -208h247l-17 -92h-366z" />
<glyph unicode="&#x416;" horiz-adv-x="792" d="M345 330l-260 -330h-145l292 349l-151 325h135l135 -312l61 312h119l-61 -312l256 312h136l-279 -325l158 -349h-145l-132 330l-64 -330h-119z" />
<glyph unicode="&#x417;" horiz-adv-x="453" d="M78 644q1 0 13.5 5.5t20.5 9t25.5 9t33 8.5t38 5.5t45.5 2.5q93 0 141 -48.5t48 -118.5q0 -43 -18.5 -76t-47.5 -51t-47.5 -26t-34.5 -12l-1 -3q10 -4 24 -13.5t33 -27.5t31.5 -48.5t12.5 -65.5q0 -98 -80 -151t-209 -53q-77 0 -136 21l13 99q57 -23 129 -23 q71 0 119.5 29.5t48.5 88.5q0 45 -35 73.5t-102 28.5h-35l16 81h31q68 0 119.5 32.5t51.5 86.5q0 34 -27 57.5t-80 23.5q-52 0 -138 -37z" />
<glyph unicode="&#x418;" horiz-adv-x="736" d="M575 0h-106l102 525h-4l-390 -525h-147l131 674h106l-101 -516h4l385 516h151z" />
<glyph unicode="&#x419;" horiz-adv-x="736" d="M469 0h106l131 674h-151l-385 -516h-4l101 516h-106l-131 -674h147l390 526h4zM540 844h69q-10 -49 -49.5 -88.5t-107.5 -39.5q-47 0 -73 23.5t-30.5 50.5t0.5 54h69q-4 -21 6 -41.5t43 -20.5q32 0 50.5 20.5t22.5 41.5z" />
<glyph unicode="&#x41a;" horiz-adv-x="589" d="M538 0h-145l-181 330l-64 -330h-118l131 674h118l-61 -312l306 312h135l-321 -325z" />
<glyph unicode="&#x41b;" horiz-adv-x="719" d="M182 674h507l-131 -674h-119l113 582h-269q-29 -147 -48 -244q-15 -76 -41.5 -136t-50 -92.5t-61 -60.5t-54.5 -36.5t-50 -22.5l-28 83q26 14 43.5 26t42 36t42.5 61.5t28 86.5z" />
<glyph unicode="&#x41c;" horiz-adv-x="859" d="M76 0h-106l218 674h137l63 -526l275 526h136l-30 -674h-110l29 522h-4l-263 -522h-118l-60 522h-4z" />
<glyph unicode="&#x41d;" horiz-adv-x="727" d="M578 674h119l-131 -674h-119l58 300h-298l-58 -300h-119l131 674h119l-55 -282h298z" />
<glyph unicode="&#x41e;" horiz-adv-x="745" d="M417 684q128 0 208 -80.5t80 -199.5q0 -188 -105 -301t-273 -113q-127 0 -207 80t-80 203q0 184 107.5 297.5t269.5 113.5zM167 277q0 -83 46 -136.5t126 -53.5q101 0 170 86.5t69 223.5q0 85 -46.5 137.5t-127.5 52.5q-100 0 -168.5 -87.5t-68.5 -222.5z" />
<glyph unicode="&#x41f;" horiz-adv-x="709" d="M161 674h518l-131 -674h-118l113 582h-281l-113 -582h-119z" />
<glyph unicode="&#x420;" horiz-adv-x="574" d="M214 338q14 -2 50 -2q86 0 131 44.5t45 102.5q0 48 -32.5 77t-94.5 29q-41 0 -51 -2zM270 247q-55 0 -73 4l-49 -251h-118l131 674h159q116 0 180 -53.5t64 -134.5q0 -102 -75.5 -170.5t-218.5 -68.5z" />
<glyph unicode="&#x421;" horiz-adv-x="576" d="M616 656l-33 -101q-68 32 -143 32q-105 0 -188 -84t-83 -211q0 -84 55.5 -145t141.5 -61q64 0 132 34l-6 -101q-62 -29 -136 -29q-134 0 -225 80t-91 212q0 184 113.5 293t300.5 109q99 0 162 -28z" />
<glyph unicode="&#x422;" horiz-adv-x="488" d="M359 582l-113 -582h-118l113 582h-181l18 92h480l-18 -92h-181z" />
<glyph unicode="&#x423;" horiz-adv-x="528" d="M142 159l46 69l-132 446h123l87 -322l209 322h123q-177 -277 -286 -441q-94 -142 -145 -192.5t-124 -50.5q-47 0 -71 8l16 83q1 0 7.5 -1.5t15.5 -2.5t15 -1q59 0 116 83z" />
<glyph unicode="&#x424;" horiz-adv-x="766" d="M608 368q0 66 -34.5 113.5t-90.5 58.5l-79 -408q79 7 141.5 69.5t62.5 166.5zM381 628l23 117h119l-23 -117q86 -8 156 -75t70 -182q0 -72 -22 -130t-56 -94t-80.5 -60.5t-91 -35t-91.5 -11.5l-21 -116h-120l22 116q-86 8 -156 75.5t-70 177.5q0 86 28.5 152t78 103.5 t108 57t126.5 22.5zM159 295q0 -61 35 -108.5t89 -58.5l79 408q-81 -8 -142 -71.5t-61 -169.5z" />
<glyph unicode="&#x425;" horiz-adv-x="560" d="M208 342l-144 332h130l100 -232l192 232h134l-270 -319l159 -355h-137l-109 252l-205 -252h-138z" />
<glyph unicode="&#x426;" horiz-adv-x="729" d="M565 92h70l-48 -248h-98l31 156h-490l131 674h119l-114 -582h281l114 582h118z" />
<glyph unicode="&#x427;" horiz-adv-x="613" d="M464 675h119l-131 -675h-119l51 266q-14 -9 -50.5 -20t-69.5 -11q-79 0 -131.5 45.5t-52.5 114.5q0 31 6 66l42 214h119q-37 -189 -43 -220q-4 -16 -4 -36q0 -43 28.5 -69t75.5 -26q49 0 97 29z" />
<glyph unicode="&#x428;" horiz-adv-x="921" d="M772 674h119l-131 -674h-730l131 674h119l-114 -582h187l114 582h118l-114 -582h187z" />
<glyph unicode="&#x429;" horiz-adv-x="941" d="M777 92h70l-48 -247h-98l31 155h-702l131 674h119l-114 -582h187l114 582h119l-114 -582h187l114 582h118z" />
<glyph unicode="&#x42a;" horiz-adv-x="603" d="M336 435q57 0 100.5 -18t68 -47.5t36.5 -62.5t12 -69q0 -84 -47 -141.5t-117 -82t-156 -24.5t-182 24l112 568h-123l18 92h242l-50 -251q32 12 86 12zM255 76q72 0 126 42.5t54 113.5q0 49 -36 83.5t-105 34.5q-25 0 -60 -10l-49 -254q28 -10 70 -10z" />
<glyph unicode="&#x42b;" horiz-adv-x="855" d="M825 674l-131 -674h-119l131 674h119zM160 674l-130 -660q96 -24 182 -24t156 24.5t117 82t47 141.5q0 36 -12 69t-36.5 62.5t-68 47.5t-100.5 18q-54 0 -86 -12l50 251h-119zM414 232q0 -71 -54 -113.5t-126 -42.5q-42 0 -70 10l49 254q35 10 60 10q69 0 105 -34.5 t36 -83.5z" />
<glyph unicode="&#x42c;" horiz-adv-x="582" d="M160 675h119l-50 -252q32 12 86 12q57 0 100.5 -18t68 -47.5t36.5 -62.5t12 -69q0 -84 -47 -141.5t-117 -82t-156 -24.5t-182 24zM414 232q0 49 -36 83.5t-105 34.5q-25 0 -60 -10l-49 -254q28 -10 70 -10q72 0 126 42.5t54 113.5z" />
<glyph unicode="&#x42d;" horiz-adv-x="616" d="M260 685q142 0 229 -87.5t87 -224.5q0 -175 -111.5 -279t-302.5 -104q-99 0 -162 28l33 101q68 -32 144 -32q107 0 174.5 57.5t85.5 155.5h-297l18 92h289q-3 81 -58 139t-139 58q-64 0 -132 -34l6 101q62 29 136 29z" />
<glyph unicode="&#x42e;" horiz-adv-x="1003" d="M674 685q129 0 209 -80.5t80 -199.5q0 -189 -105.5 -302t-273.5 -113q-127 0 -207 80t-80 203v27h-90l-58 -300h-119l131 675h120l-55 -283h84q33 134 132 213.5t232 79.5zM597 87q100 0 169 87t69 224q0 84 -46 137t-127 53q-100 0 -169 -87.5t-69 -222.5 q0 -84 46 -137.5t127 -53.5z" />
<glyph unicode="&#x42f;" horiz-adv-x="582" d="M315 365q44 0 58 2l43 221q-1 0 -6.5 0.5t-17 1t-26.5 0.5q-72 0 -122 -34t-50 -97q0 -42 32.5 -68t88.5 -26zM290 272l-201 -272h-139l227 299q-14 3 -29.5 11.5t-34.5 25t-31.5 47t-12.5 68.5q0 110 76 166.5t206 56.5h201l-131 -674h-119l52 272h-64z" />
<glyph unicode="&#x430;" horiz-adv-x="572" d="M488 151q-10 -58 -20 -151h-79q-23 0 -23 20l7 47h-2q-56 -77 -144 -77t-135 56t-47 144q0 143 91.5 228.5t229.5 85.5q109 0 186 -23q-57 -295 -64 -330zM164 187q0 -46 23 -78t64 -32q49 0 88.5 42t55.5 126l31 163q-27 9 -68 9q-82 0 -138 -63t-56 -167z" />
<glyph unicode="&#x431;" horiz-adv-x="599" d="M179 206q0 -51 26 -89t78 -38q66 0 109.5 60.5t43.5 154.5q0 53 -28 87t-76 34q-64 0 -108.5 -56.5t-44.5 -152.5zM554 288q0 -134 -76 -216t-199 -82q-102 0 -160.5 69t-58.5 184q0 196 88.5 318.5t248.5 122.5h30q37 0 45 30h82q-4 -19 -6 -30q-8 -40 -39.5 -62.5 t-76.5 -22.5h-30q-82 0 -125 -38t-57 -93h4q7 6 21 13t42.5 15t57.5 8q99 0 154 -61t55 -155z" />
<glyph unicode="&#x432;" horiz-adv-x="531" d="M114 495q77 10 184 10t152.5 -36.5t45.5 -91.5q0 -33 -14.5 -58.5t-35.5 -38.5t-37 -19.5t-26 -7.5v-1q26 -8 52 -35.5t26 -72.5q0 -64 -61 -109t-181 -45q-57 0 -117 8.5t-82 15.5zM187 288h82q49 0 78.5 20t29.5 55q0 28 -22.5 44.5t-66.5 16.5q-46 0 -76 -9zM145 75 q20 -5 82 -5q54 0 85.5 22.5t31.5 58.5q0 29 -22 48.5t-66 19.5h-83z" />
<glyph unicode="&#x433;" horiz-adv-x="412" d="M132 0h-112l96 494h316l-17 -85h-204z" />
<glyph unicode="&#x434;" horiz-adv-x="609" d="M547 85l-47 -240h-98l31 155h-365l-31 -155h-97l46 240h51q3 3 13.5 15t15 17t14.5 18t15.5 21.5t14 23.5t13.5 28t10.5 30t9.5 35l43 221h373q-36 -183 -80 -409h68zM367 85l63 324h-149q-18 -94 -25 -129q-10 -52 -31 -95t-34 -58.5t-37 -41.5h213z" />
<glyph unicode="&#x435;" horiz-adv-x="550" d="M315 504q96 0 143 -50.5t47 -116.5q0 -53 -25 -115h-317q-3 -12 -3 -30q0 -50 36.5 -82.5t101.5 -32.5q47 0 100 24q18 7 21 7q7 0 7 -8q0 -19 -13 -84q-69 -26 -129 -26q-112 0 -175.5 59.5t-63.5 153.5q0 119 74.5 210t195.5 91zM179 298h208q6 30 6 40q0 34 -22.5 59 t-65.5 25q-32 0 -56.5 -14t-38.5 -36t-20.5 -39.5t-10.5 -34.5z" />
<glyph unicode="&#x436;" horiz-adv-x="731" d="M544 268l149 -268h-140l-122 250l-48 -250h-112l48 250l-218 -250h-141l253 268l-138 226h132l119 -209l41 209h112l-41 -209l200 209h133z" />
<glyph unicode="&#x437;" horiz-adv-x="459" d="M250 504q75 0 122 -37.5t47 -89.5q0 -31 -13 -55t-32.5 -37t-36 -19.5t-29.5 -8.5v-1q25 -7 50.5 -33.5t25.5 -71.5q0 -78 -70 -119.5t-173 -41.5q-106 0 -161 41l42 70q62 -29 117 -29q65 0 96.5 23t31.5 57q0 30 -26 47t-74 17h-64l14 70h63q51 0 85 19t34 55 q0 25 -21 42t-68 17q-62 0 -113 -28l-24 77q82 36 177 36z" />
<glyph unicode="&#x438;" horiz-adv-x="600" d="M153 0h-133l96 494h102l-69 -351h7l291 351h133l-96 -494h-102l67 351h-7z" />
<glyph unicode="&#x439;" horiz-adv-x="600" d="M456 741h69q-10 -49 -49 -88.5t-108 -39.5q-56 0 -80.5 29.5t-24.5 70.5q0 16 3 28h68q-1 -4 -1 -13q0 -50 49 -50q32 0 50.5 20.5t23.5 42.5zM153 0h-133l96 494h102l-69 -351h7l291 351h133l-96 -494h-102l67 351h-7z" />
<glyph unicode="&#x43a;" horiz-adv-x="490" d="M132 0h-112l96 494h112l-41 -209l201 209h132l-227 -226l149 -268h-140l-122 250z" />
<glyph unicode="&#x43b;" horiz-adv-x="587" d="M140 494h427l-96 -494h-113l79 409h-201q-29 -149 -36 -187q-23 -116 -76.5 -172t-142.5 -70l-21 78q55 17 83 51t41 98z" />
<glyph unicode="&#x43c;" horiz-adv-x="719" d="M96 0h-96l147 494h154l40 -328h4l169 328h155l-52 -494h-103l45 391h-6l-206 -391h-80l-54 391h-4z" />
<glyph unicode="&#x43d;" horiz-adv-x="562" d="M430 494h112l-96 -494h-112l41 213h-202l-41 -213h-112l96 494h112l-39 -196h202z" />
<glyph unicode="&#x43e;" horiz-adv-x="584" d="M317 415q-64 0 -109 -56.5t-45 -152.5q0 -51 26 -89t78 -38q66 0 110 60t44 154q0 53 -28 87.5t-76 34.5zM45 207q0 131 73.5 214t206.5 83q105 0 159.5 -61t54.5 -145q0 -138 -73 -223t-208 -85q-100 0 -156.5 59t-56.5 158z" />
<glyph unicode="&#x43f;" horiz-adv-x="562" d="M116 494h426l-96 -494h-112l79 409h-202l-79 -409h-112z" />
<glyph unicode="&#x440;" horiz-adv-x="580" d="M137 0l-45 -231h-112q105 538 112 574q13 68 24 151h90q11 0 11 -9v-4l-10 -56h2q45 79 145 79q88 0 134.5 -59t46.5 -131q0 -61 -18 -117.5t-53.5 -103.5t-96.5 -75t-138 -28q-65 0 -92 10zM221 77q88 0 142 68.5t54 163.5q0 49 -25.5 78.5t-67.5 29.5q-45 0 -84 -42 t-54 -126l-32 -162q25 -10 67 -10z" />
<glyph unicode="&#x441;" horiz-adv-x="458" d="M334 504q81 0 134 -34q-6 -30 -16 -69q-4 -15 -12 -15q-3 0 -11 4q-44 25 -92 25q-82 0 -128 -59t-46 -143q0 -57 33 -95.5t91 -38.5q27 0 81 18q16 8 23 8q6 0 6 -7q0 -27 -12 -82q-13 -8 -48 -17t-71 -9q-105 0 -163 63.5t-58 161.5q0 138 83 213.5t206 75.5z" />
<glyph unicode="&#x442;" horiz-adv-x="426" d="M212 0h-112l79 409h-139l17 85h389l-17 -85h-138z" />
<glyph unicode="&#x443;" horiz-adv-x="471" d="M129 1l-88 493h121l52 -344h4l179 344h124q-228 -405 -296 -524q-24 -42 -34 -57.5t-32 -48.5t-38.5 -47t-41.5 -32t-53 -25t-62 -7q-62 0 -84 11q10 40 20 74q5 13 13 13l15 -4q15 -4 31 -4q23 0 39.5 4t41 23.5t45.5 55.5z" />
<glyph unicode="&#x444;" horiz-adv-x="731" d="M279 79l65 336q-62 0 -111.5 -43.5t-64.5 -124.5q-13 -68 13.5 -118t97.5 -50zM452 415l-65 -336q79 8 130.5 61t51.5 130q0 62 -35 101.5t-82 43.5zM373 -10l-45 -223h-112l44 223q-91 8 -153 69.5t-62 159.5q0 132 90.5 208.5t223.5 76.5l34 170h113l-34 -170 q37 -2 74 -17.5t68.5 -42.5t51.5 -70.5t20 -95.5q0 -76 -29.5 -134.5t-77 -91t-100 -48t-106.5 -14.5z" />
<glyph unicode="&#x445;" horiz-adv-x="490" d="M186 248l-122 246h130l69 -165l140 165h127l-214 -238l131 -256h-139l-73 169l-151 -169h-134z" />
<glyph unicode="&#x446;" horiz-adv-x="578" d="M416 494h112l-80 -409h68l-47 -240h-98l31 155h-382l96 494h113l-80 -408h187q58 296 80 408z" />
<glyph unicode="&#x447;" horiz-adv-x="536" d="M419 0h-112l31 161q-14 -8 -46.5 -18t-62.5 -10q-72 0 -120.5 42t-48.5 105q0 29 6 60l30 154h112q-26 -131 -32 -159q-3 -17 -3 -33q0 -38 25.5 -61.5t68.5 -23.5q20 0 41.5 6.5t31.5 11.5t14 8l50 251h112z" />
<glyph unicode="&#x448;" horiz-adv-x="774" d="M642 494h112l-96 -494h-638l96 494h113l-80 -408h150q58 296 80 408h112l-80 -408h151q58 296 80 408z" />
<glyph unicode="&#x449;" horiz-adv-x="804" d="M674 85h68l-47 -240h-98l31 155h-608l96 494h112l-80 -408h151q58 296 80 408h112l-80 -408h151q58 296 80 408h112z" />
<glyph unicode="&#x44a;" horiz-adv-x="588" d="M57 494h239l-34 -174q30 5 73 5q99 0 151 -44t52 -107q0 -89 -73.5 -136.5t-207.5 -47.5q-31 0 -71.5 3t-66 6.5t-31.5 4.5l79 405h-127zM423 168q0 35 -29 58t-87 23q-24 0 -60 -6l-34 -172q55 -5 63 -5q63 0 105 27.5t42 74.5z" />
<glyph unicode="&#x44b;" horiz-adv-x="729" d="M613 0h-112l96 494h112zM116 494l-96 -490q6 -1 31.5 -4.5t66 -6.5t71.5 -3q134 0 207.5 47.5t73.5 136.5q0 63 -52 107t-151 44q-43 0 -73 -5l34 174h-112zM355 168q0 -47 -42 -74.5t-105 -27.5q-8 0 -63 5l34 172q36 6 60 6q58 0 87 -23t29 -58z" />
<glyph unicode="&#x44c;" horiz-adv-x="520" d="M116 494h112l-34 -174q30 5 73 5q98 0 150.5 -44t52.5 -107q0 -89 -73.5 -136.5t-207.5 -47.5q-31 0 -71.5 3t-66 6.5t-31.5 4.5zM355 168q0 35 -29.5 58t-87.5 23q-23 0 -59 -6l-34 -172q55 -5 63 -5q63 0 105 27.5t42 74.5z" />
<glyph unicode="&#x44d;" horiz-adv-x="463" d="M192 504q105 0 163 -63.5t58 -161.5q0 -138 -83 -213.5t-206 -75.5q-81 0 -134 34q10 48 17 69q4 15 12 15q4 0 10 -4q44 -25 93 -25q61 0 103 35t59 91h-197l17 85h191q-3 54 -36 89.5t-88 35.5q-27 0 -81 -18q-16 -8 -22 -8q-7 0 -7 7q0 27 12 82q13 8 48 17t71 9z" />
<glyph unicode="&#x44e;" horiz-adv-x="825" d="M565 504q105 0 160 -61t55 -145q0 -138 -73.5 -223t-208.5 -85q-99 0 -155.5 58.5t-57.5 155.5h-114l-39 -204h-112l96 494h112l-40 -205h105q22 99 92 157t180 58zM508 79q66 0 109.5 60.5t43.5 154.5q0 53 -28 87t-76 34q-64 0 -108.5 -56.5t-44.5 -152.5q0 -51 26 -89 t78 -38z" />
<glyph unicode="&#x44f;" horiz-adv-x="531" d="M355 271l27 137q-63 7 -80 7q-62 0 -95 -22t-33 -57q0 -29 25 -47t75 -18h81zM88 0h-128l177 209q-79 31 -79 117q0 178 277 178q88 0 176 -11l-95 -493h-113l36 190h-104z" />
<glyph unicode="&#x451;" horiz-adv-x="556" d="M315 504q-121 0 -195.5 -91t-74.5 -210q0 -94 63.5 -153.5t175.5 -59.5q60 0 129 26q13 65 13 84q0 8 -7 8q-3 0 -21 -7q-53 -24 -100 -24q-65 0 -101.5 32.5t-36.5 82.5q0 18 3 30h317q25 62 25 115q0 66 -47 116.5t-143 50.5zM179 298q4 17 10.5 34.5t20.5 39.5 t38.5 36t56.5 14q43 0 65.5 -25t22.5 -59q0 -10 -6 -40h-208zM387 617l20 103h104l-20 -103h-104zM192 617l20 103h104l-20 -103h-104z" />
<glyph unicode="&#x452;" horiz-adv-x="575" d="M318 439q105 0 158.5 -62t53.5 -146q0 -71 -30 -137t-75.5 -112.5t-92 -78.5t-87.5 -46l-29 83q23 11 48.5 28.5t61 50.5t58.5 82.5t23 105.5q0 58 -33.5 100.5t-96.5 42.5q-44 0 -82 -23l-63 -327h-112l103 536h-79l17 86h79l21 105h112l-21 -105h192l-17 -86h-192 l-23 -123q47 26 106 26z" />
<glyph unicode="&#x453;" horiz-adv-x="412" d="M133 0h-113l96 494h317l-17 -85h-204zM312 594h-60l109 147h107z" />
<glyph unicode="&#x454;" horiz-adv-x="458" d="M334 504q76 0 134 -33q-8 -42 -17 -70q-4 -15 -12 -15q-4 0 -10 4q-44 25 -93 25q-61 0 -102.5 -34.5t-59.5 -90.5h196l-17 -85h-190q3 -54 36 -90t88 -36q35 0 81 19q21 7 22 7q7 0 7 -7q0 -24 -12 -82q-52 -26 -119 -26q-105 0 -163 63.5t-58 161.5q0 138 83 213.5 t206 75.5z" />
<glyph unicode="&#x455;" horiz-adv-x="387" d="M260 504q90 0 127 -14q-1 -2 -7 -27t-10 -39q-6 -20 -15 -20q-7 0 -11 3q-53 16 -79 16q-42 0 -67 -17.5t-25 -44.5q0 -40 59 -64l30 -12q89 -37 89 -126q0 -72 -57 -120.5t-151 -48.5q-92 0 -143 14q1 6 8.5 37.5t9.5 40.5q3 13 15 13q2 0 4.5 -0.5t5.5 -1.5t5 -1 q39 -13 79 -13q50 0 77.5 18.5t27.5 45.5q0 36 -50 57l-37 15q-88 35 -88 129q0 66 54.5 113t148.5 47z" />
<glyph unicode="&#x456;" horiz-adv-x="253" d="M20 0h112l96 494h-112zM135 606l22 114h116l-22 -114h-116z" />
<glyph unicode="&#x457;" horiz-adv-x="253" d="M20 0l96 494h112l-96 -494h-112zM237 617l20 103h104l-20 -103h-104zM42 617l20 103h104l-20 -103h-104z" />
<glyph unicode="&#x458;" horiz-adv-x="280" d="M17 -81q-8 -40 -33 -58t-53 -18q-17 0 -31.5 4t-15.5 4q-10 0 -13 -14q-16 -55 -21 -73q22 -11 67 -11q83 0 139.5 43t74.5 132l110 566h-112q-95 -487 -112 -575zM146 606l22 114h116l-22 -114h-116z" />
<glyph unicode="&#x459;" horiz-adv-x="826" d="M495 -10q-31 0 -71.5 3t-66 6.5t-31.5 4.5l79 405h-169q-28 -141 -35 -178q-24 -118 -78 -177.5t-142 -73.5l-21 79q54 17 82 51.5t41 98.5l58 285h393l-34 -174q30 5 73 5q98 0 150.5 -44t52.5 -107q0 -89 -73.5 -136.5t-207.5 -47.5zM661 168q0 35 -29.5 58t-87.5 23 q-23 0 -59 -6l-34 -172q55 -5 63 -5q63 0 105 27.5t42 74.5z" />
<glyph unicode="&#x45a;" horiz-adv-x="813" d="M560 325q98 0 150.5 -44t52.5 -107q0 -89 -73.5 -136.5t-207.5 -47.5q-31 0 -71.5 3t-66 6.5t-31.5 4.5l41 209h-180l-41 -213h-113l96 494h113l-39 -196h181l38 196h112l-34 -174q30 5 73 5zM501 66q63 0 105 27.5t42 74.5q0 35 -29.5 58t-87.5 23q-23 0 -59 -6 l-34 -172q55 -5 63 -5z" />
<glyph unicode="&#x45b;" d="M133 0h-113l107 558h-54l16 80h54l18 89h113l-18 -89h206l-16 -80h-206l-19 -106h2q46 53 127 53q70 0 112.5 -42t42.5 -95q0 -42 -9 -78l-56 -290h-112q51 264 57 295q6 42 6 50q0 32 -21 52.5t-55 20.5q-48 0 -83 -44t-52 -130z" />
<glyph unicode="&#x45c;" horiz-adv-x="480" d="M132 0h-112l96 494h112l-41 -209l200 209h133l-227 -226l149 -268h-140l-122 250zM345 594h-60l109 147h108z" />
<glyph unicode="&#x45e;" horiz-adv-x="471" d="M396 741h70q-10 -49 -49.5 -88.5t-107.5 -39.5q-47 0 -73 23.5t-30.5 50.5t0.5 54h69q-1 -11 -0.5 -25t13 -25.5t34.5 -11.5q33 0 51 19.5t23 42.5zM130 1l-88 493h121l52 -344h4l178 344h124q-226 -405 -295 -524q-20 -35 -28.5 -49.5t-28 -43.5t-31.5 -42t-33 -32.5 t-40 -27.5t-44.5 -15t-54.5 -7q-56 0 -86 10q12 40 22 75q3 12 12 12l15 -4q15 -3 32 -3q23 0 39 3.5t40.5 23t45.5 56.5z" />
<glyph unicode="&#x45f;" horiz-adv-x="548" d="M416 494h112l-96 -494h-158l-31 -155h-97l31 155h-157l96 494h112l-80 -407h188q58 295 80 407z" />
<glyph unicode="&#x490;" horiz-adv-x="464" d="M547 796l-41 -214h-244l-113 -582h-119l131 674h280l23 122h83z" />
<glyph unicode="&#x491;" horiz-adv-x="412" d="M132 0h-112l96 494h247l19 99h70l-36 -184h-205z" />
<glyph unicode="&#x4d9;" horiz-adv-x="549" d="M235 -10q-97 0 -143.5 50t-46.5 117q0 61 24 115h317q3 12 3 30q0 50 -36.5 82.5t-101.5 32.5q-42 0 -100 -24q-18 -7 -21 -7q-7 0 -7 8q0 19 13 84q59 26 129 26q112 0 175.5 -59.5t63.5 -153.5q0 -119 -74.5 -210t-194.5 -91zM370 196h-208q-6 -24 -6 -40 q0 -33 22.5 -58.5t65.5 -25.5q32 0 56.5 14t38.5 36t20.5 39.5t10.5 34.5z" />
<glyph unicode="&#x1e02;" horiz-adv-x="592" d="M161 674l-131 -674h223q127 0 205.5 62t78.5 149q0 63 -34.5 97.5t-66.5 41.5l1 4q12 2 32.5 11.5t47.5 27t46 50.5t19 74q0 63 -46 110t-149 47h-226zM225 391l38 198q32 4 75 4q59 0 89.5 -23.5t30.5 -60.5q0 -50 -44 -84t-115 -34h-74zM166 92l42 216h70q68 0 102 -27 t34 -69q0 -51 -48.5 -89t-124.5 -38q-42 0 -75 7zM313 760l20 103h104l-20 -103h-104z" />
<glyph unicode="&#x1e03;" horiz-adv-x="573" d="M323 415q-55 0 -92 -45t-53 -123l-32 -162q37 -10 68 -10q83 0 138.5 66t55.5 176q0 39 -21 68.5t-64 29.5zM217 450h5q48 54 132 54t129 -54t45 -134q0 -58 -18 -113t-54 -104t-99.5 -79t-144.5 -30q-120 0 -192 23l137 704h112zM322 760l20 103h104l-20 -103h-104z" />
<glyph unicode="&#x1e0a;" horiz-adv-x="703" d="M161 674l-131 -674h230q98 0 176.5 32.5t127 87.5t74 123t25.5 143q0 128 -78.5 208t-225.5 80h-198zM167 91l95 490q30 6 77 6q91 0 145.5 -54t54.5 -144q0 -141 -87 -221.5t-210 -80.5q-55 0 -75 4zM337 760l20 103h104l-20 -103h-104z" />
<glyph unicode="&#x1e0b;" horiz-adv-x="578" d="M443 494q-27 10 -87 10q-137 0 -224 -84t-87 -228q0 -79 48 -140.5t138 -61.5q48 0 85 24.5t55 52.5h2q-6 -32 -8 -44q0 -1 -1 -6.5t-1 -7.5q0 -9 11 -9h91q5 51 23 151l110 566h-112zM344 417q52 0 82 -10q-27 -138 -31 -162q-33 -168 -140 -168q-47 0 -69 30.5 t-22 79.5q0 103 53.5 166.5t126.5 63.5zM322 760l20 103h104l-20 -103h-104z" />
<glyph unicode="&#x1e1e;" horiz-adv-x="495" d="M161 674l-131 -674h119l58 300h231l18 92h-231l37 190h245l18 92h-364zM313 760l20 103h104l-20 -103h-104z" />
<glyph unicode="&#x1e1f;" horiz-adv-x="329" d="M377 727q47 0 77 -11l-21 -73q-1 -14 -12 -14l-19 4q-18 4 -39 4q-92 0 -113 -105l-7 -38h119l-17 -85h-119l-79 -409h-112q46 241 79 409h-69l17 85h69l5 29q40 204 241 204zM321 760l20 103h104l-20 -103h-104z" />
<glyph unicode="&#x1e40;" horiz-adv-x="859" d="M-30 0h106l163 522h4l60 -522h118l263 522h4l-29 -522h110l30 674h-139l-275 -526l-63 526h-126zM459 760l20 103h104l-20 -103h-104z" />
<glyph unicode="&#x1e41;" horiz-adv-x="844" d="M20 0h113q40 205 52 268q12 64 46.5 105.5t77.5 41.5q73 0 73 -69q0 -12 -10 -69l-54 -277h112q40 205 52 268q12 64 46.5 105.5t77.5 41.5q73 0 73 -69q0 -26 -10 -69l-54 -277h113q43 225 53 274q13 65 13 88q0 62 -40.5 102t-120.5 40q-45 0 -81.5 -18.5t-52 -36 t-24.5 -35.5q-4 12 -10.5 23.5t-21 28.5t-40 27.5t-57.5 10.5q-34 0 -62 -10t-44 -25.5t-24 -26t-12 -18.5h-2q8 44 9 50q0 1 0.5 5t0.5 6q0 9 -12 9h-89q-16 -107 -24 -149zM465 617l20 103h104l-20 -103h-104z" />
<glyph unicode="&#x1e56;" horiz-adv-x="574" d="M214 338q14 -2 50 -2q86 0 131 44.5t45 102.5q0 48 -32.5 77t-94.5 29q-41 0 -51 -2zM270 247q-55 0 -73 4l-49 -251h-118l131 674h159q116 0 180 -53.5t64 -134.5q0 -102 -75.5 -170.5t-218.5 -68.5zM313 760l20 103h104l-20 -103h-104z" />
<glyph unicode="&#x1e57;" horiz-adv-x="580" d="M137 0q27 -10 92 -10q77 0 138 28t96.5 75t53.5 103.5t18 117.5q0 72 -46.5 131t-134.5 59q-98 0 -143 -79h-4q6 37 9 49l1 5q1 5 1 6q0 9 -12 9h-90q-11 -83 -24 -151l-112 -574h112zM221 77q-42 0 -67 10q27 138 32 162q15 84 54 126t84 42q42 0 67.5 -29.5t25.5 -78.5 q0 -95 -54 -163.5t-142 -68.5zM324 617l20 103h104l-20 -103h-104z" />
<glyph unicode="&#x1e60;" horiz-adv-x="494" d="M474 670l-26 -100q-51 17 -120 17q-64 0 -104 -28t-40 -71q0 -50 62 -78l45 -21q140 -61 140 -185q0 -37 -16 -72.5t-48 -68.5t-91 -53t-135 -20q-109 0 -151 16l27 104q54 -25 134 -25q68 0 111 30.5t43 72.5q0 57 -79 91l-36 17q-131 58 -131 174q0 98 79.5 156 t206.5 58q84 0 129 -14zM303 760l20 103h104l-20 -103h-104z" />
<glyph unicode="&#x1e61;" horiz-adv-x="387" d="M260 504q-94 0 -148.5 -47t-54.5 -113q0 -94 88 -129l37 -15q50 -21 50 -57q0 -27 -27.5 -45.5t-77.5 -18.5q-40 0 -79 13q-2 0 -5 1t-5.5 1.5t-4.5 0.5q-12 0 -15 -13q-2 -9 -9.5 -40.5t-8.5 -37.5q51 -14 143 -14q94 0 151 48.5t57 120.5q0 89 -89 126l-30 12 q-59 24 -59 64q0 27 25 44.5t67 17.5q26 0 79 -16q5 -3 11 -3q9 0 15 20q4 14 10 39t7 27q-37 14 -127 14zM220 617l20 103h104l-20 -103h-104z" />
<glyph unicode="&#x1e6a;" horiz-adv-x="488" d="M246 0l113 582h181l18 92h-480l-18 -92h181l-113 -582h118zM271 760l20 103h104l-20 -103h-104z" />
<glyph unicode="&#x1e6b;" horiz-adv-x="311" d="M144 637l20 103h104l-20 -103h-104zM185 -10q49 0 82 11l7 66q1 5 1 12q0 9 -9 9q-2 0 -20.5 -4t-36.5 -4q-51 0 -51 44q0 16 6 40q1 4 23 119t24 126h118l17 85h-118l21 109h-112l-21 -109h-70l-16 -85h69q-16 -76 -47 -245q-7 -33 -7 -56q0 -118 140 -118z" />
<glyph unicode="&#x1e80;" horiz-adv-x="914" d="M70 674l45 -674h134l242 546h4l33 -546h142l304 674h-120l-225 -521h-4l-37 521h-137l-237 -521h-4l-22 521h-118zM611 736h-60l-100 147h108z" />
<glyph unicode="&#x1e81;" horiz-adv-x="779" d="M50 494l52 -494h129l174 364h4l34 -364h127l249 494h-112l-172 -366h-7l-34 366h-122l-178 -366h-7l-27 366h-110zM513 594h-60l-99 147h108z" />
<glyph unicode="&#x1e82;" horiz-adv-x="914" d="M115 0l-45 674h118l22 -521h4l237 521h137l37 -521h4l225 521h120l-304 -674h-142l-33 546h-4l-242 -546h-134zM499 736h-60l108 147h108z" />
<glyph unicode="&#x1e83;" horiz-adv-x="779" d="M102 0l-52 494h110l27 -366h7l178 366h122l34 -366h7l172 366h112l-249 -494h-127l-34 364h-4l-174 -364h-129zM426 594h-60l109 147h108z" />
<glyph unicode="&#x1e84;" horiz-adv-x="914" d="M115 0l-45 674h118l22 -521h4l237 521h137l37 -521h4l225 521h120l-304 -674h-137l-33 546h-4l-242 -546h-139zM574 760l20 103h104l-20 -103h-104zM379 760l20 103h104l-20 -103h-104z" />
<glyph unicode="&#x1e85;" horiz-adv-x="779" d="M102 0l-52 494h110l27 -366h7l178 366h122l34 -366h7l172 366h112l-249 -494h-127l-34 364h-4l-174 -364h-129zM494 617l20 103h104l-20 -103h-104zM299 617l20 103h104l-20 -103h-104z" />
<glyph unicode="&#x1ef2;" horiz-adv-x="512" d="M126 0l45 233l-131 441h123l87 -322l209 322h123l-292 -441l-45 -233h-119zM381 736h-60l-100 147h108z" />
<glyph unicode="&#x1ef3;" horiz-adv-x="471" d="M41 494l88 -493q-24 -41 -44 -75q-21 -36 -45.5 -55.5t-41 -23.5t-39.5 -4q-16 0 -31 4l-15 4q-8 0 -13 -13l-20 -74q22 -11 84 -11q34 0 62 7t53 25t41.5 32t38.5 47t32 48.5t34 57.5l296 524h-124l-179 -344h-4l-52 344h-121zM365 594h-60l-99 147h108z" />
<glyph unicode="&#x2013;" horiz-adv-x="633" d="M533 288l-16 -87h-437l16 87h437z" />
<glyph unicode="&#x2014;" horiz-adv-x="811" d="M711 288l-16 -87h-615l16 87h615z" />
<glyph unicode="&#x2018;" horiz-adv-x="236" d="M238 556l-22 -114h-116l19 96q10 53 44.5 90.5t77.5 56.5l15 -22q-62 -36 -73 -107h55z" />
<glyph unicode="&#x2019;" horiz-adv-x="216" d="M78 560l22 114h116l-19 -96q-10 -53 -44.5 -90.5t-77.5 -56.5l-15 22q62 36 73 107h-55z" />
<glyph unicode="&#x201a;" horiz-adv-x="246" d="M28 0l22 114h116l-19 -96q-10 -53 -45 -90.5t-78 -56.5l-14 22q62 36 73 107h-55z" />
<glyph unicode="&#x201c;" horiz-adv-x="441" d="M238 556l-22 -114h-116l19 96q10 53 44.5 90.5t77.5 56.5l15 -22q-62 -36 -73 -107h55zM443 556l-22 -114h-116l19 96q10 53 45 90.5t78 56.5l14 -22q-62 -36 -73 -107h55z" />
<glyph unicode="&#x201d;" horiz-adv-x="421" d="M283 560l22 114h116l-18 -96q-10 -53 -45 -90.5t-78 -56.5l-15 22q64 36 73 107h-55zM78 560l22 114h116l-18 -96q-10 -53 -45 -90.5t-78 -56.5l-15 22q64 36 73 107h-55z" />
<glyph unicode="&#x201e;" horiz-adv-x="453" d="M235 0l22 114h116l-18 -96q-10 -53 -45 -90.5t-78 -56.5l-15 22q64 36 73 107h-55zM28 0l22 114h116l-18 -96q-10 -53 -45 -90.5t-78 -56.5l-15 22q64 36 73 107h-55z" />
<glyph unicode="&#x2020;" horiz-adv-x="474" d="M146 -247h-30l51 546l51 110h-158l17 86h157l4 179h145l-65 -179h156l-17 -86h-157l8 -110z" />
<glyph unicode="&#x2021;" horiz-adv-x="503" d="M474 340l-17 -86h-133l-150 -502h-29l47 502h-132l17 86h138l32 68h-158l17 86h157l3 180h145l-64 -180h156l-17 -86h-157l5 -68h140z" />
<glyph unicode="&#x2022;" horiz-adv-x="343" d="M80 166l29 151h154l-30 -151h-153z" />
<glyph unicode="&#x2026;" horiz-adv-x="685" d="M10 0l22 114h116l-22 -114h-116zM238 0l22 114h116l-22 -114h-116zM467 0l22 114h116l-22 -114h-116z" />
<glyph unicode="&#x2030;" horiz-adv-x="1208" d="M638 674l-534 -674h94l534 674h-94zM80 493q0 93 52 147t135 54q67 0 106.5 -39t39.5 -100q0 -89 -50.5 -144t-136.5 -55q-66 0 -106 38.5t-40 98.5zM260 618q-37 0 -62 -33.5t-25 -84.5q0 -30 16 -49t43 -19q38 0 62.5 34t24.5 84q0 30 -15.5 49t-43.5 19zM429 127 q0 93 52 147t136 54q66 0 105.5 -39t39.5 -99q0 -89 -50.5 -144t-136.5 -55q-65 0 -105.5 38t-40.5 98zM609 253q-36 0 -61 -33.5t-25 -85.5q0 -30 16 -49t43 -19q38 0 62.5 34.5t24.5 83.5q0 30 -16 49.5t-44 19.5zM795 127q0 93 52 147t135 54q67 0 106.5 -39t39.5 -99 q0 -89 -50.5 -144t-136.5 -55q-66 0 -106 38t-40 98zM975 253q-37 0 -62 -33.5t-25 -85.5q0 -30 16 -49t43 -19q38 0 62.5 34.5t24.5 83.5q0 30 -15.5 49.5t-43.5 19.5z" />
<glyph unicode="&#x2039;" horiz-adv-x="283" d="M0 237l211 210l52 -48l-170 -167l105 -168l-68 -37z" />
<glyph unicode="&#x203a;" horiz-adv-x="313" d="M132 447l131 -210l-212 -210l-51 47l170 168l-105 167z" />
<glyph unicode="&#x2044;" horiz-adv-x="211" d="M334 674h77l-534 -674h-77z" />
<glyph unicode="&#x2070;" horiz-adv-x="342" d="M194 679q59 0 83.5 -37.5t24.5 -90.5q0 -94 -39.5 -156.5t-113.5 -62.5q-109 0 -109 129q0 95 40 156.5t114 61.5zM150 380q40 0 67.5 50.5t27.5 127.5q0 30 -13 51t-40 21q-41 0 -68 -51.5t-27 -123.5q0 -33 13.5 -54t39.5 -21z" />
<glyph unicode="&#x2074;" horiz-adv-x="308" d="M168 467l31 156h-4l-121 -156h94zM160 421h-140v48l167 205h78l-40 -207h53l-9 -46h-53l-17 -84h-56z" />
<glyph unicode="&#x2075;" horiz-adv-x="298" d="M141 628l-16 -84q6 2 20 2q43 0 68 -26t25 -65q0 -55 -42.5 -89t-110.5 -34q-35 0 -55 5l8 48q10 -5 50 -5q39 0 65.5 20t26.5 50q0 24 -19 39.5t-57 15.5q-26 0 -44 -5l34 174h174l-9 -46h-118z" />
<glyph unicode="&#x2076;" horiz-adv-x="326" d="M170 504q-34 0 -52.5 -23t-18.5 -50q0 -24 15 -39.5t41 -15.5q31 0 50 22t19 49q0 24 -14.5 40.5t-39.5 16.5zM180 551q48 0 74 -30t26 -66q0 -49 -33 -86t-93 -37q-56 0 -85 33.5t-29 82.5q0 113 62 172t145 59q31 0 49 -7l-15 -47q-12 5 -35 5q-33 0 -59.5 -12 t-41.5 -30.5t-22 -32t-11 -26.5h1q33 22 67 22z" />
<glyph unicode="&#x2077;" horiz-adv-x="241" d="M80 337h-60q20 52 66.5 140t88.5 151h-146l9 46h203l-9 -45q-36 -55 -82.5 -144.5t-69.5 -147.5z" />
<glyph unicode="&#x2078;" horiz-adv-x="318" d="M166 538q65 25 65 61q0 15 -13 25t-35 10q-24 0 -40.5 -12t-16.5 -32q0 -27 40 -52zM145 380q26 0 42.5 12.5t16.5 32.5q0 32 -48 59q-1 0 -7 -3l-9 -4.5t-9.5 -4.5t-10 -6t-9.5 -7t-9.5 -8t-7 -9t-5 -10.5t-1.5 -11.5q0 -18 17 -29t40 -11zM30 413q0 29 17.5 52t33 31 t30.5 13q-1 1 -6.5 5.5t-7.5 7t-7.5 8t-8 10.5t-5.5 12t-4.5 14.5t-1.5 16.5q0 41 30.5 68.5t86.5 27.5q52 0 76.5 -22.5t24.5 -51.5q0 -59 -77 -92q50 -33 50 -77q0 -45 -35.5 -74.5t-91.5 -29.5q-49 0 -76.5 22.5t-27.5 58.5z" />
<glyph unicode="&#x2079;" horiz-adv-x="326" d="M157 507q33 0 51.5 22.5t18.5 49.5q0 24 -15 39.5t-41 15.5q-30 0 -49 -22t-19 -49q0 -23 14.5 -39.5t39.5 -16.5zM146 460q-47 0 -73.5 30t-26.5 66q0 49 33 86t93 37q56 0 85 -33.5t29 -82.5q0 -113 -62 -172t-145 -59q-28 0 -49 7l15 46q25 -5 35 -5q33 0 59.5 12 t41.5 30.5t22.5 32.5t11.5 26l-1 1q-31 -22 -68 -22z" />
<glyph unicode="&#x2080;" horiz-adv-x="322" d="M184 342q59 0 83.5 -37.5t24.5 -90.5q0 -94 -39.5 -156.5t-113.5 -62.5q-109 0 -109 129q0 94 40.5 156t113.5 62zM140 43q40 0 68 50.5t28 127.5q0 30 -13.5 51t-40.5 21q-41 0 -68 -51.5t-27 -123.5q0 -33 13.5 -54t39.5 -21z" />
<glyph unicode="&#x2081;" horiz-adv-x="196" d="M100 0h-56l53 277q-27 -16 -67 -20v44q27 3 53.5 15t39.5 26h43z" />
<glyph unicode="&#x2082;" horiz-adv-x="258" d="M-1 44q73 69 86 82q82 79 82 122q0 19 -14 32t-39 13q-20 0 -60 -20l1 49l5 2q6 3 13.5 5.5t17 5.5t21 5t22.5 2q46 0 70 -25t24 -60q0 -36 -22 -68t-62 -71l-73 -73h127l-9 -45h-199z" />
<glyph unicode="&#x2083;" horiz-adv-x="250" d="M57 327q45 15 74 15q42 0 65.5 -22.5t23.5 -56.5q0 -29 -17.5 -50.5t-31.5 -27.5t-26 -9v-2q7 -2 17.5 -9.5t22 -26t11.5 -41.5q0 -49 -40 -75.5t-105 -26.5q-12 0 -23.5 1t-19 2t-8.5 1l7 49q17 -5 43 -5q36 0 62 15t26 44q0 22 -17 36.5t-51 14.5h-17l7 40h16 q34 0 59.5 16.5t25.5 43.5q0 18 -12.5 30.5t-40.5 12.5q-20 0 -50 -12z" />
<glyph unicode="&#x2084;" horiz-adv-x="338" d="M189 130l30 156h-2l-123 -156h95zM180 84h-140v48l168 205h77l-40 -207h53l-9 -46h-53l-16 -84h-57z" />
<glyph unicode="&#x2085;" horiz-adv-x="278" d="M131 291l-16 -84q4 2 19 2q44 0 68.5 -26t24.5 -65q0 -56 -42.5 -89.5t-110.5 -33.5q-34 0 -54 5l8 48q10 -5 50 -5q38 0 64.5 20t26.5 50q0 24 -18.5 39.5t-56.5 15.5q-26 0 -44 -5l34 174h174l-9 -46h-118z" />
<glyph unicode="&#x2086;" horiz-adv-x="315" d="M159 167q-33 0 -51.5 -23t-18.5 -50q0 -24 15 -39.5t40 -15.5q31 0 50 22t19 49q0 24 -14.5 40.5t-39.5 16.5zM170 214q47 0 73.5 -30t26.5 -66q0 -49 -33.5 -86t-92.5 -37q-56 0 -85 33.5t-29 82.5q0 113 62 172t145 59q13 0 48 -7l-14 -47q-13 5 -35 5q-33 0 -59.5 -12 t-41.5 -30.5t-22.5 -32.5t-11.5 -26h1q38 22 68 22z" />
<glyph unicode="&#x2087;" horiz-adv-x="240" d="M79 0h-59q19 50 65.5 138.5t87.5 152.5h-145l9 46h203l-9 -45q-37 -54 -82.5 -143t-69.5 -149z" />
<glyph unicode="&#x2088;" horiz-adv-x="318" d="M166 201q65 25 65 61q0 14 -13 24t-35 10q-24 0 -40.5 -11.5t-16.5 -31.5q0 -27 40 -52zM146 42q25 0 41.5 13t16.5 33q0 31 -48 59q-68 -32 -68 -64q0 -18 17 -29.5t41 -11.5zM30 76q0 29 17.5 52t33 31t30.5 13q-1 1 -6.5 5.5t-7.5 7t-7.5 8t-8 10.5t-5.5 12t-4.5 14.5 t-1.5 16.5q0 41 30.5 68.5t86.5 27.5q52 0 76.5 -22.5t24.5 -51.5q0 -59 -77 -92q50 -33 50 -77q0 -45 -35.5 -74.5t-91.5 -29.5q-49 0 -76.5 22.5t-27.5 58.5z" />
<glyph unicode="&#x2089;" horiz-adv-x="316" d="M157 170q33 0 51.5 22.5t18.5 49.5q0 24 -15 39.5t-41 15.5q-30 0 -49 -22t-19 -49q0 -23 14.5 -39.5t39.5 -16.5zM146 123q-47 0 -73.5 30t-26.5 66q0 49 33 86t93 37q56 0 85 -33.5t29 -82.5q0 -113 -62 -172t-145 -59q-28 0 -49 7l15 46q25 -5 35 -5q33 0 59.5 12 t41.5 30.5t22.5 32.5t11.5 26l-1 1q-31 -22 -68 -22z" />
<glyph unicode="&#x20ac;" horiz-adv-x="711" d="M534 587q-60 0 -117 -30.5t-96 -84.5h282l-48 -92h-279q-12 -43 -12 -79h250l-48 -92h-186q22 -55 69.5 -89.5t110.5 -34.5q67 0 132 35l-5 -102q-75 -28 -136 -28q-114 0 -199 59t-109 160h-103l67 92h28q2 42 9 79h-71l67 92h34q48 101 145.5 156.5t228.5 55.5 q96 0 163 -28l-34 -101q-68 32 -143 32z" />
<glyph unicode="&#x2122;" horiz-adv-x="473" d="M87 674h151l-7 -33h-54l-32 -167h-43l32 167h-54zM204 474l68 200h51l17 -145h4l71 145h58l-9 -200h-41l8 147h-4l-73 -147h-44l-17 147h-4l-43 -147h-42z" />
<glyph unicode="&#x2153;" horiz-adv-x="711" d="M194 337h-56l54 277q-29 -16 -67 -20v44q27 3 53.5 15t38.5 26h43zM50 0l533 674h78l-534 -674h-77zM477 327v-43q30 12 51 12q28 0 40.5 -12.5t12.5 -30.5q0 -27 -26 -43.5t-60 -16.5h-15l-8 -40h17q34 0 51.5 -14.5t17.5 -36.5q0 -29 -26 -44t-62 -15q-26 0 -44 5 l-6 -49q1 0 8.5 -1t19 -2t23.5 -1q65 0 104.5 26.5t39.5 75.5q0 23 -11.5 41.5t-21.5 26t-17 9.5v2q12 3 26 9t31 27.5t17 50.5q0 34 -23 56.5t-66 22.5q-28 0 -73 -15z" />
<glyph unicode="&#x2154;" horiz-adv-x="777" d="M650 675l-534 -675h77l534 675h-77zM109 382q73 69 86 82q82 79 82 122q0 19 -14 32t-39 13q-20 0 -60 -20l1 49l9 4q8 3 17.5 6.5t24.5 6.5t28 3q46 0 70 -25t24 -60q0 -36 -22 -68t-62 -71l-73 -73h127l-9 -45h-199zM544 285l-1 43q45 15 74 15q42 0 65.5 -22.5 t23.5 -56.5q0 -23 -9.5 -40.5t-24 -27t-23.5 -13.5t-17 -6l-1 -2q7 -2 17.5 -9.5t22 -26.5t11.5 -42q0 -49 -40 -75t-105 -26q-12 0 -23.5 1t-18.5 2t-8 1l6 49q17 -5 43 -5q36 0 62 15t26 44q0 22 -17 36.5t-51 14.5h-17l7 40h16q34 0 59.5 16.5t25.5 43.5q0 18 -12.5 30.5 t-40.5 12.5q-20 0 -50 -12z" />
<glyph unicode="&#x215b;" horiz-adv-x="712" d="M198 337h-56l54 277q-29 -16 -67 -20v44q27 3 53.5 15t39.5 27h43zM585 675l-535 -675h78l534 675h-77zM527 201q65 25 65 61q0 14 -13 24t-35 10q-24 0 -40.5 -11.5t-16.5 -31.5q0 -27 40 -52zM507 42q25 0 41.5 13t16.5 33q0 31 -48 59q-68 -32 -68 -64q0 -18 17 -29.5 t41 -11.5zM391 76q0 29 17.5 52t33 31t30.5 13q-1 1 -6.5 5.5t-7.5 7t-7.5 8t-8 10.5t-5.5 12t-4.5 14.5t-1.5 16.5q0 41 30.5 68.5t86.5 27.5q52 0 76.5 -22.5t24.5 -51.5q0 -59 -77 -92q50 -33 50 -77q0 -45 -35.5 -74.5t-91.5 -29.5q-49 0 -76.5 22.5t-27.5 58.5z" />
<glyph unicode="&#x215c;" horiz-adv-x="762" d="M100 0l534 675h78l-534 -675h-78zM168 621v43q45 15 73 15q43 0 66 -22.5t23 -56.5q0 -29 -17 -50.5t-31 -27.5t-26 -9v-2q7 -2 17 -9.5t21.5 -26t11.5 -41.5q0 -49 -39.5 -75.5t-104.5 -26.5q-12 0 -23.5 1t-19 2t-8.5 1l6 49q18 -5 44 -5q36 0 62 15t26 44 q0 22 -17.5 36.5t-51.5 14.5h-17l8 40h15q34 0 60 16.5t26 43.5q0 18 -12.5 30.5t-40.5 12.5q-21 0 -51 -12zM574 201q65 25 65 61q0 14 -13 24t-35 10q-24 0 -40.5 -11.5t-16.5 -31.5q0 -27 40 -52zM554 42q25 0 41.5 13t16.5 33q0 31 -48 59q-68 -32 -68 -64 q0 -18 17 -29.5t41 -11.5zM438 76q0 29 17.5 52t33 31t30.5 13q-1 1 -6.5 5.5t-7.5 7t-7.5 8t-8 10.5t-5.5 12t-4.5 14.5t-1.5 16.5q0 41 30.5 68.5t86.5 27.5q52 0 76.5 -22.5t24.5 -51.5q0 -59 -77 -92q50 -33 50 -77q0 -45 -35.5 -74.5t-91.5 -29.5q-49 0 -76.5 22.5 t-27.5 58.5z" />
<glyph unicode="&#x215d;" horiz-adv-x="761" d="M100 0l534 675h77l-534 -675h-77zM238 629l-16 -84q6 2 20 2q43 0 68 -26t25 -65q0 -55 -42.5 -89t-110.5 -34q-35 0 -55 5l8 48q10 -5 50 -5q39 0 65.5 20t26.5 50q0 24 -19 39.5t-57 15.5q-27 0 -44 -5l34 174h174l-9 -46h-118zM577 201q65 25 65 61q0 14 -13 24 t-35 10q-24 0 -40.5 -11.5t-16.5 -31.5q0 -27 40 -52zM557 42q25 0 41.5 13t16.5 33q0 31 -48 59q-68 -32 -68 -64q0 -18 17 -29.5t41 -11.5zM441 76q0 29 17.5 52t33 31t30.5 13q-1 1 -6.5 5.5t-7.5 7t-7.5 8t-8 10.5t-5.5 12t-4.5 14.5t-1.5 16.5q0 41 30.5 68.5 t86.5 27.5q52 0 76.5 -22.5t24.5 -51.5q0 -59 -77 -92q50 -33 50 -77q0 -45 -35.5 -74.5t-91.5 -29.5q-49 0 -76.5 22.5t-27.5 58.5z" />
<glyph unicode="&#x215e;" horiz-adv-x="711" d="M175 337h-60q19 51 66 139t89 153h-146l9 46h204l-9 -45q-37 -55 -83.5 -144.5t-69.5 -148.5zM50 0l534 675h77l-534 -675h-77zM525 201q65 25 65 61q0 14 -13 24t-35 10q-24 0 -40.5 -11.5t-16.5 -31.5q0 -27 40 -52zM505 42q25 0 41.5 13t16.5 33q0 31 -48 59 q-68 -32 -68 -64q0 -18 17 -29.5t41 -11.5zM389 76q0 29 17.5 52t33 31t30.5 13q-1 1 -6.5 5.5t-7.5 7t-7.5 8t-8 10.5t-5.5 12t-4.5 14.5t-1.5 16.5q0 41 30.5 68.5t86.5 27.5q52 0 76.5 -22.5t24.5 -51.5q0 -59 -77 -92q50 -33 50 -77q0 -45 -35.5 -74.5t-91.5 -29.5 q-49 0 -76.5 22.5t-27.5 58.5z" />
<glyph unicode="&#x2212;" horiz-adv-x="659" d="M77 288h512l-17 -87h-512z" />
<glyph unicode="&#x2260;" horiz-adv-x="622" d="M548 293h-172l-53 -92h208l-17 -87h-243l-67 -114h-110l67 114h-131l17 87h165l54 92h-202l17 87h236l78 131h110l-78 -131h138z" />
<glyph unicode="&#x2264;" horiz-adv-x="622" d="M16 87l-16 -87h443l16 87h-443zM438 171l-73 -76l-261 246l357 246l41 -86l-237 -165z" />
<glyph unicode="&#x2265;" horiz-adv-x="622" d="M483 0l16 87h-443l-16 -87h443zM155 95l-41 86l237 165l-173 165l73 76l260 -246z" />
<glyph unicode="&#x25fc;" horiz-adv-x="495" d="M0 495h495v-495h-495v495z" />
<glyph unicode="&#xf6e1;" horiz-adv-x="246" d="M28 0l22 114h116l-19 -96q-10 -53 -44.5 -90.5t-77.5 -56.5l-15 22q62 36 73 107h-55z" />
<glyph unicode="&#xf6e3;" horiz-adv-x="622" />
<glyph unicode="&#xf6e7;" horiz-adv-x="228" d="M10 0l22 114h116l-22 -114h-116z" />
<glyph unicode="&#xf6f9;" horiz-adv-x="387" d="M347 88l-17 -88h-300l37 195l-52 -18l-16 82l87 31l47 243h116l-39 -200l114 38l14 -84l-146 -48l-29 -151h184z" />
<glyph unicode="&#xf6fa;" horiz-adv-x="823" d="M294 80q58 0 99 37.5t57 86.5t16 101q0 61 -33 102.5t-91 41.5q-82 0 -130 -65t-48 -160q0 -62 32.5 -103t97.5 -41zM615 444l-25 -129h173l-17 -84h-172l-28 -143h197l-17 -88h-312l3 18q-62 -27 -140 -27q-109 0 -173 63.5t-64 161.5q0 44 9 86.5t32 86.5t58 77t91 54 t127 21q90 0 153 -47l7 39h306l-17 -89h-191z" />
<glyph unicode="&#xf6fd;" horiz-adv-x="409" d="M156 734h69l51 -88l87 88h74l-118 -147h-100zM409 521l-31 -90q-57 19 -102 19q-98 0 -98 -66q0 -35 54 -60l39 -18q35 -17 61 -51.5t26 -79.5q0 -86 -64 -135.5t-170 -49.5q-38 0 -83.5 7t-60.5 12l30 88q47 -17 107 -17q113 0 113 74q0 39 -59 66l-31 15 q-34 16 -60.5 49t-26.5 79q0 88 60 132.5t167 44.5q84 0 129 -19z" />
<glyph unicode="&#xf6ff;" horiz-adv-x="411" d="M-30 0l15 82l307 369h-229l16 82h362l-16 -82l-308 -369h243l-15 -82h-375zM160 734h74l51 -88l87 88h69l-118 -147h-100z" />
<glyph unicode="&#xf721;" horiz-adv-x="267" d="M157 155h-93l65 377h108zM30 0l20 103h104l-20 -103h-104z" />
<glyph unicode="&#xf726;" horiz-adv-x="599" d="M559 293q-29 -101 -95 -175q35 -33 70 -59l-77 -69q-32 22 -72 58q-76 -58 -178 -58q-92 0 -139.5 42.5t-47.5 106.5q0 94 131 153q-38 51 -38 106q0 59 51 101t135 42q66 0 105.5 -34t39.5 -76q0 -30 -12 -54.5t-36 -43t-43.5 -29.5t-49.5 -25q23 -27 91 -95 q37 49 58 109h107zM228 397q0 -30 24 -57q80 40 80 82q0 15 -11.5 27t-30.5 12q-26 0 -44 -17.5t-18 -46.5zM135 140q0 -29 22 -48.5t63 -19.5q58 0 100 39q-34 33 -112 116q-73 -41 -73 -87z" />
<glyph unicode="&#xf73f;" horiz-adv-x="290" d="M57 442l24 87q40 12 86 12q79 0 123.5 -35.5t44.5 -87.5q0 -19 -5.5 -37.5t-12.5 -31.5t-20 -27.5t-20.5 -21t-21.5 -17.5t-16 -13q-19 -17 -28.5 -26t-21.5 -27.5t-16 -38.5l-4 -23h-102q3 16 6 28q7 36 24 65t31 42t38 31q54 43 54 75q0 24 -21 40t-63 16 q-39 0 -79 -10zM40 0l20 103h104l-20 -103h-104z" />
<glyph unicode="&#xf760;" horiz-adv-x="240" d="M200 594h-60l-100 147h108z" />
<glyph unicode="&#xf761;" horiz-adv-x="523" d="M63 0h-123l307 533h139l97 -533h-121l-17 103h-223zM332 183l-37 234h-4l-127 -234h168z" />
<glyph unicode="&#xf762;" horiz-adv-x="516" d="M133 532h195q84 0 126 -38t42 -88q0 -35 -15 -62t-38 -40.5t-39 -19.5t-28 -8v-1q31 -11 56.5 -38t25.5 -70q0 -69 -61.5 -118t-179.5 -49h-187zM205 310h56q47 0 78.5 23.5t31.5 57.5q0 29 -24.5 47t-67.5 18q-32 0 -46 -2zM160 80q22 -2 50 -2q53 0 89.5 23.5 t36.5 61.5q0 31 -23.5 52t-71.5 21h-51z" />
<glyph unicode="&#xf763;" horiz-adv-x="477" d="M507 517l-38 -93q-52 26 -113 26q-82 0 -137 -59t-55 -159q0 -67 44.5 -109.5t119.5 -42.5q41 0 81 23v-92q-47 -21 -102 -21q-127 0 -197 71t-70 178q0 77 27 136.5t72.5 95t101.5 53t118 17.5q94 0 148 -24z" />
<glyph unicode="&#xf764;" horiz-adv-x="605" d="M230 440l-68 -348q27 -5 64 -5q107 0 162 62t55 153q0 63 -39 103t-108 40q-24 0 -66 -5zM30 0l103 533h183q129 0 189 -68t60 -168q0 -53 -19.5 -104t-57 -95t-103 -71t-147.5 -27h-208z" />
<glyph unicode="&#xf765;" horiz-adv-x="429" d="M360 88l-17 -88h-313l103 533h306l-17 -88h-190l-25 -130h172l-17 -84h-172l-27 -143h197z" />
<glyph unicode="&#xf766;" horiz-adv-x="426" d="M446 533l-17 -88h-197l-28 -144h172l-16 -84h-172l-42 -217h-116l103 533h313z" />
<glyph unicode="&#xf767;" horiz-adv-x="576" d="M470 27q-67 -37 -163 -37q-121 0 -194 68.5t-73 171.5q0 82 30.5 144.5t80 97.5t105.5 52t114 17q121 0 186 -26l-39 -97q-7 4 -25.5 11t-55.5 14t-74 7q-80 0 -139 -55t-59 -161q0 -68 43 -111t111 -43q35 0 49 7l19 102h-79l17 84h194z" />
<glyph unicode="&#xf768;" horiz-adv-x="608" d="M463 533h115l-103 -533h-115l45 232h-215l-45 -232h-115l103 533h115l-42 -217h215z" />
<glyph unicode="&#xf769;" horiz-adv-x="278" d="M248 533l-103 -533h-115l103 533h115z" />
<glyph unicode="&#xf76a;" horiz-adv-x="340" d="M123 161l72 372h115q-60 -309 -72 -369q-33 -172 -200 -172q-29 0 -78 7l18 92q36 -9 56 -9q42 0 61.5 20.5t27.5 58.5z" />
<glyph unicode="&#xf76b;" horiz-adv-x="488" d="M453 0h-137l-124 242l-47 -242h-115l103 533h115l-45 -230l220 230h125l-249 -257z" />
<glyph unicode="&#xf76c;" horiz-adv-x="387" d="M347 88l-17 -88h-300l103 533h116l-86 -445h184z" />
<glyph unicode="&#xf76d;" horiz-adv-x="766" d="M-10 0l186 533h137l48 -387h4l194 387h147l-23 -533h-110l23 392h-4l-201 -392h-117l-46 391h-4l-123 -391h-111z" />
<glyph unicode="&#xf76e;" horiz-adv-x="647" d="M135 0h-105l103 533h172l123 -408h4l79 408h106l-103 -533h-169l-126 416h-4z" />
<glyph unicode="&#xf76f;" horiz-adv-x="633" d="M357 541q110 0 173 -65.5t63 -160.5q0 -63 -18.5 -119.5t-55 -103t-99 -74.5t-143.5 -28q-109 0 -173 63.5t-64 161.5q0 44 9 86.5t32 86.5t58 77.5t91 54.5t127 21zM295 80q58 0 99 37.5t57 86.5t16 101q0 62 -33 103.5t-91 41.5q-82 0 -130 -65.5t-48 -160.5 q0 -62 32.5 -103t97.5 -41z" />
<glyph unicode="&#xf770;" horiz-adv-x="513" d="M273 446q-22 0 -42 -4l-35 -177q14 -4 46 -4q61 0 96 29t35 75q0 35 -26.5 58t-73.5 23zM241 173q-12 0 -36 2t-26 2l-34 -177h-115l104 532h152q101 0 154 -47t53 -114q0 -198 -252 -198z" />
<glyph unicode="&#xf771;" horiz-adv-x="633" d="M593 317q0 -116 -61 -206t-181 -113l9 -88h-89l-8 82q-103 4 -163 67t-60 158q0 44 9 86.5t32 86.5t58 77t91 54t127 21q110 0 173 -65t63 -160zM342 90q62 19 93.5 83t31.5 134q0 61 -33.5 102.5t-91.5 41.5q-81 0 -129 -65t-48 -160q0 -51 22 -88.5t66 -49.5l-5 56h89z " />
<glyph unicode="&#xf772;" horiz-adv-x="510" d="M294 450q-34 0 -62 -4l-29 -150q28 -4 60 -4q51 0 82.5 23t31.5 64q0 30 -21 50.5t-62 20.5zM257 210h-71l-41 -210h-115l104 533h177q94 0 141.5 -43t47.5 -106q0 -35 -13 -63.5t-28.5 -44t-38 -28t-32.5 -15.5t-21 -6l79 -227h-119z" />
<glyph unicode="&#xf773;" horiz-adv-x="409" d="M409 521l-31 -90q-57 19 -102 19q-98 0 -98 -66q0 -35 54 -60l39 -18q35 -17 61 -51.5t26 -79.5q0 -86 -64 -135.5t-170 -49.5q-38 0 -83.5 7t-60.5 12l30 88q47 -17 107 -17q113 0 113 74q0 39 -59 66l-31 15q-34 16 -60.5 49t-26.5 79q0 88 60 132.5t167 44.5 q84 0 129 -19z" />
<glyph unicode="&#xf774;" horiz-adv-x="420" d="M57 533h403l-17 -88h-144l-86 -445h-116l86 445h-143z" />
<glyph unicode="&#xf775;" horiz-adv-x="630" d="M294 -9q-110 0 -172 46t-62 128q0 24 9 69l58 299h115l-58 -302q-7 -30 -7 -48q0 -48 32.5 -75t80.5 -27q108 0 134 133l61 319h115l-63 -325q-42 -217 -243 -217z" />
<glyph unicode="&#xf776;" horiz-adv-x="523" d="M50 533h128l50 -403h2l210 403h133l-294 -533h-147z" />
<glyph unicode="&#xf777;" horiz-adv-x="785" d="M89 0l-39 533h118l27 -368h4l176 368h135l39 -368h4l167 368h115l-239 -533h-146l-37 377h-4l-179 -377h-141z" />
<glyph unicode="&#xf778;" horiz-adv-x="495" d="M178 270l-114 263h136l71 -171l136 171h138l-217 -258l123 -275h-139l-75 184l-145 -184h-142z" />
<glyph unicode="&#xf779;" horiz-adv-x="464" d="M269 176l-34 -176h-115l34 176l-114 357h116l73 -252h4l171 252h120z" />
<glyph unicode="&#xf77a;" horiz-adv-x="411" d="M-30 0l15 82l307 369h-229l16 82h362l-16 -82l-308 -369h243l-15 -82h-375z" />
<glyph unicode="&#xf7a1;" horiz-adv-x="238" d="M174 222h-93l-81 -376h108zM84 275l20 103h104l-20 -103h-104z" />
<glyph unicode="&#xf7bf;" horiz-adv-x="340" d="M278 -65l-24 -87q-60 -12 -86 -12q-79 0 -123.5 35.5t-44.5 87.5q0 29 9.5 54.5t28.5 45t29.5 27.5t28.5 21q55 37 66 92l4 23h102q-3 -15 -6 -28q-7 -36 -24 -65t-31 -42t-38 -31q-54 -43 -54 -75q0 -24 21 -40t63 -16q39 0 79 10zM176 276l20 103h104l-20 -103h-104z " />
<glyph unicode="&#xf7e0;" horiz-adv-x="523" d="M352 594h-60l-100 147h108zM67 0h-127l310 533h135l97 -533h-116l-18 103h-222zM335 183l-38 233h-4l-126 -233h168z" />
<glyph unicode="&#xf7e1;" horiz-adv-x="523" d="M350 594h-60l108 147h108zM67 0h-127l310 533h135l97 -533h-116l-18 103h-222zM336 183l-38 233h-4l-126 -233h168z" />
<glyph unicode="&#xf7e2;" horiz-adv-x="523" d="M463 594h-73l-52 88l-86 -88h-70l119 147h99zM67 0h-127l310 533h135l97 -533h-116l-18 103h-222zM336 183l-38 233h-4l-126 -233h168z" />
<glyph unicode="&#xf7e3;" horiz-adv-x="523" d="M175 618l-23 51q17 21 50.5 42t69.5 21q40 0 77.5 -24t65.5 -24q37 0 74 33l23 -50q-64 -64 -121 -64q-41 0 -77.5 24t-66.5 24q-37 0 -72 -33zM67 0h-127l310 533h135l97 -533h-116l-18 103h-222zM336 183l-38 233h-4l-126 -233h168z" />
<glyph unicode="&#xf7e4;" horiz-adv-x="523" d="M67 0h-127l310 533h135l97 -533h-116l-18 103h-222zM335 183l-37 233h-4l-126 -233h167zM369 617l20 103h104l-20 -103h-104zM174 617l20 103h104l-20 -103h-104z" />
<glyph unicode="&#xf7e5;" horiz-adv-x="523" d="M67 0h-127l310 533h135l97 -533h-116l-18 103h-222zM335 183l-37 233h-4l-126 -233h167zM331 567q-51 0 -74.5 26.5t-23.5 64.5q0 41 30.5 72t73.5 31q50 0 74 -26t24 -64q0 -43 -31 -73.5t-73 -30.5zM337 707q-20 0 -33 -14t-13 -32q0 -16 10 -27.5t31 -11.5q19 0 32 14 t13 31q0 40 -40 40z" />
<glyph unicode="&#xf7e6;" horiz-adv-x="811" d="M458 183l48 249h-11l-185 -249h148zM732 88l-17 -88h-292l20 103h-196l-81 -103h-126l414 533h357l-17 -88h-169l-25 -130h151l-17 -84h-151l-27 -143h176z" />
<glyph unicode="&#xf7e7;" horiz-adv-x="477" d="M355 452q-82 0 -137 -59t-55 -159q0 -67 44.5 -109t119.5 -42q38 0 82 22v-92q-54 -21 -100 -21l-23 -31q15 5 28 5q28 0 43.5 -16t15.5 -42q0 -49 -54 -94.5t-111 -52.5l-20 38q41 7 76 33t35 57q0 33 -46 33h-31l34 73q-104 15 -160 83t-56 164q0 77 26.5 136t72.5 94 t101.5 52.5t118.5 17.5q37 0 72.5 -5.5t52 -10.5t22.5 -8l-37 -93q-50 27 -114 27z" />
<glyph unicode="&#xf7e8;" horiz-adv-x="429" d="M343 0l17 88h-197l27 143h172l17 84h-172l25 130h190l17 88h-306l-103 -533h313zM378 594h-60l-99 147h107z" />
<glyph unicode="&#xf7e9;" horiz-adv-x="429" d="M343 0l17 88h-197l27 143h172l17 84h-172l25 130h190l17 88h-306l-103 -533h313zM281 594h-60l108 147h108z" />
<glyph unicode="&#xf7ea;" horiz-adv-x="429" d="M343 0l17 88h-198l27 143h173l17 84h-173l25 130h191l17 88h-306l-103 -533h313zM432 594h-73l-52 88l-86 -88h-70l119 147h99z" />
<glyph unicode="&#xf7eb;" horiz-adv-x="449" d="M342 0l17 88h-197l27 143h173l17 84h-173l25 130h191l17 88h-306l-103 -533h312zM335 617l20 103h104l-20 -103h-104zM152 617l20 103h104l-20 -103h-104z" />
<glyph unicode="&#xf7ec;" horiz-adv-x="278" d="M145 0l103 533h-115l-103 -533h115zM232 594h-60l-100 147h108z" />
<glyph unicode="&#xf7ed;" horiz-adv-x="278" d="M145 0l103 533h-115l-103 -533h115zM231 594h-61l108 147h108z" />
<glyph unicode="&#xf7ee;" horiz-adv-x="278" d="M145 0l103 533h-115l-103 -533h115zM343 594h-73l-52 88l-86 -88h-69l118 147h100z" />
<glyph unicode="&#xf7ef;" horiz-adv-x="278" d="M145 0l103 533h-115l-103 -533h115zM255 617l20 103h104l-20 -103h-104zM60 617l20 103h104l-20 -103h-104z" />
<glyph unicode="&#xf7f0;" horiz-adv-x="615" d="M240 440l-24 -125h81l-17 -84h-81l-27 -139q28 -5 64 -5q107 0 162 62t55 153q0 63 -39 103t-108 40q-24 0 -66 -5zM40 0l45 231h-61l17 84h60l42 217h183q129 0 189 -67.5t60 -167.5q0 -53 -19.5 -104t-57 -95t-103 -71t-147.5 -27h-208z" />
<glyph unicode="&#xf7f1;" horiz-adv-x="647" d="M30 0h105l80 415h4l125 -415h170l103 533h-106l-79 -408h-4l-123 408h-172zM251 616l-22 51q63 63 119 63q40 0 77.5 -24t66.5 -24q36 0 73 33l23 -50q-61 -64 -120 -64q-41 0 -77.5 24t-67.5 24q-37 0 -72 -33z" />
<glyph unicode="&#xf7f2;" horiz-adv-x="633" d="M411 594h-61l-99 147h107zM357 541q-71 0 -127 -21t-91 -54.5t-58 -77.5t-32 -86.5t-9 -86.5q0 -98 64 -161.5t173 -63.5q81 0 143.5 28t99 74.5t55 103t18.5 119.5q0 95 -63 160.5t-173 65.5zM295 80q-65 0 -97.5 41t-32.5 103q0 95 48 160.5t130 65.5q58 0 91 -41.5 t33 -103.5q0 -52 -16 -101t-57 -86.5t-99 -37.5z" />
<glyph unicode="&#xf7f3;" horiz-adv-x="633" d="M391 594h-60l109 147h108zM357 541q-71 0 -127 -21t-91 -54.5t-58 -77.5t-32 -86.5t-9 -86.5q0 -98 64 -161.5t173 -63.5q81 0 143.5 28t99 74.5t55 103t18.5 119.5q0 95 -63 160.5t-173 65.5zM295 80q-65 0 -97.5 41t-32.5 103q0 95 48 160.5t130 65.5q58 0 91 -41.5 t33 -103.5q0 -52 -16 -101t-57 -86.5t-99 -37.5z" />
<glyph unicode="&#xf7f4;" horiz-adv-x="633" d="M508 594h-68l-51 88l-87 -88h-74l118 147h100zM357 541q-71 0 -127 -21t-91 -54.5t-58 -77.5t-32 -86.5t-9 -86.5q0 -98 64 -161.5t173 -63.5q81 0 143.5 28t99 74.5t55 103t18.5 119.5q0 95 -63 160.5t-173 65.5zM295 80q-65 0 -97.5 41t-32.5 103q0 95 48 160.5 t130 65.5q58 0 91 -41.5t33 -103.5q0 -52 -16 -101t-57 -86.5t-99 -37.5z" />
<glyph unicode="&#xf7f5;" horiz-adv-x="633" d="M233 614l-22 51q63 63 119 63q40 0 77.5 -24t66.5 -24q37 0 73 34l22 -51q-61 -64 -119 -64q-41 0 -78 24t-68 24q-35 0 -71 -33zM357 541q-71 0 -127 -21t-91 -54.5t-58 -77.5t-32 -86.5t-9 -86.5q0 -98 64 -161.5t173 -63.5q81 0 143.5 28t99 74.5t55 103t18.5 119.5 q0 95 -63 160.5t-173 65.5zM295 80q-65 0 -97.5 41t-32.5 103q0 95 48 160.5t130 65.5q58 0 91 -41.5t33 -103.5q0 -52 -16 -101t-57 -86.5t-99 -37.5z" />
<glyph unicode="&#xf7f6;" horiz-adv-x="633" d="M357 541q-71 0 -127 -21t-91 -54.5t-58 -77.5t-32 -86.5t-9 -86.5q0 -98 64 -161.5t173 -63.5q81 0 143.5 28t99 74.5t55 103t18.5 119.5q0 95 -63 160.5t-173 65.5zM295 80q-65 0 -97.5 41t-32.5 103q0 95 48 160.5t130 65.5q58 0 91 -41.5t33 -103.5q0 -52 -16 -101 t-57 -86.5t-99 -37.5zM417 617l20 103h104l-20 -103h-104zM222 617l20 103h104l-20 -103h-104z" />
<glyph unicode="&#xf7f8;" horiz-adv-x="633" d="M494 505q47 -30 73 -80t26 -109q0 -63 -18.5 -119.5t-55.5 -103.5t-99.5 -75t-142.5 -28q-38 0 -76 10l-53 -90l-72 23l57 98q-93 62 -93 185q0 43 9 85.5t32 87t58 77.5t91 54t127 21q35 0 67 -8l47 82l73 -24zM342 450q-81 0 -129 -65t-48 -160q0 -58 27 -97l185 318 q-13 4 -35 4zM294 81q59 0 100 37.5t57 86.5t16 101q0 64 -33 103l-187 -321q25 -7 47 -7z" />
<glyph unicode="&#xf7f9;" horiz-adv-x="630" d="M437 594h-61l-99 147h107zM294 -9q-110 0 -172 46t-62 128q0 24 9 69l58 299h115l-58 -302q-7 -30 -7 -48q0 -48 32.5 -75t80.5 -27q108 0 134 133l61 319h115l-63 -325q-42 -217 -243 -217z" />
<glyph unicode="&#xf7fa;" horiz-adv-x="630" d="M391 594h-61l108 147h108zM294 -9q-110 0 -172 46t-62 128q0 24 9 69l58 299h115l-58 -302q-7 -30 -7 -48q0 -48 32.5 -75t80.5 -27q108 0 134 133l61 319h115l-63 -325q-42 -217 -243 -217z" />
<glyph unicode="&#xf7fb;" horiz-adv-x="630" d="M508 594h-73l-52 88l-86 -88h-69l118 147h100zM294 -9q-110 0 -172 46t-62 128q0 24 9 69l58 299h115l-58 -302q-7 -30 -7 -48q0 -48 32.5 -75t80.5 -27q108 0 134 133l61 319h115l-63 -325q-42 -217 -243 -217z" />
<glyph unicode="&#xf7fc;" horiz-adv-x="630" d="M294 -9q-110 0 -172 46t-62 128q0 24 9 69l58 299h115l-58 -299q-7 -30 -7 -51q0 -48 32.5 -75t80.5 -27q108 0 134 133l61 319h115l-63 -325q-42 -217 -243 -217zM420 617l20 103h104l-20 -103h-104zM225 617l20 103h104l-20 -103h-104z" />
<glyph unicode="&#xf7fd;" horiz-adv-x="464" d="M235 0l34 176l255 357h-120l-171 -252h-4l-73 252h-116l114 -357l-34 -176h115zM324 594h-61l108 147h108z" />
<glyph unicode="&#xf7fe;" horiz-adv-x="518" d="M257 362q-22 0 -42 -4l-34 -177q14 -4 46 -4q61 0 96 29t35 75q0 35 -26.5 58t-74.5 23zM225 89q-12 0 -36 2t-25 2l-19 -93h-115l104 533h115l-16 -85h38q100 0 153.5 -47t53.5 -114q0 -198 -253 -198z" />
<glyph unicode="&#xf7ff;" horiz-adv-x="464" d="M236 0l34 176l254 357h-120l-170 -252h-4l-73 252h-117l115 -357l-34 -176h115zM347 617l20 103h104l-20 -103h-104zM152 617l20 103h104l-20 -103h-104z" />
<glyph unicode="&#xfe6b;" horiz-adv-x="680" d="M282 -10q-100 0 -166 61.5t-66 154.5q0 125 106.5 225.5t266.5 100.5q59 0 104.5 -17.5t71 -45.5t38.5 -59.5t13 -63.5q0 -96 -58.5 -154t-127.5 -58t-69 55q0 2 0.5 4.5t0.5 3.5h-3q-7 -11 -18 -23.5t-35 -25.5t-50 -13q-37 0 -58.5 23t-21.5 67q0 74 60.5 130.5 t149.5 56.5q49 0 85 -12q-65 -172 -65 -173q-11 -25 -11 -37q0 -25 31 -25q49 0 85.5 55t36.5 129q0 61 -44.5 107t-120.5 46q-70 0 -137.5 -35.5t-114.5 -106t-47 -158.5q0 -77 48 -127.5t130 -50.5q68 0 126 29v-38q-54 -25 -140 -25zM398 362q-40 0 -78.5 -42.5 t-38.5 -97.5q0 -41 32 -41q44 0 76 86q32 85 33 90q-10 5 -24 5z" />
<glyph horiz-adv-x="590" d="M248 533l-103 -533h-115l103 533h115zM373 161l72 372h115q-60 -309 -72 -369q-33 -172 -200 -172q-54 0 -78 7l18 92q18 -9 56 -9q42 0 61.5 20.5t27.5 58.5z" />
<glyph horiz-adv-x="298" d="M155 0l103 533h-115l-103 -533h115zM156 617l20 103h104l-20 -103h-104z" />
<glyph horiz-adv-x="278" d="M289 726h70q-10 -49 -49.5 -88.5t-107.5 -39.5q-47 0 -73 23.5t-30.5 50.5t0.5 54h69q-4 -21 6 -41.5t43 -20.5q32 0 50 20t22 42zM145 0l103 533h-115l-103 -533h115z" />
<glyph horiz-adv-x="278" d="M248 533l-103 -533h-115l103 533h115zM329 674l-17 -85h-221l17 85h221z" />
<glyph horiz-adv-x="278" d="M0 -154q1 36 20 74.5t38 59.5l18 20h-37l103 533h115l-103 -533q-58 -80 -58 -123q0 -19 9.5 -28t34.5 -9q13 0 39 8l-13 -65q-42 -14 -79 -14q-30 0 -58.5 18t-28.5 59z" />
<glyph horiz-adv-x="298" d="M156 0l103 533h-115l-103 -533h115zM62 605l-22 51q63 63 119 63q40 0 77.5 -24t66.5 -24q36 0 73 33l23 -50q-61 -64 -120 -64q-41 0 -77.5 24t-67.5 24q-38 0 -72 -33z" />
<glyph horiz-adv-x="492" d="M182 0h-112l139 717h112l-84 -432l201 209h132l-227 -226l149 -268h-140l-122 250zM180 -169l22 114h116l-19 -96q-10 -53 -44.5 -90.5t-77.5 -56.5l-15 22q62 36 73 107h-55z" />
<glyph horiz-adv-x="781" d="M476 432l-48 -249h-148l185 249h11zM685 0l17 88h-176l27 143h151l17 84h-151l25 130h169l17 88h-357l-414 -533h126l81 103h196l-20 -103h292zM598 594h-60l108 147h108z" />
<glyph horiz-adv-x="477" d="M407 594h-60l108 147h108zM507 517l-38 -93q-52 26 -113 26q-82 0 -137 -59t-55 -159q0 -67 44.5 -109.5t119.5 -42.5q41 0 81 23v-92q-47 -21 -102 -21q-127 0 -197 71t-70 178q0 77 27 136.5t72.5 95t101.5 53t118 17.5q94 0 148 -24z" />
<glyph horiz-adv-x="477" d="M257 741h69l51 -88l87 88h74l-118 -147h-100zM507 517l-38 -93q-52 26 -113 26q-82 0 -137 -59t-55 -159q0 -67 44.5 -109.5t119.5 -42.5q41 0 81 23v-92q-47 -21 -102 -21q-127 0 -197 71t-70 178q0 77 27 136.5t72.5 95t101.5 53t118 17.5q94 0 148 -24z" />
<glyph horiz-adv-x="477" d="M514 594h-68l-51 88l-87 -88h-74l118 147h100zM507 517l-38 -93q-52 26 -113 26q-82 0 -137 -59t-55 -159q0 -67 44.5 -109.5t119.5 -42.5q41 0 81 23v-92q-47 -21 -102 -21q-127 0 -197 71t-70 178q0 77 27 136.5t72.5 95t101.5 53t118 17.5q94 0 148 -24z" />
<glyph horiz-adv-x="487" d="M507 517l-38 -93q-52 26 -113 26q-82 0 -137 -59t-55 -159q0 -67 44.5 -109.5t119.5 -42.5q41 0 81 23v-92q-47 -21 -102 -21q-127 0 -197 71t-70 178q0 77 27 136.5t72.5 95t101.5 53t118 17.5q94 0 148 -24zM311 617l20 103h104l-20 -103h-104z" />
<glyph horiz-adv-x="605" d="M212 741h69l51 -88l87 88h74l-118 -147h-100zM230 440l-68 -348q27 -5 64 -5q107 0 162 62t55 153q0 63 -39 103t-108 40q-24 0 -66 -5zM30 0l103 533h183q129 0 189 -68t60 -168q0 -53 -19.5 -104t-57 -95t-103 -71t-147.5 -27h-208z" />
<glyph horiz-adv-x="615" d="M199 231l-27 -139q28 -5 64 -5q107 0 162 62t55 153q0 63 -39 103t-108 40q-24 0 -66 -5l-24 -125h102l-17 -84h-102zM40 0l45 231h-61l17 84h60l42 218h183q129 0 189 -68t60 -168q0 -53 -19.5 -104t-57 -95t-103 -71t-147.5 -27h-208z" />
<glyph horiz-adv-x="429" d="M369 722h70q-9 -49 -49 -88.5t-108 -39.5q-47 0 -73 23.5t-30.5 50.5t0.5 54h69q-4 -21 6 -41.5t43 -20.5q32 0 50 20t22 42zM343 0l17 88h-197l27 143h172l17 84h-172l25 130h190l17 88h-306l-103 -533h313z" />
<glyph horiz-adv-x="418" d="M203 741h69l51 -88l87 88h74l-118 -147h-100zM353 0l17 88h-197l27 143h172l17 84h-172l25 130h190l17 88h-306l-103 -533h313z" />
<glyph horiz-adv-x="449" d="M353 0l17 88h-197l27 143h172l17 84h-172l25 130h190l17 88h-306l-103 -533h313zM259 617l20 103h104l-20 -103h-104z" />
<glyph horiz-adv-x="429" d="M432 708l-17 -85h-221l17 85h221zM360 88l-17 -88h-313l103 533h306l-17 -88h-190l-25 -130h172l-17 -84h-172l-27 -143h197z" />
<glyph horiz-adv-x="429" d="M269 0h-239l103 533h306l-18 -88h-190l-25 -129h173l-17 -84h-172l-28 -144h197l-17 -88q-1 -1 -8.5 -11t-13 -17.5t-14.5 -21t-15.5 -25t-12.5 -25t-9.5 -27t-3.5 -24.5q0 -36 44 -36q10 0 38 7l-12 -65q-42 -13 -80 -13q-87 0 -87 76q0 34 22 75.5t36.5 58.5t42.5 48z " />
<glyph horiz-adv-x="576" d="M486 722h70q-9 -49 -48.5 -88.5t-108.5 -39.5q-57 0 -81.5 30t-24.5 71q0 15 3 27h69q-1 -4 -1 -13q0 -49 50 -49q32 0 50 20t22 42zM470 27q-67 -37 -163 -37q-121 0 -194 68.5t-73 171.5q0 82 30.5 144.5t80 97.5t105.5 52t114 17q121 0 186 -26l-39 -97q-7 4 -25.5 11 t-55.5 14t-74 7q-80 0 -139 -55t-59 -161q0 -68 43 -111t111 -43q35 0 49 7l19 102h-79l17 84h194z" />
<glyph horiz-adv-x="576" d="M530 594h-68l-51 88l-87 -88h-74l118 147h100zM470 27q-67 -37 -163 -37q-121 0 -194 68.5t-73 171.5q0 82 30.5 144.5t80 97.5t105.5 52t114 17q121 0 186 -26l-39 -97q-7 4 -25.5 11t-55.5 14t-74 7q-80 0 -139 -55t-59 -161q0 -68 43 -111t111 -43q35 0 49 7l19 102 h-79l17 84h194z" />
<glyph horiz-adv-x="576" d="M221 -169l22 114h116l-19 -96q-10 -53 -44.5 -90.5t-77.5 -56.5l-15 22q62 36 73 107h-55zM470 27q-67 -37 -163 -37q-121 0 -194 68.5t-73 171.5q0 82 30.5 144.5t80 97.5t105.5 52t114 17q121 0 186 -26l-39 -97q-7 4 -25.5 11t-55.5 14t-74 7q-80 0 -139 -55t-59 -161 q0 -68 43 -111t111 -43q35 0 49 7l19 102h-79l17 84h194z" />
<glyph horiz-adv-x="576" d="M329 617l20 103h104l-20 -103h-104zM470 27q-67 -37 -163 -37q-121 0 -194 68.5t-73 171.5q0 82 30.5 144.5t80 97.5t105.5 52t114 17q121 0 186 -26l-39 -97q-7 4 -25.5 11t-55.5 14t-74 7q-80 0 -139 -55t-59 -161q0 -68 43 -111t111 -43q35 0 49 7l19 102h-79l17 84 h194z" />
<glyph horiz-adv-x="577" d="M100 387l15 78h41l13 68h115l-13 -68h215l13 68h115l-13 -68h41l-15 -78h-41l-75 -387h-115l41 216h-215l-41 -216h-115l75 387h-41zM238 300h215l18 87h-215z" />
<glyph horiz-adv-x="608" d="M510 594h-68l-51 88l-87 -88h-74l118 147h100zM463 533h115l-103 -533h-115l45 232h-215l-45 -232h-115l103 533h115l-42 -217h215z" />
<glyph horiz-adv-x="340" d="M404 594h-68l-51 88l-87 -88h-74l118 147h100zM124 160l72 373h115q-60 -310 -72 -371q-15 -74 -66 -123t-135 -49q-50 0 -78 8l18 91q32 -8 56 -8q37 0 60 21.5t30 57.5z" />
<glyph horiz-adv-x="488" d="M453 0h-137l-124 242l-47 -242h-115l103 533h115l-45 -230l220 230h125l-249 -257zM150 -169l22 114h116l-19 -96q-10 -53 -44.5 -90.5t-77.5 -56.5l-15 22q62 36 73 107h-55z" />
<glyph horiz-adv-x="484" d="M483 0h-137l-124 242l-47 -242h-115l103 533h115l-45 -230l220 230h125l-249 -257z" />
<glyph horiz-adv-x="484" d="M483 0h-137l-124 242l-47 -242h-115l103 533h115l-45 -230l220 230h125l-249 -257zM174 -169l22 114h116l-19 -96q-10 -53 -44.5 -90.5t-77.5 -56.5l-15 22q62 36 73 107h-55z" />
<glyph horiz-adv-x="387" d="M238 594h-60l108 147h108zM347 88l-17 -88h-300l103 533h116l-86 -445h184z" />
<glyph horiz-adv-x="464" d="M347 87l-17 -87h-300l103 533h116l-86 -446h184zM346 419l22 114h116l-19 -96q-10 -53 -44.5 -90.5t-77.5 -56.5l-15 22q62 36 73 107h-55z" />
<glyph horiz-adv-x="387" d="M347 87l-17 -87h-300l103 533h116l-86 -446h184zM98 -169l22 114h116l-19 -96q-10 -53 -44.5 -90.5t-77.5 -56.5l-15 22q62 36 73 107h-55z" />
<glyph horiz-adv-x="397" d="M347 87l-17 -87h-300l103 533h116l-86 -446h184zM283 258l20 103h104l-20 -103h-104z" />
<glyph horiz-adv-x="598" d="M588 0h-145l-181 330l-64 -330h-118l131 674h118l-61 -312l306 312h135l-321 -325zM225 -169l22 114h116l-19 -96q-10 -53 -44.5 -90.5t-77.5 -56.5l-15 22q62 36 73 107h-55z" />
<glyph horiz-adv-x="647" d="M436 594h-60l108 147h108zM135 0h-105l103 533h172l123 -408h4l79 408h106l-103 -533h-169l-126 416h-4z" />
<glyph horiz-adv-x="647" d="M294 741h74l51 -88l87 88h69l-118 -147h-100zM30 0h105l80 416h4l126 -416h169l103 533h-106l-79 -408h-4l-123 408h-172z" />
<glyph horiz-adv-x="647" d="M135 0h-105l103 533h172l123 -408h4l79 408h106l-103 -533h-169l-126 416h-4zM162 -169l22 114h116l-19 -96q-10 -53 -44.5 -90.5t-77.5 -56.5l-15 22q62 36 73 107h-55z" />
<glyph horiz-adv-x="633" d="M468 722h70q-9 -49 -48.5 -88.5t-108.5 -39.5q-57 0 -81.5 30t-24.5 71q0 15 3 27h69q-1 -4 -1 -13q0 -49 50 -49q32 0 50 20t22 42zM357 541q-71 0 -127 -21t-91 -54.5t-58 -77.5t-32 -86.5t-9 -86.5q0 -98 64 -161.5t173 -63.5q81 0 143.5 28t99 74.5t55 103 t18.5 119.5q0 95 -63 160.5t-173 65.5zM295 80q-65 0 -97.5 41t-32.5 103q0 95 48 160.5t130 65.5q58 0 91 -41.5t33 -103.5q0 -52 -16 -101t-57 -86.5t-99 -37.5z" />
<glyph horiz-adv-x="633" d="M275 594h-61l109 147h107zM436 594h-60l108 147h108zM357 541q-71 0 -127 -21t-91 -54.5t-58 -77.5t-32 -86.5t-9 -86.5q0 -98 64 -161.5t173 -63.5q81 0 143.5 28t99 74.5t55 103t18.5 119.5q0 95 -63 160.5t-173 65.5zM295 80q-65 0 -97.5 41t-32.5 103q0 95 48 160.5 t130 65.5q58 0 91 -41.5t33 -103.5q0 -52 -16 -101t-57 -86.5t-99 -37.5z" />
<glyph horiz-adv-x="633" d="M515 710l-16 -85h-221l16 85h221zM357 541q-71 0 -127 -21t-91 -54.5t-58 -77.5t-32 -86.5t-9 -86.5q0 -98 64 -161.5t173 -63.5q81 0 143.5 28t99 74.5t55 103t18.5 119.5q0 95 -63 160.5t-173 65.5zM295 80q-65 0 -97.5 41t-32.5 103q0 95 48 160.5t130 65.5 q58 0 91 -41.5t33 -103.5q0 -52 -16 -101t-57 -86.5t-99 -37.5z" />
<glyph horiz-adv-x="633" d="M374 594h-60l108 147h108zM494 505q47 -30 73 -80t26 -109q0 -63 -18.5 -119.5t-55.5 -103.5t-99.5 -75t-142.5 -28q-38 0 -76 10l-53 -90l-72 23l57 98q-93 62 -93 185q0 43 9 86t32 87t58 77.5t91 54.5t127 21q31 0 67 -9l47 82l73 -24zM342 451q-81 0 -129 -65.5 t-48 -160.5q0 -58 27 -97l185 318q-17 5 -35 5zM294 81q59 0 100 37.5t57 86.5t16 101q0 64 -33 103l-187 -321q25 -7 47 -7z" />
<glyph horiz-adv-x="510" d="M309 594h-60l108 147h108zM294 450q-34 0 -62 -4l-29 -150q28 -4 60 -4q51 0 82.5 23t31.5 64q0 30 -21 50.5t-62 20.5zM257 210h-71l-41 -210h-115l104 533h177q94 0 141.5 -43t47.5 -106q0 -35 -13 -63.5t-28.5 -44t-38 -28t-32.5 -15.5t-21 -6l79 -227h-119z" />
<glyph horiz-adv-x="510" d="M196 741h69l51 -88l87 88h74l-118 -147h-100zM294 450q-34 0 -62 -4l-29 -150q28 -4 60 -4q51 0 82.5 23t31.5 64q0 30 -21 50.5t-62 20.5zM257 210h-71l-41 -210h-115l104 533h177q94 0 141.5 -43t47.5 -106q0 -35 -13 -63.5t-28.5 -44t-38 -28t-32.5 -15.5t-21 -6 l79 -227h-119z" />
<glyph horiz-adv-x="510" d="M150 -169l22 114h116l-19 -96q-10 -53 -44.5 -90.5t-77.5 -56.5l-15 22q62 36 73 107h-55zM294 450q-34 0 -62 -4l-29 -150q28 -4 60 -4q51 0 82.5 23t31.5 64q0 30 -21 50.5t-62 20.5zM257 210h-71l-41 -210h-115l104 532h177q94 0 141.5 -42.5t47.5 -105.5 q0 -35 -13 -63.5t-28.5 -44t-38 -28t-32.5 -15.5t-21 -6l79 -227h-119z" />
<glyph horiz-adv-x="540" d="M304 450q-34 0 -62 -4l-29 -150q28 -4 60 -4q51 0 82.5 23t31.5 64q0 30 -21 50.5t-62 20.5zM267 210h-71l-41 -210h-115l104 533h177q94 0 141.5 -43t47.5 -106q0 -35 -13 -63.5t-28.5 -44t-38 -28t-32.5 -15.5t-21 -6l79 -227h-119z" />
<glyph horiz-adv-x="540" d="M328 594h-60l108 147h108zM304 450q-34 0 -62 -4l-29 -150q28 -4 60 -4q51 0 82.5 23t31.5 64q0 30 -21 50.5t-62 20.5zM267 210h-71l-41 -210h-115l104 533h177q94 0 141.5 -43t47.5 -106q0 -35 -13 -63.5t-28.5 -44t-38 -28t-32.5 -15.5t-21 -6l79 -227h-119z" />
<glyph horiz-adv-x="540" d="M213 741h69l51 -88l87 88h74l-118 -147h-100zM304 450q-34 0 -62 -4l-29 -150q28 -4 60 -4q51 0 82.5 23t31.5 64q0 30 -21 50.5t-62 20.5zM267 210h-71l-41 -210h-115l104 533h177q94 0 141.5 -43t47.5 -106q0 -35 -13 -63.5t-28.5 -44t-38 -28t-32.5 -15.5t-21 -6 l79 -227h-119z" />
<glyph horiz-adv-x="540" d="M157 -169l22 114h116l-19 -96q-10 -53 -44.5 -90.5t-77.5 -56.5l-15 22q62 36 73 107h-55zM304 450q-34 0 -62 -4l-29 -150q28 -4 60 -4q51 0 82.5 23t31.5 64q0 30 -21 50.5t-62 20.5zM267 210h-71l-41 -210h-115l104 533h177q94 0 141.5 -43t47.5 -106q0 -35 -13 -63.5 t-28.5 -44t-38 -28t-32.5 -15.5t-21 -6l79 -227h-119z" />
<glyph horiz-adv-x="409" d="M280 594h-60l108 147h108zM409 521l-31 -90q-57 19 -102 19q-98 0 -98 -66q0 -35 54 -60l39 -18q35 -17 61 -51.5t26 -79.5q0 -86 -64 -135.5t-170 -49.5q-38 0 -83.5 7t-60.5 12l30 88q47 -17 107 -17q113 0 113 74q0 39 -59 66l-31 15q-34 16 -60.5 49t-26.5 79 q0 88 60 132.5t167 44.5q84 0 129 -19z" />
<glyph horiz-adv-x="409" d="M276 452q-98 0 -98 -65q0 -35 54 -61l39 -18q35 -17 61 -51t26 -80q0 -85 -62 -134t-165 -51l-23 -31q15 5 28 5q28 0 43.5 -16t15.5 -42q0 -49 -54 -94.5t-111 -52.5l-20 38q41 7 76 33t35 57q0 33 -46 33h-31l34 72q-65 6 -98 17l30 88q48 -16 107 -16q113 0 113 73 q0 39 -59 66l-31 15q-33 16 -59.5 49t-26.5 79q0 89 59.5 133t166.5 44q82 0 130 -19l-32 -90q-38 19 -102 19z" />
<glyph horiz-adv-x="409" d="M438 594h-68l-51 88l-87 -88h-74l118 147h100zM409 521l-31 -90q-57 19 -102 19q-98 0 -98 -66q0 -35 54 -60l39 -18q35 -17 61 -51.5t26 -79.5q0 -86 -64 -135.5t-170 -49.5q-38 0 -83.5 7t-60.5 12l30 88q47 -17 107 -17q113 0 113 74q0 39 -59 66l-31 15 q-34 16 -60.5 49t-26.5 79q0 88 60 132.5t167 44.5q84 0 129 -19z" />
<glyph horiz-adv-x="409" d="M409 521l-31 -90q-57 19 -102 19q-98 0 -98 -66q0 -35 54 -60l39 -18q35 -17 61 -51.5t26 -79.5q0 -86 -64 -135.5t-170 -49.5q-38 0 -83.5 7t-60.5 12l30 88q47 -17 107 -17q113 0 113 74q0 39 -59 66l-31 15q-34 16 -60.5 49t-26.5 79q0 88 60 132.5t167 44.5 q84 0 129 -19zM47 -169l22 114h116l-19 -96q-10 -53 -44.5 -90.5t-77.5 -56.5l-15 22q62 36 73 107h-55z" />
<glyph horiz-adv-x="420" d="M354 741h74l-119 -147h-99l-63 147h69l53 -88zM57 533h403l-17 -88h-144l-86 -445h-116l86 445h-143z" />
<glyph horiz-adv-x="420" d="M-5 212l17 88h143l28 145h-143l17 88h403l-17 -88h-144l-28 -145h144l-17 -88h-144l-41 -212h-116l41 212h-143z" />
<glyph horiz-adv-x="420" d="M57 533h403l-17 -88h-144l-86 -445h-116l86 445h-143zM66 -169l22 114h116l-19 -96q-10 -53 -44.5 -90.5t-77.5 -56.5l-15 22q62 36 73 107h-55z" />
<glyph horiz-adv-x="630" d="M462 722h70q-9 -49 -48.5 -88.5t-108.5 -39.5q-47 0 -73 23.5t-30.5 50.5t0.5 54h69q-4 -21 6 -41.5t43 -20.5q32 0 50 20t22 42zM294 -9q-110 0 -172 46t-62 128q0 24 9 69l58 299h115l-58 -302q-7 -30 -7 -48q0 -48 32.5 -75t80.5 -27q108 0 134 133l61 319h115 l-63 -325q-42 -217 -243 -217z" />
<glyph horiz-adv-x="630" d="M283 594h-61l109 147h107zM444 594h-60l108 147h108zM294 -9q-110 0 -172 46t-62 128q0 24 9 69l58 299h115l-58 -302q-7 -30 -7 -48q0 -48 32.5 -75t80.5 -27q108 0 134 133l61 319h115l-63 -325q-42 -217 -243 -217z" />
<glyph horiz-adv-x="630" d="M509 712l-17 -85h-221l17 85h221zM294 -9q-110 0 -172 46t-62 128q0 24 9 69l58 299h115l-58 -302q-7 -30 -7 -48q0 -48 32.5 -75t80.5 -27q108 0 134 133l61 319h115l-63 -325q-42 -217 -243 -217z" />
<glyph horiz-adv-x="630" d="M485 533h115l-63 -325q-39 -202 -215 -216q-71 -91 -71 -143q0 -36 44 -36q10 0 38 7l-12 -65q-42 -13 -80 -13q-87 0 -87 76q0 70 94 175q-90 10 -139 55t-49 118q0 9 8 69l59 298h115l-58 -302q-7 -28 -7 -47q0 -48 32.5 -75t80.5 -27q108 0 133 132z" />
<glyph horiz-adv-x="630" d="M294 -9q-110 0 -172 46t-62 128q0 24 9 69l58 299h115l-58 -302q-7 -30 -7 -48q0 -48 32.5 -75t80.5 -27q108 0 134 133l61 319h115l-63 -325q-42 -217 -243 -217zM383 564q-51 0 -74.5 26.5t-23.5 64.5q0 41 30.5 72t73.5 31q50 0 74 -26t24 -64q0 -43 -31 -73.5 t-73 -30.5zM389 704q-20 0 -33 -14t-13 -32q0 -16 10 -27.5t31 -11.5q19 0 32 14t13 31q0 40 -40 40z" />
<glyph horiz-adv-x="650" d="M252 616l-23 51q63 63 121 63q40 0 77 -24t66 -24q38 0 74 34l22 -51q-61 -64 -119 -64q-41 0 -78 24t-68 24q-36 0 -72 -33zM304 -9q-110 0 -172 46t-62 128q0 24 9 69l58 299h115l-58 -302q-7 -30 -7 -48q0 -48 32.5 -75t80.5 -27q108 0 134 133l61 319h115l-63 -325 q-42 -217 -243 -217z" />
<glyph horiz-adv-x="785" d="M480 594h-60l108 147h108zM89 0l-39 533h119l27 -368h4l176 368h135l39 -368h4l167 368h114l-239 -533h-146l-37 377h-4l-179 -377h-141z" />
<glyph horiz-adv-x="785" d="M601 594h-73l-51 88l-87 -88h-69l118 147h100zM50 533l39 -533h141l179 377h4l37 -377h146l239 533h-114l-167 -368h-4l-39 368h-135l-176 -368h-4l-27 368h-119z" />
<glyph horiz-adv-x="785" d="M89 0l-39 533h119l27 -368h4l176 368h135l39 -368h4l167 368h114l-239 -533h-146l-37 377h-4l-179 -377h-141zM507 617l20 103h104l-20 -103h-104zM312 617l20 103h104l-20 -103h-104z" />
<glyph horiz-adv-x="785" d="M490 594h-60l-100 147h108zM50 533l39 -533h141l179 377h4l37 -377h146l239 533h-114l-167 -368h-4l-39 368h-135l-176 -368h-4l-27 368h-119z" />
<glyph horiz-adv-x="464" d="M435 594h-68l-56 88l-82 -88h-74l118 147h100zM235 0l34 176l255 357h-120l-171 -252h-4l-73 252h-116l114 -357l-34 -176h115z" />
<glyph horiz-adv-x="464" d="M327 594h-60l-100 147h108zM235 0l34 176l255 357h-120l-171 -252h-4l-73 252h-116l114 -357l-34 -176h115z" />
<glyph horiz-adv-x="411" d="M273 594h-60l108 147h108zM-30 0l15 82l307 369h-229l16 82h362l-16 -82l-308 -369h243l-15 -82h-375z" />
<glyph horiz-adv-x="411" d="M-30 0l15 82l307 369h-229l16 82h362l-16 -82l-308 -369h243l-15 -82h-375zM224 617l20 103h104l-20 -103h-104z" />
<glyph horiz-adv-x="523" d="M67 0h-127l310 533h135l97 -533h-116l-18 103h-222zM336 183l-38 233h-4l-126 -233h168zM413 720h70q-9 -49 -49 -88.5t-108 -39.5q-47 0 -73 23.5t-30.5 50.5t0.5 54h69q-4 -21 6 -41.5t43 -20.5q32 0 50 20t22 42z" />
<glyph horiz-adv-x="523" d="M336 183l-37 234h-4l-127 -234h168zM459 -152l-13 -65q-35 -14 -79 -14t-65.5 22t-21.5 56q0 43 33 90t53 63l-17 103h-223l-59 -103h-127l307 533h139l97 -533h-50q-2 -3 -11 -16t-15.5 -23.5t-14.5 -25.5t-12 -30t-4 -28q1 -17 12 -27t30 -10q24 2 41 8z" />
<glyph horiz-adv-x="523" d="M67 0h-127l307 533h139l97 -533h-117l-17 103h-223zM336 183l-37 234h-4l-127 -234h168zM459 704l-17 -85h-221l17 85h221z" />
<glyph horiz-adv-x="329" d="M63 0h-103l306 533h103z" />
<glyph horiz-adv-x="836" d="M314 0h-105l103 533h172l123 -408h4l79 408h106l-103 -533h-169l-126 416h-4zM68 419l22 114h116l-19 -96q-10 -53 -44.5 -90.5t-77.5 -56.5l-15 22q62 36 73 107h-55z" />
<glyph horiz-adv-x="421" d="M198 413l-22 -114h-116l19 96q10 53 44.5 90.5t77.5 56.5l15 -22q-62 -36 -73 -107h55zM403 413l-22 -114h-116l19 96q10 53 45 90.5t78 56.5l14 -22q-62 -36 -73 -107h55z" />
<glyph horiz-adv-x="421" d="M283 419l22 114h116l-18 -96q-10 -53 -45 -90.5t-78 -56.5l-15 22q64 36 73 107h-55zM78 419l22 114h116l-18 -96q-10 -53 -45 -90.5t-78 -56.5l-15 22q64 36 73 107h-55z" />
<glyph horiz-adv-x="216" d="M198 414l-22 -114h-116l19 96q10 53 44.5 90.5t77.5 56.5l15 -22q-62 -36 -73 -107h55z" />
<glyph horiz-adv-x="216" d="M78 419l22 114h116l-19 -96q-10 -53 -44.5 -90.5t-77.5 -56.5l-15 22q62 36 73 107h-55z" />
<glyph horiz-adv-x="225" d="M100 320l15 213h110l-67 -213h-58z" />
<glyph horiz-adv-x="335" d="M229 320l15 213h111l-67 -213h-59zM80 320l15 213h111l-67 -213h-59z" />
</font>
</defs>
</svg>
